<svg width="430" height="836" viewBox="0 0 430 836" fill="none" xmlns="http://www.w3.org/2000/svg">
<line y1="8.5" x2="428" y2="8.5" stroke="black" stroke-opacity="0.09"/>
<line y1="62.5" x2="428" y2="62.5" stroke="black" stroke-opacity="0.09"/>
<line y1="116.5" x2="428" y2="116.5" stroke="black" stroke-opacity="0.09"/>
<line y1="170.5" x2="428" y2="170.5" stroke="black" stroke-opacity="0.09"/>
<line y1="224.5" x2="428" y2="224.5" stroke="black" stroke-opacity="0.09"/>
<line y1="278.5" x2="428" y2="278.5" stroke="black" stroke-opacity="0.09"/>
<line y1="332.5" x2="428" y2="332.5" stroke="black" stroke-opacity="0.09"/>
<line y1="386.5" x2="428" y2="386.5" stroke="black" stroke-opacity="0.09"/>
<line y1="440.5" x2="428" y2="440.5" stroke="black" stroke-opacity="0.09"/>
<line y1="494.5" x2="428" y2="494.5" stroke="black" stroke-opacity="0.09"/>
<line y1="548.5" x2="428" y2="548.5" stroke="black" stroke-opacity="0.09"/>
<line y1="602.5" x2="428" y2="602.5" stroke="black" stroke-opacity="0.09"/>
<line y1="656.5" x2="428" y2="656.5" stroke="black" stroke-opacity="0.09"/>
<line y1="710.5" x2="428" y2="710.5" stroke="black" stroke-opacity="0.09"/>
<line y1="764.5" x2="428" y2="764.5" stroke="black" stroke-opacity="0.09"/>
<line y1="818.5" x2="428" y2="818.5" stroke="black" stroke-opacity="0.09"/>
<line x1="53.5" y1="836" x2="53.5" stroke="black" stroke-opacity="0.09"/>
<line x1="107.5" y1="836" x2="107.5" stroke="black" stroke-opacity="0.09"/>
<line x1="161.5" y1="836" x2="161.5" stroke="black" stroke-opacity="0.09"/>
<line x1="215.5" y1="836" x2="215.5" stroke="black" stroke-opacity="0.09"/>
<line x1="269.5" y1="836" x2="269.5" stroke="black" stroke-opacity="0.09"/>
<line x1="323.5" y1="836" x2="323.5" stroke="black" stroke-opacity="0.09"/>
<line x1="377.5" y1="836" x2="377.5" stroke="black" stroke-opacity="0.09"/>
</svg>
