<!DOCTYPE svg PUBLIC "-//W3C//DTD SVG 1.1//EN" "http://www.w3.org/Graphics/SVG/1.1/DTD/svg11.dtd">
<!-- Uploaded to: SVG Repo, www.svgrepo.com, Transformed by: SVG Repo Mixer Tools -->
<svg height="64px" width="64px" version="1.1" id="Layer_1" xmlns="http://www.w3.org/2000/svg" xmlns:xlink="http://www.w3.org/1999/xlink" viewBox="0 0 512 512" xml:space="preserve" fill="#000000">
<g id="SVGRepo_bgCarrier" stroke-width="0"/>
<g id="SVGRepo_tracerCarrier" stroke-linecap="round" stroke-linejoin="round"/>
<g id="SVGRepo_iconCarrier"> <path d="M256,0C128.939,0,25.6,103.339,25.6,230.4c0,2.56,0,68.267,0,68.267C25.6,416.341,128.939,512,256,512 s230.4-95.659,230.4-213.333c0,0,0-65.707,0-68.267C486.4,103.339,383.061,0,256,0z M76.8,375.467v29.525 c-17.493-24.832-29.013-53.504-32.768-84.309c8.448,19.712,19.541,37.973,32.853,54.443C76.885,375.211,76.8,375.381,76.8,375.467z M119.467,449.365c-9.216-7.083-17.749-14.933-25.6-23.296v-32.171c8.021,7.936,16.555,15.275,25.6,21.931V449.365z M162.133,474.88 c-9.131-4.096-17.835-8.789-26.197-14.08h0.597v-33.451c8.192,5.035,16.811,9.472,25.6,13.397V474.88z M204.8,489.216 c-8.789-2.048-17.323-4.523-25.6-7.509v-34.133c8.363,2.987,16.896,5.461,25.6,7.424V489.216z M247.467,494.763 c-8.704-0.341-17.237-1.109-25.6-2.389V458.24c8.363,1.28,16.981,2.048,25.6,2.389V494.763z M290.133,492.373 c-8.363,1.28-16.896,2.048-25.6,2.389v-34.133c8.619-0.341,17.237-1.109,25.6-2.389V492.373z M332.8,481.707 c-8.277,2.987-16.811,5.461-25.6,7.509v-34.219c8.704-1.963,17.237-4.437,25.6-7.424V481.707z M349.867,474.88v-34.133 c8.789-3.925,17.408-8.363,25.6-13.397V460.8h0.597C367.701,466.091,358.997,470.784,349.867,474.88z M418.133,426.069 c-7.851,8.363-16.384,16.213-25.6,23.296v-33.536c9.045-6.656,17.579-13.995,25.6-21.931V426.069z M435.2,404.992v-29.525 c0-0.085-0.085-0.256-0.085-0.341c13.312-16.469,24.405-34.731,32.853-54.443C464.213,351.488,452.693,380.16,435.2,404.992z M256,443.051c-117.248,0-212.651-95.403-212.651-212.651S138.752,17.749,256,17.749S468.651,113.152,468.651,230.4 S373.248,443.051,256,443.051z"/> <g> <path style="fill:#F9A825;" d="M76.885,375.125c0,0.085-0.085,0.256-0.085,0.341v29.525 c-17.493-24.832-29.013-53.504-32.768-84.309C52.48,340.395,63.573,358.656,76.885,375.125z"/> <path style="fill:#F9A825;" d="M119.467,415.829v33.536c-9.216-7.083-17.749-14.933-25.6-23.296v-32.171 C101.888,401.835,110.421,409.173,119.467,415.829z"/> <path style="fill:#F9A825;" d="M162.133,440.747v34.133c-9.131-4.096-17.835-8.789-26.197-14.08h0.597v-33.451 C144.725,432.384,153.344,436.821,162.133,440.747z"/> <path style="fill:#F9A825;" d="M204.8,454.997v34.219c-8.789-2.048-17.323-4.523-25.6-7.509v-34.133 C187.563,450.56,196.096,453.035,204.8,454.997z"/> <path style="fill:#F9A825;" d="M247.467,460.629v34.133c-8.704-0.341-17.237-1.109-25.6-2.389V458.24 C230.229,459.52,238.848,460.288,247.467,460.629z"/> <path style="fill:#F9A825;" d="M290.133,458.24v34.133c-8.363,1.28-16.896,2.048-25.6,2.389v-34.133 C273.152,460.288,281.771,459.52,290.133,458.24z"/> <path style="fill:#F9A825;" d="M332.8,447.573v34.133c-8.277,2.987-16.811,5.461-25.6,7.509v-34.219 C315.904,453.035,324.437,450.56,332.8,447.573z"/> <path style="fill:#F9A825;" d="M376.064,460.8c-8.363,5.291-17.067,9.984-26.197,14.08v-34.133 c8.789-3.925,17.408-8.363,25.6-13.397V460.8H376.064z"/> <path style="fill:#F9A825;" d="M418.133,393.899v32.171c-7.851,8.363-16.384,16.213-25.6,23.296v-33.536 C401.579,409.173,410.112,401.835,418.133,393.899z"/> <path style="fill:#F9A825;" d="M435.2,404.992v-29.525c0-0.085-0.085-0.256-0.085-0.341c13.312-16.469,24.405-34.731,32.853-54.443 C464.213,351.488,452.693,380.16,435.2,404.992z"/> </g> <path style="fill:#FFC107;" d="M256,17.749c-117.248,0-212.651,95.403-212.651,212.651S138.752,443.051,256,443.051 S468.651,347.648,468.651,230.4S373.248,17.749,256,17.749z M256,407.637c-97.707,0-177.237-79.531-177.237-177.237 S158.293,53.163,256,53.163S433.237,132.693,433.237,230.4S353.707,407.637,256,407.637z"/> <path d="M256,53.163c-97.707,0-177.237,79.531-177.237,177.237S158.293,407.637,256,407.637S433.237,328.107,433.237,230.4 S353.707,53.163,256,53.163z M256,389.888c-87.979,0-159.488-71.509-159.488-159.488S168.021,70.912,256,70.912 S415.488,142.421,415.488,230.4S343.979,389.888,256,389.888z"/> <path style="fill:#F9A825;" d="M256,70.912c-87.979,0-159.488,71.509-159.488,159.488S168.021,389.888,256,389.888 S415.488,318.379,415.488,230.4S343.979,70.912,256,70.912z M320.853,333.141H179.2c-2.987,0-5.717-1.536-7.253-4.011 c-1.536-2.56-1.707-5.717-0.341-8.363c15.275-30.549,22.699-67.925,22.699-114.176c0-50.091,0-101.888,102.827-102.997 c0.085,0,0.085,0,0.085,0c4.693,0,8.533,3.755,8.533,8.448c0.085,4.693-3.669,8.619-8.448,8.619 c-85.931,0.939-85.931,34.731-85.931,85.931c0,5.291-0.085,10.496-0.341,15.616h62.037c4.693,0,8.533,3.84,8.533,8.533 s-3.84,8.533-8.533,8.533h-63.061c-2.389,29.013-8.192,54.357-17.493,76.8h128.341c4.693,0,8.533,3.84,8.533,8.533 S325.547,333.141,320.853,333.141z"/> <path d="M329.387,324.608c0,4.693-3.84,8.533-8.533,8.533H179.2c-2.987,0-5.717-1.536-7.253-4.011 c-1.536-2.56-1.707-5.717-0.341-8.363c15.275-30.549,22.699-67.925,22.699-114.176c0-50.091,0-101.888,102.827-102.997 c0.085,0,0.085,0,0.085,0c4.693,0,8.533,3.755,8.533,8.448c0.085,4.693-3.669,8.619-8.448,8.619 c-85.931,0.939-85.931,34.731-85.931,85.931c0,5.291-0.085,10.496-0.341,15.616h62.037c4.693,0,8.533,3.84,8.533,8.533 s-3.84,8.533-8.533,8.533h-63.061c-2.389,29.013-8.192,54.357-17.493,76.8h128.341C325.547,316.075,329.387,319.915,329.387,324.608 z"/> </g>
</svg>