<svg width="41" height="40" viewBox="0 0 41 40" fill="none" xmlns="http://www.w3.org/2000/svg">
<path d="M32.1456 15.8596L32.2884 15.3804L32.1456 15.8596C35.7247 16.9259 38.3334 20.2424 38.3334 24.1667C38.3334 28.9532 34.4533 32.8333 29.6667 32.8333H21.3334C16.5469 32.8333 12.6667 28.9532 12.6667 24.1667C12.6667 19.3801 16.5469 15.5 21.3334 15.5H22.1667C22.8111 15.5 23.3334 16.0223 23.3334 16.6667C23.3334 17.311 22.8111 17.8333 22.1667 17.8333H21.3334C17.8356 17.8333 15.0001 20.6689 15.0001 24.1667C15.0001 27.6645 17.8356 30.5 21.3334 30.5H29.6667C33.1646 30.5 36.0001 27.6645 36.0001 24.1667C36.0001 21.5231 34.3806 19.259 32.0817 18.3102C31.4328 18.0423 31.0001 17.5083 31.0001 16.9472V16.861C31.0001 16.1382 31.5984 15.6965 32.1456 15.8596Z" fill="white" stroke="white"/>
<path d="M8.91854 21.6898L8.91857 21.6899C9.56724 21.9575 10.0001 22.4917 10.0001 23.0528V23.139C10.0001 23.8618 9.40177 24.3035 8.85451 24.1405C5.27549 23.0741 2.66675 19.7576 2.66675 15.8333C2.66675 11.0468 6.54694 7.16666 11.3334 7.16666H19.6667C24.4533 7.16666 28.3334 11.0468 28.3334 15.8333C28.3334 20.6198 24.4533 24.5 19.6667 24.5H18.8334C18.1891 24.5 17.6667 23.9777 17.6667 23.3333C17.6667 22.689 18.1891 22.1667 18.8334 22.1667H19.6667C23.1646 22.1667 26.0001 19.3311 26.0001 15.8333C26.0001 12.3355 23.1646 9.49999 19.6667 9.49999H11.3334C7.8356 9.49999 5.00008 12.3355 5.00008 15.8333C5.00008 18.4769 6.61954 20.741 8.91854 21.6898Z" fill="white" stroke="white"/>
</svg>
