<svg width="60" height="60" viewBox="0 0 60 60" fill="none" xmlns="http://www.w3.org/2000/svg">
<g clip-path="url(#clip0_178_2)">
<circle cx="30" cy="30" r="29" fill="#FB0050" stroke="black" stroke-width="2"/>
<path d="M14.6608 8.74946C15.6015 10.1605 17.2496 11.1007 18.6301 12.021C20.5019 13.2689 22.307 14.6087 24.1809 15.8508C26.4651 17.3649 28.5668 19.1338 30.3985 21.169C30.7592 21.5699 32.7355 19.1197 33.1119 18.7967C34.9349 17.2326 36.8663 15.7949 38.7092 14.2538C40.2993 12.924 42.0684 11.7895 43.6088 10.4085C44.3242 9.76707 44.9174 8.98897 45.64 8.36183C46.5894 7.53779 47.5352 8.69331 48.3999 9.27663C51.0722 11.0795 53.484 13.0276 55.7493 15.3391C56.7051 16.3145 57.4051 16.7296 56.1524 17.7424C53.6519 19.7641 50.4991 20.5228 47.9037 22.3939C45.9395 23.81 44.0245 25.27 41.9032 26.4485C41.6467 26.591 41.2746 28.7909 41.4613 29.0844C42.1376 30.147 43.4292 30.9592 44.322 31.852C45.1217 32.6517 46.0008 33.2889 46.8494 34.0227C48.5355 35.481 50.4914 36.3504 52.3614 37.5191C53.8396 38.443 55.1903 39.6197 56.7416 40.3953C57.38 40.7145 56.9736 40.6034 56.416 40.9845C55.2499 41.7816 54.4881 42.9596 53.5941 44.0235C52.7187 45.0653 51.635 45.8966 50.6636 46.8454C50.0685 47.4267 49.3133 47.8231 48.7875 48.4735C48.4991 48.8302 48.0653 49.2984 48.0122 49.7759C47.9735 50.1246 47.3418 49.4009 47.2525 49.3263C46.4692 48.6711 45.6889 48.1544 44.9887 47.4036C44.1991 46.557 43.3997 45.6011 42.3916 45.0081C40.4285 43.8533 38.6807 42.3792 36.7013 41.2481C35.8416 40.7568 34.535 40.0749 33.9336 39.2479C33.7447 38.9881 33.2196 38.3369 32.887 38.527C30.8297 39.7026 28.6942 40.8113 26.8943 42.3412C25.7064 43.3509 24.4048 44.2407 23.1266 45.1321C21.6354 46.172 20.2094 47.3321 18.6611 48.2874C17.6426 48.9159 16.5915 49.4483 15.4903 49.9154C14.4986 50.3362 13.3428 50.938 12.2808 51.1403C12.1253 51.17 10.6845 48.6769 10.3349 48.3339C8.39728 46.4329 6.55784 44.4275 4.59026 42.5583C4.17126 42.1602 3.98112 42.0396 4.52824 41.7288C5.11447 41.3957 5.70154 41.0727 6.27256 40.7132C7.14707 40.1626 8.04089 39.6901 8.88517 39.0929C9.92603 38.3567 10.9264 37.6268 11.8932 36.7981C13.0151 35.8365 14.4028 35.2555 15.5291 34.2863C16.5076 33.4444 17.756 32.8002 18.6146 31.8365C18.8009 31.6274 19.8629 30.3959 19.762 30.379C18.3436 30.1426 16.774 28.673 15.8392 27.6191C15.1409 26.832 14.2293 26.3583 13.4204 25.6965C12.4716 24.9202 11.5763 24.1164 10.738 23.2157C9.58592 21.9778 8.22308 20.7977 7.25713 19.4092C6.82038 18.7814 6.37976 18.1419 5.96246 17.5021C5.67673 17.064 5.82109 16.8452 6.14077 16.3857C6.3505 16.0842 6.78174 16.0606 7.10208 15.9051C8.08361 15.4283 8.7686 14.6637 9.58289 13.9747C10.1231 13.5175 10.7599 13.3238 11.304 12.8118C11.7946 12.35 12.3664 11.8765 12.5599 11.1993C12.8048 10.342 13.502 9.85972 13.9631 9.16809" stroke="black" stroke-width="2" stroke-linecap="round"/>
<path d="M11.1454 18.5541C11.569 18.893 12.1062 19.3623 12.5633 18.7964C12.9221 18.3522 13.4474 17.9993 13.6903 17.4694C13.7665 17.3031 14.0598 16.1829 13.9569 16.0697C13.7081 15.796 12.732 16.1691 12.5269 16.3606C12.304 16.5687 11.9546 16.7177 11.6665 16.809C11.1318 16.9783 10.9725 17.2694 10.5455 17.5664C9.95841 17.9748 9.77179 17.5471 9.2306 17.4028C9.07506 17.3613 9.55039 17.3355 9.69111 17.2574C10.1711 16.9907 10.5187 16.5887 10.9212 16.2273C11.9123 15.3372 12.9131 14.4695 13.757 13.4339C13.8195 13.3571 14.6048 12.2218 14.7689 12.2766C15.6963 12.5857 16.1782 14.2246 17.2775 14.3004C17.5438 14.3188 17.9075 14.3523 18.1682 14.2943C18.6065 14.1969 17.3551 14.6758 16.9502 14.87C16.3784 15.1442 15.7978 15.5188 15.3869 16.0031C14.9159 16.5583 14.865 16.7854 14.8537 17.4876C14.8379 18.4687 14.1766 19.6448 13.0541 19.6448C12.4242 19.6448 12.0005 19.4565 11.4665 19.7478C11.1002 19.9476 10.8515 19.5462 11.2787 19.9114C11.9284 20.4667 12.6555 21.0035 13.2358 21.6322C14.283 22.7667 15.008 24.4295 16.3019 25.2921C16.6128 25.4994 16.9658 25.5724 17.3199 25.6557C17.9242 25.7979 18.4987 26.2428 18.9741 26.6252C19.359 26.9347 19.8772 27.2646 20.1496 27.6856C20.2771 27.8827 20.359 28.1003 20.5071 28.2854C20.8475 28.7109 19.9589 27.3412 19.7376 26.8433C18.9362 25.0401 18.3096 22.958 18.2409 20.9657C18.2069 19.9786 18.1009 19.1217 17.641 18.2269C16.9703 16.9216 16.1345 18.4364 16.108 19.3236C16.0833 20.1497 17.7986 20.5973 17.7986 20.1901C17.7986 19.6637 17.2133 21.1583 17.2775 21.6807C17.3215 22.039 17.4364 22.4322 17.5198 22.7896C17.5289 22.8283 17.626 23.2595 17.5077 22.9047C17.3309 22.3744 17.221 21.786 16.9502 21.2929C16.7827 20.9878 16.5959 20.9092 16.4291 21.1475C16.3738 21.2266 15.344 19.5121 16.0777 21.3899C16.4127 22.2473 16.7931 23.2153 17.8652 23.1107C19.5174 22.9495 19.456 20.4036 19.2407 19.2691C19.0771 18.4069 18.7303 17.6073 18.7862 16.712C18.8684 15.3975 20.4177 15.0998 20.8767 16.3727C21.0321 16.8034 19.7328 18.9075 19.9981 19.0085C20.3433 19.14 21.1482 18.2239 21.3857 18.0511C21.5624 17.9226 23.0067 17.2476 22.5855 18.0572C22.1874 18.8222 21.3612 19.2405 20.8767 19.9356C20.8719 19.9426 20.4018 20.644 20.6465 20.8082C21.1238 21.1284 22.3097 19.9578 22.5612 19.7478C22.9713 19.4054 23.596 18.5966 24.27 18.9055C24.7187 19.1112 22.8216 20.5699 22.6461 20.6991C21.9071 21.2429 21.1638 21.9042 20.6222 22.6502C20.401 22.955 20.0888 23.8896 20.7313 23.8984C21.8696 23.914 23.0243 23.1162 23.5126 22.1109C23.8661 21.383 24.0877 20.6192 24.7547 20.1053C25.2026 19.7602 25.6345 19.6123 26.1363 19.3781C26.4935 19.2114 26.6119 19.4838 26.5847 19.8265C26.4927 20.9853 24.5003 21.8508 23.6519 22.2988C22.7292 22.7861 21.1026 23.2187 20.901 24.4074C20.7946 25.0343 20.6605 26.0701 21.4948 26.1283C22.5798 26.204 23.222 25.6335 23.7731 24.771C24.2646 24.0017 24.7928 23.4387 25.5243 22.8805C25.9358 22.5664 26.4325 22.0303 26.9603 21.9594C27.7615 21.8518 27.8329 22.0533 27.8329 22.8138C27.8329 24.1871 27.0883 24.799 25.8939 25.3163C25.5255 25.4759 25.0281 25.5933 24.7063 25.8496C24.3058 26.1685 24.0365 26.646 23.7065 27.0311C23.3256 27.4755 23.2695 27.5887 22.7067 27.8249C22.2851 28.0019 21.7952 28.571 21.9553 29.0913C22.3485 30.3692 25.593 27.835 26.1484 27.2796C27.3717 26.0562 28.1849 24.25 29.8688 23.5106C30.4518 23.2547 31.0821 23.2401 31.6685 22.9653C32.3085 22.6653 32.8237 22.3486 33.4075 21.9594C33.8421 21.6697 34.1289 21.0913 34.474 20.6991C34.826 20.2991 35.2415 19.9636 35.6253 19.5963C36.2062 19.0403 36.8156 18.8711 37.5037 18.5056C38.3737 18.0434 39.2731 17.6345 40.1092 17.1119C41.2744 16.3837 41.8242 14.9362 42.8723 14.052C43.5361 13.4918 44.4624 12.506 45.3263 12.2402C46.0062 12.031 46.3273 11.4387 47.0048 11.9251C49.0591 13.4 51.1476 15.1226 53.4398 16.2152C53.5963 16.2897 54.3807 16.515 54.3185 16.8574C54.2419 17.2783 52.6019 17.6349 52.2401 17.7906C51.4227 18.1423 50.6079 18.4775 49.9678 19.1176C49.317 19.7684 48.8913 20.2647 48.0228 20.6627C47.0669 21.1008 46.0381 21.3861 45.0779 21.8261C44.8334 21.9382 44.4599 22.2261 44.1811 22.2261C44.0314 22.2261 44.6566 21.0529 44.678 21.0142C45.235 20.0061 45.7958 18.9426 46.8351 18.3602C47.5837 17.9407 48.3983 17.6639 49.1134 17.1786C49.4741 16.9339 49.9997 16.4814 49.6588 15.997C49.0632 15.1507 48.003 15.1286 47.0714 15.179C46.3321 15.219 45.5167 15.2907 44.8476 15.6335C43.8803 16.1289 44.3687 16.6399 44.5568 17.5119C44.9669 19.4134 42.0814 19.7485 42.2845 17.9542C42.4074 16.8684 44.0195 16.4113 44.7507 15.7971C45.1915 15.4267 45.5456 14.9765 45.9201 14.5428C46.0947 14.3406 46.4753 14.0523 46.5685 13.7914C46.646 13.5743 46.4927 13.5615 46.3382 13.6823C45.7753 14.1229 45.2525 14.8344 45.2294 15.5729C45.1983 16.5688 46.2569 16.4535 46.8957 16.7241C47.9037 17.1513 46.2811 17.5936 45.9323 17.6633C45.3153 17.7867 44.6891 17.7841 44.066 17.8512C43.4212 17.9206 43.1757 18.2553 42.642 18.5662C41.9835 18.9499 40.0422 18.8367 40.6606 19.9962C40.9876 20.6094 41.6091 21.0095 42.2482 21.2384C42.3137 21.2619 43.2817 21.412 43.0904 21.5232C41.9411 22.1914 40.3074 21.6253 39.1761 21.2808C38.69 21.1328 37.7543 20.6201 37.2128 20.6991C36.8513 20.7518 37.0893 21.3606 37.2007 21.4989C37.9202 22.3921 39.5319 22.8435 40.594 23.1592C41.406 23.4006 42.3026 23.0674 43.1025 23.3531C44.0738 23.7 42.4548 24.0402 42.0361 24.1772C41.6617 24.2997 38.4931 25.5108 38.3944 25.1709C38.1677 24.3901 38.5878 23.0304 38.6913 22.2685C38.8349 21.2118 39.0274 20.1855 39.2609 19.1479C39.3304 18.8389 38.8777 19.6525 38.6792 19.8993C37.477 21.3935 36.1984 22.8184 35.0375 24.3468C34.4216 25.1577 34.9678 24.0744 35.0436 23.8803C35.2014 23.4758 35.8531 22.3621 35.5647 22.6866C34.2635 24.1504 32.7927 25.4314 31.311 26.71C30.1661 27.6979 28.7602 28.8696 27.5905 29.8548C26.8417 30.4856 25.9081 31.1441 25.2637 31.9089C24.8679 32.3787 24.7893 32.9813 24.7305 33.5692C24.7251 33.6235 24.6618 34.1233 24.779 33.7268C25.1027 32.6317 25.3612 31.5164 25.6758 30.4183C25.9307 29.5283 26.142 28.4567 26.7967 27.7522C27.6553 26.8284 29.0414 26.0947 30.2082 25.6314C30.5682 25.4885 29.624 26.1419 29.3114 26.3707C28.6623 26.8456 28.5641 27.7265 28.3661 28.4551C27.768 30.6556 27.1432 32.8569 26.2272 34.9508C25.763 36.0116 25.085 36.983 24.5608 38.0168C24.3304 38.4713 23.7513 40.1156 23.0217 40.0346C22.0524 39.9269 23.1513 37.5729 23.4823 37.1685C24.3357 36.1254 25.2139 35.0896 24.4215 33.7631C24.3424 33.6307 23.0651 31.6642 22.9854 31.6908C22.2947 31.921 22.4818 33.0763 22.0038 33.4177C21.7878 33.572 21.9432 32.8893 21.9432 32.624C21.9432 32.2643 21.9672 31.893 21.9432 31.5333C21.8935 30.7882 21.1539 32.9792 21.3615 33.6965C21.5897 34.4848 22.5339 34.5501 23.1551 34.8296C23.9795 35.2006 22.7125 37.1988 21.9492 37.1624C20.566 37.0966 20.9309 34.9634 21.2403 34.1994C21.2454 34.1867 21.582 33.3826 21.5675 33.3753C21.4934 33.3382 21.451 33.4939 21.3857 33.545C21.2189 33.6756 21.0701 33.7694 20.8767 33.8601C20.4992 34.037 20.0828 34.1596 19.6891 34.2963C19.5642 34.3397 19.214 34.3264 19.1256 34.4296C18.7825 34.8299 20.0236 33.8756 20.4526 33.5692C21.4316 32.8699 19.3309 34.452 19.2043 34.5327C18.5597 34.9434 17.9052 35.3626 17.1926 35.6476C17.0106 35.7204 16.7422 35.7442 16.5988 35.896C16.2772 36.2366 16.1983 36.6654 15.7747 36.9867C15.3158 37.3349 14.8693 37.7214 14.3205 37.9077C13.6302 38.1422 13.2737 38.5448 12.6784 38.9318C11.5363 39.6741 10.015 39.828 8.93975 40.6345C8.56234 40.9175 7.54494 42.4646 7.94601 42.8401C8.78763 43.628 10.1547 44.1235 11.212 44.5428C12.014 44.8608 12.4143 45.3206 12.7814 46.1243C13.1122 46.8485 13.4508 48.3181 12.4542 48.6328C12.0632 48.7563 11.5662 46.9453 11.4968 46.706C11.2975 46.0188 11.1727 45.8037 11.6241 45.2335C12.4011 44.252 13.5234 43.538 13.3267 42.1857C13.2775 41.8472 13.1962 41.5155 13.1328 41.1798C13.0595 40.7911 12.7978 41.0018 12.4966 41.1495C11.9885 41.3987 11.1795 41.914 11.412 42.5977C11.7619 43.6268 14.4061 41.5476 14.8658 41.1798C15.2641 40.8612 15.5399 40.4157 15.902 40.0588C16.7757 39.1976 17.8206 38.6069 18.8408 37.9441C19.1871 37.7191 19.7751 37.1174 20.2102 37.0594C20.318 37.045 20.1156 37.2594 20.0405 37.3382C19.4502 37.9572 18.7659 38.4779 18.1197 39.0348C17.6771 39.4162 17.3419 39.6913 16.9805 40.1315C16.8681 40.2685 16.6126 40.5217 16.7624 40.6163C17.2104 40.8992 19.3606 39.5755 19.7012 39.4165C20.0456 39.2558 20.9368 38.8193 21.3857 38.6773C21.7167 38.5725 21.8157 38.5957 21.5311 38.9015C19.9235 40.6291 17.6996 41.7046 15.8474 43.1309C15.1791 43.6456 14.9388 44.2796 14.3932 44.8639C14.0278 45.2551 12.5643 45.9332 12.5875 46.5363C12.6097 47.1138 15.0895 45.9543 15.3021 45.8698C16.2217 45.504 14.6883 46.6411 14.4901 46.8393C14.2897 47.0397 13.7275 47.335 14.2841 47.3482C15.2689 47.3717 15.8483 46.8601 16.6352 46.3666C17.3923 45.8918 17.6358 44.8116 18.4045 44.361C19.3024 43.8346 20.3763 43.6404 21.3251 43.2279C22.1834 42.8547 22.7761 41.9077 23.3732 41.2283C23.4165 41.179 23.5274 41.0172 23.4823 41.0647C22.9556 41.6191 22.3337 42.0859 21.7372 42.5613C21.0375 43.119 19.853 43.5377 19.3801 44.2943C19.2969 44.4275 19.0605 45.4708 19.1559 45.4214C19.6084 45.1867 20.0407 44.6251 20.4041 44.2822C20.8771 43.8359 21.3477 43.3861 21.7675 42.8885C22.5026 42.0172 23.9574 41.7894 24.9971 41.4585C26.1578 41.0892 27.1046 40.7503 28.0268 39.9316C29.6514 38.4893 31.4461 36.7506 33.4318 35.8112C33.8231 35.626 35.0367 35.1812 34.6133 35.2719C32.4939 35.7261 30.1771 36.3751 28.2449 37.3745C27.6899 37.6616 27.3718 37.9952 27.0452 38.5137C27.0281 38.5408 26.6208 39.2556 26.5301 39.1196C26.4819 39.0473 26.6835 39.0322 26.7422 38.9681C27.6182 38.0125 28.0755 36.6679 28.4631 35.4597C28.8292 34.3183 29.1352 33.1585 29.5053 32.018C29.5889 31.7605 29.7559 31.0575 29.5295 31.2061C27.8235 32.3252 26.4125 34.3534 25.2152 35.9566C24.4995 36.9151 23.9185 37.833 23.9185 39.0469C23.9185 39.3512 26.7639 38.1059 27.0937 37.932C27.4042 37.7682 27.4574 37.5823 27.5542 37.2533C27.8736 36.1674 28.021 35.048 28.0935 33.9207C28.1659 32.7942 28.1481 31.6673 28.1662 30.5395C28.1783 29.7826 28.0942 28.9019 28.5721 28.2612C29.6092 26.8709 31.0599 25.6203 32.5229 24.6922C33.4948 24.0756 34.5068 23.5492 35.5768 23.1228C35.5852 23.1195 37.2611 22.4421 37.0068 22.7108C36.3985 23.3535 35.9684 24.1534 35.492 24.8922C35.4871 24.8998 34.382 26.4375 34.4013 26.4616C34.8655 27.0419 37.3702 24.9559 37.7218 24.6498C40.9042 21.88 31.4992 30.3853 28.8024 33.6298C28.7207 33.728 28.4529 33.971 28.4873 33.8479C28.6174 33.3835 29.0035 32.7294 29.2205 32.3876C29.9132 31.2966 30.5069 30.5462 31.3716 29.5579C32.0448 28.7885 33.5007 26.8224 33.868 27.7764C34.0336 28.2065 33.6804 29.5582 33.5651 29.8488C33.1884 30.7977 32.6552 31.4552 31.9412 32.1756C31.7138 32.4049 30.3664 33.5659 29.99 33.8237C28.9347 34.5465 31.7103 31.9296 32.6016 31.0122C33.1273 30.4712 34.5582 28.994 35.2132 28.3036C35.5623 27.9357 35.6058 27.6787 35.601 28.2006C35.584 30.0717 35.0443 35.6423 35.4314 33.8116C35.6658 32.7029 35.8911 31.4115 35.8555 30.2729C35.8306 29.4768 34.4483 31.3307 34.4013 31.4C33.7474 32.3631 33.3844 33.1838 33.3954 34.3085C33.3977 34.545 33.3231 35.1759 33.5287 35.3628C33.854 35.6585 34.885 34.1069 34.989 33.9388C35.3322 33.3845 36.0133 31.5626 34.6073 32.115C33.6062 32.5082 32.6574 33.2068 31.8684 33.9267C31.607 34.1653 30.8959 34.6918 31.2383 34.7811C31.6698 34.8937 32.5964 34.4714 32.9713 34.3448C34.1953 33.9316 35.1242 33.2766 36.0009 32.3331C37.0559 31.1979 37.7333 29.889 38.255 28.443C38.474 27.8361 38.6307 27.1092 38.6307 26.4616C38.6307 26.1851 39.1986 26.0042 39.1518 26.4676C39.0098 27.8738 38.1455 29.2189 37.6612 30.5335C37.3176 31.4661 37.5361 32.3737 37.2734 33.2784C37.0723 33.9709 36.717 34.624 36.4736 35.3022C36.3177 35.7363 35.5546 35.6791 35.2375 35.9566C35.0657 36.1069 34.4849 36.3625 34.9708 36.6595C35.4789 36.97 36.1821 37.31 36.7523 37.4593C37.7075 37.7095 38.3799 38.4395 39.2185 38.9499C39.8816 39.3536 38.3159 39.1703 38.0854 39.1681C37.5482 39.163 37.1664 39.0983 36.716 38.8409C36.1828 38.5362 36.6509 37.3885 36.8068 37.017C37.4011 35.6012 38.1686 34.261 38.764 32.8421C39.2039 31.7938 39.7229 30.728 39.8729 29.5882C39.9538 28.9734 39.5459 28.8587 39.2488 29.4246C38.9771 29.9421 38.7906 31.5331 39.5396 31.7635C40.032 31.915 40.5468 32.2114 41.0545 31.9938C41.2791 31.8975 42.1936 33.0239 42.3451 33.1754C42.8889 33.7192 43.5131 34.0907 44.0842 34.5872C44.5545 34.9962 45.2759 35.1148 45.8171 35.4234C46.4799 35.8012 47.0581 36.3079 47.7319 36.6595C48.2985 36.9551 48.7629 37.4298 49.271 37.8108C49.8033 38.21 50.4247 38.4516 50.8888 38.9378C51.5256 39.6049 52.1933 40.1263 53.0157 40.5375C53.4151 40.7372 53.0092 41.1839 52.8278 41.3798C51.6769 42.6228 50.2208 43.5202 49.1619 44.8639C48.788 45.3384 48.5161 45.8543 48.3015 46.4151C48.2217 46.6236 48.0831 46.9847 47.7986 46.9847C47.5171 46.9847 47.0256 45.9745 46.8169 45.7728C46.3114 45.2841 45.8164 44.779 45.2839 44.3186C43.525 42.7973 41.518 41.5035 39.6123 40.1739C38.6102 39.4748 38.1483 38.6761 38.1157 37.3866C38.0827 36.084 38.7421 35.5937 39.9032 35.3507C40.9359 35.1345 40.8773 36.2786 40.9212 37.0897C40.9511 37.6441 40.9665 38.2872 41.4483 38.6652C42.1904 39.2472 42.8082 38.2736 42.9329 37.629C43.0699 36.9202 42.5057 35.7411 41.7089 35.6415C41.2021 35.5782 40.7577 36.5139 40.6909 36.0293C40.618 35.5011 40.2528 34.6617 40.8969 34.3085C41.2003 34.1421 42.23 34.7623 42.23 35.1022C42.23 36.5013 42.3921 37.7652 43.1147 38.9984C43.8543 40.2609 46.2364 37.6395 46.4352 36.811C46.521 36.4534 46.3656 36.1786 45.9868 36.1505C45.1366 36.0875 44.234 36.557 43.9024 37.3624C43.6597 37.9517 43.7122 38.7917 44.2175 39.2408C44.9018 39.8491 46.0617 39.2419 46.6291 38.7742C48.0295 37.6198 46.2368 36.8092 45.2536 37.938C44.6404 38.6421 43.9789 40.1231 44.6295 40.998C45.3281 41.9375 46.9701 41.2465 47.6955 40.7435C47.8413 40.6425 48.6559 39.9938 48.0712 39.8225C47.1518 39.5532 45.9491 40.2424 45.5687 41.0768C45.1658 41.9605 46.744 41.4972 47.029 41.4282C47.8689 41.225 48.7148 40.9429 49.1134 40.1133C49.1625 40.0113 49.2578 39.5673 49.0286 39.8831C48.6399 40.4187 48.3898 41.0455 48.0167 41.5918C47.8818 41.7893 46.346 42.9249 47.2835 43.2036C47.7767 43.3502 48.563 42.688 48.8953 42.4159C49.3722 42.0254 49.7026 41.5547 49.9618 41.0041C50.0188 40.8828 46.0884 38.4135 45.805 38.2228C41.9572 35.6338 37.7655 33.5776 34.1468 30.6607C33.0503 29.777 31.9413 28.8954 30.802 28.0673C30.1763 27.6125 29.4574 27.2689 28.8691 26.7645C28.3955 26.3586 28.662 25.7562 28.7903 25.2557C28.9353 24.6902 24.9221 24.4481 24.4639 24.4074C22.5002 24.2332 20.6278 23.8102 18.6954 23.3652C17.4182 23.0711 16.4309 23.1164 15.7202 22.0503C15.4259 21.609 15.1122 21.3675 14.9628 20.8445" stroke="white" stroke-width="3" stroke-linecap="round"/>
</g>
<defs>
<clipPath id="clip0_178_2">
<rect width="60" height="60" fill="white"/>
</clipPath>
</defs>
</svg>
