<svg width="70" height="68" viewBox="0 0 70 68" fill="none" xmlns="http://www.w3.org/2000/svg">
<rect x="2.41406" y="1" width="66" height="65" rx="11" fill="black"/>
<path d="M8.59375 2.11024C8.89946 2.33257 9.61826 2.17978 9.96305 2.14725C10.7313 2.07477 11.5044 2.00893 12.2699 1.92109C13.741 1.75228 15.2459 1.71515 16.7273 1.67026C20.4914 1.55619 24.278 1.66614 28.0435 1.66614C30.6382 1.66614 33.2329 1.66614 35.8276 1.66614C39.0593 1.66614 42.2736 1.53669 45.5031 1.44821C47.1944 1.40187 48.8697 1.14803 50.5609 1.14803C52.5844 1.14803 54.6027 1 56.6302 1" stroke="white" stroke-width="2" stroke-linecap="round"/>
<path d="M56.2598 1.22201C56.7216 1.22201 57.3142 1.16629 57.7154 1.40705C58.2256 1.71313 58.7998 1.89309 59.3026 2.22534C60.3379 2.90936 61.4165 3.49669 62.3702 4.29779C62.7159 4.5882 63.0689 4.7838 63.3982 5.10374C63.8576 5.55004 64.2207 5.96739 64.566 6.51827C65.2152 7.55383 65.8271 8.67928 66.2889 9.82021C67.8849 13.7631 67.7323 18.2425 67.7323 22.4153C67.7323 25.4049 67.7323 28.3903 67.7323 31.3794C67.7323 34.2359 67.7248 37.0924 67.7323 39.9489C67.7359 41.3324 67.9543 42.698 67.9543 44.0773" stroke="white" stroke-width="2" stroke-linecap="round"/>
<path d="M68.1022 44.5214C68.1022 45.4149 68.3054 46.2814 68.2337 47.186C68.1207 48.613 67.8191 49.9948 67.584 51.4049C67.2974 53.1249 67.0932 54.8719 66.737 56.5778C66.4403 57.9989 65.6698 59.4581 64.8783 60.661C64.1428 61.7791 63.247 62.7726 62.0164 63.3503C60.7073 63.9647 59.378 64.7379 57.9496 65.0527C56.1189 65.456 54.2628 66.2276 52.3696 66.278C51.1607 66.3103 49.9429 66.3471 48.7346 66.3562C48.018 66.3616 47.2685 66.4232 46.5635 66.2821" stroke="white" stroke-width="2" stroke-linecap="round"/>
<path d="M14.293 66.2821C14.8325 66.2372 15.3767 66.1534 15.9172 66.0971C16.9679 65.9877 18.0439 65.9861 19.0999 65.9861C20.5324 65.9861 21.9589 66.1466 23.3887 66.2081C25.668 66.3062 27.9451 66.2821 30.227 66.2821C33.4932 66.2821 36.7497 66.6322 40.0177 66.6522C42.4058 66.6669 44.7698 66.4302 47.1561 66.4302" stroke="white" stroke-width="2" stroke-linecap="round"/>
<path d="M14.3669 65.9861C13.3595 65.8182 12.3992 65.361 11.4474 65.0074C10.5235 64.6643 9.54485 64.2668 8.74165 63.6916C7.91294 63.098 6.99801 62.5377 6.31557 61.7672C5.58486 60.9422 4.98108 60.0716 4.44872 59.1067C3.55728 57.491 2.98547 55.6833 2.56542 53.8886C2.25655 52.5688 1.962 51.2943 1.92806 49.9369C1.90698 49.0937 1.78414 48.2625 1.78414 47.4163C1.78414 46.7327 1.79574 46.0478 1.78003 45.3644C1.74515 43.8471 1.51491 42.3334 1.41406 40.8206" stroke="white" stroke-width="2" stroke-linecap="round"/>
<path d="M1.78417 40.8946C1.17436 33.5769 1.94178 26.2473 1.63614 18.9119" stroke="white" stroke-width="2" stroke-linecap="round"/>
<path d="M9.33398 1.81415C8.73506 1.97269 8.1222 2.01453 7.50826 2.0362C7.03741 2.05281 6.41539 2.35235 5.99504 2.56253C5.0431 3.0385 4.36989 3.91671 3.78278 4.77479C3.2643 5.53257 2.83226 6.30976 2.52451 7.18443C2.25836 7.94084 2.17164 8.7279 1.94883 9.49537C1.87254 9.75814 1.95352 10.0699 1.91593 10.3424C1.86015 10.7469 1.7746 11.1449 1.72678 11.5514C1.64519 12.2449 1.78435 12.9259 1.78435 13.6156C1.78435 14.4875 1.70899 15.3351 1.57875 16.1979C1.44356 17.0935 1.65116 18.0161 1.48828 18.9119" stroke="white" stroke-width="2" stroke-linecap="round"/>
<path d="M19.4449 31.5858C19.4014 31.9673 19.3173 32.3433 19.276 32.7245C19.243 33.0294 19.2682 33.3493 19.2682 33.6552C19.2682 34.4636 19.2859 35.2826 19.4174 36.0819C19.5689 37.0029 19.8935 37.9316 20.3559 38.7443C20.5945 39.1636 20.7746 39.6066 21.102 39.9655C21.4002 40.2924 21.6885 40.6163 22.0365 40.8922C23.3162 41.9066 24.5842 42.9711 26.1911 43.4093C26.5437 43.5054 26.8889 43.5774 27.2395 43.692C27.4943 43.7753 27.7708 43.8301 28.0366 43.8569C28.348 43.8884 28.6585 43.9824 28.9712 43.9904C29.0425 43.9923 29.5483 43.9735 29.5426 44.0474C29.537 44.1191 28.9732 44.3998 28.8829 44.4675C28.7782 44.5461 28.6349 44.6603 28.5825 44.7876C28.5192 44.9413 28.4568 45.1153 28.4568 45.2824C28.4568 45.5054 28.3024 45.6601 28.2291 45.8655C28.0889 46.2578 28.1071 46.7432 27.6832 46.9552C27.3904 47.1016 27.1785 47.0352 26.8665 47.0298C26.4593 47.0226 26.0462 47.0333 25.6413 46.9866C25.4262 46.9618 25.2674 46.9138 25.0523 46.9512C24.8531 46.9859 24.6282 46.9452 24.4476 46.8609C24.0055 46.6546 23.5393 46.2304 23.2813 45.8203C23.0072 45.3845 22.6157 45.044 22.2761 44.6619C21.8551 44.1883 21.4947 43.6638 21.0686 43.1933C20.4983 42.5637 19.8126 42.262 19.0718 41.8916C18.493 41.6022 17.7489 41.6018 17.1124 41.6246C16.73 41.6382 16.1713 41.9344 16.1051 42.3314C16.0441 42.6976 15.9814 43.0504 15.9814 43.425C15.9814 43.8122 16.2591 44.2681 16.5273 44.5363C17.0268 45.0358 17.7496 45.2795 18.2511 45.7811C18.3777 45.9076 18.5761 46.0419 18.6477 46.2051C18.7094 46.3456 18.8113 46.4814 18.8951 46.6096C19.1769 47.0406 19.3463 47.5231 19.6255 47.9526C20.0665 48.6311 20.4257 49.3794 20.9606 49.9945C21.3152 50.4023 21.744 50.887 22.2898 51.0056C22.5383 51.0597 22.793 51.0653 23.0398 51.1293C23.308 51.1988 23.5745 51.2878 23.8409 51.3649C24.1708 51.4604 24.4685 51.6594 24.8187 51.6594C25.0641 51.6594 25.3095 51.6594 25.5549 51.6594C26.0128 51.6594 26.4788 51.6788 26.9273 51.6261C27.2869 51.5838 27.6523 51.6475 27.9974 51.5181" stroke="white" stroke-width="2" stroke-linecap="round"/>
<path d="M27.5728 51.6948C27.6348 51.9584 27.6435 52.2204 27.6435 52.49C27.6435 52.7386 27.8097 52.9928 27.8536 53.2341C27.9704 53.8765 28.0178 54.5573 27.6003 55.1033C27.4723 55.2706 27.2705 55.3582 27.082 55.439C26.7708 55.5724 26.4393 55.5093 26.167 55.3487C25.7019 55.0744 25.23 54.7406 24.7102 54.579C24.0965 54.3883 23.4785 54.1546 22.9019 53.8663C22.5511 53.6909 22.229 53.5087 21.9183 53.2655C21.5263 52.9588 21.1846 52.5816 20.8305 52.2328C20.1257 51.5384 19.4309 50.8332 18.7297 50.132C18.2233 49.6255 17.5964 49.2709 17.0844 48.7694C16.6888 48.3818 16.3495 47.9688 16.0359 47.5089C14.9764 45.9549 13.9254 44.403 13.083 42.7182" stroke="white" stroke-width="2" stroke-linecap="round"/>
<path d="M12.6593 42.3294C12.6376 42.1997 12.5348 42.0853 12.4747 41.9721C12.3468 41.7311 12.2588 41.477 12.1645 41.2221C11.9955 40.7655 11.8907 40.3241 11.7757 39.8517C11.4721 38.6033 10.9629 37.449 10.9629 36.1448" stroke="white" stroke-width="2" stroke-linecap="round"/>
<path d="M10.8918 35.9327C10.8707 35.7708 10.8008 35.6172 10.772 35.4556C10.7306 35.2233 10.7246 34.9883 10.6974 34.7546C10.6301 34.1755 10.7338 33.5902 10.8211 33.019C10.9645 32.0809 11.0583 31.1599 11.1372 30.2133C11.1729 29.7846 11.1696 29.348 11.2884 28.9312C11.359 28.6834 11.4419 28.4464 11.4926 28.193" stroke="white" stroke-width="2" stroke-linecap="round"/>
<path d="M11.7051 28.2284C11.7112 27.352 11.887 26.5009 12.0938 25.6505C12.1813 25.2909 12.3117 24.955 12.4669 24.6197C12.6695 24.182 12.9593 23.8014 13.1541 23.3592C13.3678 22.874 13.6409 22.4055 13.9041 21.9455C14.1059 21.5928 14.2553 21.1543 14.5265 20.85C14.9312 20.3957 15.3901 19.9944 15.7968 19.5404C16.3501 18.9228 16.8253 18.2657 17.4657 17.7321" stroke="white" stroke-width="2" stroke-linecap="round"/>
<path d="M17.3945 17.7321C17.5186 17.7073 17.6294 17.5004 17.7126 17.414C17.8522 17.2691 17.9816 17.1058 18.1072 16.9487C18.2707 16.7444 18.4864 16.5985 18.6884 16.4362C18.9869 16.1965 19.1893 15.8939 19.4639 15.6352C19.9387 15.188 20.444 14.8069 20.9718 14.4257C21.3287 14.168 21.7416 13.9821 22.1145 13.7464C22.5083 13.4975 22.9309 13.2432 23.3554 13.0514C24.1451 12.6944 24.9602 12.4302 25.7586 12.1011C26.2176 11.9118 26.6679 11.7057 27.1447 11.5631C27.9292 11.3286 28.7308 11.1785 29.5204 10.9643C30.2362 10.7701 30.8884 10.6639 31.6252 10.6639C32.6311 10.6639 33.6524 10.5942 34.6566 10.6364C35.0719 10.6539 35.4877 10.6963 35.9014 10.7346C36.183 10.7606 36.4955 10.7619 36.7653 10.8563C37.0409 10.9527 37.3913 10.9466 37.6803 10.9466" stroke="white" stroke-width="2" stroke-linecap="round"/>
<path d="M37.6807 11.0173C38.4794 11.0173 39.2318 11.4101 39.9916 11.6161C41.0469 11.9023 42.1083 12.2138 43.1114 12.6508C43.6622 12.8908 44.2439 13.0477 44.7842 13.3144C45.2998 13.569 45.8027 13.8322 46.3137 14.0959C46.6071 14.2473 46.8933 14.384 47.1717 14.5612C47.5147 14.7795 47.9255 14.9093 48.2535 15.1424C48.5732 15.3695 48.9027 15.6025 49.2058 15.8511C49.2706 15.9044 49.4145 16.0017 49.4492 16.071" stroke="white" stroke-width="2" stroke-linecap="round"/>
<path d="M49.8027 15.965C50.039 15.9913 50.2969 16.302 50.4389 16.4677C50.8384 16.9337 51.2747 17.363 51.664 17.8381C52.2187 18.515 52.8122 19.1569 53.329 19.8643C53.928 20.6844 54.4733 21.5553 55.0273 22.4069C55.4607 23.0731 55.7463 23.7756 55.954 24.5391C56.0571 24.9181 56.2098 25.2907 56.2701 25.6799C56.3214 26.0104 56.3787 26.3341 56.4645 26.6576C56.6477 27.3483 56.7821 28.0696 56.8729 28.7781C56.927 29.1999 56.9611 29.6377 57.083 30.0464C57.1504 30.2727 57.1951 30.5038 57.2243 30.7376" stroke="white" stroke-width="2" stroke-linecap="round"/>
<path d="M56.9414 30.5962C56.9568 30.6653 57.0281 30.7378 57.0553 30.8082C57.1308 31.0041 57.1723 31.2061 57.2241 31.409C57.3176 31.7752 57.4583 32.126 57.5501 32.4928C57.6727 32.9834 57.7463 33.4706 57.7896 33.9732C57.8561 34.7451 57.8603 35.5076 57.8603 36.2822C57.8603 37.0725 57.839 37.8415 57.6836 38.6186" stroke="white" stroke-width="2" stroke-linecap="round"/>
<path d="M57.507 39.1487C57.507 39.7858 57.1004 40.4291 56.8355 40.9884C56.3865 41.9364 55.977 42.8958 55.5082 43.8334C55.0473 44.7553 54.6411 45.7058 54.2046 46.639C53.9514 47.1802 53.5965 47.6474 53.2778 48.1489C52.9645 48.642 52.6066 49.113 52.198 49.5311C51.8321 49.9055 51.4861 50.3095 51.126 50.6915C50.7348 51.1064 50.3288 51.4973 49.9204 51.895C49.4184 52.384 48.8071 52.7501 48.2633 53.1869C47.7746 53.5796 47.2576 53.9235 46.728 54.2589C45.8104 54.8401 44.7832 55.1605 43.7907 55.5783C43.3769 55.7526 43.0184 55.8351 42.5715 55.863C42.4691 55.8694 41.706 55.9432 41.6467 55.7708C41.5868 55.5965 41.6129 55.3773 41.6016 55.1955C41.5881 54.9802 41.57 54.7699 41.5682 54.5535C41.5634 53.9903 41.4996 53.405 41.4445 52.8433C41.4027 52.4169 41.3915 51.9998 41.3915 51.5711C41.3915 51.054 41.3208 50.5423 41.3208 50.0259C41.3208 49.0812 41.3649 48.1244 41.3188 47.1809C41.2985 46.7639 41.1279 46.3658 41.0381 45.9617C40.9949 45.7676 40.9458 45.4657 40.826 45.298C40.7239 45.155 40.6455 45.0465 40.4883 44.9603C40.4767 44.954 40.274 44.8669 40.3038 44.8386C40.3995 44.7476 40.6414 44.7326 40.7593 44.7051C40.912 44.6695 41.0644 44.6356 41.2148 44.5912C41.5495 44.4925 41.9077 44.4452 42.2475 44.3635C42.7501 44.2426 43.2668 43.9897 43.7377 43.7803C44.2704 43.5436 44.8073 43.2735 45.3084 42.9754C45.9209 42.611 46.562 42.2427 47.046 41.7168C47.509 41.2138 47.8504 40.648 48.23 40.0833C48.5588 39.5941 48.9469 39.0969 49.1665 38.5479" stroke="white" stroke-width="2" stroke-linecap="round"/>
<path d="M48.9541 38.2298C49.1653 38.0186 49.2686 37.6885 49.4292 37.4366C49.7772 36.8911 49.8236 36.1778 49.9083 35.5518C50.0228 34.7057 50.191 33.9009 50.191 33.0426C50.191 32.5389 50.1222 32.0558 50.085 31.5543C50.0605 31.2231 49.9436 30.8901 49.9436 30.5609" stroke="white" stroke-width="2" stroke-linecap="round"/>
<path d="M49.8029 30.1014C49.7482 29.3912 49.476 28.615 49.1864 27.9731C49.039 27.6465 48.8021 27.3546 48.5267 27.1308C48.3084 26.9535 48.0518 26.8783 48.1222 26.5595C48.1582 26.3965 48.2227 26.2281 48.2832 26.0726C48.3721 25.844 48.4034 25.5973 48.4796 25.3638C48.5773 25.0642 48.6887 24.7699 48.7623 24.4626C48.8309 24.1759 48.8133 23.8794 48.8133 23.5869C48.8133 22.612 48.5262 21.6945 48.3892 20.7361" stroke="white" stroke-width="2" stroke-linecap="round"/>
<path d="M47.859 20.3473C47.8494 20.1465 47.7361 20.0169 47.6901 19.8329C47.6459 19.656 47.6494 19.4652 47.6037 19.2871C47.5292 18.9966 47.3908 19.0696 47.16 19.2086C46.9735 19.3209 46.7024 19.4992 46.4728 19.4992C46.1796 19.4992 45.8864 19.4992 45.5932 19.4992C45.1633 19.4992 44.8564 19.5913 44.4662 19.7505C44.0363 19.9259 43.6303 20.1523 43.1979 20.3238C42.6634 20.5357 42.1526 20.7678 41.6822 21.0993C41.4359 21.2728 41.1973 21.4609 40.9105 21.5646C40.4249 21.7403 39.9034 21.4246 39.4301 21.3231C38.6705 21.1604 37.8915 21.1151 37.1212 21.0188C36.678 20.9634 36.2702 20.9128 35.8214 20.9128C35.5103 20.9128 35.1831 20.879 34.879 20.9481C34.5051 21.0331 34.0862 20.9835 33.7069 20.9835C33.4058 20.9835 33.1048 20.9835 32.8037 20.9835" stroke="white" stroke-width="2" stroke-linecap="round"/>
<path d="M22.2715 19.6405C22.8075 19.6405 23.317 19.67 23.8383 19.7858C24.3869 19.9077 24.9306 20.0941 25.4679 20.257C25.9812 20.4127 26.4302 20.6726 26.9129 20.8971C27.207 21.0339 27.4798 21.2348 27.7827 21.3506C28.1672 21.4976 28.532 21.4157 28.9234 21.3545C29.5527 21.2562 30.2 21.2308 30.8358 21.2308C31.6102 21.2308 32.3827 21.1955 33.1565 21.1955" stroke="white" stroke-width="2" stroke-linecap="round"/>
<path d="M21.3532 19.8172C21.0038 19.8521 20.841 20.1692 20.7191 20.4435C20.6231 20.6595 20.6464 20.9555 20.6464 21.1876C20.6464 21.6152 20.7613 22.0264 20.7956 22.4521C20.8249 22.815 20.9291 23.1554 20.9291 23.5221C20.9291 23.8662 20.9527 24.2095 21.0332 24.545C21.1424 25.0002 21.2119 25.4367 21.2119 25.9037C21.2119 26.0974 20.9832 26.1651 20.8467 26.2689C20.6861 26.3909 20.628 26.6199 20.5188 26.7813C20.3312 27.0586 20.1139 27.3149 19.9396 27.6001C19.7604 27.8932 19.7311 28.2125 19.5862 28.515C19.4621 28.7742 19.3544 29.0392 19.2033 29.2847C19.0923 29.4651 19.1268 29.7366 19.1268 29.9365C19.1268 30.1826 19.1268 30.4287 19.1268 30.6747C19.1268 30.806 19.0722 31.1071 19.1621 31.197" stroke="white" stroke-width="2" stroke-linecap="round"/>
<path d="M12.8247 28.198C12.7883 27.6084 12.7946 27.0107 12.8375 26.422C12.8561 26.1673 12.8578 25.7505 13.0239 25.5221C13.1274 25.3798 13.1028 25.867 13.1107 26.0428C13.1445 26.8008 13.0219 27.5065 12.8247 28.198C12.6483 28.8166 12.4124 29.4239 12.1754 30.0474C11.8558 30.8886 11.8314 31.7075 11.8862 32.5992C11.8935 32.7186 12.1455 33.9533 12.2718 33.8269C12.3322 33.7666 12.4133 33.6216 12.479 33.493C12.519 33.2488 12.5597 33.0027 12.6254 32.7728C12.6597 32.6525 12.691 32.7951 12.7206 32.9861C12.9271 32.5381 13.0883 32.1458 13.2714 31.635C13.2764 31.6212 13.2813 31.6073 13.2862 31.5934C13.5165 30.2233 13.9564 28.8975 14.0087 27.502C14.0131 27.207 14.0138 27.0262 14.0138 27.2319C14.0138 27.3223 14.012 27.4123 14.0087 27.502C14.0037 27.8354 13.994 28.3146 13.9752 28.5464C13.8901 29.5989 13.6397 30.5994 13.2862 31.5934C13.2706 31.6864 13.256 31.7795 13.2425 31.8729C13.2292 31.9648 13.2053 32.2248 13.2039 32.3421C13.2034 32.3837 13.1884 32.4581 13.2296 32.4642C13.4435 32.4959 13.8653 31.8687 13.9431 31.7636C14.5013 31.0099 15.0931 30.0082 15.2158 29.0575C15.3361 28.1254 15.2194 30.3336 15.1134 31.7287C15.3112 32.1073 15.4837 32.5044 15.6427 32.9086C16.2189 31.5485 16.7353 30.1788 17.247 28.7875C17.323 28.581 17.4469 28.2522 17.5491 28.0354C17.5727 27.9854 17.6295 27.8475 17.6456 27.9004C17.7049 28.0953 17.6669 28.3074 17.6713 28.5111C17.6777 28.813 17.6839 29.175 17.6891 29.5385C17.9124 28.4623 18.1305 27.3848 18.3664 26.3115C18.3258 26.0751 18.288 25.8445 18.2755 25.805C18.0308 25.0288 17.9624 24.2714 17.9721 23.462C17.9069 23.5498 17.8378 23.6238 17.7677 23.6645C17.7269 23.6881 17.8099 22.5977 17.8127 22.5782C17.8525 22.2933 17.9021 22.0337 17.9669 21.7554C17.9893 21.6596 17.9984 21.3892 18.0505 21.4726C18.1368 21.6107 18.0455 21.7984 18.0377 21.9611C18.0212 22.3014 17.9791 23.0635 17.9734 23.3752C17.9728 23.4042 17.9724 23.4331 17.9721 23.462C18.0989 23.2911 18.2111 23.0682 18.2883 22.9381C18.4958 22.589 18.6387 22.2042 18.8283 21.8454C19.0543 21.4176 19.2969 21.0228 19.6703 20.7076C19.6967 20.6854 19.7234 20.6635 19.7504 20.6419C19.9579 19.836 20.1724 19.0319 20.3994 18.2318C20.0643 18.6319 19.7138 19.0193 19.3361 19.3771C18.5513 20.1206 17.7026 20.7959 16.9192 21.5433C16.1302 22.2961 15.9397 23.4264 15.1162 24.1401C14.8398 24.3797 14.5547 24.5924 14.2131 24.7347C14.1836 24.747 14.2243 24.6714 14.2356 24.6415C14.3158 24.4292 14.3347 24.3627 14.4348 24.1305C14.619 23.7035 14.8554 23.3263 15.1226 22.9478C15.7647 22.0381 16.3154 20.9187 17.1442 20.1613C18.3699 19.041 19.7134 18.1212 20.6731 16.7416C20.747 16.6354 20.9823 16.4036 20.8531 16.3977C20.5769 16.3852 20.1192 16.7691 19.921 16.9088C18.7613 17.7263 17.844 18.7934 16.7617 19.6953C16.495 19.9175 16.2305 19.9948 15.91 20.1356C15.4457 20.3396 15.0258 20.6206 14.573 20.8362C14.4709 20.8848 14.3933 20.0681 14.5473 19.9556C14.8508 19.7338 15.0748 19.4154 15.3219 19.1392C15.5801 18.8507 15.8751 18.6118 16.0964 18.2908L16.1149 18.264C16.3304 17.9515 16.5549 17.6259 16.7906 17.333C17.2608 16.7489 17.8201 16.175 18.359 15.636C18.9096 15.0855 19.3642 14.5739 20.0174 14.1384C20.5488 13.7841 20.9499 13.2331 21.5344 12.9492C21.8941 12.7745 22.2609 12.692 22.6079 12.4607C22.9782 12.2138 23.4054 12.1342 23.7938 11.94C24.1375 11.7682 24.4806 11.7273 24.8384 11.6379C25.2163 11.5434 25.5575 11.2911 25.9247 11.1622C26.7131 10.8856 27.6031 10.7684 28.4347 10.6705C29.6399 10.5287 30.7995 10.2623 32.0247 10.2623C32.6949 10.2623 33.3635 10.0933 34.0302 10.1723C34.5613 10.2353 35.0861 10.2791 35.6115 10.3652C35.8237 10.4 36.0405 10.4896 36.2543 10.4937C37.4806 10.5178 38.5506 10.9344 39.6675 11.3165C40.0111 11.4341 40.3658 11.45 40.7088 11.5415C41.0479 11.6319 41.3738 11.8444 41.7244 11.94C42.5563 12.1669 43.4452 12.2261 44.1863 12.6632C44.652 12.9378 45.155 13.1101 45.6583 13.3027C45.8871 13.3904 46.226 13.4661 46.4296 13.6177C46.7935 13.8887 47.1927 14.0209 47.6155 14.1801C48.0811 14.3555 48.5264 14.5788 48.9943 14.749C49.1258 14.7968 49.5296 14.8904 49.3896 14.8904C48.9187 14.8904 48.4423 14.9113 47.9723 14.8776C47.0229 14.8093 46.0879 14.5453 45.1505 14.389C43.2562 14.0733 41.2008 14.1007 39.3139 14.4469C38.1319 14.6638 37.0212 15.1251 36.01 15.771C35.5645 16.0556 35.0945 16.3935 34.7409 16.8117C34.7363 17.0321 34.6753 17.3459 34.5521 17.5551C34.7882 17.4323 34.9832 17.3746 34.9366 17.5516C34.8171 18.0045 34.3239 18.4382 34.0174 18.7536C33.9769 18.7952 33.0542 19.7578 33.1625 19.7563C33.4824 19.7521 33.8729 19.4939 34.1588 19.3771C34.3898 19.2826 34.8734 19.2102 35.0587 19.03C35.3045 18.7908 35.5271 18.4049 35.7272 18.1301C36.0811 17.6439 36.3623 17.1287 36.6335 16.5938C36.8121 16.2416 37.3289 15.1778 37.1863 15.5461C36.9438 16.1726 36.6243 16.7811 36.3507 17.3941C36.1141 17.924 35.7779 18.4939 35.6115 19.0557C35.5781 19.1683 35.792 19.3533 35.8943 19.3642C36.124 19.3888 36.3437 19.171 36.504 18.9974C36.6718 18.4661 36.8819 17.9449 37.077 17.4294C37.2371 17.0066 37.3708 16.4471 37.6363 16.0667C37.6946 15.9831 37.6867 16.1866 37.6794 16.3433C37.8301 15.8964 38.0428 15.3792 38.0766 15.9028C38.0937 16.1683 38.0131 16.4392 37.9512 16.6934C37.794 17.3393 37.6223 17.9869 37.3599 18.5993C37.2941 18.7528 37.2217 18.9242 37.1401 19.0983C37.1269 19.2589 37.1163 19.4576 37.167 19.5506C37.2382 19.6811 37.4156 19.3742 37.4948 19.2485C37.8858 18.6289 38.1586 17.9055 38.3369 17.198C38.4928 16.5793 38.53 15.9552 38.5426 15.3211C38.5517 14.8632 38.5917 15.3637 38.6004 15.4882C38.6872 16.7188 38.6583 17.9578 38.6583 19.1907C38.6583 19.2788 38.6756 20.2303 38.8865 19.9652C39.1334 19.6548 39.3174 19.2707 39.456 18.8564C39.4358 18.7496 39.4218 18.6447 39.4168 18.5447C39.366 17.5297 39.3667 16.4075 39.616 15.4175C39.6756 15.1813 39.6963 15.2871 39.7382 15.4304C39.8406 15.7809 39.8911 16.0949 39.8733 16.4559C39.9205 16.3172 39.9785 16.1808 40.0467 16.0474C40.1408 15.8635 40.4801 15.1717 40.7538 15.1347C40.9591 15.1069 40.8246 16.439 40.8213 16.491C40.7796 17.1437 40.6749 17.7776 40.5352 18.4161C40.4817 18.6607 40.4374 18.933 40.3681 19.1951C40.4688 19.2302 40.5843 19.2171 40.7163 19.1365C40.7032 18.9101 40.7069 18.7097 40.7088 18.6122C40.7236 17.8498 40.907 17.1143 41.1266 16.3881C41.2449 15.997 41.3967 15.1077 41.7437 14.8133C41.855 14.7189 41.781 15.1049 41.7694 15.2504C41.7321 15.7179 41.6383 16.1806 41.5765 16.6452C41.4738 17.4187 41.4828 18.499 40.8309 19.0525C40.7914 19.086 40.7532 19.1139 40.7163 19.1365C40.7417 19.577 40.8307 20.1159 41.1202 20.187C41.4015 20.2561 41.6447 19.7072 41.8093 19.1799C41.7864 19.1269 41.7678 19.0618 41.7533 18.985C41.5237 17.7663 41.7857 16.6206 42.1068 15.4432C42.2407 14.9523 42.1872 15.4736 42.1872 15.636L42.1872 15.6967C42.1873 16.5708 42.1874 17.4394 42.0297 18.3036C42.0101 18.4111 41.9312 18.7896 41.8093 19.1799C41.9069 19.4053 42.0817 19.4101 42.3415 19.1585C42.6356 18.8737 42.8954 18.5052 43.1058 18.1028C43.0456 17.7324 43.0273 17.3528 43.055 16.9859C43.0739 16.7345 43.1764 15.4035 43.5692 15.3275C43.7518 15.2922 43.6591 16.3409 43.6528 16.3945C43.5876 16.943 43.3925 17.5544 43.1058 18.1028C43.1411 18.3201 43.1909 18.5342 43.2542 18.7407C43.329 18.9846 43.4549 19.3508 43.6978 19.0043C43.8717 18.7561 44.015 18.4845 44.1319 18.2001C44.0814 17.8186 44.1021 17.4214 44.1698 17.0331C44.063 16.5028 44.4748 15.3063 45.0347 15.4786C45.5141 15.626 45.6784 15.8434 45.7097 16.3431C45.7445 16.9 45.6421 17.5138 45.3592 18.007C45.4609 17.9947 45.5589 17.9519 45.6486 17.8697C45.9963 17.5511 46.148 16.9081 46.1789 16.4524C46.2076 16.0292 46.788 16.6524 46.9181 16.7674C46.9767 16.8191 47.058 16.8757 47.1453 16.9358C47.177 16.8694 47.2072 16.8036 47.2331 16.7384C47.3355 16.4802 47.3789 16.2531 47.622 16.086C47.841 15.9354 48.2701 16.3458 48.3837 16.4942C48.5927 16.767 49.0083 17.102 49.0329 17.468C49.0819 18.1972 48.7571 18.9151 48.7951 19.6599C48.8025 19.8068 48.7771 20.5879 49.0811 20.2738C49.5095 19.8311 49.5641 19.0541 49.5889 18.4707C49.591 18.4212 49.5376 18.0417 49.6885 18.1686C49.9935 18.4251 50.0297 18.9802 50.0614 19.3321C50.1324 20.122 50.1105 20.938 49.9971 21.7232C49.8411 22.8027 49.516 23.8227 49.4636 24.9179C49.4594 25.0042 49.3478 25.6609 49.4314 25.7278C49.4833 25.7693 49.4858 25.6058 49.5021 25.5414C49.5612 25.3082 49.6343 24.9342 49.6757 24.7186C49.8737 23.6876 49.9666 22.5997 50.2928 21.5979C50.4238 21.1953 50.5283 20.4489 50.8327 20.1323C51.0383 19.9185 51.0881 20.6413 51.0898 20.6562C51.1598 21.2714 51.1631 21.8987 51.1509 22.5171C51.1484 22.6436 51.144 22.7713 51.1374 22.8996C51.1452 22.8824 51.1529 22.8653 51.1605 22.8481C51.2907 22.5549 51.4083 22.2491 51.4981 21.936C51.4543 21.5369 51.4012 21.1383 51.3405 20.7398C51.2964 20.45 51.2698 20.1654 51.2698 19.872C51.2698 19.7281 51.2581 18.9723 51.4176 18.9143C51.5633 18.8613 52.0987 21.0228 52.1601 21.2444C52.3037 21.7626 52.4787 22.2661 52.6936 22.7581C52.8034 23.0098 52.8859 23.267 52.9422 23.5274C52.9653 23.4166 52.9884 23.3059 53.0117 23.1952C53.1202 22.68 53.2558 22.1544 53.2946 21.6268C53.2953 21.6174 53.2902 21.4556 53.3524 21.4854C53.5576 21.5835 53.7087 22.0908 53.7767 22.2632C53.9613 22.7318 54.0865 23.2214 54.2523 23.6966C54.5468 24.5405 54.4085 25.4847 54.5962 26.361C54.7042 26.8649 54.7851 27.3903 54.8441 27.9201C54.8505 27.927 54.8513 27.937 54.8474 27.9496C54.9141 28.5578 54.9521 29.1714 54.969 29.7645C54.9882 30.4359 54.9218 31.195 54.7087 31.8343C54.6406 32.0386 54.4527 31.4821 54.3745 31.2815L54.3663 31.2606C54.1443 30.6919 53.9073 30.0845 53.8731 29.4688C53.8702 29.4166 53.8686 29.3642 53.868 29.3118C53.7879 29.4864 53.7083 29.6608 53.6256 29.8288C53.5238 30.0358 53.192 31.2677 52.97 30.9408C52.8801 30.8086 52.7925 30.6753 52.7073 30.5409C52.6632 30.8231 52.612 31.1047 52.5425 31.3844C52.1813 32.8388 51.722 34.2636 51.5012 35.7489C51.4216 36.2846 51.2219 36.7926 51.1284 37.3269C51.0534 37.7554 50.9842 38.1732 50.8295 38.5836C50.6737 38.9966 50.5633 39.406 50.4472 39.8083C50.6259 39.6466 50.8541 39.4912 50.7427 39.8884C50.5602 40.5393 50.0857 41.1316 49.7078 41.6754C48.8813 42.8651 47.9847 44.1012 46.8538 45.0243C46.1392 45.6077 45.2757 45.9758 44.5141 46.4899C44.0684 46.7907 43.6202 47.0736 43.1514 47.3383C43.1191 47.3566 43.0874 47.3736 43.0565 47.3901C43.0607 47.4217 43.0606 47.4517 43.055 47.4798C43.0452 47.5284 43.0265 47.4854 43.0052 47.4176C42.8123 47.5216 42.6635 47.6175 42.6532 47.8751C42.6431 48.1284 42.65 48.3833 42.65 48.6368C42.65 49.2086 42.619 49.7904 42.6483 50.3624C42.7049 50.2578 42.7704 50.1569 42.8461 50.0606C43.0458 49.8063 43.2901 49.5912 43.5449 49.3859C43.5832 49.3202 43.6091 49.2739 43.6174 49.2571C43.7899 48.9063 43.9037 48.5325 44.0706 48.1804C44.2362 47.8309 44.527 47.6152 44.8294 47.391L44.8483 47.3769C44.95 47.3015 45.1538 47.0737 45.1826 47.1969C45.2437 47.459 44.9986 47.9235 44.8741 48.1226C44.5491 48.6419 44.0283 48.9962 43.5449 49.3859C43.3212 49.7686 42.6755 50.8063 42.6532 50.4494C42.6514 50.4205 42.6498 50.3915 42.6483 50.3624C42.4087 50.8053 42.3287 51.3149 42.3125 51.825C42.3071 51.9977 42.3095 52.2106 42.3608 52.3778C42.4256 52.5894 42.8233 52.3677 42.9264 52.3264C44.0188 51.8883 44.7649 51.0788 45.2533 50.0252C45.6677 49.1312 45.6018 48.0928 46.0953 47.2355C46.2113 47.0341 47.4076 45.5014 47.6252 45.6928C47.7173 45.7739 47.6879 46.1401 47.683 46.2006C47.628 46.885 47.3872 47.5457 47.1399 48.1804C46.9763 48.6002 46.7698 49.0097 46.6353 49.4403C46.5416 49.7402 46.8298 49.3787 46.8603 49.3438C47.6119 48.4848 47.8241 47.2975 48.2294 46.2585C48.5609 45.4086 48.917 44.5632 49.4378 43.8094C49.8169 43.2608 50.2602 42.761 50.6913 42.2539C50.8887 42.0216 50.954 41.8502 51.0705 41.5822C51.5543 40.4695 52.3694 39.31 52.5072 38.0854C52.6131 37.1437 52.6587 36.1645 52.7064 35.2186C52.7469 34.4165 52.6515 33.6283 52.9539 32.8628C53.029 32.6727 53.1194 32.4546 53.256 32.2971C53.3752 32.1598 53.4428 32.6235 53.4553 32.8049C53.5226 33.7846 53.3906 34.7498 53.2496 35.7167C53.1663 36.2876 52.9677 36.9877 53.0503 37.5744C53.0618 37.6556 53.2209 37.5362 53.2753 37.4748C53.818 36.8617 54.2068 36.0808 54.5686 35.3542L54.5737 35.3439C55.1723 34.1418 55.4366 33.0922 55.3483 31.7668C55.3258 31.429 55.2052 30.9722 55.2872 30.6387C55.325 30.4849 55.5133 30.1884 55.66 30.433C56.1144 31.1903 56.2401 32.2428 56.245 33.107C56.2478 33.6127 56.0762 34.085 56.0714 34.5854C56.0601 35.7624 56.0923 36.9565 55.9171 38.124C55.7593 39.176 55.6393 40.2821 55.1619 41.2447C54.6492 42.2785 53.9188 42.9431 53.0246 43.6584C52.941 43.7253 52.7636 43.9055 52.6518 43.938C52.4953 43.9835 52.4065 43.4328 52.3653 43.0712C52.3168 43.1372 52.2712 43.1947 52.2565 43.2181C51.9754 43.6654 51.6631 44.0916 51.3823 44.539C50.8704 45.3545 50.3069 46.127 49.7721 46.927C49.7333 46.9849 49.6879 47.0583 49.6384 47.1417C49.6155 47.3115 49.6165 47.4743 49.6532 47.6212C49.6991 47.8048 49.8023 47.7567 49.9491 47.6883L49.9553 47.6855C50.3477 47.5028 50.8181 47.1366 51.1252 46.8916C52.1079 46.1077 53.0149 45.2413 53.8795 44.3301C54.0717 44.1276 54.2342 43.8966 54.4387 43.7066C54.4866 43.6622 54.3918 43.8287 54.3616 43.8866C53.8597 44.8498 53.1133 45.6553 52.4782 46.5284C52.0485 47.1194 51.7361 47.7729 51.2955 48.3604C50.9813 48.7793 50.7252 49.2235 50.2028 49.3888C50.0937 49.4234 50.014 49.4136 49.9059 49.4003L49.891 49.3985C49.8401 49.3923 49.7902 49.3884 49.7411 49.3868C49.5562 49.9044 49.0911 50.3705 48.7372 50.7355C48.4279 51.0545 48.0586 51.3256 47.6903 51.5896C47.531 51.7918 47.3485 51.9736 47.1367 52.1271C46.8721 52.319 47.0965 52.0222 47.1881 51.9536C47.3514 51.8311 47.5207 51.7111 47.6903 51.5896C47.9666 51.239 48.1731 50.8269 48.3417 50.3942C48.1155 50.6047 47.8908 50.8168 47.6638 51.028C46.7175 51.9082 45.7016 52.6534 44.6555 53.4063C44.2543 53.695 43.6977 54.1621 43.2092 54.274C43.0684 54.3063 43.1045 54.027 43.116 53.9462C43.1376 53.7952 43.3509 53.6041 43.4856 53.5798C44.0683 53.4749 44.38 53.0568 44.8644 52.7763C45.2707 52.5411 45.7938 52.3729 46.1436 52.0564C46.4664 51.7644 46.6576 51.2912 46.9406 50.9572C47.4281 50.382 47.9346 49.9907 48.5828 49.6948C48.7148 49.2692 48.8276 48.8446 48.9493 48.4568C48.9655 48.4052 48.9821 48.354 48.9991 48.3031C48.8712 48.5434 48.8123 48.6543 48.9108 48.4504C48.9536 48.3616 48.9966 48.2729 49.0397 48.1842C49.2662 47.5357 49.5548 46.9394 49.867 46.3506C49.9779 46.0736 50.1046 45.8138 50.1963 45.6092C50.3407 45.2875 50.5046 44.9775 50.6741 44.6708C50.6842 44.6462 50.6942 44.6215 50.7041 44.5969C50.7181 44.5624 50.7445 44.464 50.7816 44.3359C50.8927 43.9522 51.0993 43.3016 51.3501 43.3016C51.4395 43.3016 51.3272 43.4827 51.2859 43.562C51.1788 43.7672 51.0669 43.9692 50.954 44.1705C51.151 44.1456 50.7716 44.6869 50.6527 44.9086C50.5266 45.1437 50.3994 45.3745 50.2732 45.6036C50.0911 46.0088 49.9012 46.4108 49.7082 46.8113C49.6773 46.9228 49.653 47.0336 49.6384 47.1417C49.6879 47.0583 49.7333 46.9849 49.7721 46.927C50.3069 46.127 50.8704 45.3545 51.3823 44.539C51.6631 44.0916 51.9754 43.6654 52.2565 43.2181C52.2712 43.1947 52.3168 43.1372 52.3653 43.0712C52.3469 42.9091 52.338 42.785 52.3369 42.7697L52.3368 42.7681C52.2367 41.4782 52.5345 40.2822 53.0117 39.0914C53.2744 38.436 53.5767 37.7074 54.0081 37.1373C54.1509 36.9485 54.4367 36.7369 54.4259 37.118C54.3831 38.6227 53.8189 40.2374 53.031 41.5083C52.7576 41.9494 52.5475 42.2966 52.5104 42.8163C52.5064 42.8713 52.433 42.9794 52.3653 43.0712C52.4065 43.4328 52.4953 43.9835 52.6518 43.938C52.7636 43.9055 52.941 43.7253 53.0246 43.6584C53.9188 42.9431 54.6492 42.2785 55.1619 41.2447C55.6393 40.2821 55.7593 39.176 55.9171 38.124C56.0923 36.9565 56.0601 35.7624 56.0714 34.5854C56.0762 34.085 56.2478 33.6127 56.245 33.107C56.2401 32.2428 56.1144 31.1903 55.66 30.433C55.5133 30.1884 55.325 30.4849 55.2872 30.6387C55.2052 30.9722 55.3258 31.429 55.3483 31.7668C55.4366 33.0922 55.1723 34.1418 54.5737 35.3439L54.5686 35.3542C54.2068 36.0808 53.818 36.8617 53.2753 37.4748C53.2209 37.5362 53.0618 37.6556 53.0503 37.5744C52.9677 36.9877 53.1663 36.2876 53.2496 35.7167C53.3906 34.7498 53.5226 33.7846 53.4553 32.8049C53.4428 32.6235 53.3752 32.1598 53.256 32.2971C53.1194 32.4546 53.029 32.6727 52.9539 32.8628C52.6515 33.6283 52.7469 34.4165 52.7064 35.2186C52.6587 36.1645 52.6131 37.1437 52.5072 38.0854C52.3694 39.31 51.5543 40.4695 51.0705 41.5822C50.954 41.8502 50.8887 42.0216 50.6913 42.2539C50.2602 42.761 49.8169 43.2608 49.4378 43.8094C48.917 44.5632 48.5609 45.4086 48.2294 46.2585C47.8241 47.2975 47.6119 48.4848 46.8603 49.3438C46.8298 49.3787 46.5416 49.7402 46.6353 49.4403C46.7698 49.0097 46.9763 48.6002 47.1399 48.1804C47.3872 47.5457 47.628 46.885 47.683 46.2006C47.6879 46.1401 47.7173 45.7739 47.6252 45.6928C47.4076 45.5014 46.2113 47.0341 46.0953 47.2355C45.6018 48.0928 45.6677 49.1312 45.2533 50.0252C44.7649 51.0788 44.0188 51.8883 42.9264 52.3264C42.8233 52.3677 42.4256 52.5894 42.3608 52.3778C42.3095 52.2106 42.3071 51.9977 42.3125 51.825C42.3287 51.3149 42.4087 50.8053 42.6483 50.3624C42.619 49.7904 42.65 49.2086 42.65 48.6368C42.65 48.3833 42.6431 48.1284 42.6532 47.8751C42.6635 47.6175 42.8123 47.5216 43.0052 47.4176C42.9825 47.3455 42.9569 47.2453 42.936 47.1969C42.8513 47.0005 42.7546 46.8201 42.6436 46.6377C42.583 46.5382 42.1759 46.0523 42.2804 45.9242C42.6516 45.4692 43.3652 45.1683 43.8552 44.8765C44.6237 44.4188 45.3981 43.9702 46.1436 43.4752C46.8148 43.0295 47.4256 42.4952 48.0784 42.0225C48.8873 41.4367 49.5885 40.686 50.2799 39.972L50.2819 39.9699C50.3128 39.938 50.3761 39.8726 50.4472 39.8083C50.5633 39.406 50.6737 38.9966 50.8295 38.5836C50.9842 38.1732 51.0534 37.7554 51.1284 37.3269C51.2219 36.7926 51.4216 36.2846 51.5012 35.7489C51.722 34.2636 52.1813 32.8388 52.5425 31.3844C52.612 31.1047 52.6632 30.8231 52.7073 30.5409C52.1815 29.7114 51.7463 28.8403 51.4279 27.9108C51.3884 27.911 51.3481 27.9108 51.3098 27.91C51.294 28.0229 51.2799 28.1343 51.273 28.2026C51.1864 29.0544 51.1957 29.9031 51.2087 30.7576C51.2088 30.7635 51.1729 31.5209 51.1477 31.4776C50.9784 31.1874 50.9202 30.5982 50.8391 30.3045C50.6142 29.4899 50.349 28.6883 50.0999 27.8812C49.932 27.3369 49.8124 26.7889 49.8235 26.2163C49.8472 25.0018 50.6506 23.9712 51.1374 22.8996C51.144 22.7713 51.1484 22.6436 51.1509 22.5171C51.1631 21.8987 51.1598 21.2714 51.0898 20.6562C51.0881 20.6413 51.0383 19.9185 50.8327 20.1323C50.5283 20.4489 50.4238 21.1953 50.2928 21.5979C49.9666 22.5997 49.8737 23.6876 49.6757 24.7186C49.6343 24.9342 49.5612 25.3082 49.5021 25.5414C49.4858 25.6058 49.4833 25.7693 49.4314 25.7278C49.3478 25.6609 49.4594 25.0042 49.4636 24.9179C49.516 23.8227 49.8411 22.8027 49.9971 21.7232C50.1105 20.938 50.1324 20.122 50.0614 19.3321C50.0297 18.9802 49.9935 18.4251 49.6885 18.1686C49.5376 18.0417 49.591 18.4212 49.5889 18.4707C49.5641 19.0541 49.5095 19.8311 49.0811 20.2738C48.7771 20.5879 48.8025 19.8068 48.7951 19.6599C48.7571 18.9151 49.0819 18.1972 49.0329 17.468C49.0083 17.102 48.5927 16.767 48.3837 16.4942C48.2701 16.3458 47.841 15.9354 47.622 16.086C47.3789 16.2531 47.3355 16.4802 47.2331 16.7384C47.2072 16.8036 47.177 16.8694 47.1453 16.9358C47.3333 17.0651 47.5491 17.2106 47.6252 17.3587C47.7326 17.5678 47.6872 18.4789 47.5095 18.6379C47.3591 18.7724 47.0994 18.1247 47.0788 18.0786C47.0201 17.9472 46.8713 17.7377 46.8956 17.5837C46.9306 17.3619 47.0451 17.146 47.1453 16.9358C47.058 16.8757 46.9767 16.8191 46.9181 16.7674C46.788 16.6524 46.2076 16.0292 46.1789 16.4524C46.148 16.9081 45.9963 17.5511 45.6486 17.8697C45.5589 17.9519 45.4609 17.9947 45.3592 18.007C45.3209 18.074 45.2792 18.1387 45.234 18.2008C45.079 18.414 44.3794 19.1888 44.212 18.5929C44.1759 18.4645 44.1496 18.3333 44.1319 18.2001C44.015 18.4845 43.8717 18.7561 43.6978 19.0043C43.4549 19.3508 43.329 18.9846 43.2542 18.7407C43.1909 18.5342 43.1411 18.3201 43.1058 18.1028C42.8954 18.5052 42.6356 18.8737 42.3415 19.1585C42.0817 19.4101 41.9069 19.4053 41.8093 19.1799C41.6447 19.7072 41.4015 20.2561 41.1202 20.187C40.8307 20.1159 40.7417 19.577 40.7163 19.1365C40.5843 19.2171 40.4688 19.2302 40.3681 19.1951C40.3083 19.4214 40.2299 19.6401 40.111 19.827C39.982 20.0297 39.7718 19.9037 39.7028 19.7081C39.6119 19.4506 39.511 19.1467 39.456 18.8564C39.3174 19.2707 39.1334 19.6548 38.8865 19.9652C38.6756 20.2303 38.6583 19.2788 38.6583 19.1907C38.6583 17.9578 38.6872 16.7188 38.6004 15.4882C38.5917 15.3637 38.5517 14.8632 38.5426 15.3211C38.53 15.9552 38.4928 16.5793 38.3369 17.198C38.1586 17.9055 37.8858 18.6289 37.4948 19.2485C37.4156 19.3742 37.2382 19.6811 37.167 19.5506C37.1163 19.4576 37.1269 19.2589 37.1401 19.0983C36.9494 19.505 36.7083 19.9268 36.3828 20.1709C36.1705 20.3301 36.2727 19.8963 36.28 19.8592C36.3367 19.5685 36.4143 19.2815 36.504 18.9974C36.3437 19.171 36.124 19.3888 35.8943 19.3642C35.792 19.3533 35.5781 19.1683 35.6115 19.0557C35.7779 18.4939 36.1141 17.924 36.3507 17.3941C36.6243 16.7811 36.9438 16.1726 37.1863 15.5461C37.3289 15.1778 36.8121 16.2416 36.6335 16.5938C36.3623 17.1287 36.0811 17.6439 35.7272 18.1301C35.5271 18.4049 35.3045 18.7908 35.0587 19.03C34.8734 19.2102 34.3898 19.2826 34.1588 19.3771C33.8729 19.4939 33.4824 19.7521 33.1625 19.7563C33.0542 19.7578 33.9769 18.7952 34.0174 18.7536C34.3239 18.4382 34.8171 18.0045 34.9366 17.5516C34.9832 17.3746 34.7882 17.4323 34.5521 17.5551C34.4918 17.6574 34.4167 17.7346 34.3259 17.7637C34.2832 17.7773 34.2644 17.7596 34.2614 17.7232C34.1457 17.7954 34.0394 17.8669 33.9659 17.9179C33.3736 18.3295 32.8566 18.8434 32.2947 19.2935C31.8293 19.6663 31.1857 20.2733 30.5463 20.3284C30.3167 20.3482 30.3252 20.2097 30.4242 20.0584C31.0546 19.0942 31.9621 18.3497 32.6064 17.4005L32.6136 17.3899C32.8771 17.0018 33.2822 16.4052 33.0628 15.9092C32.9986 15.764 32.8462 15.651 32.6868 15.726C32.1028 16.0009 31.7329 16.8266 31.4012 17.333C30.969 17.9928 30.4939 18.6262 29.9935 19.2357C29.5994 19.7157 29.178 20.2618 28.6437 20.5984C28.0077 20.999 28.7387 20.1751 28.8461 20.0391C29.1353 19.6733 29.2681 19.2453 29.3183 18.799C29.2646 18.8332 29.2111 18.8674 29.1579 18.9014C28.6198 19.2458 28.1334 19.6264 27.4834 19.737C27.3326 19.7627 26.9503 19.836 26.9756 19.5956C27.0012 19.3522 27.1024 19.1635 27.2745 18.9914C27.7688 18.4971 28.5753 18.1316 29.3316 17.9176C29.3271 17.8402 29.3215 17.7631 29.3154 17.6865C29.3014 17.5127 29.1734 17.1114 29.2672 16.9473C29.4653 16.6006 29.8465 16.296 30.1414 16.041C30.3211 15.8856 30.7553 15.4385 31.0541 15.5396C31.5484 15.7069 31.4617 16.3565 31.3445 16.7126C31.7811 16.2238 32.2823 15.803 32.8011 15.4002C32.4336 15.3437 32.084 15.3218 31.8255 15.3082C30.9263 15.2612 30.0004 15.2783 29.0737 15.357C28.7297 16.0812 28.3395 17.1516 27.5734 17.4069C27.1664 17.5426 27.4159 17.0148 27.4738 16.8638C27.6499 16.4041 27.8354 15.933 28.0388 15.4706C27.4988 15.5432 26.9618 15.6366 26.4328 15.7503C26.3686 16.1219 26.2438 16.5071 26.1561 16.777C26.0986 16.9539 26.0263 17.1273 25.9439 17.2978C26.0858 17.3052 26.2313 17.3231 26.3843 17.3523C26.5337 17.3808 27.4162 17.3898 27.2938 17.693C27.1511 18.0463 26.6633 18.1118 26.3875 18.3293C26.2237 18.4585 26.0858 18.6177 25.9247 18.7471C25.7747 18.8676 25.5872 18.7491 25.4169 18.76C25.1884 18.7746 25.055 18.9785 24.9155 19.1328C24.8868 19.1645 24.6865 19.4247 24.8126 19.1971C25.1588 18.5726 25.6263 17.9557 25.9439 17.2978C25.5445 17.277 25.1742 17.3387 24.7484 17.4616C24.3099 17.588 24.0099 17.9741 23.5335 18.0336C23.0361 18.0958 23.7418 17.6003 23.8613 17.5516C24.3461 17.3537 24.9294 17.0468 25.0183 16.4685C25.0368 16.3485 25.0308 16.229 25.0063 16.1123C24.8396 16.1614 24.6743 16.2127 24.5105 16.266C23.3954 16.6291 22.6294 17.3739 21.9233 18.2715C21.6551 18.6124 21.4206 18.9829 21.1607 19.3322C20.986 19.842 20.8343 20.3699 20.703 20.8931C20.7893 20.7546 20.8755 20.6151 20.9591 20.473C20.9705 20.4536 21.1128 20.2655 21.1359 20.2963C21.1543 20.3208 20.9821 20.5887 20.9688 20.6337C20.8906 20.8975 20.7761 21.1477 20.6988 21.4147C20.6752 21.4963 20.4995 21.7726 20.506 21.7425C20.5658 21.4633 20.6314 21.1789 20.703 20.8931C20.2597 21.6044 19.814 22.289 19.7089 23.1631C19.6264 23.8495 19.9142 24.5112 19.7185 25.1879C19.5886 25.6371 19.3641 26.0554 19.05 26.4027C18.9699 26.4913 18.6409 26.8799 18.4844 26.8688C18.4645 26.8673 18.4135 26.5855 18.3664 26.3115C18.1305 27.3848 17.9124 28.4623 17.6891 29.5385C17.6954 29.9701 17.7004 30.4039 17.7034 30.7416C17.7154 32.0848 17.7233 33.4286 17.713 34.7718C17.709 35.2987 17.7133 35.8303 17.5941 36.3467C17.5813 36.4023 17.4873 36.6477 17.3858 36.8665C17.5644 37.5139 17.8023 38.1413 18.1155 38.7455C18.121 38.6428 18.1276 38.5367 18.1276 38.4293C18.1276 37.8983 18.1134 37.3381 18.208 36.8127C18.2386 36.6429 18.271 36.7086 18.2819 36.8288C18.3346 37.4079 18.3283 38.0033 18.3269 38.5836C18.3265 38.7577 18.3247 38.9383 18.3214 39.1204C18.4139 39.2796 18.5121 39.4371 18.6162 39.5928C18.6891 39.7018 18.7667 39.8163 18.8493 39.9322C18.9806 40.0742 19.1025 40.2369 19.2069 40.3925C19.5144 40.7497 19.8761 41.0638 20.3003 41.1997C21.1388 41.4684 21.9139 41.8282 22.7204 42.18C24.0083 42.7417 25.0582 43.6642 26.0693 44.6258C26.1909 44.7415 26.3171 44.856 26.4446 44.971C26.4927 44.9761 26.5421 44.9809 26.5932 44.9857C26.8399 45.0091 27.4629 45.2397 27.1299 45.545C27.119 45.5549 27.1078 45.5645 27.0964 45.5738C27.3355 45.8089 27.5599 46.0558 27.747 46.326C27.8918 46.5352 27.079 46.7943 26.9146 46.8948L26.8969 46.9056C26.6834 47.0361 26.4365 47.1871 26.1882 47.2323C25.969 47.2721 25.7369 47.1691 25.5454 47.2869C25.2463 47.471 25.3543 46.8404 25.2819 46.6377C25.1836 46.3625 24.814 46.0469 25.2305 45.921C25.6483 45.7947 25.9512 45.7828 26.381 45.7828C26.6239 45.7828 26.8986 45.7336 27.0964 45.5738C26.8854 45.3663 26.663 45.168 26.4446 44.971C26.0302 44.9278 25.7125 44.8705 25.314 44.6836C24.4153 44.2621 23.5967 43.703 22.7943 43.1217C22.5441 42.9404 22.1801 42.6161 21.8494 42.5946C21.6714 42.583 22.0745 42.8714 22.1836 43.0124C22.5832 43.5285 23.0803 43.8039 23.5592 44.2337C23.6626 44.3265 24.1758 45.1377 23.9802 45.1979C23.64 45.3026 23.0891 44.7581 22.8586 44.5744C22.4074 44.2148 22.1366 43.834 21.7594 43.4173C21.2533 42.8583 20.87 42.218 20.3774 41.6529C20.0731 41.3039 19.6222 41.0838 19.3843 40.6759C19.3338 40.5892 19.2739 40.4923 19.2069 40.3925C19.0785 40.2433 18.9595 40.0865 18.8493 39.9322C18.7184 39.7904 18.578 39.6692 18.4362 39.596C18.3883 39.5713 18.3472 39.5439 18.3119 39.5141C18.3073 39.6648 18.3016 39.8141 18.2948 39.9591C18.2867 40.131 18.3432 40.3289 18.2498 40.4734C18.1958 40.5568 18.225 40.2761 18.2112 40.1777C18.1603 39.814 18.1154 39.5775 18.0184 39.2071C17.8705 38.6425 17.7194 37.9146 17.3949 37.4137C17.2954 37.2602 16.5623 38.6051 16.5014 38.7121C16.3775 38.9298 16.1885 39.1941 16.0345 39.4733C16.2108 39.2848 16.415 39.1231 16.5689 39.0142C17.0528 38.672 16.6054 40.1367 16.5142 40.3062C16.2406 40.8153 16.1629 41.2654 16.2536 41.7702C16.2951 41.7828 16.3468 41.8076 16.4146 41.8489C16.8728 42.1278 17.4959 42.0225 18.0184 42.0225H18.0222C18.3961 42.0225 19.0815 42.0225 19.3361 42.3407C19.3503 42.3585 19.1756 42.2287 19.0725 42.2089C18.8552 42.1671 18.6108 42.196 18.3912 42.196C18.006 42.196 17.4978 42.2204 17.1378 42.3825C16.9935 42.4473 16.8519 42.5171 16.7135 42.5946C16.4929 42.7181 16.543 42.6721 16.4371 42.3985C16.351 42.176 16.2892 41.9688 16.2536 41.7702C16.084 41.7189 16.0832 41.8727 15.8393 41.9518C15.5882 42.0332 15.011 42.3079 14.9458 42.601C14.8316 43.1152 15.5957 43.8166 15.8586 44.1276C16.5921 44.9954 17.4058 45.7929 18.1244 46.6731C18.8788 47.5969 19.5504 48.5938 20.2553 49.556C20.6253 50.0611 21.1485 50.5815 21.6308 50.9765C22.0053 51.2833 22.4884 51.4468 22.9196 51.6547C23.512 51.9403 23.9952 52.3829 24.5652 52.7024C25.203 53.06 26.0265 53.2045 26.7539 53.1042C26.8232 53.0946 26.892 53.0803 26.9598 53.0619C27.0049 53.037 27.036 53.028 27.0569 53.0324C27.2428 52.9702 27.4192 52.8771 27.5766 52.7635C27.5937 52.7512 27.7075 52.603 27.6795 52.6671C27.6367 52.7648 27.7007 52.9097 27.7373 53.0013C27.7885 53.1292 27.9007 53.1745 27.8016 53.342C27.6419 53.6118 27.3608 53.9881 27.072 54.1262C26.85 54.2324 27.0695 53.4062 27.0753 53.3484C27.0927 53.1722 27.1181 53.0453 27.0569 53.0324C27.0248 53.0432 26.9924 53.053 26.9598 53.0619C26.9426 53.0715 26.9233 53.0833 26.9017 53.0977C26.695 53.2355 26.4906 53.3087 26.2557 53.387C26.0538 53.4543 25.6385 53.477 25.4136 53.477C24.8648 53.477 24.1874 53.1119 23.6685 52.9178C22.4679 52.4685 21.3543 51.8589 20.3003 51.1308C19.7378 50.7423 19.1972 50.3298 18.7126 49.8452C18.5095 49.6421 18.4439 49.3684 18.3108 49.1221C17.8999 48.3611 17.5829 47.553 17.202 46.7759C17.0761 46.5191 16.7021 45.4719 16.6235 46.297C16.5896 46.6527 16.7072 47.0411 16.8742 47.3512C16.9551 47.5013 17.0612 47.5149 17.1635 47.6276C17.2903 47.7675 17.9894 48.7236 17.877 48.881C17.8083 48.9771 17.7364 48.6912 17.6681 48.595C17.2744 48.041 16.8673 47.5439 16.5014 46.9784C16.2879 46.6484 16.0172 46.3419 15.7943 46.0142C15.5524 45.6584 15.4353 45.159 15.2994 44.7543C15.2053 44.4744 15.028 44.1811 14.9523 43.9059C14.8666 43.5945 14.8489 43.2473 14.7948 42.9288C14.7021 42.3831 14.516 41.9161 14.3609 41.3861L14.3609 41.3861C14.3597 41.3821 14.2074 40.8589 14.1874 40.904C14.1544 40.9781 14.1428 40.9648 14.1006 40.8944C13.9485 40.641 13.9109 40.3225 13.8531 40.0363C13.7216 39.3843 14.3831 39.1117 14.8366 38.7764C15.3471 38.3989 16.0277 38.1326 16.3921 37.5937C16.5911 37.2993 16.4874 36.6898 16.045 37.0216C15.0941 37.7348 14.4727 38.8314 13.3742 39.3806C12.5633 39.7861 12.9037 38.7905 13.1525 38.4647C13.3443 38.2134 13.5412 37.9639 13.7374 37.7158C13.9396 37.4601 14.1742 37.2305 14.393 36.9895C14.394 36.9884 14.3949 36.9874 14.3959 36.9863C14.4841 36.7207 14.568 36.4776 14.6277 36.3145C14.8263 35.7715 15.0263 35.2456 15.0648 34.6626C15.0704 34.5778 15.0755 34.4084 15.0644 34.2953C14.9732 34.5125 14.8964 34.6546 14.8912 34.4954C14.8899 34.4546 14.889 34.4138 14.8886 34.3729C14.2368 35.4096 13.8265 36.7023 12.7796 37.4105C12.3526 37.6994 12.4618 37.3571 12.439 37.0152C12.399 36.4149 12.1446 35.7765 12.1626 35.1832C12.1748 34.7804 12.3113 34.3584 12.394 33.9684C12.4267 33.8141 12.4527 33.654 12.479 33.493C12.4133 33.6216 12.3322 33.7666 12.2718 33.8269C12.1455 33.9533 11.8935 32.7186 11.8862 32.5992C11.8314 31.7075 11.8558 30.8886 12.1754 30.0474C12.4124 29.4239 12.6483 28.8166 12.8247 28.198Z" fill="black"/>
<path d="M16.6171 24.6672C16.3558 25.2513 16.1059 25.8374 15.8843 26.4381C15.8278 26.5912 15.347 27.5933 15.5051 27.8233C15.6692 28.0621 16.8512 26.3807 16.8967 26.0621C16.9845 25.4478 16.8264 24.688 16.6749 24.0951C16.5854 23.7448 16.526 23.7515 16.2957 24.0759C15.7059 24.9067 15.1801 25.7846 14.618 26.6341C14.5239 26.7764 14.4294 26.9184 14.332 27.0584C14.2684 27.1498 14.144 27.3973 14.0974 27.2962C14.0206 27.1299 14.0928 26.9298 14.0941 26.7466C14.097 26.3571 14.0915 26.1159 14.0652 25.7246C14.041 25.3633 14.0394 24.703 13.8692 25.5061C13.685 26.3753 13.4475 27.2229 13.0914 28.0386C13.0248 28.1911 12.8575 28.6977 12.8279 28.2475C12.788 27.6419 12.7934 27.0272 12.8375 26.422C12.8561 26.1673 12.8578 25.7505 13.0239 25.5221C13.1274 25.3798 13.1028 25.867 13.1107 26.0428C13.1748 27.4789 12.6772 28.7268 12.1754 30.0474C11.8558 30.8886 11.8314 31.7075 11.8862 32.5992C11.8935 32.7186 12.1455 33.9533 12.2718 33.8269C12.3825 33.7163 12.5634 33.3204 12.59 33.2645C12.8633 32.691 13.0514 32.2484 13.2714 31.635C13.6327 30.6273 13.8889 29.6136 13.9752 28.5464C14.0106 28.1095 14.0138 26.7936 14.0138 27.2319C14.0138 28.8226 13.4679 30.3143 13.2425 31.8729C13.2292 31.9648 13.2053 32.2248 13.2039 32.3421C13.2034 32.3837 13.1884 32.4581 13.2296 32.4642C13.4435 32.4959 13.8653 31.8687 13.9431 31.7636C14.5013 31.0099 15.0931 30.0082 15.2158 29.0575C15.3592 27.9459 15.1657 31.3007 15.0551 32.416C14.9871 33.1022 14.8685 33.8032 14.8912 34.4954C14.9016 34.8115 15.194 33.9394 15.3219 33.6502C16.0308 32.0463 16.6422 30.432 17.247 28.7875C17.323 28.581 17.4469 28.2522 17.5491 28.0354C17.5727 27.9854 17.6295 27.8475 17.6456 27.9004C17.7049 28.0953 17.6669 28.3074 17.6713 28.5111C17.6854 29.1714 17.6979 30.1195 17.7034 30.7416C17.7154 32.0848 17.7233 33.4286 17.713 34.7718C17.709 35.2987 17.7133 35.8303 17.5941 36.3467C17.5672 36.4635 17.1831 37.4153 17.1217 37.2048C16.8848 36.3926 16.6223 35.5961 16.3311 34.8008C15.9397 33.7323 15.5845 32.586 15.0358 31.5836C14.7355 31.035 14.5464 32.1725 14.5087 32.2971C14.1668 33.4299 13.8604 34.5733 13.6088 35.7296C13.5804 35.8601 13.5142 36.5736 13.3903 36.7516C13.3523 36.8062 13.3516 36.6241 13.3389 36.5588C13.2901 36.3093 13.2559 36.1017 13.2167 35.8453C13.0936 35.0392 12.9754 34.2368 12.7925 33.4413C12.741 33.2174 12.6885 32.5519 12.6254 32.7728C12.5164 33.1543 12.4763 33.58 12.394 33.9684C12.3113 34.3584 12.1748 34.7804 12.1626 35.1832C12.1446 35.7765 12.399 36.4149 12.439 37.0152C12.4618 37.3571 12.3526 37.6994 12.7796 37.4105C13.8834 36.6638 14.2795 35.2672 14.9973 34.2062C15.0834 34.0788 15.0749 34.5091 15.0648 34.6626C15.0263 35.2456 14.8263 35.7715 14.6277 36.3145C14.3815 36.9873 13.7229 39.0221 14.0492 38.3843C14.2513 37.9893 14.4398 37.5861 14.6373 37.1887C14.8335 36.794 15.5275 35.6879 15.2158 35.9996C14.9206 36.2948 14.676 36.6778 14.393 36.9895C14.1742 37.2305 13.9396 37.4601 13.7374 37.7158C13.5412 37.9639 13.3443 38.2134 13.1525 38.4647C12.9037 38.7905 12.5633 39.7861 13.3742 39.3806C14.4727 38.8314 15.0941 37.7348 16.045 37.0216C16.4874 36.6898 16.5911 37.2993 16.3921 37.5937C16.0277 38.1326 15.3471 38.3989 14.8366 38.7764C14.3831 39.1117 13.7216 39.3843 13.8531 40.0363C13.9109 40.3225 13.9485 40.641 14.1006 40.8944C14.1428 40.9648 14.1544 40.9781 14.1874 40.904C14.2075 40.8588 14.3608 41.3859 14.3609 41.3861C14.516 41.9161 14.7021 42.3831 14.7948 42.9288C14.8489 43.2473 14.8666 43.5945 14.9523 43.9059C15.028 44.1811 15.2053 44.4744 15.2994 44.7543C15.4353 45.159 15.5524 45.6584 15.7943 46.0142C16.0172 46.3419 16.2879 46.6484 16.5014 46.9784C16.8673 47.5439 17.2744 48.041 17.6681 48.595C17.7364 48.6912 17.8083 48.9771 17.877 48.881C17.9894 48.7236 17.2903 47.7675 17.1635 47.6276C17.0612 47.5149 16.9551 47.5013 16.8742 47.3512C16.7072 47.0411 16.5896 46.6527 16.6235 46.297C16.7021 45.4719 17.0761 46.5191 17.202 46.7759C17.5829 47.553 17.8999 48.3611 18.3108 49.1221C18.4439 49.3684 18.5095 49.6421 18.7126 49.8452C19.1972 50.3298 19.7378 50.7423 20.3003 51.1308C21.3543 51.8589 22.4679 52.4685 23.6685 52.9178C24.1874 53.112 24.8648 53.477 25.4136 53.477C25.6385 53.477 26.0538 53.4543 26.2557 53.387C26.4906 53.3087 26.695 53.2355 26.9017 53.0977C27.144 52.9362 27.1009 53.0888 27.0753 53.3484C27.0695 53.4063 26.85 54.2324 27.072 54.1262C27.3608 53.9881 27.6419 53.6118 27.8016 53.342C27.9007 53.1745 27.7885 53.1292 27.7373 53.0013C27.7007 52.9097 27.6367 52.7648 27.6795 52.6671C27.7075 52.603 27.5937 52.7512 27.5766 52.7635C27.3354 52.9375 27.0498 53.0633 26.7539 53.1042C26.0265 53.2045 25.203 53.06 24.5652 52.7024C23.9952 52.3829 23.512 51.9403 22.9196 51.6547C22.4884 51.4468 22.0053 51.2833 21.6308 50.9765C21.1485 50.5815 20.6253 50.0611 20.2553 49.556C19.5504 48.5938 18.8788 47.5969 18.1244 46.6731C17.4058 45.7929 16.5921 44.9954 15.8586 44.1276C15.5957 43.8166 14.8316 43.1152 14.9458 42.601C15.011 42.3079 15.5882 42.0332 15.8393 41.9518C16.143 41.8533 16.0698 41.639 16.4146 41.8489C16.8728 42.1278 17.4959 42.0225 18.0184 42.0225C18.3913 42.0225 19.0807 42.0214 19.3361 42.3407C19.3503 42.3585 19.1756 42.2287 19.0725 42.2089C18.8552 42.1671 18.6108 42.196 18.3912 42.196C18.006 42.196 17.4978 42.2204 17.1378 42.3825C16.9935 42.4473 16.8519 42.5171 16.7135 42.5946C16.4929 42.7181 16.543 42.6721 16.4371 42.3985C16.1321 41.6105 16.133 41.0156 16.5142 40.3062C16.6054 40.1367 17.0528 38.672 16.5689 39.0142C16.2018 39.2739 15.5488 39.8341 15.669 40.3416C15.7037 40.4881 15.9178 40.8785 15.8072 40.5023C15.632 39.9066 16.2267 39.1948 16.5014 38.7121C16.5623 38.6051 17.2954 37.2602 17.3949 37.4137C17.7194 37.9146 17.8705 38.6425 18.0184 39.2071C18.1154 39.5775 18.1603 39.814 18.2112 40.1777C18.225 40.2761 18.1958 40.5568 18.2498 40.4734C18.3432 40.3289 18.2867 40.131 18.2948 39.9591C18.3158 39.5138 18.3259 39.0276 18.3269 38.5836C18.3283 38.0033 18.3346 37.4079 18.2819 36.8288C18.271 36.7086 18.2386 36.6429 18.208 36.8127C18.1134 37.3381 18.1276 37.8983 18.1276 38.4293C18.1276 38.9103 17.9936 39.3675 18.4362 39.596C18.8113 39.7896 19.1764 40.3195 19.3843 40.6759C19.6222 41.0838 20.0731 41.3039 20.3774 41.6529C20.87 42.218 21.2533 42.8583 21.7594 43.4173C22.1366 43.834 22.4074 44.2148 22.8586 44.5744C23.0891 44.7581 23.64 45.3026 23.9802 45.1979C24.1758 45.1377 23.6626 44.3265 23.5592 44.2337C23.0803 43.8039 22.5832 43.5285 22.1836 43.0124C22.0745 42.8714 21.6714 42.583 21.8494 42.5946C22.1801 42.6161 22.5441 42.9404 22.7943 43.1217C23.5967 43.703 24.4153 44.2621 25.314 44.6836C25.7588 44.8922 26.1029 44.9393 26.5932 44.9857C26.8399 45.0091 27.4629 45.2397 27.1299 45.545C26.9304 45.7278 26.638 45.7828 26.381 45.7828C25.9512 45.7828 25.6483 45.7947 25.2305 45.921C24.814 46.0469 25.1836 46.3625 25.2819 46.6377C25.3543 46.8404 25.2463 47.471 25.5454 47.2869C25.7369 47.1691 25.969 47.2721 26.1882 47.2323C26.4434 47.1859 26.6972 47.0277 26.9146 46.8948C27.079 46.7943 27.8918 46.5352 27.747 46.326C27.2985 45.6782 26.6356 45.1643 26.0693 44.6258C25.0582 43.6642 24.0083 42.7417 22.7204 42.18C21.9139 41.8282 21.1388 41.4684 20.3003 41.1997C19.5659 40.9644 19.0188 40.1949 18.6162 39.5928C17.5816 38.0455 17.1353 36.3225 16.9738 34.4858C16.9395 34.0948 16.8959 33.6875 16.9063 33.2934C16.9206 32.7569 17.1115 32.2112 17.2277 31.6929C17.7712 29.2694 18.2099 26.821 18.809 24.4101C19.7469 20.6355 20.6358 16.8285 22.0744 13.2063C22.0865 13.1756 22.1402 13.0939 22.1322 13.126C22.0398 13.4956 21.9862 13.8669 21.9329 14.2444C21.8076 15.1333 21.644 15.9786 21.4284 16.8413C21.3807 17.0317 21.2266 17.1963 21.1102 17.3459C20.5593 18.0533 19.9882 18.7593 19.3361 19.3771C18.5513 20.1206 17.7026 20.7959 16.9192 21.5433C16.1302 22.2961 15.9397 23.4264 15.1162 24.1401C14.8398 24.3797 14.5547 24.5924 14.2131 24.7347C14.1836 24.747 14.2243 24.6714 14.2356 24.6415C14.3158 24.4292 14.3347 24.3627 14.4348 24.1305C14.619 23.7035 14.8554 23.3263 15.1226 22.9478C15.7647 22.0381 16.3154 20.9187 17.1442 20.1613C18.3699 19.041 19.7134 18.1212 20.6731 16.7416C20.747 16.6354 20.9823 16.4036 20.8531 16.3977C20.5769 16.3852 20.1192 16.7691 19.921 16.9088C18.7613 17.7263 17.844 18.7934 16.7617 19.6953C16.495 19.9175 16.2305 19.9948 15.91 20.1356C15.4457 20.3396 15.0258 20.6206 14.573 20.8362C14.4709 20.8848 14.3933 20.0681 14.5473 19.9556C14.8508 19.7338 15.0748 19.4154 15.3219 19.1392C15.5801 18.8507 15.8751 18.6118 16.0964 18.2908C16.3176 17.9701 16.5482 17.6343 16.7906 17.333C17.2608 16.7489 17.8201 16.175 18.359 15.636C18.9096 15.0855 19.3642 14.5739 20.0174 14.1384C20.5488 13.7841 20.9499 13.2331 21.5344 12.9492C21.8941 12.7745 22.2609 12.692 22.6079 12.4607C22.9782 12.2138 23.4054 12.1342 23.7938 11.94C24.1375 11.7682 24.4806 11.7273 24.8384 11.6379C25.2163 11.5434 25.5575 11.2911 25.9247 11.1622C26.7131 10.8856 27.6031 10.7684 28.4347 10.6705C29.6399 10.5287 30.7995 10.2623 32.0247 10.2623C32.6949 10.2623 33.3635 10.0933 34.0302 10.1723C34.5613 10.2353 35.0861 10.2791 35.6115 10.3652C35.8237 10.4 36.0405 10.4896 36.2543 10.4937C37.4806 10.5178 38.5506 10.9344 39.6675 11.3165C40.0111 11.4341 40.3658 11.45 40.7088 11.5415C41.0479 11.6319 41.3738 11.8444 41.7244 11.94C42.5563 12.1669 43.4452 12.2261 44.1863 12.6632C44.652 12.9378 45.155 13.1101 45.6583 13.3027C45.8871 13.3904 46.226 13.4661 46.4296 13.6177C46.7935 13.8887 47.1927 14.0209 47.6155 14.1801C48.0811 14.3555 48.5264 14.5788 48.9943 14.749C49.1258 14.7968 49.5296 14.8904 49.3896 14.8904C48.9187 14.8904 48.4423 14.9113 47.9723 14.8776C47.0229 14.8093 46.0879 14.5453 45.1505 14.389C43.2562 14.0733 41.2008 14.1007 39.3139 14.4469C38.1319 14.6638 37.0212 15.1251 36.01 15.771C35.4146 16.1514 34.7753 16.627 34.4287 17.2623C34.3471 17.4121 34.1634 17.8157 34.3259 17.7637C34.656 17.658 34.7798 16.9145 34.7309 16.6484C34.5175 15.4891 32.6773 15.3528 31.8255 15.3082C29.4133 15.182 26.8097 15.5174 24.5105 16.266C23.3954 16.6291 22.6294 17.3739 21.9233 18.2715C21.4578 18.8633 21.0936 19.5444 20.522 20.0488C20.2522 20.2869 19.9449 20.4759 19.6703 20.7076C19.2969 21.0228 19.0543 21.4176 18.8283 21.8454C18.6387 22.2042 18.4958 22.589 18.2883 22.9381C18.1714 23.135 17.9744 23.5448 17.7677 23.6645C17.7269 23.6881 17.8099 22.5977 17.8127 22.5782C17.8525 22.2933 17.9021 22.0337 17.9669 21.7554C17.9893 21.6596 17.9984 21.3892 18.0505 21.4726C18.1368 21.6107 18.0455 21.7984 18.0377 21.9611C18.0212 22.3014 17.9791 23.0635 17.9734 23.3752C17.9578 24.2173 18.0221 25.0012 18.2755 25.805C18.3024 25.8904 18.4473 26.8661 18.4844 26.8688C18.6409 26.8799 18.9699 26.4913 19.05 26.4027C19.3641 26.0554 19.5886 25.6371 19.7185 25.1879C19.9142 24.5112 19.6264 23.8495 19.7089 23.1631C19.8345 22.1188 20.4461 21.3452 20.9591 20.473C20.9705 20.4536 21.1128 20.2655 21.1359 20.2963C21.1543 20.3208 20.9821 20.5887 20.9688 20.6337C20.8906 20.8975 20.7761 21.1477 20.6988 21.4147C20.6752 21.4963 20.4995 21.7726 20.506 21.7425C20.7367 20.6659 21.0525 19.5124 21.4766 18.4965C21.8406 17.6244 22.5832 17.075 23.3085 16.5102C24.1421 15.8612 24.8904 15.1834 25.6675 14.4726C25.9616 14.2036 25.4973 14.3073 25.2883 14.3473C24.4656 14.5046 23.6515 14.8038 22.8843 15.1347C22.4956 15.3023 22.113 15.4993 21.8012 15.7903C21.7861 15.8044 21.7544 15.8552 21.7723 15.845C21.8708 15.7886 21.9604 15.718 22.0551 15.6553C22.4728 15.379 22.9059 15.1689 23.3985 15.0608C23.8385 14.9642 24.2128 14.957 24.5395 15.2986C24.829 15.6013 25.0854 16.0325 25.0183 16.4685C24.9294 17.0468 24.3461 17.3537 23.8613 17.5516C23.7418 17.6003 23.0361 18.0958 23.5335 18.0336C24.0099 17.9741 24.3099 17.588 24.7484 17.4616C25.3254 17.2951 25.8006 17.2408 26.3843 17.3523C26.5337 17.3808 27.4162 17.3898 27.2938 17.693C27.1511 18.0463 26.6633 18.1118 26.3875 18.3293C26.2237 18.4585 26.0858 18.6177 25.9247 18.7471C25.7747 18.8676 25.5872 18.7491 25.4169 18.76C25.1884 18.7746 25.055 18.9785 24.9155 19.1328C24.8868 19.1645 24.6865 19.4247 24.8126 19.1971C25.2486 18.4106 25.8768 17.6363 26.1561 16.777C26.3051 16.3185 26.5611 15.5273 26.4453 15.035C26.3871 14.7875 26.2465 14.602 26.2203 14.3344C26.1853 13.9753 26.193 13.3957 26.5257 13.1581C27.6057 12.3866 27.4674 14.2275 27.0431 14.7619C26.9018 14.9399 26.8272 15.2872 26.8696 15.5075C26.8992 15.6616 27.1252 15.4507 27.1588 15.4175C27.4208 15.1588 27.5655 14.7868 27.6859 14.4469C27.8481 13.989 27.8475 13.4621 28.1294 13.052C28.5561 12.4315 28.2473 13.9106 28.2323 13.9648C28.165 14.2071 27.9337 14.6557 27.9623 14.929C27.9801 15.099 28.4209 14.7333 28.438 14.7169C28.9418 14.2338 29.097 13.48 29.3572 12.8592C29.7001 12.0409 29.4833 13.2466 29.4504 13.4634C29.407 13.7488 29.3166 14.3059 29.2768 14.6012C29.2547 14.7649 29.1436 14.9707 29.2511 15.0961C29.2994 15.1525 29.5855 14.4792 29.595 14.4501C29.7669 13.9206 29.8476 13.4041 30.0931 12.8978C30.198 12.6815 30.3478 12.4015 30.376 12.1618C30.3892 12.0496 30.1864 12.2883 30.1092 12.3707C29.5931 12.9214 29.0749 13.5016 28.6951 14.1576C28.2072 15.0004 27.8222 15.9544 27.4738 16.8638C27.4159 17.0148 27.1664 17.5426 27.5734 17.4069C28.4292 17.1217 28.816 15.8193 29.1932 15.1186C29.5545 14.4477 30.037 13.8585 30.3856 13.1806C30.5129 12.9332 30.6164 12.5504 30.8163 12.345C30.8741 12.2855 31.3425 11.8669 31.3562 11.9336C31.4091 12.1913 31.2106 12.559 31.1055 12.7692C30.8665 13.2472 30.5463 13.6729 30.2763 14.1319C30.2254 14.2186 30.1148 14.4737 30.2024 14.4244C30.6421 14.1771 30.9957 13.5782 31.2791 13.1838C31.4277 12.9771 31.6529 12.4513 31.9122 12.3289C32.3734 12.1111 32.5272 12.9042 32.5614 13.1645C32.6429 13.7844 32.5187 14.8008 31.9733 15.2439C31.7608 15.4166 32.1742 14.7343 32.2883 14.4855C32.5725 13.8653 32.8612 13.2409 33.2524 12.6792C33.3494 12.5401 33.7156 11.9094 33.9145 11.8597C34.1916 11.7904 34.2397 13.8372 34.2327 14.0034C34.2177 14.3582 34.2038 14.712 34.2038 15.0672C34.2038 15.1454 34.1613 15.3629 34.2102 15.3018C34.332 15.1495 34.3878 14.8207 34.4577 14.6494C34.6686 14.132 34.9351 13.6371 35.1294 13.1131C35.2589 12.7638 35.256 12.3916 35.3608 12.0364C35.4961 11.5779 35.7708 12.737 35.785 12.8078C35.8815 13.2877 35.8917 13.7808 35.8429 14.2669C35.8168 14.5268 35.5749 15.2417 35.7465 15.0447C36.1736 14.5543 36.4041 13.6758 36.6078 13.0649C36.67 12.8782 36.6914 12.7117 36.6914 12.5185C36.6914 12.2321 36.6717 12.342 36.701 12.586C36.8074 13.4728 38.1267 12.9071 38.6904 12.8046C39.3411 12.6863 40.0229 12.8823 40.6702 13.007C40.7386 13.0202 41.3929 13.1962 41.0687 13.081C39.9926 12.6983 38.8512 12.6339 37.7198 12.5796C37.4804 12.5681 37.1258 12.471 36.8778 12.5185C36.3115 12.627 35.6415 12.9708 35.2451 13.3863C33.9836 14.7083 32.2672 15.5457 31.1184 16.9795C30.8123 17.3616 30.5762 17.6734 30.0835 17.7508C29.1708 17.8941 27.9399 18.326 27.2745 18.9914C27.1024 19.1635 27.0012 19.3522 26.9756 19.5956C26.9503 19.836 27.3326 19.7627 27.4834 19.737C28.1334 19.6264 28.6198 19.2458 29.1579 18.9014C30.0338 18.3408 30.9965 17.7627 31.3434 16.7159C31.4611 16.3606 31.55 15.7075 31.0541 15.5396C30.7553 15.4385 30.3211 15.8856 30.1414 16.041C29.8465 16.296 29.4653 16.6006 29.2672 16.9473C29.1734 17.1114 29.3014 17.5127 29.3154 17.6865C29.381 18.5006 29.3727 19.3729 28.8461 20.0391C28.7387 20.1751 28.0077 20.999 28.6437 20.5984C29.178 20.2618 29.5994 19.7157 29.9935 19.2357C30.4939 18.6262 30.969 17.9928 31.4012 17.333C31.7329 16.8266 32.1028 16.0009 32.6868 15.726C32.8462 15.651 32.9986 15.764 33.0628 15.9092C33.2842 16.4097 32.8697 17.0127 32.6064 17.4005C31.9621 18.3497 31.0547 19.0942 30.4242 20.0584C30.3252 20.2097 30.3167 20.3482 30.5463 20.3284C31.1857 20.2733 31.8293 19.6663 32.2947 19.2935C32.8566 18.8434 33.3736 18.3295 33.9659 17.9179C34.2499 17.7206 35.0247 17.2172 34.9366 17.5516C34.8171 18.0045 34.3239 18.4382 34.0174 18.7536C33.9769 18.7952 33.0542 19.7578 33.1625 19.7563C33.4824 19.7521 33.8729 19.4939 34.1588 19.3771C34.3898 19.2826 34.8734 19.2102 35.0587 19.03C35.3045 18.7908 35.5271 18.4049 35.7272 18.1301C36.0811 17.6439 36.3623 17.1287 36.6335 16.5938C36.8121 16.2416 37.3289 15.1778 37.1863 15.5461C36.9438 16.1726 36.6243 16.7811 36.3507 17.3941C36.1141 17.924 35.7779 18.4939 35.6115 19.0557C35.5781 19.1683 35.792 19.3533 35.8943 19.3642C36.1731 19.3941 36.437 19.0669 36.5982 18.895C37.0101 18.4556 37.4093 17.9523 37.5816 17.3651C37.6683 17.07 37.6707 16.7633 37.6748 16.4588C37.6766 16.3275 37.7114 15.959 37.6363 16.0667C37.3708 16.4471 37.2371 17.0066 37.077 17.4294C36.7776 18.2206 36.4427 19.025 36.28 19.8592C36.2727 19.8963 36.1705 20.3301 36.3828 20.1709C36.8477 19.8223 37.1406 19.111 37.3599 18.5993C37.6223 17.9869 37.794 17.3393 37.9512 16.6934C38.0131 16.4392 38.0937 16.1683 38.0766 15.9028C38.0243 15.0934 37.5447 16.7709 37.527 16.8316C37.3287 17.5107 37.1767 18.2054 37.1542 18.9143C37.1498 19.0528 37.0929 19.4147 37.167 19.5506C37.2382 19.6811 37.4156 19.3742 37.4948 19.2485C37.8858 18.6289 38.1586 17.9055 38.3369 17.198C38.4928 16.5793 38.53 15.9552 38.5426 15.3211C38.5517 14.8632 38.5917 15.3637 38.6004 15.4882C38.6872 16.7188 38.6583 17.9578 38.6583 19.1907C38.6583 19.2788 38.6756 20.2303 38.8865 19.9652C39.583 19.0896 39.7788 17.6283 39.8667 16.5552C39.8998 16.1515 39.8498 15.8126 39.7382 15.4304C39.6963 15.2871 39.6756 15.1813 39.616 15.4175C39.3667 16.4075 39.366 17.5297 39.4168 18.5447C39.4354 18.9169 39.5785 19.3559 39.7028 19.7081C39.7718 19.9037 39.982 20.0297 40.111 19.827C40.3678 19.4235 40.4355 18.8719 40.5352 18.4161C40.6749 17.7776 40.7796 17.1437 40.8213 16.491C40.8246 16.439 40.9591 15.1069 40.7538 15.1347C40.4801 15.1717 40.1408 15.8635 40.0467 16.0474C39.79 16.5497 39.6779 17.0932 39.7382 17.6544C39.7918 18.1538 40.0516 19.7142 40.8309 19.0525C41.4828 18.499 41.4738 17.4188 41.5765 16.6452C41.6383 16.1806 41.7321 15.7179 41.7694 15.2504C41.781 15.1049 41.855 14.7189 41.7437 14.8133C41.3967 15.1077 41.2449 15.997 41.1266 16.3881C40.907 17.1143 40.7236 17.8498 40.7088 18.6122C40.7032 18.8996 40.682 20.0794 41.1202 20.187C41.6098 20.3072 41.9836 18.5564 42.0297 18.3036C42.191 17.4194 42.1872 16.5306 42.1872 15.636C42.1872 15.4736 42.2407 14.9523 42.1068 15.4432C41.7857 16.6206 41.5237 17.7663 41.7533 18.985C41.8294 19.3889 42.0207 19.4692 42.3415 19.1585C43.0365 18.4854 43.5397 17.3455 43.6528 16.3945C43.6591 16.3409 43.7518 15.2922 43.5692 15.3275C43.1764 15.4035 43.0739 16.7345 43.055 16.9859C43.011 17.568 43.0828 18.182 43.2542 18.7407C43.329 18.9846 43.4549 19.3508 43.6978 19.0043C44.1693 18.3313 44.4162 17.4864 44.5205 16.6806C44.5317 16.5942 44.6247 15.5748 44.482 15.9382C44.1639 16.7478 43.9712 17.7359 44.212 18.5929C44.3794 19.1888 45.079 18.414 45.234 18.2008C45.6117 17.6814 45.7492 16.9755 45.7097 16.3431C45.6784 15.8434 45.5141 15.626 45.0347 15.4786C44.43 15.2925 43.9981 16.7031 44.2056 17.1466C44.4086 17.5807 45.1553 18.3219 45.6486 17.8697C45.9963 17.5511 46.148 16.9081 46.1789 16.4524C46.2076 16.0292 46.788 16.6524 46.9181 16.7674C47.1028 16.9305 47.5138 17.1418 47.6252 17.3587C47.7326 17.5678 47.6872 18.4789 47.5095 18.6379C47.3591 18.7724 47.0994 18.1247 47.0788 18.0786C47.0201 17.9472 46.8713 17.7377 46.8956 17.5837C46.9417 17.2919 47.1252 17.0103 47.2331 16.7384C47.3355 16.4802 47.3789 16.2531 47.622 16.086C47.841 15.9354 48.2701 16.3458 48.3837 16.4942C48.5927 16.767 49.0083 17.102 49.0329 17.468C49.0819 18.1972 48.7571 18.9151 48.7951 19.6599C48.8025 19.8068 48.7771 20.5879 49.0811 20.2738C49.5095 19.8311 49.5641 19.0541 49.5889 18.4707C49.591 18.4212 49.5376 18.0417 49.6885 18.1686C49.9935 18.4251 50.0297 18.9802 50.0614 19.3321C50.1324 20.122 50.1105 20.938 49.9971 21.7232C49.8411 22.8027 49.516 23.8227 49.4636 24.9179C49.4594 25.0042 49.3478 25.6609 49.4314 25.7278C49.4833 25.7693 49.4858 25.6058 49.5021 25.5414C49.5612 25.3082 49.6343 24.9342 49.6757 24.7186C49.8737 23.6876 49.9666 22.5997 50.2928 21.5979C50.4238 21.1953 50.5283 20.4489 50.8327 20.1323C51.0383 19.9185 51.0881 20.6413 51.0898 20.6562C51.1598 21.2714 51.1631 21.8987 51.1509 22.5171C51.1378 23.1755 51.0735 23.8646 50.9195 24.5065C50.7788 25.0925 50.4773 25.9285 50.852 26.4735C51.0221 26.721 51.3114 27.2677 51.1991 27.6048C51.1678 27.6985 51.1205 27.7787 51.093 27.8747C51.0779 27.9276 51.5993 27.9069 51.6844 27.9069C52.399 27.9069 53.1135 27.9069 53.8281 27.9069C54.1538 27.9069 54.4932 27.8792 54.818 27.9101C55.0078 27.9282 54.2871 28.4639 54.2298 28.5689C54.0125 28.9674 53.8282 29.4171 53.6256 29.8288C53.5238 30.0358 53.192 31.2677 52.97 30.9408C52.3082 29.9666 51.7695 28.9369 51.3983 27.8233C51.3728 27.7467 51.3855 27.6477 51.3855 27.5694C51.3855 27.3551 51.2947 27.9893 51.273 28.2026C51.1864 29.0544 51.1957 29.9031 51.2087 30.7576C51.2088 30.7635 51.1729 31.5209 51.1477 31.4776C50.9784 31.1874 50.9203 30.5982 50.8391 30.3045C50.6142 29.4899 50.349 28.6883 50.0999 27.8812C49.932 27.3369 49.8124 26.7889 49.8235 26.2163C49.8476 24.9824 50.6765 23.9383 51.1605 22.8481C51.4445 22.2085 51.6687 21.5091 51.6748 20.8041C51.6763 20.622 51.6748 20.4398 51.6748 20.2577C51.6748 20.0756 51.6406 20.9372 51.6394 20.9551C51.5478 22.2678 51.3077 23.534 51.3341 24.8568C51.3465 25.482 51.3515 26.1209 51.4176 26.7434C51.4601 27.1433 51.517 26.5629 51.5205 26.5313C51.5967 25.8348 51.6378 24.9777 51.6362 24.2944C51.6333 23.0992 51.5201 21.9193 51.3405 20.7398C51.2964 20.45 51.2698 20.1654 51.2698 19.872C51.2698 19.7281 51.2581 18.9723 51.4176 18.9143C51.5633 18.8613 52.0987 21.0228 52.1601 21.2444C52.3037 21.7626 52.4787 22.2661 52.6936 22.7581C53.1407 23.7822 53.1333 24.898 52.7643 25.9464C52.6509 26.2685 52.5012 26.5734 52.3368 26.872C52.2988 26.941 52.086 27.2053 52.1054 27.3026C52.1724 27.6375 52.2989 26.6469 52.369 26.3128C52.5868 25.2743 52.7932 24.2335 53.0117 23.1952C53.1202 22.68 53.2558 22.1544 53.2946 21.6268C53.2953 21.6174 53.2902 21.4556 53.3524 21.4854C53.5576 21.5835 53.7087 22.0908 53.7767 22.2632C53.9613 22.7318 54.0865 23.2214 54.2523 23.6966C54.5468 24.5405 54.4085 25.4847 54.5962 26.361C54.8301 27.4526 54.9371 28.645 54.969 29.7645C54.9882 30.4359 54.9218 31.195 54.7087 31.8343C54.6406 32.0386 54.4527 31.4821 54.3745 31.2815C54.1502 30.7069 53.9077 30.0921 53.8731 29.4688C53.8399 28.8712 53.9735 28.261 53.9856 27.6626C53.9877 27.5564 53.9675 26.413 53.8924 26.4831C53.7743 26.5933 53.6936 26.7905 53.6288 26.9298C53.3672 27.4923 53.1552 28.0875 53.0117 28.6911C52.8004 29.5804 52.764 30.4923 52.5425 31.3844C52.1813 32.8388 51.722 34.2636 51.5012 35.7489C51.4216 36.2846 51.2219 36.7926 51.1284 37.3269C51.0534 37.7554 50.9842 38.1732 50.8295 38.5836C50.4204 39.6686 50.3235 40.7284 49.6178 41.7011C49.3362 42.0893 48.9519 42.4024 48.6215 42.7488C48.2541 43.1341 47.8597 43.5787 47.3874 43.8416C46.4766 44.3486 45.6461 44.9729 44.7005 45.4164C44.1021 45.6971 43.4424 45.695 42.9103 46.1331C42.7654 46.2525 42.6205 46.4073 42.6757 46.6056C42.7421 46.8438 43.1036 47.2368 43.055 47.4798C43.0349 47.58 42.9766 47.2908 42.936 47.1969C42.8513 47.0005 42.7546 46.8201 42.6436 46.6377C42.583 46.5382 42.1759 46.0523 42.2804 45.9242C42.6516 45.4692 43.3652 45.1683 43.8552 44.8765C44.6237 44.4188 45.3981 43.9702 46.1436 43.4752C46.8148 43.0295 47.4256 42.4952 48.0784 42.0225C48.8873 41.4367 49.5885 40.686 50.2799 39.972C50.3842 39.8643 50.8994 39.3297 50.7427 39.8884C50.5602 40.5393 50.0857 41.1316 49.7078 41.6754C48.8813 42.8651 47.9847 44.1012 46.8538 45.0243C46.1392 45.6077 45.2757 45.9758 44.5141 46.4899C44.0684 46.7907 43.6202 47.0736 43.1514 47.3383C42.8922 47.4847 42.666 47.5553 42.6532 47.8751C42.6431 48.1284 42.65 48.3833 42.65 48.6368C42.65 49.2376 42.6157 49.8495 42.6532 50.4494C42.6793 50.8675 43.561 49.3718 43.6174 49.2571C43.7899 48.9063 43.9037 48.5325 44.0706 48.1804C44.2397 47.8236 44.5392 47.6063 44.8483 47.3769C44.95 47.3015 45.1538 47.0737 45.1826 47.1969C45.2437 47.459 44.9986 47.9235 44.8741 48.1226C44.3779 48.9156 43.425 49.3238 42.8461 50.0606C42.45 50.5646 42.3326 51.1943 42.3125 51.825C42.3071 51.9977 42.3095 52.2106 42.3608 52.3778C42.4256 52.5894 42.8233 52.3677 42.9264 52.3264C44.0188 51.8883 44.7649 51.0788 45.2533 50.0252C45.6677 49.1312 45.6018 48.0928 46.0953 47.2355C46.2113 47.0341 47.4077 45.5014 47.6252 45.6928C47.7173 45.7739 47.6879 46.1401 47.683 46.2006C47.628 46.885 47.3872 47.5457 47.1399 48.1804C46.9763 48.6002 46.7698 49.0097 46.6353 49.4403C46.5416 49.7402 46.8298 49.3787 46.8603 49.3438C47.6119 48.4848 47.8241 47.2975 48.2294 46.2585C48.5609 45.4086 48.917 44.5632 49.4378 43.8094C49.8169 43.2608 50.2602 42.761 50.6913 42.2539C50.8887 42.0216 50.954 41.8502 51.0705 41.5822C51.5543 40.4695 52.3694 39.31 52.5072 38.0854C52.6131 37.1437 52.6587 36.1645 52.7064 35.2186C52.7469 34.4165 52.6515 33.6283 52.9539 32.8628C53.029 32.6727 53.1194 32.4546 53.256 32.2971C53.3752 32.1598 53.4428 32.6235 53.4553 32.8049C53.5226 33.7846 53.3906 34.7498 53.2496 35.7167C53.1663 36.2876 52.9677 36.9877 53.0503 37.5744C53.0618 37.6556 53.2209 37.5362 53.2753 37.4748C53.8206 36.8588 54.2105 36.0735 54.5737 35.3439C55.1723 34.1418 55.4366 33.0922 55.3483 31.7668C55.3258 31.429 55.2052 30.9722 55.2872 30.6387C55.325 30.4849 55.5133 30.1884 55.66 30.433C56.1144 31.1903 56.2401 32.2428 56.245 33.107C56.2478 33.6127 56.0762 34.085 56.0714 34.5854C56.0601 35.7624 56.0923 36.9565 55.9171 38.124C55.7593 39.176 55.6393 40.2821 55.1619 41.2447C54.6492 42.2785 53.9187 42.9431 53.0246 43.6584C52.941 43.7253 52.7636 43.9055 52.6518 43.938C52.4213 44.005 52.3377 42.7792 52.3368 42.7681C52.2367 41.4782 52.5345 40.2822 53.0117 39.0914C53.2744 38.436 53.5767 37.7074 54.0081 37.1373C54.1509 36.9485 54.4367 36.7369 54.4259 37.118C54.3831 38.6227 53.8189 40.2374 53.031 41.5083C52.7576 41.9494 52.5475 42.2966 52.5104 42.8163C52.5036 42.9107 52.2916 43.1622 52.2565 43.2181C51.9754 43.6654 51.6631 44.0916 51.3823 44.539C50.8704 45.3545 50.3069 46.127 49.7721 46.927C49.4479 47.4119 48.6572 48.9757 48.9108 48.4504C49.526 47.1759 50.1737 45.9096 50.7041 44.5969C50.7597 44.4592 51.0155 43.3016 51.3501 43.3016C51.4395 43.3016 51.3272 43.4827 51.2859 43.562C50.9275 44.2489 50.5144 44.9002 50.1963 45.6092C49.9622 46.1312 49.5011 47.0129 49.6532 47.6212C49.6997 47.8073 49.8052 47.7553 49.9553 47.6855C50.3477 47.5028 50.8181 47.1366 51.1252 46.8916C52.1079 46.1077 53.0149 45.2413 53.8795 44.3301C54.0717 44.1276 54.2342 43.8966 54.4387 43.7066C54.4866 43.6622 54.3918 43.8287 54.3616 43.8866C53.8598 44.8498 53.1133 45.6553 52.4782 46.5284C52.0485 47.1194 51.7361 47.7729 51.2955 48.3604C50.9813 48.7793 50.7252 49.2235 50.2028 49.3888C50.0887 49.4249 50.0068 49.4126 49.891 49.3985C49.5888 49.3616 49.323 49.4077 49.0361 49.511C48.1602 49.8263 47.5362 50.2544 46.9406 50.9572C46.6576 51.2912 46.4664 51.7644 46.1436 52.0564C45.7938 52.3729 45.2707 52.5411 44.8644 52.7763C44.38 53.0568 44.0683 53.4749 43.4856 53.5798C43.3509 53.6041 43.1376 53.7952 43.116 53.9462C43.1045 54.027 43.0684 54.3063 43.2092 54.274C43.6977 54.1621 44.2543 53.695 44.6555 53.4063C45.7016 52.6534 46.7175 51.9082 47.6638 51.028C48.1651 50.5616 48.6555 50.0908 49.1743 49.6427C49.3374 49.5019 49.5231 49.3743 49.6757 49.2217C49.6904 49.207 49.8194 49.0362 49.8139 49.0835C49.7388 49.7218 49.159 50.3005 48.7372 50.7355C48.2855 51.2013 47.7061 51.5651 47.1881 51.9536C47.0965 52.0222 46.8721 52.319 47.1367 52.1271C48.2635 51.3102 48.5605 49.6952 48.9493 48.4568C49.3558 47.1624 50.0192 46.09 50.6527 44.9086C50.7761 44.6785 51.1801 44.1041 50.9291 44.1758C50.8219 44.2065 50.7436 44.4228 50.6913 44.5101" stroke="white" stroke-width="2" stroke-linecap="round"/>
</svg>
