<svg width="309" height="228" viewBox="0 0 309 228" fill="none" xmlns="http://www.w3.org/2000/svg">
<path d="M181.351 38.3742C179.323 39.138 177.75 40.1059 176.125 41.5098C174.859 42.6034 173.866 43.9663 172.606 45.081C170.916 46.5756 169.068 48.2371 168.152 50.336C167.315 52.2539 167.261 54.3999 167.159 56.4563C167.057 58.5232 168.201 60.2731 168.82 62.1643C169.417 63.9899 170.571 65.6659 171.735 67.1755C172.724 68.4591 174.089 69.7571 175.724 70.195C177.797 70.7502 179.442 70.3882 181.49 69.9627C183.437 69.5584 184.9 68.5112 186.385 67.2568C188.092 65.8151 188.757 64.0016 189.585 61.9959C190.34 60.1665 191.234 58.3508 191.547 56.3866C191.716 55.3311 191.896 54.2661 191.896 53.1929C191.896 52.3319 191.585 51.5632 191.431 50.7309C191.11 48.9869 190.593 46.9793 189.765 45.3945C189.143 44.2057 188.206 42.7459 187.123 41.9511C186.407 41.4263 185.577 41.0789 184.852 40.575C184.257 40.1611 183.604 39.7862 182.942 39.5007C181.566 38.9078 180.3 38.773 178.842 39.2104" stroke="black" stroke-width="7" stroke-linecap="round"/>
<path d="M177.823 51.1416C177.727 50.6613 177.388 52.0251 177.252 52.4957C176.88 53.7874 176.7 55.0006 176.7 56.3354C176.7 56.8755 176.566 57.7772 177.368 57.1639C178.667 56.1707 178.914 54.0066 178.081 52.6472C176.573 50.1874 174.937 53.8329 174.491 55.0614C174.459 55.1493 173.59 57.6866 174.402 57.6628C175.258 57.6376 176.379 55.8927 176.789 55.3109C177.079 54.8995 177.475 53.5058 177.092 53.832C176.541 54.3012 176.168 56.1533 175.595 56.3443C175.301 56.4424 175.518 55.7278 175.506 55.4178C175.497 55.1776 175.48 54.3558 175.382 54.0815C175.029 53.0951 172.678 55.1594 172.495 55.2752C171.423 55.9538 169.81 57.3037 168.477 57.4757C167.968 57.5414 168.201 55.5504 168.201 55.2841C168.201 54.9663 168.172 54.0165 168.219 54.3309C168.281 54.7456 168.413 55.1381 168.593 55.5158C168.853 56.0593 170.505 53.9693 170.811 53.6627C170.924 53.55 171.317 52.9619 171.426 53.3153C171.607 53.9018 171.791 54.521 171.854 55.1327C171.86 55.1953 171.812 55.3703 171.791 55.3109C171.679 54.9852 171.619 54.4482 171.595 54.1527C171.478 52.6992 171.628 51.2175 171.987 49.8053C171.991 49.7917 172.484 47.7972 172.914 48.5046C173.227 49.0202 173.258 49.794 173.324 50.3754C173.496 51.9013 173.574 50.4656 174.295 50.2596C175.336 49.9622 175.285 54.2753 175.079 54.8654C174.951 55.2314 174.722 55.1024 174.544 54.8476C173.948 53.9927 173.726 52.7965 173.636 51.783C173.61 51.4909 173.491 50.2547 174.099 50.2151C174.669 50.1779 175.027 51.6717 175.114 51.9968C175.372 52.9512 175.318 53.8669 175.168 54.8298C175.091 55.3217 175.065 55.2897 175.061 54.7942C175.037 52.0584 176.329 49.0391 179.319 48.5937C180.988 48.3452 180.805 52.1696 180.549 53.1371C180.315 54.0217 179.063 51.3683 179.016 51.1594C178.869 50.4969 178.744 49.5931 179.106 48.9679C179.427 48.4131 179.643 49.0033 179.676 49.3598C179.815 50.9074 179.526 52.5619 179.177 54.0636C179.14 54.2209 178.921 55.6438 178.393 55.097C177.211 53.8729 176.515 51.3158 176.976 49.6895C177.062 49.3882 177.96 47.3582 178.268 48.5581C178.437 49.2155 177.827 51.5615 176.763 50.8921C175.69 50.2178 175.289 48.9767 175.907 47.9255C176.516 46.8903 178.04 45.2264 179.195 44.8966C179.879 44.701 180.186 43.6375 180.62 43.1416C181.426 42.2203 183.775 44.5922 184.558 45.0124C185.157 45.3344 186.856 45.8456 186.803 46.8119C186.781 47.2057 185.883 46.3294 185.734 46.2596C184.702 45.7769 183.879 45.6894 182.74 45.6894C182.23 45.6894 181.486 45.5546 181.039 45.8676C180.74 46.0769 179.959 47.3939 180.602 47.5692C181.19 47.7296 181.951 47.293 182.571 47.293C183.256 47.293 183.731 47.4353 184.29 47.8454C185.081 48.4255 186.264 47.9007 187.177 48.3264C187.635 48.5404 185.915 48.3549 185.796 48.3532C184.667 48.336 183.504 48.4945 182.66 49.3064C182.231 49.7194 182.16 50.5808 182.598 51.0347C182.973 51.4234 183.923 50.7768 184.326 50.6961C185.115 50.5384 187.025 49.6536 187.444 50.6249C187.658 51.1191 188.217 52.0862 187.89 52.6382C187.545 53.2203 184.467 51.9066 183.791 51.979C183.276 52.0342 182.749 53.0165 182.99 53.4757C183.166 53.812 184.831 53.2667 185.128 53.1906C186.107 52.9396 187.338 53.4765 187.435 54.5893C187.459 54.8684 187.564 55.5478 187.239 55.6939C186.383 56.0793 185.038 55.4615 184.21 55.2485C183.384 55.036 182.668 55.5059 182.509 56.3799C182.386 57.052 184.594 55.831 184.754 55.7385C185.584 55.2559 186.222 55.5591 186.776 56.3621C186.908 56.5542 187.493 57.6627 187.186 57.8677C186.454 58.3556 185.083 57.6801 184.451 57.3599C183.295 56.7746 182.545 55.6739 181.778 54.6694C180.381 52.8381 178.91 57.7748 180.05 57.8766C181.533 58.009 183.656 56.9257 184.807 58.2151C185.423 58.9053 186.275 59.7674 186.553 60.6828C186.89 61.7886 185.455 62.8236 184.469 62.8476C182.579 62.8937 180.777 59.5007 180.709 57.9122C180.682 57.2808 181.041 56.5498 181.814 56.7719C183.052 57.1277 183.784 58.3239 184.362 59.3732C184.594 59.7954 184.976 60.4039 184.878 60.9233C184.813 61.2727 183.743 60.5316 183.631 60.4423C181.328 58.6104 179.69 55.3489 176.273 56.0325C174.978 56.2913 174.279 56.3519 173.252 57.1371C172.445 57.7544 170.765 57.9024 170.215 58.7674C169.882 59.2907 170.351 58.8281 170.518 58.518C170.612 58.343 171.976 56.7093 172.175 57.3777C172.48 58.4039 171.667 59.7787 171.319 60.6917C171.159 61.1138 171.121 61.353 171.551 60.9412C172.218 60.3025 172.855 59.631 173.511 58.9812C174.726 57.7782 174.47 58.661 173.974 59.7652C173.631 60.5285 172.763 61.7343 172.763 62.5804C172.763 63.0173 173.208 61.8287 173.44 61.4579C173.989 60.5764 174.633 59.7641 175.293 58.9634C175.739 58.4214 175.568 58.9637 175.506 59.3376C175.386 60.0674 175.21 60.8048 174.936 61.4935C174.866 61.6692 173.97 63.3079 174.188 62.5804C174.676 60.9549 175.834 59.306 177.146 58.2329C177.86 57.6481 177.379 59.4171 177.279 59.6583C176.748 60.9429 175.577 62.0153 174.553 62.9189C173.963 63.4392 173.853 63.1508 174.17 62.4289C174.771 61.0606 176.153 60.6895 177.413 60.1216C177.589 60.0424 179.417 58.9979 179.658 59.204C180.423 59.8601 177.928 61.7993 177.555 62.0993C176.934 62.6001 176.224 63.103 175.649 63.6494C175.392 63.8937 174.817 64.742 175.008 63.8098C175.307 62.342 175.912 61.9019 177.039 61.1193C177.386 60.8779 176.483 62.9747 176.308 63.2752C176.274 63.3339 175.047 65.2617 175.453 65.3777C175.678 65.442 176.521 64.5774 176.647 64.4868C177.462 63.8994 178.346 63.3943 179.23 62.9189C179.746 62.6415 180.32 62.4248 180.798 62.0815C180.831 62.0577 181.034 61.8376 181.03 61.8677C180.849 63.1945 179.401 64.0345 178.464 64.8075C177.895 65.2772 176.12 66.5803 176.629 66.0459C178.23 64.3642 180.268 63.4138 182.42 62.6338C182.622 62.5605 184.59 61.7844 184.442 62.0815C183.867 63.2307 182.317 63.8739 181.217 64.3532C179.787 64.9757 178.362 64.9687 176.967 65.5559C176.348 65.8168 176.272 66.3868 177.065 66.1884C178.398 65.8553 179.702 65.3261 181.03 65.0035C181.975 64.7739 182.941 64.5919 183.898 64.3621C184.473 64.2243 184.284 64.2005 184.273 63.5069C184.249 62.0603 184.366 60.6496 184.647 59.2307C185.051 57.1853 185.645 55.182 185.68 53.0837C185.699 51.9475 185.58 50.8289 185.484 49.6984C185.43 49.0602 185.662 46.001 185.039 45.6894" stroke="black" stroke-width="3" stroke-linecap="round"/>
<path d="M185.323 96.5924C186.166 96.1325 187.037 95.6265 187.785 95.0246C189.517 93.6297 190.451 91.4407 191.768 89.694C194.349 86.2713 197.806 83.5675 200.943 80.682C202.916 78.8665 204.906 77.0627 206.825 75.1888C209.328 72.7448 212.083 70.5504 214.716 68.244C215.965 67.15 217.227 66.0056 218.595 65.0619C219.456 64.468 220.35 63.9231 221.22 63.3431C222.004 62.8202 222.757 62.1867 223.606 61.7695C224.585 61.2885 225.621 60.9623 226.515 60.312C227.461 59.6243 228.504 59.0901 229.512 58.5003C231.214 57.504 232.958 56.5356 234.796 55.8118C235.632 55.4825 236.472 55.1393 237.281 54.7492C237.66 54.5667 238.097 54.4195 238.5 54.3079C239.324 54.0797 240.239 53.6239 241.079 53.5356C241.55 53.486 242.224 53.5298 242.6 53.5298" stroke="black" stroke-width="7" stroke-linecap="round"/>
<path d="M127 33.0439C128.273 33.0825 129.528 33.1532 130.798 33.0671C131.031 33.0513 132.193 32.8465 132.22 33.2413C132.272 33.9965 132.072 34.7407 132.174 35.4943C132.288 36.3368 132.477 37.1732 132.749 37.9796C133.002 38.7312 133.091 39.5261 133.376 40.2674C133.721 41.1646 134.168 42.0107 134.52 42.9037C135.17 44.5571 135.784 46.2372 136.459 47.88C137.182 49.6391 137.633 51.607 138.648 53.228C139.363 54.3696 140.14 55.4898 140.762 56.683C142.147 59.3425 143.877 61.8826 145.57 64.3653C146.099 65.1411 146.502 65.9876 147.045 66.7577C147.537 67.4562 148.056 68.1172 148.531 68.8307C148.901 69.3846 149.426 69.8073 149.786 70.3636C150.177 70.9691 150.639 71.5685 151.086 72.1347C151.918 73.1865 152.892 74.1688 153.647 75.2761C154.552 76.603 155.491 77.8083 156.742 78.8298C158.408 80.1901 159.631 81.8751 161.143 83.3881C162.398 84.6424 163.944 85.583 165.191 86.8605C166.094 87.7856 167.146 88.5431 168.053 89.4503C168.341 89.7378 168.735 90.5316 169.174 90.629C169.368 90.6722 169.449 90.783 169.226 90.6349" stroke="black" stroke-width="7" stroke-linecap="round"/>
<path d="M170.585 90.2169C170.585 91.9507 170.308 93.6499 170.382 95.3849C170.437 96.6802 170.749 97.9639 170.789 99.2638C170.84 100.919 170.859 102.573 170.905 104.229C170.977 106.83 171.317 109.401 171.317 112.004C171.317 113.774 171.003 115.5 171.003 117.265C171.003 118.681 171.003 120.098 171.003 121.515C171.003 126.329 171.111 131.114 170.893 135.916C170.846 136.961 170.585 137.977 170.585 139.028C170.585 139.275 170.572 139.525 170.585 139.771C170.59 139.868 170.746 139.653 170.841 139.632C172.882 139.173 175.175 139.935 177.193 140.155C179.753 140.433 182.5 140.707 185.073 140.439C185.712 140.373 185.633 140.194 185.683 139.504C185.74 138.717 185.741 137.93 185.741 137.141C185.741 136.072 185.68 135.019 185.642 133.953C185.547 131.238 185.741 128.517 185.741 125.8C185.741 122.398 185.716 118.995 185.741 115.592C185.751 114.202 186.005 112.824 186.049 111.435C186.093 110.019 186.116 108.57 186.049 107.155C185.941 104.892 185.446 102.648 185.218 100.402C185.084 99.0777 184.719 97.8156 184.487 96.5114C184.306 95.4993 184.382 94.4468 184.382 93.4222C184.382 92.8067 184.382 92.1912 184.382 91.5757" stroke="black" stroke-width="7" stroke-linecap="round"/>
<path d="M170.585 141.118C170.585 141.838 170.585 142.558 170.585 143.278C170.585 145.028 170.851 146.728 170.98 148.47C171.176 151.136 170.678 153.643 170.352 156.274C169.985 159.244 169.537 162.207 169.203 165.181C168.995 167.032 168.859 168.807 168.355 170.605C167.902 172.219 167.538 173.86 167.112 175.482C166.699 177.056 166.556 178.538 166.404 180.151C166.237 181.915 165.717 183.636 165.585 185.4C165.495 186.602 165.598 187.813 165.515 189.018C165.472 189.657 165.571 190.382 165.457 191.01C165.416 191.237 165.074 190.904 165.022 190.876C164.614 190.653 163.996 190.766 163.541 190.766C161.791 190.766 160.107 190.994 158.402 191.393C157.575 191.586 156.281 192.132 155.429 191.706" stroke="black" stroke-width="7" stroke-linecap="round"/>
<path d="M186.577 141.432C186.996 142.748 187.357 144.097 187.61 145.456C187.848 146.728 187.876 148.018 188.191 149.283C189.033 152.667 190.06 155.984 190.758 159.409C191.503 163.069 192.626 166.622 193.034 170.349C193.208 171.94 193.441 173.502 193.731 175.076C193.973 176.393 194.006 177.733 194.317 179.036C194.555 180.03 194.831 180.988 195.171 181.951C195.574 183.092 195.771 184.28 196.082 185.447C196.339 186.409 196.8 187.276 197.215 188.176C197.631 189.078 197.794 190.088 198.225 190.975C198.473 191.485 198.518 191.523 199.021 191.451C200.674 191.215 202.494 191.355 204.16 191.404C206.176 191.465 208.206 191.712 210.199 192.02C210.452 192.059 212.906 192.37 211.557 192.125" stroke="black" stroke-width="7" stroke-linecap="round"/>
<path d="M36.9321 11.7308C41.7098 11.9299 46.4682 12.054 51.2566 11.9722C55.8581 11.8935 60.5978 11.9303 65.1836 11.5888C74.5904 10.8883 84.0839 11.2197 93.5202 11.2197C103.484 11.2197 113.418 10.7086 123.39 10.7086C128.472 10.7086 133.555 10.7086 138.637 10.7086C144.769 10.7086 150.859 10.338 156.979 10.2118C166.947 10.0062 176.936 10.1976 186.906 10.1976C193.35 10.1976 199.776 9.68648 206.214 9.68648C211.384 9.68648 216.6 9.90731 221.759 9.55871C228.803 9.08273 235.982 9.43094 243.04 9.43094C253.169 9.43094 263.21 9.4808 273.307 8.91986" stroke="black" stroke-width="5" stroke-linecap="round"/>
<path d="M45.209 6.9765C45.209 9.08939 44.6734 11.2368 44.5369 13.3519C44.3509 16.2347 44.2388 19.1346 43.9739 22.016C43.4448 27.7692 43.9012 33.7497 43.9012 39.5258C43.9012 59.9715 43.5743 80.3932 43.5743 100.846C43.5743 121.478 43.2473 142.104 43.2473 162.73C43.2473 175.099 43.2473 187.469 43.2473 199.838C43.2473 208.374 44.5551 216.854 44.5551 225.376" stroke="black" stroke-width="5" stroke-linecap="round"/>
<path d="M3.35986 218.51C10.5816 219.348 17.6252 218.183 24.8293 218.183C30.6208 218.183 36.4868 217.586 42.1211 216.294C44.561 215.735 47.527 216.236 50.0041 216.222C52.1308 216.209 54.1503 215.895 56.2887 215.895C70.8637 215.895 85.396 215.241 99.9723 215.241C112.675 215.241 125.377 215.241 138.08 215.241C154.76 215.241 171.44 215.241 188.12 215.241C201.03 215.241 213.907 215.874 226.827 215.259C232.939 214.968 239.179 214.978 245.3 214.914C254.246 214.821 263.178 214.283 272.109 213.933C283.422 213.489 294.786 213.606 306.112 213.606" stroke="black" stroke-width="5" stroke-linecap="round"/>
<path d="M39.9778 46.8639C40.5386 45.462 43.8742 44.137 45.2089 43.3402C47.1269 42.1951 49.3158 41.4679 51.1303 40.107C52.8269 38.8345 54.4106 37.3994 56.1798 36.22C58.1347 34.9167 60.4509 34.0594 62.2101 32.4601C68.0983 27.1072 74.8158 22.8938 81.4272 18.5649C89.5235 13.2638 97.8252 7.96922 106.348 3.38013" stroke="black" stroke-width="5" stroke-linecap="round"/>
<path d="M177.735 9.17542C177.735 13.0811 177.563 16.9427 178.303 20.7883C178.585 22.2591 178.757 23.515 178.757 25.0331C178.757 26.6924 179.386 28.3103 179.509 29.9736C179.628 31.5684 180.035 33.1192 180.035 34.7295" stroke="black" stroke-width="5" stroke-linecap="round"/>
<path d="M266.918 203.386C267.818 203.632 268.545 204.908 269.19 205.53C270.327 206.626 270.664 208.219 270.737 209.761C270.802 211.11 270.847 212.603 270.496 213.92C270.36 214.431 269.516 214.81 269.374 214.076C269.153 212.925 270.07 211.827 270.865 211.109C272.849 209.318 274.963 207.482 277.452 206.453C278.665 205.951 279.969 205.525 281.229 205.175C281.923 204.982 282.297 202.738 282.506 202.109" stroke="black" stroke-width="5" stroke-linecap="round"/>
<path d="M82.4183 213.097C82.2311 212.535 81.1398 212.429 80.6437 212.33C80.2247 212.246 78.7536 211.109 78.8833 210.655C79.3058 209.176 82.0729 209.264 83.1565 209.264C85.0716 209.264 84.1519 209.751 84.9737 211.138C85.9645 212.81 82.2411 212.586 81.3961 212.586" stroke="black" stroke-width="5" stroke-linecap="round"/>
<path d="M88.0402 212.586C87.9485 211.761 85.767 210.936 85.2292 210.172C84.0518 208.499 83.3528 207.159 82.8016 205.175C81.7716 201.467 91.3301 204.908 92.498 206.368C93.4193 207.519 94.4287 208.986 94.4287 210.541C94.4287 211.937 91.1733 211.082 90.5246 210.925C89.642 210.71 88.9962 210.206 88.4377 209.491C88.341 209.367 87.2149 207.68 87.4865 207.659C89.2377 207.525 90.3621 210.052 91.3622 211.052" stroke="black" stroke-width="5" stroke-linecap="round"/>
</svg>
