<!DOCTYPE svg PUBLIC "-//W3C//DTD SVG 1.1//EN" "http://www.w3.org/Graphics/SVG/1.1/DTD/svg11.dtd">
<!-- Uploaded to: SVG Repo, www.svgrepo.com, Transformed by: SVG Repo Mixer Tools -->
<svg width="64px" height="64px" viewBox="0 0 512 512" version="1.1" xml:space="preserve" xmlns="http://www.w3.org/2000/svg" xmlns:xlink="http://www.w3.org/1999/xlink" fill="#000000">
<g id="SVGRepo_bgCarrier" stroke-width="0"/>
<g id="SVGRepo_tracerCarrier" stroke-linecap="round" stroke-linejoin="round"/>
<g id="SVGRepo_iconCarrier"> <style type="text/css"> .st0{display:none;} .st1{fill:#FFE2D2;} .st2{fill:#FFDE83;} .st3{fill:#F57070;} .st4{fill:#DBDBEF;} .st5{fill:#BCE2FF;} .st6{fill:#48446D;} .st7{fill:#6E78FF;} .st8{fill:#FFBE83;} .st9{fill:#F5949E;} .st10{fill:#D0FF67;} .st11{fill:#C69C6D;} .st12{fill:#C5BDD3;} .st13{fill:#FFE2B8;} .st14{fill:#F54670;} </style> <g class="st0" id="Layer_1"/> <g id="Layer_2"> <g> <path class="st4" d="M282.38,83.88c-94.91,0-172.12,77.21-172.12,172.12c0,8.9,0.69,17.83,2.04,26.56 c0.53,3.44-1.54,6.66-4.74,7.71c-0.16,0.05-0.32,0.1-0.48,0.14c-0.16,0.05-0.33,0.07-0.49,0.1c0.83,5.11,2.41,13.14,5.2,22.42 c0.01,0.02,0.01,0.04,0.02,0.05c0.04-0.02,0.09-0.05,0.14-0.07c0.11-0.05,0.21-0.09,0.32-0.12c0.16-0.06,0.32-0.11,0.47-0.16 c3.21-0.98,6.73,0.47,8.29,3.53c1.69,3.3,0.54,7.41-2.66,9.28c-0.34,0.2-0.69,0.36-1.05,0.49c-0.16,0.06-0.31,0.12-0.47,0.17 c-0.16,0.05-0.33,0.07-0.49,0.11c0.01,0.02,0.02,0.05,0.02,0.07c3.34,8.53,7.27,16.51,11.7,23.7l0.08,0.19 c0.13-0.13,0.25-0.25,0.39-0.37c0-0.01,0-0.01,0-0.01c0.12-0.11,0.27-0.2,0.4-0.3c0.1-0.08,0.2-0.17,0.31-0.24 c3.22-2.15,7.56-1.27,9.7,1.95c7.66,11.51,16.7,22.1,26.89,31.48c1.74,1.61,2.55,3.99,2.15,6.33c-0.4,2.34-1.96,4.32-4.14,5.25 l-79.18,33.86h197.7c94.91,0,172.12-77.21,172.12-172.12S377.29,83.88,282.38,83.88z M379.23,278.89 c-1.65,3.3-5.56,4.72-8.92,3.33c-1.76,2.8-3.8,5.77-5.95,8.75c1.23,1.29,1.95,3.05,1.95,4.84c0,0.46-0.05,0.92-0.14,1.37 c-0.09,0.45-0.22,0.89-0.4,1.31c-0.17,0.42-0.39,0.83-0.64,1.21c-0.26,0.38-0.55,0.74-0.87,1.06c-0.32,0.32-0.68,0.62-1.07,0.87 c-0.38,0.25-0.78,0.47-1.21,0.65c-0.42,0.17-0.86,0.3-1.3,0.39c-0.46,0.1-0.92,0.14-1.37,0.14c-0.46,0-0.92-0.04-1.37-0.14 c-0.45-0.09-0.89-0.22-1.31-0.39c-0.22-0.09-0.44-0.2-0.65-0.32c-2.9,3.65-5.59,6.9-7.65,9.36c0.11,0.08,0.22,0.17,0.33,0.26 c2.87,2.58,3.11,7.01,0.53,9.89c-7.01,7.8-15.02,15.84-23.8,23.88c-0.18,0.17-0.38,0.33-0.57,0.49c-0.53,0.47-1.07,0.91-1.61,1.35 l-0.49,0.4c-0.92,0.75-1.82,1.49-2.81,2.22c-0.73,0.53-1.47,1.02-2.21,1.51l-0.2,0.13c-0.85,0.56-1.86,1.22-2.96,1.87 c-0.81,0.47-1.62,0.91-2.44,1.35c-1.09,0.57-2.19,1.11-3.25,1.6c-0.79,0.36-1.58,0.71-2.37,1.03c-1.09,0.45-2.26,0.88-3.56,1.33 l-0.28,0.09c-0.66,0.23-1.33,0.45-2,0.65c-1.44,0.43-2.84,0.77-3.89,1.01l-0.53,0.13c-0.53,0.12-1.05,0.25-1.58,0.35 c-1.6,0.31-3.12,0.52-4.4,0.68c-0.14,0.01-0.29,0.04-0.44,0.06c-0.42,0.06-0.84,0.12-1.26,0.16c-2.16,0.21-4.17,0.31-6.14,0.31 h-0.03c-1.98,0-3.99-0.1-6.14-0.31c-0.43-0.04-0.85-0.1-1.28-0.16c-0.15-0.03-0.3-0.05-0.45-0.07c-1.27-0.16-2.78-0.36-4.38-0.67 c-0.53-0.1-1.05-0.23-1.58-0.35l-0.54-0.13c-1.06-0.25-2.45-0.58-3.87-1.01c-0.67-0.2-1.34-0.42-2-0.65l-0.3-0.1 c-1.31-0.45-2.47-0.88-3.54-1.31c-0.8-0.33-1.59-0.68-2.39-1.04c-1.07-0.49-2.15-1.03-3.23-1.6c-0.82-0.43-1.64-0.88-2.46-1.36 c-1.08-0.63-2.09-1.29-2.93-1.85l-0.18-0.12c-0.76-0.5-1.51-1-2.25-1.54c-0.98-0.71-1.87-1.44-2.73-2.15l-0.56-0.46 c-0.55-0.44-1.09-0.88-1.62-1.35c-0.21-0.17-0.39-0.33-0.57-0.49c-43.27-39.62-65.21-76.65-65.21-110.05 c0-35.12,28.57-63.68,63.69-63.68c16.85,0,32.68,6.54,44.53,18.2c11.85-11.66,27.68-18.2,44.53-18.2 c35.12,0,63.69,28.56,63.69,63.68C390.6,249.18,386.77,263.85,379.23,278.89z"/> <path class="st6" d="M390.6,235.3c0,13.88-3.83,28.55-11.37,43.59c-1.65,3.3-5.56,4.72-8.92,3.33c-0.16-0.07-0.32-0.13-0.47-0.21 c-0.15-0.07-0.29-0.16-0.43-0.24c-3.13-1.86-4.35-5.84-2.69-9.15c6.55-13.08,9.88-25.64,9.88-37.32 c0-27.4-22.29-49.68-49.69-49.68c-15.29,0-29.52,6.92-39.03,19c-1.32,1.69-3.35,2.67-5.5,2.67c-2.14,0-4.17-0.98-5.5-2.67 c-9.51-12.08-23.73-19-39.03-19c-27.4,0-49.69,22.28-49.69,49.68c0,29.29,20.38,62.81,60.56,99.63c0.19,0.15,0.34,0.28,0.5,0.42 c0.37,0.33,0.76,0.65,1.15,0.96l0.57,0.47c0.81,0.66,1.51,1.24,2.18,1.72c0.56,0.41,1.13,0.79,1.7,1.17l0.19,0.12 c0.69,0.46,1.5,0.98,2.29,1.45c0.63,0.37,1.27,0.71,1.91,1.05c0.85,0.45,1.69,0.87,2.51,1.24c0.62,0.28,1.24,0.56,1.87,0.82 c0.81,0.33,1.71,0.66,2.75,1.02l0.31,0.1c0.49,0.17,0.98,0.34,1.48,0.49c1.04,0.31,2.11,0.57,3.03,0.78l0.67,0.16 c0.33,0.08,0.65,0.16,0.98,0.22c1.17,0.23,2.38,0.39,3.42,0.52c0.27,0.03,0.53,0.07,0.8,0.11c0.18,0.03,0.36,0.06,0.54,0.08 c1.68,0.16,3.23,0.24,4.73,0.24h0.16c1.5,0,3.05-0.08,4.73-0.24c0.18-0.02,0.36-0.05,0.53-0.08c0.27-0.04,0.53-0.08,0.8-0.11 c1.04-0.13,2.26-0.29,3.44-0.52c0.33-0.06,0.65-0.14,0.97-0.22l0.66-0.16c0.87-0.2,1.98-0.47,3.04-0.78c0.5-0.15,1-0.32,1.49-0.49 l0.29-0.1c1.04-0.35,1.94-0.69,2.77-1.03c0.63-0.25,1.24-0.52,1.85-0.8c0.82-0.38,1.67-0.8,2.53-1.25 c0.64-0.34,1.27-0.68,1.9-1.05c0.8-0.47,1.62-1,2.3-1.46l0.22-0.14c0.56-0.37,1.12-0.74,1.66-1.13c0.68-0.5,1.39-1.08,2.14-1.7 l0.62-0.5c0.39-0.32,0.77-0.63,1.15-0.96c0.16-0.15,0.32-0.28,0.49-0.42c8.41-7.7,16.06-15.38,22.73-22.82 c2.26-2.51,5.93-3.01,8.74-1.37c0.28,0.17,0.55,0.36,0.82,0.58c0.11,0.08,0.22,0.17,0.33,0.26c2.87,2.58,3.11,7.01,0.53,9.89 c-7.01,7.8-15.02,15.84-23.8,23.88c-0.18,0.17-0.38,0.33-0.57,0.49c-0.53,0.47-1.07,0.91-1.61,1.35l-0.49,0.4 c-0.92,0.75-1.82,1.49-2.81,2.22c-0.73,0.53-1.47,1.02-2.21,1.51l-0.2,0.13c-0.85,0.56-1.86,1.22-2.96,1.87 c-0.81,0.47-1.62,0.91-2.44,1.35c-1.09,0.57-2.19,1.11-3.25,1.6c-0.79,0.36-1.58,0.71-2.37,1.03c-1.09,0.45-2.26,0.88-3.56,1.33 l-0.28,0.09c-0.66,0.23-1.33,0.45-2,0.65c-1.44,0.43-2.84,0.77-3.89,1.01l-0.53,0.13c-0.53,0.12-1.05,0.25-1.58,0.35 c-1.6,0.31-3.12,0.52-4.4,0.68c-0.14,0.01-0.29,0.04-0.44,0.06c-0.42,0.06-0.84,0.12-1.26,0.16c-2.16,0.21-4.17,0.31-6.14,0.31 h-0.03c-1.98,0-3.99-0.1-6.14-0.31c-0.43-0.04-0.85-0.1-1.28-0.16c-0.15-0.03-0.3-0.05-0.45-0.07c-1.27-0.16-2.78-0.36-4.38-0.67 c-0.53-0.1-1.05-0.23-1.58-0.35l-0.54-0.13c-1.06-0.25-2.45-0.58-3.87-1.01c-0.67-0.2-1.34-0.42-2-0.65l-0.3-0.1 c-1.31-0.45-2.47-0.88-3.54-1.31c-0.8-0.33-1.59-0.68-2.39-1.04c-1.07-0.49-2.15-1.03-3.23-1.6c-0.82-0.43-1.64-0.88-2.46-1.36 c-1.08-0.63-2.09-1.29-2.93-1.85l-0.18-0.12c-0.76-0.5-1.51-1-2.25-1.54c-0.98-0.71-1.87-1.44-2.73-2.15l-0.56-0.46 c-0.55-0.44-1.09-0.88-1.62-1.35c-0.21-0.17-0.39-0.33-0.57-0.49c-43.27-39.62-65.21-76.65-65.21-110.05 c0-35.12,28.57-63.68,63.69-63.68c16.85,0,32.68,6.54,44.53,18.2c11.85-11.66,27.68-18.2,44.53-18.2 C362.03,171.62,390.6,200.18,390.6,235.3z"/> <path class="st6" d="M366.31,295.81c0,0.46-0.05,0.92-0.14,1.37c-0.09,0.45-0.22,0.89-0.4,1.31c-0.17,0.42-0.39,0.83-0.64,1.21 c-0.26,0.38-0.55,0.74-0.87,1.06c-0.32,0.32-0.68,0.62-1.07,0.87c-0.38,0.25-0.78,0.47-1.21,0.65c-0.42,0.17-0.86,0.3-1.3,0.39 c-0.46,0.1-0.92,0.14-1.37,0.14c-0.46,0-0.92-0.04-1.37-0.14c-0.45-0.09-0.89-0.22-1.31-0.39c-0.22-0.09-0.44-0.2-0.65-0.32 c-0.19-0.1-0.38-0.21-0.56-0.33c-0.1-0.06-0.19-0.14-0.28-0.21c-0.28-0.2-0.54-0.42-0.78-0.66c-0.32-0.32-0.62-0.68-0.87-1.06 c-0.25-0.38-0.47-0.79-0.64-1.21c-0.18-0.42-0.31-0.86-0.4-1.31c-0.1-0.45-0.14-0.91-0.14-1.37c0-1.84,0.75-3.65,2.05-4.95 c0.32-0.32,0.68-0.61,1.06-0.87c0.38-0.25,0.79-0.47,1.21-0.64c0.42-0.18,0.86-0.31,1.31-0.4c0.9-0.18,1.83-0.18,2.74,0 c0.44,0.09,0.88,0.22,1.3,0.4c0.43,0.17,0.83,0.39,1.21,0.64c0.14,0.1,0.28,0.2,0.42,0.31c0.23,0.17,0.45,0.36,0.65,0.56 c0.03,0.03,0.06,0.07,0.1,0.11C365.59,292.26,366.31,294.02,366.31,295.81z"/> <path class="st6" d="M468.5,256c0,102.63-83.49,186.12-186.12,186.12H50.5c-3.32,0-6.19-2.34-6.86-5.6 c-0.66-3.25,1.05-6.53,4.11-7.84l100.96-43.17c-7.93-8.18-15.1-17.08-21.4-26.56c-1.88-2.82-1.44-6.48,0.85-8.78 c0.13-0.13,0.25-0.25,0.39-0.37c0-0.01,0-0.01,0-0.01c0.12-0.11,0.27-0.2,0.4-0.3c0.1-0.08,0.2-0.17,0.31-0.24 c3.22-2.15,7.56-1.27,9.7,1.95c7.66,11.51,16.7,22.1,26.89,31.48c1.74,1.61,2.55,3.99,2.15,6.33c-0.4,2.34-1.96,4.32-4.14,5.25 l-79.18,33.86h197.7c94.91,0,172.12-77.21,172.12-172.12S377.29,83.88,282.38,83.88c-94.91,0-172.12,77.21-172.12,172.12 c0,8.9,0.69,17.83,2.04,26.56c0.53,3.44-1.54,6.66-4.74,7.71c-0.16,0.05-0.32,0.1-0.48,0.14c-0.16,0.05-0.33,0.07-0.49,0.1 c-0.05,0.01-0.09,0.02-0.14,0.03c-3.82,0.6-7.39-2.02-7.99-5.84c-1.46-9.43-2.2-19.09-2.2-28.7 c0-102.63,83.5-186.12,186.12-186.12C385.01,69.88,468.5,153.37,468.5,256z"/> <path class="st6" d="M118.37,325.44c-0.34,0.2-0.69,0.36-1.05,0.49c-0.16,0.06-0.31,0.12-0.47,0.17 c-0.16,0.05-0.33,0.07-0.49,0.11c-0.5,0.11-1.01,0.19-1.51,0.19c-2.29,0-4.53-1.12-5.88-3.15c-0.3-0.44-0.54-0.92-0.73-1.42 c-1.28-3.42,0.27-7.3,3.57-8.85c0.04-0.02,0.09-0.05,0.14-0.07c0.11-0.05,0.21-0.09,0.32-0.12c0.16-0.06,0.32-0.11,0.47-0.16 c3.21-0.98,6.73,0.47,8.29,3.53C122.72,319.46,121.57,323.57,118.37,325.44z"/> <path class="st3" d="M369.84,282.01c0.15,0.08,0.31,0.14,0.47,0.21c-1.76,2.8-3.8,5.77-5.95,8.75c-0.04-0.04-0.07-0.08-0.1-0.11 c-0.2-0.2-0.42-0.39-0.65-0.56c-0.14-0.11-0.28-0.21-0.42-0.31c-0.38-0.25-0.78-0.47-1.21-0.64c-0.42-0.18-0.86-0.31-1.3-0.4 c-0.91-0.18-1.84-0.18-2.74,0c-0.45,0.09-0.89,0.22-1.31,0.4c-0.42,0.17-0.83,0.39-1.21,0.64c-0.38,0.26-0.74,0.55-1.06,0.87 c-1.3,1.3-2.05,3.11-2.05,4.95c0,0.46,0.04,0.92,0.14,1.37c0.09,0.45,0.22,0.89,0.4,1.31c0.17,0.42,0.39,0.83,0.64,1.21 c0.25,0.38,0.55,0.74,0.87,1.06c0.24,0.24,0.5,0.46,0.78,0.66c0.09,0.07,0.18,0.15,0.28,0.21c0.18,0.12,0.37,0.23,0.56,0.33 c-2.9,3.65-5.59,6.9-7.65,9.36c-0.27-0.22-0.54-0.41-0.82-0.58c-2.81-1.64-6.48-1.14-8.74,1.37 c-6.67,7.44-14.32,15.12-22.73,22.82c-0.17,0.14-0.33,0.27-0.49,0.42c-0.38,0.33-0.76,0.64-1.15,0.96l-0.62,0.5 c-0.75,0.62-1.46,1.2-2.14,1.7c-0.54,0.39-1.1,0.76-1.66,1.13l-0.22,0.14c-0.68,0.46-1.5,0.99-2.3,1.46 c-0.63,0.37-1.26,0.71-1.9,1.05c-0.86,0.45-1.71,0.87-2.53,1.25c-0.61,0.28-1.22,0.55-1.85,0.8c-0.83,0.34-1.73,0.68-2.77,1.03 l-0.29,0.1c-0.49,0.17-0.99,0.34-1.49,0.49c-1.06,0.31-2.17,0.58-3.04,0.78l-0.66,0.16c-0.32,0.08-0.64,0.16-0.97,0.22 c-1.18,0.23-2.4,0.39-3.44,0.52c-0.27,0.03-0.53,0.07-0.8,0.11c-0.17,0.03-0.35,0.06-0.53,0.08c-1.68,0.16-3.23,0.24-4.73,0.24 h-0.16c-1.5,0-3.05-0.08-4.73-0.24c-0.18-0.02-0.36-0.05-0.54-0.08c-0.27-0.04-0.53-0.08-0.8-0.11c-1.04-0.13-2.25-0.29-3.42-0.52 c-0.33-0.06-0.65-0.14-0.98-0.22l-0.67-0.16c-0.92-0.21-1.99-0.47-3.03-0.78c-0.5-0.15-0.99-0.32-1.48-0.49l-0.31-0.1 c-1.04-0.36-1.94-0.69-2.75-1.02c-0.63-0.26-1.25-0.54-1.87-0.82c-0.82-0.37-1.66-0.79-2.51-1.24c-0.64-0.34-1.28-0.68-1.91-1.05 c-0.79-0.47-1.6-0.99-2.29-1.45l-0.19-0.12c-0.57-0.38-1.14-0.76-1.7-1.17c-0.67-0.48-1.37-1.06-2.18-1.72l-0.57-0.47 c-0.39-0.31-0.78-0.63-1.15-0.96c-0.16-0.14-0.31-0.27-0.5-0.42c-40.18-36.82-60.56-70.34-60.56-99.63 c0-27.4,22.29-49.68,49.69-49.68c15.3,0,29.52,6.92,39.03,19c1.33,1.69,3.36,2.67,5.5,2.67c2.15,0,4.18-0.98,5.5-2.67 c9.51-12.08,23.74-19,39.03-19c27.4,0,49.69,22.28,49.69,49.68c0,11.68-3.33,24.24-9.88,37.32c-1.66,3.31-0.44,7.29,2.69,9.15 C369.55,281.85,369.69,281.94,369.84,282.01z"/> </g> </g> </g>
</svg>