<svg width="51" height="50" viewBox="0 0 51 50" fill="none" xmlns="http://www.w3.org/2000/svg">
<circle cx="25.2534" cy="25" r="24.25" fill="#FB0050" stroke="black" stroke-width="1.5"/>
<path d="M11.0458 14.0814C11.4422 14.0814 11.8459 14.085 12.2401 14.1232C12.5212 14.1505 12.8033 14.1521 13.0854 14.166C13.3432 14.1786 13.5983 14.2222 13.8561 14.2394C14.3999 14.2756 14.9548 14.2668 15.5004 14.2812C15.7439 14.2876 15.9884 14.2821 16.2321 14.2821C16.3027 14.2821 16.285 14.2957 16.2731 14.258C16.2396 14.1512 16.2329 14.0332 16.2311 13.9234C16.2253 13.5658 16.1918 13.21 16.2311 12.8527C16.3084 12.149 16.3636 11.4498 16.3636 10.7429C16.3636 10.6743 16.3312 10.3345 16.413 10.3023C16.4399 10.2918 16.4993 10.3005 16.5255 10.3005C16.6636 10.3005 16.8 10.2941 16.9376 10.2828C17.2246 10.2594 17.5186 10.2216 17.8071 10.2429C18.5199 10.2954 19.1992 10.267 19.9098 10.2094C20.7671 10.1399 21.6218 10.0243 22.4835 10.0012C22.8194 9.99222 23.1523 10.0358 23.4876 10.0458C24.0247 10.0619 24.563 10.0661 25.1003 10.0793C25.5826 10.0912 26.0647 10.1165 26.547 10.1165C27.2717 10.1165 27.9964 10.1332 28.7212 10.1332" stroke="black" stroke-width="1.5" stroke-linecap="round"/>
<path d="M28.6077 10.083C29.5457 10.2311 30.5031 10.1963 31.4505 10.2336C32.0659 10.2578 32.6831 10.2579 33.2978 10.2921C33.5966 10.3088 33.8886 10.334 34.1883 10.334C34.2276 10.334 34.5757 10.3082 34.5794 10.3563C34.6021 10.6522 34.5532 10.9544 34.5773 11.2522C34.5953 11.4753 34.6346 11.725 34.7034 11.9409C34.7932 12.2224 34.8441 12.4972 34.9011 12.7848C34.9769 13.167 34.9663 13.557 34.9663 13.9438C34.9663 14.0619 35.0148 13.9675 35.124 13.9513C35.5993 13.8808 36.105 13.9964 36.577 14.0405C37.3472 14.1124 38.0905 14.1683 38.8626 14.1158C38.9289 14.1113 38.9865 14.1023 39.0498 14.0851C39.0852 14.0755 39.1207 14.0928 39.0729 14.0647" stroke="black" stroke-width="1.5" stroke-linecap="round"/>
<path d="M39.0162 13.981C39.144 13.9308 39.3276 13.9808 39.4588 13.9987C39.4964 14.0038 39.5501 14.0574 39.5818 14.0758C39.6967 14.1425 39.8229 14.2223 39.9161 14.3119C40.3763 14.754 40.2439 15.4715 40.2084 16.0127C40.187 16.3395 40.1056 16.6767 40.0381 16.9979C39.9428 17.4514 39.7685 17.895 39.6218 18.3372C39.497 18.7132 39.3906 19.0943 39.2664 19.4702C39.1819 19.7261 39.13 19.9908 39.0456 20.2472C38.675 21.373 37.8881 22.4641 36.7694 23.1107C36.5625 23.2304 36.3408 23.3308 36.1313 23.4444C35.8812 23.58 35.6626 23.7059 35.3827 23.7929C35.1508 23.8651 34.9224 23.9553 34.6783 23.989C34.4901 24.015 34.3051 24.0402 34.1147 24.0522" stroke="black" stroke-width="1.5" stroke-linecap="round"/>
<path d="M34.0958 24.069C34.0807 24.2518 33.9819 24.4402 33.9171 24.6136C33.8304 24.8457 33.7276 25.0729 33.6511 25.3079C33.5786 25.5304 33.4651 25.7201 33.3557 25.9297C33.2429 26.1457 33.1111 26.3757 32.9414 26.5617C32.5646 26.9748 32.2136 27.4179 31.7261 27.7365C31.5564 27.8473 31.3775 27.9726 31.1762 28.0311C31.0556 28.0662 30.9444 28.1239 30.8219 28.151" stroke="black" stroke-width="1.5" stroke-linecap="round"/>
<path d="M30.9165 28.0841C30.8669 28.0987 30.8316 28.1448 30.7935 28.1742C30.7413 28.2144 30.6779 28.2395 30.6231 28.2765C30.5054 28.356 30.3809 28.436 30.2573 28.5079C29.932 28.6971 29.5915 28.868 29.2364 29.0135C28.9352 29.1369 28.6409 29.2749 28.3343 29.389C28.0496 29.495 28.0506 29.9366 27.9979 30.166C27.9508 30.3709 27.9553 30.5848 27.9369 30.7933C27.9131 31.0645 27.8981 31.3369 27.8791 31.6085C27.8635 31.8322 27.8519 32.0585 27.8276 32.2814C27.8127 32.4175 27.7922 32.5687 27.8171 32.7052C27.839 32.8251 27.8986 32.9476 27.9537 33.0584C27.9938 33.1389 28.181 33.2319 28.2649 33.2768C28.4019 33.3501 28.5404 33.4481 28.6371 33.5621C28.7537 33.6995 28.8922 33.8545 28.982 34.0064C29.0674 34.151 29.1552 34.2939 29.2438 34.4367C29.4135 34.7103 29.4671 34.9839 29.5518 35.2834C29.6061 35.4753 29.7326 35.7881 29.945 35.8819C30.1442 35.97 30.3895 35.9777 30.6053 35.9935C31.2435 36.0401 31.8775 36.0891 32.5187 36.1152C33.1958 36.1429 33.8671 36.2106 34.5458 36.2147C34.6314 36.2152 34.9189 36.2007 34.9295 36.3085C34.9433 36.4483 34.9579 36.5851 34.9369 36.7259C34.9191 36.8449 34.8906 36.9509 34.8906 37.0716C34.8906 37.284 34.9362 37.5058 34.9747 37.7148C35.0162 37.9402 35.0777 38.1548 35.1072 38.3821C35.1375 38.6155 35.1373 38.8566 35.1177 39.0903C35.1062 39.2276 35.0867 39.3753 35.0462 39.5085C35.0303 39.5609 35.007 39.6101 35.0042 39.6647C35.0013 39.7194 34.9863 39.7052 34.9474 39.6777" stroke="black" stroke-width="1.5" stroke-linecap="round"/>
<path d="M21.0568 39.7279C21.2281 39.7279 21.3925 39.7922 21.5677 39.7948C21.8321 39.7988 22.0944 39.8249 22.3583 39.8283C22.7179 39.8329 23.0922 39.8419 23.4497 39.8729C23.8234 39.9053 24.1926 39.9713 24.5683 39.9919C24.8407 40.0068 25.1177 39.9968 25.3905 39.9956C25.7795 39.9938 26.1811 39.9961 26.568 39.9621C27.1973 39.9069 27.8257 39.8816 28.4583 39.8534C29.2017 39.8202 29.9468 39.7781 30.6914 39.7781C31.3553 39.7781 32.0236 39.7996 32.6859 39.753C33.1474 39.7205 33.6429 39.7658 34.0989 39.6852C34.2723 39.6545 34.4476 39.661 34.6256 39.661" stroke="black" stroke-width="1.5" stroke-linecap="round"/>
<path d="M20.7351 35.9805C20.4945 36.0447 20.245 36.0384 19.997 36.0511C19.5826 36.0723 19.172 36.0586 18.7575 36.0474C18.4004 36.0377 18.0408 36.0139 17.684 36.0139C17.3854 36.0139 17.0867 36.0474 16.7883 36.0474C16.5948 36.0474 16.3687 36.0571 16.1848 36.1162C16.1327 36.1329 16.1359 36.2404 16.1322 36.276C16.1173 36.4201 16.1032 36.5622 16.0797 36.7054C16.0292 37.0126 15.9232 37.3166 15.9104 37.6274C15.8992 37.8984 15.9677 38.1816 15.9892 38.4527C16.0053 38.6547 16.0365 38.8559 16.0187 39.0587C16.0011 39.2586 16.0319 39.4275 16.0986 39.6192C16.1089 39.6488 16.1392 39.7022 16.1827 39.687C16.3331 39.6345 16.4916 39.6093 16.6537 39.5978C17.0669 39.5683 17.4448 39.6641 17.8481 39.7279C18.275 39.7954 18.7039 39.8478 19.1328 39.9026C19.4455 39.9426 19.766 39.9287 20.0811 39.9287C20.3954 39.9287 20.7405 39.9411 21.0494 39.8943C21.2359 39.866 21.7948 39.7948 21.6056 39.7948" stroke="black" stroke-width="1.5" stroke-linecap="round"/>
<path d="M20.7351 35.8968C20.7351 35.7295 20.7273 35.5643 20.7015 35.3987C20.6722 35.211 20.7855 35.0538 20.9055 34.9098C20.9722 34.8296 21.0243 34.7378 21.1042 34.6672C21.1932 34.5885 21.2462 34.4803 21.3365 34.406C21.4187 34.3385 21.4897 34.2373 21.5573 34.156C21.6457 34.0498 21.7205 33.9403 21.818 33.8391C21.881 33.7738 21.9577 33.7257 22.0409 33.682C22.1273 33.6367 22.2138 33.5912 22.3017 33.5454C22.432 33.4774 22.5333 33.3665 22.5813 33.2368C22.6599 33.0246 22.6087 32.7505 22.6087 32.5305C22.6087 32.2835 22.5897 32.0389 22.5897 31.7925C22.5897 31.6606 22.5708 31.5296 22.5708 31.3984C22.5708 31.2375 22.6005 31.0759 22.6108 30.9151C22.6213 30.749 22.6658 30.5853 22.6801 30.4188C22.6902 30.3021 22.6844 30.1835 22.6844 30.0666C22.6844 30.025 22.7185 29.7329 22.6728 29.7059C22.5957 29.6605 22.5284 29.6062 22.4488 29.5619C22.2949 29.4761 22.1275 29.4155 21.9747 29.3295C21.6061 29.1222 21.1975 29.0064 20.7993 28.8527C20.6276 28.7865 20.4345 28.7179 20.2767 28.6287C20.1153 28.5375 19.9624 28.4395 19.7921 28.3611C19.4942 28.2239 19.2216 27.9461 19.0151 27.7179C18.8334 27.5171 18.6432 27.3201 18.4158 27.1584C18.2913 27.0699 18.1526 27.0005 18.0289 26.913" stroke="black" stroke-width="1.5" stroke-linecap="round"/>
<path d="M17.8586 26.7624C17.7237 26.5373 17.5108 26.3559 17.3686 26.136C17.2001 25.8752 17.0266 25.6167 16.8745 25.3479C16.7501 25.128 16.7185 24.8665 16.5801 24.6545C16.5457 24.6018 16.5063 24.4969 16.4435 24.4677C16.3059 24.4037 16.1688 24.3397 16.0303 24.2772C15.8876 24.2128 15.7367 24.1633 15.5918 24.1024C15.4272 24.0332 15.2718 23.9098 15.125 23.8143C15.0016 23.734 14.8767 23.6557 14.7529 23.5764C14.608 23.4835 14.4257 23.4232 14.3008 23.3078C14.199 23.2137 14.1247 23.102 14.0211 23.0094C13.8858 22.8886 13.7225 22.7922 13.5564 22.7083C13.3486 22.6033 13.1493 22.4417 13.0139 22.2622" stroke="black" stroke-width="1.5" stroke-linecap="round"/>
<path d="M12.8625 22.0614C12.7373 21.9507 12.6029 21.8487 12.4777 21.738C12.39 21.6605 12.3523 21.56 12.2863 21.4684C12.1372 21.2613 12.0157 21.0488 11.8784 20.8364C11.7065 20.5705 11.5495 20.2958 11.4579 20C11.4148 19.8609 11.3502 19.7261 11.3201 19.5845C11.2882 19.4339 11.251 19.2828 11.2066 19.1347C11.1708 19.0151 11.1518 18.8922 11.1214 18.7713C11.0864 18.6319 11.0369 18.4991 11.0258 18.3567C11.0186 18.2652 10.9712 18.1716 10.9553 18.0798C10.9292 17.9284 10.8849 17.7857 10.866 17.6318C10.7971 17.0718 10.7273 16.5187 10.5726 15.9718" stroke="black" stroke-width="1.5" stroke-linecap="round"/>
<path d="M10.7809 14.0145C10.6203 13.932 10.5359 13.9121 10.3729 13.9903C10.2533 14.0477 10.2766 14.2232 10.2657 14.3193C10.2119 14.7947 10.3432 15.2845 10.497 15.7376" stroke="black" stroke-width="1.5" stroke-linecap="round"/>
<path d="M21.4471 13.0731C21.8636 13.0731 22.2682 13.0154 22.6828 12.9925C22.9685 12.9767 23.2542 13.0183 23.5399 13.0183C23.8583 13.0183 24.1767 13.0183 24.495 13.0183C25.0418 13.0183 25.5885 13.0183 26.1352 13.0183C26.3807 13.0183 26.6262 13.0183 26.8718 13.0183C27.0997 13.0183 27.3108 12.98 27.5395 13.0046C27.8711 13.0404 28.2179 13.0183 28.5515 13.0183C28.8576 13.0183 29.1647 13.0645 29.4705 13.0396C30.2281 12.978 30.9922 13.1279 31.7525 13.1279C32.27 13.1279 32.7874 13.1279 33.3049 13.1279C33.7338 13.1279 34.1951 13.1654 34.6129 13.0731" stroke="black" stroke-width="1.5" stroke-linecap="round"/>
<path d="M21.1683 18.824C21.3133 18.8112 21.4442 18.7518 21.5934 18.7419C21.7951 18.7284 21.9935 18.7068 22.194 18.6871C22.3285 18.6739 22.4466 18.6361 22.5761 18.611C22.7329 18.5806 22.9171 18.5977 23.0786 18.5836C23.348 18.5601 23.7417 18.6547 23.9563 18.465C24.1974 18.2518 24.3543 18.019 24.5122 17.7469C24.6613 17.4899 24.8204 17.2359 24.9648 16.977C25.1245 16.6908 25.1605 16.364 25.3159 16.0794C25.3463 16.0238 25.3666 15.9429 25.4192 15.8999C25.5501 15.7927 25.7169 16.2451 25.7462 16.3046C25.8228 16.4604 25.9126 16.6367 25.9561 16.8036C25.9875 16.9237 25.9836 17.0385 26.0559 17.1474C26.2497 17.4392 26.4944 17.7088 26.7116 17.9872C26.773 18.0659 26.831 18.1824 26.9233 18.2368C27.0693 18.3228 27.3756 18.2987 27.5429 18.3311C27.9495 18.4099 28.3608 18.4677 28.7579 18.5745C29.1006 18.6667 29.4449 18.7162 29.7991 18.7434C29.9779 18.7571 29.8439 18.8017 29.7595 18.8423C29.5676 18.9346 29.374 19.0224 29.2054 19.1466C28.9175 19.3587 28.6791 19.654 28.4481 19.9133C28.2804 20.1017 28.1268 20.3004 27.9663 20.4945C27.882 20.5965 27.7714 20.6841 27.6754 20.7775C27.5894 20.8611 27.5939 20.8321 27.6289 20.9814C27.6734 21.1706 27.6878 21.3758 27.7666 21.5565C27.8301 21.702 27.9016 21.876 27.9387 22.0281C28.0207 22.3637 28.0591 22.6983 28.1229 23.0368C28.1332 23.0917 28.1628 23.1194 28.1074 23.09C27.9763 23.0205 27.8567 22.9442 27.7184 22.8831C27.4154 22.7492 27.1036 22.6328 26.7925 22.515C26.374 22.3564 25.9042 22.1715 25.5672 21.9033C25.5086 21.8567 24.9191 22.2727 24.822 22.3126C24.46 22.4612 24.1194 22.627 23.7532 22.7797C23.5028 22.8841 23.2196 22.9815 23.0889 23.2057C23.0783 23.2238 23.0042 23.3117 22.9977 23.2483C22.9752 23.0291 22.996 22.8005 22.996 22.5804C22.996 22.2596 22.886 21.9165 22.965 21.6021C23.0416 21.2976 23.1773 21.0086 23.2369 20.6984C23.2483 20.6394 23.2608 20.5971 23.1973 20.5691C22.944 20.4571 22.7796 20.262 22.5468 20.1294C22.21 19.9375 21.9621 19.7175 21.6794 19.4676C21.5312 19.3365 21.3722 19.217 21.2612 19.0644C21.2304 19.022 20.9803 18.7589 21.1373 18.8514" stroke="black" stroke-width="1.5" stroke-linecap="round"/>
<path d="M16.0202 17.032C16.1531 17.0501 16.3037 17.141 16.4158 17.2064C16.7419 17.3963 16.9191 17.6224 16.9698 17.9976C17.0031 18.2437 17.0311 18.5484 16.9239 18.7822C16.878 18.8825 16.8002 18.957 16.7139 19.0232C16.6618 19.0632 16.491 19.2081 16.4102 19.1732C16.3555 19.1496 16.2849 18.9678 16.2658 18.9351C16.1574 18.7485 16.0344 18.5728 15.9152 18.3932C15.8096 18.2342 15.5717 17.8752 15.8421 17.7426C16.2069 17.5636 16.8036 17.7069 17.0945 17.9695C17.265 18.1233 17.3636 18.3549 17.4301 18.5694C17.5015 18.7996 17.4857 18.9793 17.4714 19.2088" stroke="white" stroke-width="2" stroke-linecap="round"/>
<path d="M14.957 16.7114C14.7552 16.6831 14.5504 16.7789 14.3645 16.8454C13.902 17.011 14.1692 17.67 14.3861 17.9376C14.4663 18.0366 14.5655 18.1514 14.6964 18.1795C14.7305 18.1868 14.7177 18.23 14.7508 18.2432C14.8661 18.2893 14.6721 18.0027 14.597 17.9039C14.4345 17.6898 14.2385 17.5001 14.0636 17.2954C13.9712 17.1873 13.8886 17.0789 13.8077 16.9626C13.7672 16.9044 13.7254 16.835 13.6652 16.7948C13.551 16.7187 13.4717 16.5973 13.3624 16.5211C13.3233 16.4939 13.0939 16.3826 13.1018 16.3486C13.1142 16.2946 13.4796 16.2361 13.5321 16.2258C13.6838 16.1959 13.8287 16.1513 13.982 16.1245C14.4573 16.0414 14.9338 15.9679 15.4173 15.9942C15.8397 16.0172 16.2634 15.9856 16.6857 16.0064C17.2073 16.0321 17.7675 16.1243 18.2607 16.297C18.4811 16.3742 18.6227 16.4547 18.6488 16.6983C18.6683 16.8803 18.6764 17.0665 18.6825 17.2495C18.6874 17.3924 18.6865 17.4968 18.5888 17.6095C18.3906 17.838 17.8708 18.0845 17.9438 18.4495" stroke="white" stroke-width="2" stroke-linecap="round"/>
<path d="M12.7633 17.302C12.9509 17.4062 13.0734 17.5622 13.2208 17.7145C13.4054 17.9051 13.6186 18.071 13.8358 18.2226C14.5671 18.7326 15.4079 19.056 16.1992 19.4582C16.5645 19.6439 16.9447 19.7879 17.327 19.9344C17.7259 20.0873 18.2574 20.2057 18.5419 20.5513C18.5737 20.5899 18.6673 20.7042 18.6282 20.7669C18.5876 20.8318 18.4357 20.778 18.3919 20.765C17.9749 20.6413 17.5815 20.4318 17.1704 20.2878C16.803 20.1591 16.4708 20.0429 16.1598 19.8032C15.9189 19.6175 15.662 19.4655 15.4155 19.2904C15.2257 19.1556 15.0754 18.9611 14.9139 18.7954C14.7377 18.6145 14.5608 18.4294 14.3683 18.2657C14.2528 18.1674 14.1263 18.0905 14.0177 17.9826C13.8712 17.8371 13.6798 17.6712 13.578 17.4895C13.4759 17.3071 13.4428 17.0755 13.3783 16.8782C13.3651 16.8379 13.2581 16.6632 13.3071 16.6345C13.3931 16.5841 13.5505 16.7314 13.6464 16.7442C13.7163 16.7535 13.6874 16.6806 13.6952 16.6308C13.7254 16.4372 13.8292 16.1816 13.9577 16.0317C13.9934 15.99 13.9841 15.8922 13.9689 15.8423C13.9395 15.7457 13.8948 15.7786 13.8227 15.7833C13.5287 15.8022 13.2685 15.8066 12.9865 15.7195C12.8911 15.6901 12.8093 15.6912 12.7127 15.682C12.6335 15.6745 12.4576 15.5527 12.5215 15.7139C12.6344 15.999 12.7138 16.2958 12.8233 16.582C12.9022 16.7879 12.9648 17.0012 13.0352 17.2101C13.0668 17.3038 13.1525 17.4862 13.1149 17.5926C13.1025 17.6277 12.7112 17.2474 12.679 17.2082C12.5284 17.0255 12.4388 16.8173 12.3584 16.5979C12.3291 16.5181 12.2803 16.4476 12.2665 16.3626C12.2516 16.271 12.2762 16.1866 12.274 16.0964C12.2725 16.0348 12.227 15.9849 12.199 15.9333C12.1722 15.8839 12.1495 15.7791 12.0977 15.7495C12.0585 15.7271 12.0645 15.6281 12.0471 15.5902C12.0316 15.5563 12.0161 15.4678 11.9702 15.4627C11.9509 15.4605 11.9342 15.4484 11.9159 15.442C11.8089 15.405 11.9529 15.7285 11.9599 15.7467C12.0475 15.9716 12.1523 16.1927 12.2487 16.4142C12.3224 16.5836 12.3673 16.7592 12.4184 16.9364C12.4956 17.2045 12.4849 17.4836 12.5365 17.7557C12.5564 17.8606 12.5833 17.9805 12.6312 18.0763C12.6861 18.1863 12.7902 18.2672 12.8627 18.3651C13.0752 18.652 13.2483 18.9534 13.4177 19.2669C13.8138 20 14.4048 20.6374 15.1661 20.9994C15.4175 21.1189 15.6795 21.2205 15.9442 21.3069C16.0182 21.331 16.0616 21.3321 16.1382 21.3181" stroke="white" stroke-width="2" stroke-linecap="round"/>
<path d="M12.7296 18.2301C12.6575 18.2381 12.5987 18.2933 12.6021 18.3707C12.6054 18.4466 12.7045 18.5385 12.7427 18.6013C12.7962 18.6894 12.8421 18.7925 12.8739 18.891C12.9333 19.0746 13.0618 19.2578 13.1008 19.445C13.1158 19.517 13.1607 19.5991 13.1889 19.6682C13.2415 19.7967 13.3037 19.9049 13.3858 20.0169C13.5517 20.2431 13.7331 20.4569 13.8855 20.6928C14.0443 20.9388 14.2319 21.1421 14.4545 21.3312C14.6082 21.4618 14.7766 21.5984 14.942 21.7137C15.1445 21.855 15.3775 21.9628 15.5889 22.0925C15.7667 22.2015 15.9578 22.3042 16.1467 22.3925C16.479 22.5478 16.7592 22.6916 17.1301 22.6043C17.3703 22.5478 17.6583 22.4817 17.8519 22.3175C17.9642 22.2222 17.982 22.0854 17.9907 21.9481C18.0092 21.6554 18.0341 21.3633 18.0544 21.0706C18.0812 20.6843 18.0935 20.2975 18.1332 19.9119C18.1634 19.6181 18.2026 19.3296 18.3282 19.0588C18.4077 18.8873 18.5261 18.7393 18.6047 18.5666C18.7903 18.1591 18.9167 17.7381 19.0481 17.3114C19.1561 16.9608 19.2127 16.6386 19.2319 16.2708C19.2518 15.8894 19.278 15.4204 19.0753 15.0783C19.0044 14.9586 19.0406 15.0504 19.0406 15.1167C19.0406 15.1631 19.0549 15.2305 19.0303 15.2714C18.9942 15.3316 18.9863 15.4027 18.9216 15.4383C18.836 15.4854 18.7452 15.5271 18.6525 15.5583C18.5826 15.5818 18.3846 15.697 18.3488 15.5939C18.3064 15.472 18.3661 15.3149 18.4275 15.2095C18.4601 15.1537 18.5724 14.9342 18.6535 14.9424C18.7201 14.949 18.8084 15.0566 18.8494 15.0933C19.0225 15.2485 19.1951 15.4074 19.3856 15.5414C19.4723 15.6024 19.5692 15.6437 19.6687 15.5864C19.7375 15.5469 19.7882 15.4833 19.8544 15.4402C19.9445 15.3813 20.0562 15.3541 20.16 15.3314C20.5431 15.2475 20.9457 15.281 21.3337 15.2208C21.5273 15.1907 21.7283 15.2863 21.9168 15.3258C22.0549 15.3547 22.1731 15.4043 22.2346 15.5433C22.2645 15.6108 22.286 15.7033 22.2759 15.7776C22.264 15.8646 22.1353 15.9109 22.0687 15.9445C21.7924 16.0836 21.5043 16.2213 21.2137 16.327C20.8251 16.4683 20.3699 16.5448 20.0334 16.7995C19.8411 16.9451 19.7631 17.0888 19.7831 17.3245C19.7862 17.3609 19.8364 17.4558 19.83 17.4829C19.8043 17.592 19.6855 17.7212 19.6031 17.7913C19.4097 17.9559 19.1665 18.1329 19.0275 18.3482C18.9436 18.4782 18.963 18.6924 18.9881 18.8357C19.0147 18.9868 19.0799 19.119 19.1231 19.2641C19.1373 19.3115 19.1588 19.3477 19.1588 19.3954C19.1588 20.4409 19.2068 21.4946 19.3312 22.5331C19.3661 22.8238 19.3921 23.159 19.5694 23.4049C19.6532 23.5213 19.7556 23.6044 19.8487 23.7068C19.8965 23.7593 20.0949 23.9311 20.0662 24.0143C20.0262 24.1305 19.7971 23.9619 19.7615 23.9402C19.5109 23.7878 19.2446 23.6486 18.9778 23.5268C18.773 23.4332 18.5821 23.3104 18.3769 23.2156C18.2921 23.1764 18.2415 23.1753 18.15 23.1743C18.0543 23.1733 17.9911 23.143 17.9035 23.1162C17.794 23.0828 17.6641 23.0723 17.5501 23.0571C17.4825 23.0481 17.4664 23.062 17.5172 23.119C17.565 23.1725 17.604 23.2603 17.6607 23.3027C17.7516 23.371 17.8686 23.4134 17.9644 23.4781C18.1275 23.5881 18.35 23.6981 18.4322 23.883C18.4686 23.965 18.4674 24.0551 18.495 24.1399C18.5388 24.2743 18.6458 24.3526 18.7706 24.4061" stroke="white" stroke-width="2" stroke-linecap="round"/>
<path d="M16.8301 21.9762C16.9651 22.0635 16.8163 22.2484 16.831 22.3587C16.8396 22.4226 16.8766 22.4656 16.8798 22.5331C16.8847 22.6354 16.865 22.6807 16.8207 22.7693C16.8107 22.7893 16.7632 22.8833 16.7964 22.8874C16.8588 22.8952 16.9359 22.9372 16.9989 22.954C17.2506 23.0211 17.4223 23.0965 17.5379 23.3421C17.6069 23.4887 17.6504 23.6284 17.7413 23.7649C17.8402 23.9133 17.9692 24.0379 18.0779 24.1783C18.2057 24.3434 18.3264 24.5252 18.4294 24.7061C18.4979 24.8263 18.581 24.9476 18.6769 25.0474C18.7494 25.1228 18.7914 25.218 18.8719 25.2874C18.9382 25.3444 18.9783 25.4383 19.0407 25.503C19.1277 25.5932 19.2192 25.6822 19.3032 25.7748C19.5212 26.0154 19.7995 26.1707 20.0644 26.3505C20.3406 26.5379 20.6177 26.7191 20.8856 26.9186C21.0105 27.0115 21.1161 27.1186 21.2606 27.1829C21.2824 27.1926 21.4789 27.2799 21.4369 27.2739C21.3875 27.2668 21.3396 27.2103 21.3009 27.182C21.1884 27.0998 21.0508 27.0609 20.925 27.0048C20.8191 26.9576 20.7132 26.9105 20.6081 26.8614C20.5352 26.8273 20.3177 26.7423 20.3981 26.7423C20.4217 26.7423 20.457 26.7669 20.4769 26.7761C20.5982 26.8321 20.7165 26.8942 20.8369 26.9523C21.0794 27.0694 21.3287 27.1695 21.5718 27.2842C22.1791 27.5705 22.7396 27.9697 23.3934 28.1513C23.5711 28.2007 23.7531 28.2361 23.9343 28.2704C24.0017 28.2832 24.0818 28.3083 24.1508 28.292C24.2501 28.2684 24.2469 28.1256 24.2511 28.0473C24.2696 27.703 24.2579 27.3621 24.1818 27.0254C24.1368 26.8266 24.0883 26.5583 23.8443 26.5267C23.5524 26.4889 23.2585 26.5438 22.9668 26.5258C22.3691 26.4889 21.7279 26.2808 21.2287 25.9455C21.0263 25.8095 20.8783 25.5888 20.7506 25.3867C20.5547 25.0767 20.4273 24.8175 20.3906 24.4511C20.356 24.1049 20.3252 23.7752 20.3653 23.4274C20.3812 23.2898 20.3906 23.1561 20.3906 23.0177C20.3906 22.9234 20.4249 22.8729 20.3963 22.7712C20.2991 22.4259 20.1381 22.094 20.0194 21.755C19.9151 21.4571 19.8891 21.1517 19.8263 20.8466C19.793 20.685 19.7103 20.5427 19.6482 20.39C19.6018 20.276 19.5549 20.1555 19.5047 20.045C19.4968 20.0276 19.5032 19.9957 19.5141 19.9794C19.5164 19.9759 19.5386 20.0174 19.5394 20.0188C19.5596 20.0519 19.5851 20.0808 19.605 20.1144C19.6785 20.2382 19.7915 20.2465 19.8844 20.3394C19.9754 20.4304 20.0876 20.4052 20.1975 20.4575C20.3064 20.5094 20.3882 20.5311 20.4572 20.6347C20.4981 20.696 20.635 20.7713 20.5894 20.8625C20.5825 20.8763 20.5689 20.8741 20.5594 20.8831C20.5151 20.9249 20.5272 21.0574 20.5284 21.109C20.5312 21.2212 20.5461 21.3572 20.61 21.4531" stroke="white" stroke-width="2" stroke-linecap="round"/>
<path d="M20.7281 21.4362C20.8075 21.553 20.8676 21.6431 20.8969 21.7831C20.9249 21.9172 20.9344 22.0546 20.9644 22.1881C20.9952 22.325 21.0359 22.4535 21.0694 22.5875C21.0927 22.6806 21.1297 22.7546 21.1425 22.8537C21.161 22.9959 21.1883 23.1358 21.1969 23.2793C21.2091 23.4831 21.2361 23.6793 21.2672 23.8812C21.3037 24.1187 21.3277 24.3508 21.4369 24.5693C21.5685 24.8326 21.8042 24.9425 22.0856 24.9874C22.3931 25.0364 22.69 25.1598 23.0006 25.1824C23.1312 25.1919 23.2838 25.2219 23.4131 25.1918C23.4538 25.1823 23.4801 25.1453 23.5134 25.1224C23.5794 25.077 23.6014 24.9886 23.6681 24.9386C23.7228 24.8976 23.7711 24.846 23.8246 24.8027C23.8788 24.7588 23.9418 24.7388 23.9999 24.7024C24.2006 24.5766 24.4275 24.5103 24.6168 24.3668C24.7468 24.2682 24.8402 24.1614 24.9899 24.0855C25.0689 24.0455 25.1556 24.0173 25.2327 23.9749C25.3093 23.9328 25.3008 23.9315 25.3921 23.9693C25.6353 24.0699 25.9002 24.0964 26.1571 24.1437C26.3458 24.1784 26.5192 24.3097 26.697 24.3799C26.8427 24.4374 26.7838 24.7235 26.7749 24.8355C26.7475 25.1781 26.6789 25.4914 26.4111 25.7243C26.2956 25.8247 26.164 25.9151 26.0192 25.968C25.8407 26.0333 25.6319 26.0279 25.4455 26.0505C25.355 26.0615 24.7358 26.203 24.7105 26.0767" stroke="white" stroke-width="2" stroke-linecap="round"/>
<path d="M25.6386 26.6842C25.7794 26.9434 25.8896 27.1572 25.9236 27.453C25.9687 27.8449 25.984 28.2178 25.8411 28.5948C25.8024 28.6971 25.6751 28.8207 25.5749 28.8667C25.5309 28.8869 25.5021 28.8719 25.4624 28.8479C25.3356 28.7712 25.2122 28.6858 25.0912 28.6004C24.9864 28.5265 24.8908 28.4492 24.8024 28.3567C24.7758 28.3287 24.7609 28.3188 24.7218 28.3248C24.6354 28.3381 24.5387 28.367 24.4649 28.4148C24.3974 28.4586 24.4133 28.5228 24.3956 28.591C24.3766 28.6639 24.3355 28.7197 24.2737 28.7617C24.2472 28.7796 24.2387 28.7751 24.2381 28.8085C24.2381 28.8088 24.2435 28.9417 24.2643 28.9239C24.3249 28.8719 24.2707 28.7531 24.2399 28.7026C24.212 28.6567 24.1499 28.6239 24.2418 28.6698C24.3839 28.7408 24.5259 28.8348 24.5643 28.9988C24.5972 29.1393 24.5938 29.2962 24.5493 29.4338C24.4875 29.6249 24.4912 29.7992 24.4912 29.9991C24.4912 30.0499 24.4841 30.1062 24.4724 30.1557C24.4307 30.333 24.4237 30.4989 24.4237 30.6816C24.4237 30.7971 24.4624 30.8759 24.4874 30.9872C24.5432 31.2352 24.6131 31.5007 24.6056 31.756C24.6 31.9424 24.5763 32.1274 24.5587 32.3128C24.5443 32.464 24.4878 32.6923 24.5437 32.8416C24.6032 33.0005 24.8182 32.8856 24.8999 32.8209C25.2439 32.5488 25.4165 32.0574 25.5562 31.6603C25.774 31.041 25.8019 30.3404 25.7699 29.6879C25.7601 29.4888 25.7219 29.2571 25.7849 29.0635C25.8349 28.9098 25.8969 28.7554 25.978 28.6154C26.1824 28.2628 26.4926 27.9807 26.7055 27.632C26.9067 27.3025 27.1079 26.9893 27.358 26.6955C27.4863 26.5447 27.6768 26.4344 27.852 26.3467C28.1248 26.2104 28.4058 26.0868 28.7032 26.0149C28.757 26.0019 28.819 25.976 28.857 26.028C28.9071 26.0967 28.9523 26.1854 28.9732 26.268C29.0258 26.4751 28.8172 26.6558 28.6854 26.7799C28.4587 26.9933 28.1991 27.1484 27.9523 27.3367C27.7984 27.4541 27.5805 27.5877 27.478 27.7586C27.433 27.8335 27.4061 27.9192 27.3599 27.9929C27.2837 28.1144 27.1163 28.1766 26.9886 28.2404C26.8571 28.3062 26.7565 28.3759 26.6474 28.4729C26.5943 28.5201 26.4178 28.6206 26.4589 28.712C26.5144 28.8353 26.6178 28.9405 26.6333 29.0804C26.6531 29.2585 26.5057 29.4627 26.4393 29.6223C26.3826 29.7583 26.3203 29.8954 26.3146 30.0451C26.3092 30.1854 26.3305 30.3247 26.3305 30.4651C26.3305 30.6139 26.3387 30.7651 26.3211 30.9132C26.2979 31.1091 26.204 31.2826 26.1693 31.4766C26.1179 31.7635 26.1111 32.0578 26.1111 32.3484C26.1111 32.5614 26.1362 32.7928 26.0961 33.0028C26.0432 33.2801 25.9118 33.4896 25.6874 33.6628C25.5138 33.7968 25.4002 33.8487 25.1943 33.8596C25.1414 33.8625 25.0114 33.8967 24.9674 33.8503C24.9171 33.7972 24.9108 33.6769 24.8924 33.6103C24.8523 33.4646 24.8322 33.3036 24.7743 33.164C24.7244 33.0437 24.6415 32.9499 24.5418 32.8678C24.4471 32.7898 24.3734 32.6883 24.2737 32.6175C23.9508 32.388 24.1802 31.8599 24.1443 31.5422C24.102 31.1676 24.0862 30.7918 24.0862 30.4144C24.0862 30.0348 24.0862 29.6551 24.0862 29.2754C24.0862 29.1049 24.0664 28.9352 24.1368 28.7767" stroke="white" stroke-width="2" stroke-linecap="round"/>
<path d="M17.5557 37.7539C17.9317 37.8118 18.3465 37.7708 18.7275 37.7708C19.1424 37.7708 19.5553 37.8045 19.9706 37.8045C20.3391 37.8045 20.6863 37.7917 21.0506 37.7276C21.1463 37.7108 21.1656 37.6566 21.2428 37.603C21.3232 37.547 21.4204 37.4873 21.479 37.408C21.5492 37.313 21.6096 37.2456 21.6431 37.1277C21.6735 37.0206 21.7073 36.9163 21.7481 36.8127C21.8294 36.6056 21.9014 36.4006 22.018 36.2052C22.2217 35.8641 22.4853 35.5596 22.6818 35.2115C22.8556 34.9034 23.0571 34.6065 23.2236 34.2956C23.3182 34.1191 23.4157 33.9226 23.5583 33.7799C23.6113 33.727 23.6938 33.6356 23.7749 33.629C23.8772 33.6207 24.0127 33.7174 24.0617 33.7996C24.1575 33.9602 24.1799 34.1734 24.2155 34.3527C24.2643 34.5988 24.3285 34.849 24.2736 35.099C24.2258 35.3167 24.152 35.535 24.043 35.7299C23.9063 35.9743 23.7091 36.1652 23.5799 36.4189C23.4142 36.7444 23.2063 37.1241 23.1468 37.4895C23.1237 37.6309 23.2331 37.7656 23.3793 37.7614C23.5499 37.7565 23.7604 37.6172 23.893 37.5308C24.2764 37.2809 24.5211 36.9361 24.778 36.5671C24.9497 36.3203 25.1282 36.0817 25.3255 35.8546C25.5066 35.6459 25.7027 35.4447 25.8083 35.1843C25.9084 34.9372 25.9539 34.3543 26.351 34.4765C26.4194 34.4975 26.5268 34.5217 26.532 34.4231C26.5355 34.3556 26.5362 34.2821 26.5217 34.2159C26.5055 34.1425 26.441 34.0949 26.4092 34.0284C26.391 33.9904 26.3129 33.8435 26.3895 33.9403C26.4638 34.0341 26.4432 33.9447 26.4232 33.8803C26.4121 33.8443 26.3979 33.6823 26.3979 33.719C26.3979 33.9031 26.3888 34.0898 26.4082 34.2731C26.4201 34.3847 26.4386 34.4959 26.456 34.6068C26.4626 34.6488 26.4633 34.7213 26.5029 34.7502C26.5559 34.7889 26.6643 34.7738 26.7242 34.784C26.8505 34.8055 27.0084 34.8124 27.1085 34.9012C27.3854 35.1465 27.4766 35.6509 27.491 35.9989C27.5065 36.3718 27.3999 36.8071 27.1479 37.0911C26.8884 37.3835 26.5155 37.4447 26.1448 37.4839C25.8888 37.511 25.693 37.5299 25.4614 37.4061C25.2958 37.3176 25.4014 37.0203 25.4904 36.9139C25.6557 36.7164 25.8833 36.5747 26.1373 36.5324C26.3283 36.5005 26.3836 36.825 26.3623 36.9608C26.282 37.4724 25.7652 37.6817 25.3273 37.812C24.9614 37.9209 24.5892 37.9013 24.2127 37.9067C23.8598 37.9117 23.5156 37.9204 23.1636 37.8926C22.9915 37.8791 22.866 37.9636 22.7137 38.0333C22.2464 38.2471 21.7295 38.1473 21.2343 38.2011C20.7451 38.2542 20.2496 38.3108 19.7569 38.3108C19.5895 38.3108 19.4211 38.3276 19.2525 38.3276C19.1652 38.3276 19.1174 38.3117 19.0369 38.2939C18.8957 38.2627 18.7526 38.2657 18.6094 38.2564C18.4063 38.2432 18.2288 38.1146 18.0282 38.1251C17.9003 38.1319 17.8079 38.1819 17.6775 38.1167C17.6654 38.1106 17.6175 38.0813 17.61 38.0708C17.5829 38.0323 17.5714 37.9689 17.5519 37.9264C17.5158 37.8473 17.4676 37.7695 17.4563 37.6817C17.4543 37.6664 17.4406 37.5834 17.4713 37.5852C17.5002 37.5868 17.536 37.6231 17.5585 37.6377C17.6667 37.7077 17.7787 37.7623 17.8932 37.8214" stroke="white" stroke-width="2" stroke-linecap="round"/>
<path d="M22.6012 38.5808C22.9518 38.5597 23.2778 38.4289 23.6315 38.4289C23.9098 38.4289 24.1949 38.3851 24.4724 38.3623C24.7836 38.3367 25.0945 38.3608 25.4024 38.3023C26.1469 38.1609 26.9031 38.102 27.6542 38.0033C28.1213 37.9418 28.5912 37.9267 29.0585 37.8758C29.2666 37.8531 29.4793 37.8552 29.6885 37.8552" stroke="white" stroke-width="2" stroke-linecap="round"/>
<path d="M26.8536 34.6152C27.0516 34.6152 27.2021 34.6404 27.3824 34.7259C27.5002 34.7818 27.5701 34.9346 27.6233 35.0493C27.7274 35.2739 27.7142 35.5355 27.7142 35.7768C27.7142 36.0115 27.7501 36.1868 27.8811 36.3852C27.965 36.5122 28.0461 36.6324 28.1258 36.7611C28.1626 36.8205 28.3209 36.8672 28.3855 36.8858C28.5109 36.9219 28.2417 36.5884 28.2148 36.5502C28.1445 36.4499 28.1085 36.3193 28.0517 36.2099C28.02 36.1488 27.9927 35.9574 27.9674 36.0214C27.9199 36.1416 27.9375 36.3144 27.9458 36.4386C27.9602 36.6527 28.0084 36.8839 28.1352 37.062C28.2421 37.2123 28.4527 37.3027 28.6255 37.3498C28.7218 37.3761 28.819 37.3981 28.9161 37.4202C28.9621 37.4306 29.0058 37.4487 29.052 37.4586C29.1097 37.471 29.2377 37.4577 29.2808 37.5008C29.3577 37.5777 29.5852 37.5281 29.6211 37.6358" stroke="white" stroke-width="2" stroke-linecap="round"/>
<path d="M29.4016 38.1251C29.4859 38.1733 29.5731 38.1511 29.666 38.142C29.7836 38.1305 29.9004 38.1251 30.0185 38.1251C30.1438 38.1251 30.2691 38.1251 30.3944 38.1251C30.8888 38.1251 31.3831 38.1251 31.8775 38.1251C31.9645 38.1251 32.0319 38.1016 32.1147 38.0764C32.2547 38.0338 32.0975 38.0576 32.0331 38.0576C31.7272 38.0576 31.4213 38.0576 31.1153 38.0576C30.9113 38.0576 30.7303 38.0247 30.5285 38.0004C30.4631 37.9926 30.387 38.0034 30.3232 37.9892C30.3118 37.9867 30.2994 37.9711 30.2904 37.9658C30.2257 37.9278 30.1506 37.9105 30.0785 37.8926C30.0479 37.8851 29.9524 37.8776 29.9285 37.8514C29.8939 37.8133 30.0649 37.7594 30.071 37.7576C30.3451 37.6777 30.6673 37.7201 30.9503 37.7201C31.1474 37.7201 31.3438 37.7562 31.541 37.767C31.6702 37.7741 31.7997 37.7698 31.9291 37.7708C32.0542 37.7717 32.18 37.7936 32.305 37.7867C32.5495 37.7731 32.7933 37.737 33.0381 37.737C33.1043 37.737 33.1672 37.7234 33.2322 37.7201C33.2969 37.7169 33.2887 37.6693 33.3484 37.648C33.3864 37.6344 33.3183 37.7575 33.3147 37.7642C33.2795 37.8297 33.2359 37.8903 33.1984 37.9545C33.1504 38.0368 33.2977 37.942 33.3503 37.9395C33.4065 37.9368 33.4828 37.911 33.5368 37.9245C33.6546 37.954 33.7935 37.9957 33.6446 38.1008C33.4944 38.2068 33.3255 38.1886 33.1572 38.2358C33.1038 38.2507 33.0606 38.2601 33.0044 38.2601C32.9422 38.2601 32.8937 38.2907 32.8347 38.2939C32.5731 38.308 32.3109 38.3348 32.0491 38.3529C31.6987 38.3772 31.348 38.3883 30.9972 38.4036C30.7411 38.4147 30.4695 38.3668 30.2172 38.3989C29.9913 38.4276 29.7486 38.4128 29.5273 38.4711C29.3428 38.5196 29.1482 38.4782 28.9592 38.5095C28.3938 38.6031 27.8107 38.5807 27.2398 38.5807C26.9123 38.5807 26.5848 38.5794 26.2574 38.5845C26.0155 38.5883 25.7736 38.5927 25.5318 38.5976C25.4198 38.5999 25.3031 38.5955 25.1933 38.622C25.0874 38.6476 24.9323 38.6699 24.8793 38.5639" stroke="white" stroke-width="2" stroke-linecap="round"/>
<path d="M27.4949 25.7899C28.2329 25.8407 28.9677 25.5188 29.5611 25.1074C29.9203 24.8583 30.2443 24.5656 30.5538 24.258C31.1069 23.7085 31.6264 23.1242 32.1279 22.5274C32.5595 22.0137 32.98 21.4877 33.2997 20.8962" stroke="white" stroke-width="2" stroke-linecap="round"/>
<path d="M33.6033 19.9007C33.4162 20.2831 33.2534 20.678 33.0568 21.0556C32.9265 21.3059 32.8289 21.5082 32.799 21.7906C32.7667 22.0954 32.7302 22.4 32.6612 22.699C32.6421 22.7815 32.5704 22.9489 32.6452 23.0271C32.6924 23.0765 32.793 23.0435 32.8346 23.0018C32.8758 22.9606 32.8635 22.8862 32.8477 22.8368C32.8329 22.7903 32.8872 22.8423 32.8506 22.879C32.8131 22.9164 32.7396 22.9277 32.6921 22.9381C32.546 22.9699 32.4585 22.9816 32.3471 23.0843C32.3102 23.1184 32.1988 23.194 32.1887 23.2493C32.1839 23.2758 32.2519 23.3098 32.2674 23.3253C32.3538 23.4116 32.3209 23.5773 32.3209 23.6881C32.3209 23.9264 32.2254 24.1394 32.1587 24.3677C32.0867 24.6139 31.9726 24.79 31.7978 24.9761C31.6943 25.0863 31.5878 25.1949 31.464 25.2827C31.2853 25.4095 31.0845 25.5002 30.9109 25.6352C30.8217 25.7046 30.7828 25.7764 30.7272 25.8705C30.6587 25.9862 30.5383 26.071 30.4459 26.1667C30.343 26.2735 30.2243 26.3473 30.1009 26.4292C29.8998 26.5628 29.6985 26.6947 29.486 26.8098C29.3175 26.9011 29.1426 26.9899 28.9722 27.0761C28.8421 27.1419 28.7182 27.1995 28.5766 27.2392C28.5308 27.252 28.4679 27.2494 28.4266 27.2748C28.3739 27.3074 28.3291 27.3509 28.2747 27.3826C28.2387 27.4037 28.1051 27.5012 28.1641 27.5579C28.2296 27.621 28.3651 27.5962 28.4388 27.5692C28.51 27.5431 28.5376 27.4672 28.6122 27.4436C28.766 27.3949 28.9238 27.3136 29.0669 27.2383C29.1833 27.177 29.2961 27.1233 29.4091 27.0555C29.578 26.9541 29.7561 26.843 29.9463 26.7873C30.0741 26.7499 30.1266 26.6687 30.2247 26.5942C30.3118 26.5281 30.4006 26.4708 30.4891 26.4067C30.6223 26.3102 30.7889 26.325 30.9222 26.2342C30.9925 26.1864 31.0671 26.1433 31.1359 26.0936C31.2 26.0473 31.2308 25.9692 31.2812 25.9099C31.3439 25.8361 31.3845 25.7409 31.4509 25.6718C31.6183 25.4975 31.7485 25.2674 31.7771 25.023C31.8094 24.7473 31.8846 24.485 31.9487 24.2159C31.9888 24.0475 32.0102 23.8758 32.0471 23.7068C32.0553 23.6695 32.0678 23.6344 32.0678 23.5962" stroke="white" stroke-width="2" stroke-linecap="round"/>
<path d="M32.726 22.1618C32.8401 22.1872 32.9543 22.1796 33.0691 22.1581C33.1777 22.1377 33.2827 22.1043 33.3897 22.0775C33.5615 22.0344 33.7362 22.0176 33.909 21.9819C34.445 21.871 34.6569 21.2484 34.9 20.8259C34.9193 20.7923 35.0543 20.4929 35.0978 20.5025C35.1654 20.5175 34.9377 21.4601 34.9159 21.53C34.8405 21.7717 34.7627 21.9522 34.5625 22.1047C34.4929 22.1576 34.415 22.2342 34.3318 22.2668C34.2821 22.2864 34.2027 22.2485 34.1556 22.2387C34.0571 22.2183 33.9791 22.2098 33.8997 22.1656C33.8641 22.1458 33.8345 22.1849 33.8125 22.205C33.7833 22.2316 33.7425 22.2563 33.7215 22.2912C33.6833 22.355 33.8186 22.3469 33.8528 22.3475C33.9914 22.3496 34.0787 22.3361 34.2006 22.2715C34.3386 22.1985 34.4803 22.1773 34.6346 22.1487C34.7411 22.129 34.8462 22.0409 34.9571 22.0137C35.1144 21.9752 35.2939 21.8879 35.4249 21.7897C35.546 21.6989 35.6921 21.661 35.8327 21.605C35.9232 21.5689 36.0481 21.5547 36.1205 21.4822C36.2479 21.3548 36.3597 21.2101 36.459 21.0613C36.6353 20.7968 36.828 20.5642 36.9408 20.2625C37.0873 19.8711 37.2302 19.4805 37.3524 19.0804C37.3955 18.9393 37.5667 18.5618 37.4593 18.4063C37.3438 18.2393 37.0502 18.3025 36.9024 18.3595C36.587 18.481 36.3024 18.6921 36.024 18.8788C35.7975 19.0307 35.5507 19.1789 35.3734 19.3907C35.3067 19.4703 35.2359 19.5719 35.1896 19.6644" stroke="white" stroke-width="2" stroke-linecap="round"/>
<path d="M34.4303 17.842C34.53 17.9187 34.6411 17.8774 34.735 17.811C34.8991 17.695 35.0442 17.5465 35.1812 17.4004C35.2824 17.2926 35.3718 17.1703 35.4962 17.0873C35.6742 16.9686 35.9442 16.8935 36.1571 16.9467C36.5631 17.0482 36.7281 17.564 36.4234 17.8663C36.2896 17.9991 36.1118 18.0463 35.9265 18.0295C35.5597 17.9962 35.1895 17.8213 34.8653 17.6582C34.6128 17.5312 34.1449 17.3214 34.3497 16.9757C34.4164 16.863 34.494 16.7615 34.5503 16.642C34.5919 16.5536 34.6204 16.4584 34.6703 16.3739C34.7139 16.3002 34.8195 16.1495 34.914 16.1376C35.1426 16.1091 35.2293 15.817 35.469 15.817C35.9275 15.817 36.3809 15.7394 36.8396 15.7327C37.0032 15.7302 37.1186 15.7855 37.2671 15.8433C37.4313 15.9072 37.4841 15.9482 37.5577 16.1039C37.6354 16.2682 37.7359 16.4198 37.7715 16.6008C37.7993 16.7427 37.8249 16.8788 37.8389 17.0226C37.8395 17.0278 37.8862 16.9124 37.8896 16.9026C37.9291 16.787 37.9547 16.6668 38.0021 16.5539C38.0324 16.4817 38.0879 16.4135 38.1052 16.3364C38.1138 16.298 38.1125 16.2665 38.1333 16.2314C38.1905 16.1349 38.2394 16.0498 38.3527 16.012C38.3958 15.9976 38.4374 15.9809 38.4783 15.9605C38.5405 15.9294 38.2281 15.9348 38.2008 15.9342C37.9818 15.9298 37.7608 15.8929 37.5502 15.9276C37.341 15.9622 37.1089 15.9351 36.8977 15.9351C36.6667 15.9351 36.4289 15.9504 36.1984 15.9314C36.0924 15.9227 35.9892 15.8639 35.8871 15.8367C35.7823 15.8088 35.6746 15.7914 35.5675 15.7758C35.5107 15.7675 35.4693 15.7707 35.4334 15.7205C35.4212 15.7034 35.3312 15.5153 35.3012 15.5686C35.2268 15.7008 35.4235 15.8729 35.5084 15.9295C35.8393 16.1501 36.2395 16.275 36.6221 16.3701C36.8451 16.4256 37.0496 16.4832 37.2765 16.417C37.4661 16.3617 37.6529 16.2954 37.8539 16.3101C38.0177 16.3222 38.1398 16.4665 38.1502 16.6308C38.1664 16.8873 37.9939 17.2002 37.8633 17.4164C37.8252 17.4794 37.7245 17.6538 37.8652 17.5167C38.008 17.3775 38.1579 17.1762 38.2496 16.9992C38.3005 16.9008 38.3274 16.7903 38.3789 16.6926C38.388 16.6754 38.3832 16.8757 38.3714 16.9139C38.3255 17.0628 38.2534 17.2064 38.2177 17.3582C38.1978 17.4427 38.2105 17.5327 38.1933 17.6189C38.1629 17.7709 38.1285 17.9152 38.0574 18.0538C37.9506 18.262 37.8532 18.4683 37.8221 18.7016C37.8123 18.7752 37.7647 18.8367 37.7377 18.9051C37.7019 18.9957 37.7122 19.0875 37.6833 19.1788C37.6453 19.2991 37.5704 19.3973 37.5221 19.5125C37.4789 19.6157 37.4622 19.7258 37.4171 19.8294C37.3394 20.0076 37.2444 20.1771 37.163 20.3535C37.1336 20.4173 37.0671 20.4839 37.0243 20.5391C36.9511 20.6334 36.8928 20.7501 36.8209 20.84C36.77 20.9036 36.6751 20.9634 36.6034 21.0013C36.5092 21.0509 36.3944 21.1542 36.324 21.2337C36.2256 21.345 36.0378 21.3963 35.9096 21.4662C35.7068 21.5769 35.5278 21.6792 35.3078 21.7569" stroke="white" stroke-width="2" stroke-linecap="round"/>
<path d="M36.3539 16.0195C36.4998 16.0195 36.6426 16.0425 36.7889 16.027C36.9606 16.0088 37.1192 15.952 37.2885 15.9286C37.5656 15.8902 37.9001 15.9081 38.1463 15.7505C38.2253 15.6999 38.2406 15.6666 38.3507 15.6652C38.4646 15.6637 38.5476 15.7151 38.6563 15.7364C38.6954 15.7441 38.7818 15.7765 38.7632 15.7083C38.7515 15.6653 38.7385 15.6217 38.6994 15.6314" stroke="white" stroke-width="2" stroke-linecap="round"/>
<path d="M27.9673 14.7877C28.0945 14.79 28.224 14.8071 28.3508 14.7905C28.6101 14.7564 28.8706 14.6649 29.1223 14.5964C29.3603 14.5317 29.5637 14.5019 29.8104 14.5008C30.0503 14.4998 30.285 14.4973 30.5229 14.5214C30.7357 14.543 30.9484 14.5514 31.1622 14.5514C31.279 14.5514 31.4036 14.5608 31.5185 14.5346C31.791 14.4723 32.0558 14.4537 32.336 14.4502C32.4287 14.449 32.5275 14.3857 32.6209 14.3658C32.7246 14.3438 32.8309 14.3152 32.9369 14.3152C33.031 14.3152 33.12 14.3082 33.2125 14.2908C33.2373 14.2862 33.3451 14.7163 33.3878 14.7914C33.4173 14.8433 33.4487 14.9254 33.5097 14.9433C33.5767 14.963 33.6648 14.9946 33.6972 15.0614C33.864 15.405 33.9682 15.8023 34.0731 16.1676C34.1708 16.508 34.2642 16.8694 34.2465 17.227C34.2336 17.4888 34.1564 17.7511 34.0347 17.9826C34.0097 18.0301 33.8999 18.2667 33.8303 18.276C33.7695 18.2841 33.7249 18.1457 33.714 18.1138C33.6275 17.859 33.5955 17.5886 33.535 17.3273C33.4909 17.1369 33.434 16.9415 33.3466 16.7657C33.2456 16.5627 33.07 16.4275 32.8806 16.3101C32.6896 16.1917 32.4616 16.0639 32.2347 16.0308C32.0261 16.0003 31.7938 16.1146 31.5982 16.1676C31.4697 16.2024 31.4048 16.2184 31.2785 16.2408C31.2372 16.2481 31.1287 16.247 31.0872 16.2764C30.9918 16.344 31.0914 16.5919 31.136 16.6532C31.2495 16.8093 31.4243 16.8719 31.6104 16.8285C31.7805 16.7889 31.9086 16.6675 31.8428 16.4826C31.7683 16.2731 31.5211 16.1338 31.3357 16.0429C30.8798 15.8195 30.3654 15.7058 29.8704 15.607C29.6212 15.5573 29.3768 15.5301 29.1232 15.5301C29.0503 15.5301 28.9544 15.5172 28.8861 15.5508C28.7962 15.5949 28.73 15.752 28.6957 15.8376C28.6716 15.8981 28.4604 15.7384 28.4136 15.713C28.2292 15.6128 28.0953 15.4747 27.9373 15.3436C27.7447 15.1836 27.5108 15.068 27.3898 14.8383C27.3189 14.7034 27.2039 14.5937 27.1517 14.4446C27.1307 14.3845 27.1392 14.3449 27.0899 14.2983C27.0457 14.2566 27.1284 14.5639 27.1367 14.6021C27.1546 14.6833 27.1528 14.777 27.2089 14.8402C27.2543 14.8913 27.3113 14.9351 27.3505 14.9911C27.3822 15.0364 27.4112 15.1539 27.4264 15.2095C27.4357 15.2434 27.448 15.2797 27.4161 15.2245C27.381 15.1637 27.3504 15.1129 27.2914 15.0736C27.2181 15.0247 27.1562 14.9691 27.0964 14.9058C27.06 14.8672 27.0078 14.849 26.9699 14.812C26.9629 14.8053 26.9527 14.7738 26.9567 14.783C26.9923 14.863 27.0562 14.9699 27.1086 15.0399C27.161 15.1097 27.2735 15.1499 27.2905 15.2433C27.3037 15.3159 27.3234 15.3653 27.3523 15.4345C27.413 15.5795 27.532 15.6762 27.5923 15.817C27.6267 15.8972 27.4898 15.7029 27.4836 15.6951C27.4693 15.6773 27.2631 15.4096 27.2502 15.4148C27.2473 15.416 27.3511 15.737 27.3692 15.772C27.3987 15.829 27.4571 15.8604 27.5033 15.9014C27.5633 15.9547 27.5497 16.0647 27.6092 16.1264C27.6465 16.1651 27.7038 16.1832 27.7405 16.222C27.7634 16.2463 27.6726 16.2862 27.6542 16.3064C27.6343 16.3282 27.6298 16.3511 27.6298 16.3795C27.6298 16.4215 27.5728 16.3178 27.5436 16.2876C27.5056 16.2485 27.3697 16.0885 27.4967 16.2089C27.5986 16.3054 27.6299 16.4454 27.7152 16.552C27.7718 16.6227 27.7966 16.6135 27.8933 16.6092C28.0946 16.6002 28.2791 16.5632 28.4829 16.5764C28.5727 16.5822 28.6577 16.6052 28.7454 16.6232C28.9838 16.6724 29.2303 16.6925 29.4729 16.7039C29.8323 16.7207 30.1915 16.7352 30.551 16.7489C30.5527 16.7489 30.8769 16.7665 30.7151 16.7864C30.4952 16.8134 30.2586 16.8007 30.0391 16.7807C29.8661 16.765 29.7042 16.7119 29.5339 16.6879C29.4117 16.6708 29.2848 16.6704 29.1617 16.6645C29.0579 16.6595 28.9542 16.6632 28.8504 16.6598C28.7684 16.6571 28.6465 16.6206 28.5683 16.6542C28.4473 16.706 28.5086 16.8047 28.6114 16.8192C28.8749 16.8562 29.14 16.8867 29.4026 16.9335C29.6445 16.9767 29.8584 17.0589 30.0795 17.1576C30.2594 17.2379 30.4831 17.2745 30.6766 17.3057C30.8986 17.3416 31.1252 17.3501 31.3497 17.3526C31.5811 17.3551 31.8253 17.4157 32.0472 17.4745C32.1412 17.4994 32.2691 17.5355 32.3106 17.6357C32.3716 17.7826 32.3361 17.9756 32.321 18.1269C32.295 18.3857 32.2419 18.6709 32.2572 18.9313C32.2694 19.1379 32.2403 19.3477 32.2403 19.5547C32.2403 19.7765 32.2533 19.9961 32.2835 20.2156C32.2877 20.2465 32.2945 20.2686 32.3153 20.2297C32.3762 20.1161 32.3972 19.9816 32.4147 19.8557C32.4328 19.7253 32.4272 19.8538 32.4306 19.9063C32.4366 19.9969 32.4391 20.0873 32.4391 20.1781C32.4391 20.8734 32.4562 18.779 32.3313 18.0951C32.3078 17.9664 32.2429 17.4297 32.47 17.4013C32.5781 17.3878 32.5101 17.9484 32.5085 17.9601C32.4634 18.2832 32.3829 18.6975 32.1475 18.9444C32.1311 18.9617 31.9741 19.1101 31.9441 19.085C31.9229 19.0674 31.9362 19.0302 31.9366 19.0025C31.9379 18.9064 31.936 18.8149 31.9225 18.7194C31.8987 18.5508 31.8855 18.3822 31.8653 18.2132C31.86 18.1687 31.8615 18.0951 31.8016 18.0951C31.7812 18.0951 31.7786 18.1119 31.7613 18.1194C31.7181 18.1384 31.6753 18.112 31.6347 18.0988C31.6291 18.097 31.4628 18.0451 31.481 18.0782C31.5368 18.1798 31.6502 18.2146 31.6966 18.3313C31.7423 18.4463 31.7135 18.5586 31.7135 18.6782C31.7135 18.9344 31.7162 19.1832 31.63 19.4272C31.5829 19.5608 31.6871 19.4624 31.7041 19.5472C31.7534 19.7936 31.7051 20.0682 31.7304 20.3188C31.7607 20.6205 31.6425 20.8685 31.5954 21.1606C31.5792 21.2605 31.5697 21.3623 31.5504 21.4615C31.5293 21.5699 31.4783 21.6436 31.4247 21.7362C31.4152 21.7527 31.4117 21.7972 31.3891 21.7803C31.3467 21.7485 31.2882 21.7338 31.2372 21.7231C31.1435 21.7035 31.0466 21.7062 30.9513 21.7062C30.9009 21.7062 30.8401 21.7196 30.7985 21.6856C30.725 21.6255 30.6547 21.5658 30.5641 21.5319C30.536 21.5213 30.3596 21.4566 30.3326 21.4972C30.2836 21.5707 30.296 21.6034 30.206 21.6537C30.1647 21.6769 30.0414 21.7024 30.0785 21.6256C30.148 21.4817 30.2744 21.3546 30.3223 21.2037C30.3498 21.1169 30.398 21.0277 30.4535 20.9544C30.5039 20.8877 30.5881 20.8425 30.6429 20.7744C30.7219 20.6762 30.8092 20.5594 30.8566 20.4425C30.8977 20.3413 30.9303 20.2181 30.9954 20.1294C31.0865 20.0051 31.2026 19.9487 31.3188 19.8482C31.4869 19.7028 31.646 19.5064 31.646 19.2697C31.646 19.205 31.6122 19.1563 31.6122 19.0982C31.6122 19.0478 31.592 18.8331 31.6329 18.8076C31.6865 18.774 31.6466 18.9337 31.6441 18.9969C31.6386 19.1372 31.6335 19.2956 31.5879 19.43C31.5503 19.5406 31.4324 19.6134 31.3385 19.6719C31.1273 19.8035 31.027 20.0417 30.9204 20.255C30.8864 20.3229 30.8425 20.4374 30.7769 20.4828C30.7233 20.52 30.6681 20.5169 30.6119 20.5428C30.5775 20.5587 30.5317 20.657 30.4966 20.6853C30.3792 20.7801 30.2615 20.8605 30.1291 20.9356C30.0126 21.0018 29.8938 21.0397 29.786 21.1156C29.7037 21.1735 29.7092 21.1817 29.7898 21.0987C29.877 21.0089 29.9496 20.9102 30.026 20.8119C30.0697 20.7557 30.1049 20.6974 30.1432 20.6375C30.1611 20.6095 30.3206 20.4901 30.3232 20.5072C30.3321 20.5652 30.2301 20.6669 30.1985 20.7069C30.1385 20.7828 30.0872 20.8574 30.0438 20.9441C29.9962 21.0393 29.9555 21.0777 29.8498 21.0819C29.7812 21.0846 29.6591 21.1097 29.6548 21.1831C29.6534 21.2074 29.6076 21.204 29.591 21.2206C29.5359 21.2758 29.5413 21.2631 29.5788 21.3209C29.712 21.5257 29.7794 21.7737 29.8404 22.009C29.8898 22.1995 29.9973 22.3476 30.1188 22.4984C30.1952 22.5932 30.2697 22.67 30.3129 22.7881C30.3947 23.0115 30.3899 23.1969 30.3635 23.4274" stroke="white" stroke-width="2" stroke-linecap="round"/>
<path d="M27.4274 24.828C27.538 24.8238 27.6327 24.7659 27.747 24.813C27.8344 24.849 27.9018 24.9124 27.9842 24.9536C28.1658 25.0444 28.4375 24.8501 28.5645 24.7455C28.6348 24.6876 28.7579 24.6405 28.8476 24.6255C29.015 24.5976 29.1728 24.545 29.3351 24.498C29.4729 24.4581 29.5392 24.3997 29.6042 24.2805C29.6358 24.2226 29.6644 24.1643 29.6876 24.1024C29.7009 24.0671 29.6997 24.011 29.7298 23.9852C29.8235 23.9049 29.8253 23.6921 29.8404 23.5784C29.8608 23.4253 29.9079 23.3035 29.9079 23.1481C29.9079 23.0046 29.9079 22.8612 29.9079 22.7178C29.9079 22.6309 29.9079 22.544 29.9079 22.4571C29.9079 22.3984 29.9337 22.3346 29.9164 22.279C29.9104 22.2599 29.8171 21.9632 29.7598 22.0606C29.7159 22.1352 29.7687 22.2241 29.7729 22.3043C29.7752 22.348 29.7928 22.3827 29.8029 22.4243C29.8047 22.4317 29.8088 22.5151 29.8235 22.505C29.8769 22.4683 29.8392 22.2219 29.8235 22.1656C29.7887 22.0405 29.7278 21.9224 29.6923 21.7981C29.6612 21.6891 29.6379 21.5807 29.6379 21.4662C29.6379 21.3812 29.6163 21.2221 29.4861 21.2975C29.4749 21.304 29.3863 21.3964 29.3886 21.3987C29.4211 21.4313 29.5254 21.3759 29.5779 21.41C29.8705 21.5996 29.7729 22.0635 29.7729 22.355C29.7729 22.5475 29.7886 22.7384 29.7898 22.9306C29.7911 23.1346 29.7728 23.3385 29.8573 23.5287" stroke="white" stroke-width="2" stroke-linecap="round"/>
<path d="M18.9225 16.2389C18.9696 16.228 19.0136 16.1906 19.05 16.162C19.2111 16.0354 19.3625 15.8898 19.4981 15.7364C19.7328 15.471 19.95 15.1092 19.95 14.7436C19.95 14.6361 19.9719 14.2746 19.7775 14.3414C19.5409 14.4228 19.376 14.7389 19.2488 14.9339C19.1766 15.0445 19.0984 15.1709 18.9825 15.2433C18.9291 15.2767 18.8767 15.2632 18.8175 15.2564C18.6698 15.2394 18.5525 15.2482 18.435 15.3455C18.3655 15.403 18.259 15.5377 18.1707 15.563C18.1128 15.5795 18.0245 15.5646 17.9663 15.5639C17.8752 15.5628 17.9269 15.4891 17.9401 15.4233C17.9545 15.3511 17.8781 15.4138 17.8379 15.428C17.7971 15.4423 17.6063 15.5889 17.6063 15.4964C17.6063 15.3001 17.7817 15.2228 17.8173 15.0408C17.8431 14.9085 17.8757 14.7617 17.8557 14.6264C17.8467 14.5656 17.8396 14.5107 17.8435 14.4483C17.8536 14.2874 17.9072 14.1303 17.9101 13.9683C17.9125 13.8303 17.9101 13.692 17.9101 13.554C17.9101 13.3527 17.8953 13.1525 17.8932 12.9521C17.8916 12.7959 17.8716 12.6193 17.9176 12.4684C17.9793 12.2654 17.9003 12.0689 17.8754 11.8693C17.8669 11.8014 18.1066 11.8386 18.1641 11.8318C18.5842 11.7824 18.9977 11.7827 19.4213 11.784C19.7473 11.785 20.0775 11.7968 20.4028 11.8196C20.5303 11.8286 20.6743 11.8461 20.7525 11.9621C20.8101 12.0476 20.8195 12.1288 20.8303 12.2312C20.8534 12.4513 20.8557 12.6886 20.835 12.909C20.803 13.2484 20.5556 13.3468 20.2519 13.3533C20.154 13.3554 20.0418 13.356 19.95 13.3946C19.7608 13.4742 19.6596 13.7285 19.5647 13.8943C19.5336 13.9485 19.446 14.1143 19.4756 14.0593C19.5188 13.9792 19.5171 13.8755 19.5 13.7893C19.4678 13.627 19.3904 13.4655 19.3041 13.3252C19.2824 13.29 19.2791 13.2877 19.2844 13.3337C19.3012 13.481 19.3394 13.6409 19.3969 13.7771C19.5108 14.0469 19.7233 14.1767 20.0156 14.1971C20.694 14.2442 21.4084 14.0078 22.0462 13.8108C22.4112 13.6981 22.7504 13.5579 23.0943 13.3965C23.2749 13.3116 23.365 13.3376 23.5265 13.4583C23.6847 13.5767 23.8756 13.7455 23.8274 13.9683C23.751 14.3219 23.3591 14.5851 23.0596 14.7324C22.7259 14.8964 22.3597 14.9531 22.004 15.0474C21.8982 15.0754 21.8329 15.0935 21.7396 15.1411C21.712 15.1552 21.6293 15.234 21.5943 15.2377C21.5673 15.2405 21.6139 15.1869 21.6262 15.1627C21.6771 15.0628 21.7291 14.963 21.7668 14.857C21.8869 14.5205 21.9127 14.1796 21.8531 13.8277C21.8047 13.5421 21.7231 13.2422 21.6206 12.9708C21.5702 12.8375 21.505 12.6943 21.3984 12.5959C21.3707 12.5703 21.4925 12.3539 21.5006 12.3071C21.5194 12.1981 21.45 12.013 21.3187 12.0034C21.2112 11.9955 21.0987 12.0051 20.9925 12.0203C20.7822 12.0503 20.5579 12.0432 20.3484 12.0118C20.2552 11.9978 20.4481 11.8959 20.4712 11.8853C20.5459 11.8508 20.6153 11.826 20.6953 11.8093C20.8785 11.7711 21.0764 11.784 21.2625 11.784C21.8702 11.784 22.4792 11.7587 23.0868 11.7418C23.6853 11.7252 24.2766 11.7715 24.8746 11.7906C25.3322 11.8052 25.7903 11.8044 26.248 11.8187C26.4354 11.8246 26.4549 11.8491 26.5329 12.0053C26.6116 12.1626 26.7223 12.3098 26.5104 12.4046C26.3769 12.4644 26.232 12.4792 26.0886 12.4965C25.8134 12.5297 25.5477 12.5813 25.2974 12.7065C25.1673 12.7715 25.0244 12.8546 24.988 13.0065C24.9673 13.0925 24.98 13.1895 25.0686 13.2305C25.2887 13.3325 25.6133 13.2949 25.8448 13.2896C26.0567 13.2847 26.1776 13.2764 26.3848 13.2615C26.4958 13.2535 26.6488 13.2212 26.7636 13.2427C26.8304 13.2552 26.8615 13.3501 26.8611 13.4077C26.86 13.5702 26.6893 13.6607 26.5611 13.7152C25.8634 14.0117 25.1032 13.8588 24.3721 13.8549C24.189 13.8539 24.0506 13.8715 23.8883 13.9533C23.676 14.0604 23.4575 14.1493 23.2302 14.2196C23.1419 14.2468 23.0811 14.2619 23.0146 14.3283C22.9106 14.4323 22.9187 14.5639 22.9012 14.7014C22.8913 14.779 22.8572 14.8833 22.8787 14.962C22.9108 15.0797 23.1673 14.847 23.1899 14.8299C23.4182 14.6566 23.6212 14.4564 23.8246 14.2552C23.9402 14.1408 24.0758 14.026 24.1705 13.8933" stroke="white" stroke-width="2" stroke-linecap="round"/>
<path d="M26.3643 13.1171C27.2232 12.9637 28.0677 12.7966 28.9423 12.744C29.239 12.7262 29.9012 12.6187 30.0851 12.968C30.2125 13.2101 30.0327 13.4275 29.8292 13.5502C29.4092 13.8034 28.9461 13.8436 28.5354 13.5671C28.2376 13.3666 27.9608 13.1547 27.6383 12.9924C27.5492 12.9476 27.4503 12.9097 27.3711 12.8471C27.3354 12.8189 27.3096 12.7811 27.2708 12.7562C27.192 12.7055 27.0869 12.7104 27.0111 12.6577C26.9402 12.6085 26.9822 12.4763 26.9971 12.4112C27.009 12.3587 27.0957 12.0664 27.028 12.0503C26.9196 12.0245 26.7987 12.0587 26.6867 12.0531C26.587 12.0481 26.5807 12.0151 26.5236 11.9528C26.4966 11.9232 26.4785 11.8243 26.5161 11.7971C26.596 11.7395 26.6137 11.7109 26.7149 11.7418C26.8966 11.7975 27.1115 11.7671 27.298 11.7671C27.5532 11.7671 27.8034 11.7165 28.0592 11.7165C28.3904 11.7165 28.7164 11.7671 29.0473 11.7671C29.3376 11.7671 29.6267 11.7997 29.9173 11.8009C30.4377 11.8031 30.9572 11.784 31.4772 11.784C31.5273 11.784 31.8189 11.7545 31.8279 11.8065C31.8492 11.9301 31.7738 12.1002 31.7472 12.2171C31.6869 12.4831 31.6152 12.7263 31.51 12.9784C31.4658 13.0843 31.2924 13.3821 31.3872 13.5015C31.4623 13.5959 31.6187 13.5361 31.6966 13.4846C31.9683 13.3049 32.1735 12.9713 32.2685 12.6652C32.2996 12.5649 32.3762 12.443 32.3875 12.3409C32.3982 12.2445 32.386 12.1452 32.4391 12.0578C32.5137 11.9348 32.6491 11.889 32.7766 11.8271C32.7893 11.8209 32.9586 11.7196 32.9622 11.724C33.0049 11.7757 33.0006 11.9051 33.0128 11.9678C33.0445 12.1307 33.0403 12.2794 33.0053 12.4421C32.9839 12.5417 32.9767 12.6429 32.9547 12.7421C32.9266 12.8684 32.8991 12.9578 32.9341 13.0871C32.966 13.2052 33.0136 13.3147 33.0634 13.4255C33.1211 13.5536 33.1226 13.7016 33.1638 13.8352C33.2536 14.1273 33.3394 14.4309 33.4891 14.6996C33.5757 14.8551 33.6656 14.9864 33.6953 15.1674C33.7213 15.3256 33.7355 15.4865 33.8903 15.5639" stroke="white" stroke-width="2" stroke-linecap="round"/>
<path d="M34.3121 15.547C34.2814 15.6162 34.1834 15.5925 34.1771 15.6989C34.1729 15.7706 34.1777 15.7937 34.2484 15.7664C34.3768 15.7168 34.5387 15.7219 34.6759 15.7364C34.9376 15.7641 35.2187 15.8914 35.4821 15.8639C35.5785 15.8538 35.8257 15.8691 35.8665 15.757C35.8701 15.747 35.9126 15.6839 35.9236 15.6839C35.9315 15.6839 35.95 15.7139 35.9546 15.7176C36 15.7548 36.057 15.7728 36.1121 15.7898C36.3726 15.8705 36.6513 15.9104 36.9286 15.8826C37.031 15.8724 37.1532 15.8524 37.2502 15.8161C37.2919 15.8004 37.3461 15.7664 37.3917 15.7664C37.4403 15.7664 37.6706 15.7577 37.6533 15.7664" stroke="white" stroke-width="2" stroke-linecap="round"/>
<path d="M23.4754 15.584C23.4628 15.8635 23.5005 16.294 23.2377 16.482C23.0598 16.6092 22.8153 16.7057 22.6026 16.7534C22.5739 16.7598 22.4815 16.775 22.4446 16.766C22.3828 16.751 22.4397 16.666 22.452 16.6435C22.5599 16.4457 22.7384 16.1795 22.9663 16.1137C23.1778 16.0526 23.1638 16.3095 23.1146 16.435C23.05 16.6001 22.9122 16.7073 22.7412 16.7431C22.4838 16.797 22.2096 16.7792 21.9486 16.8107C21.8505 16.8225 21.7391 16.8325 21.6468 16.8725C21.6033 16.8914 21.5762 16.9284 21.542 16.9596C21.4499 17.0434 21.3502 17.1207 21.2322 17.1635C21.1871 17.1798 21.1382 17.1857 21.1021 17.2196C21.0672 17.2524 21.0233 17.2887 20.9956 17.3278C20.9858 17.3417 21.0921 17.3364 21.0947 17.3364C21.2315 17.3364 21.3663 17.3257 21.5019 17.3078C21.5169 17.3058 21.724 17.2511 21.6267 17.294C21.5082 17.3464 21.3843 17.3538 21.2562 17.3616C21.1439 17.3684 20.9867 17.3576 20.8891 17.4286C20.86 17.4498 20.8503 17.5596 20.8799 17.5838C20.9148 17.6124 20.9593 17.6098 21.0014 17.6044C21.0805 17.5944 21.1609 17.6008 21.2396 17.5896C21.291 17.5822 21.3377 17.5597 21.3896 17.5529C21.4527 17.5446 21.5138 17.5336 21.5741 17.5128C21.7786 17.4424 21.9653 17.4034 22.1805 17.3817C22.3689 17.3626 22.5591 17.3366 22.7458 17.3049C22.8448 17.2881 22.9438 17.2705 23.0425 17.2517C23.0913 17.2424 23.1477 17.2197 23.1982 17.223C23.2408 17.2259 23.116 17.2463 23.074 17.2534C22.932 17.2773 22.7873 17.2746 22.6439 17.2746C22.5109 17.2746 22.3366 17.2498 22.2155 17.3181C22.1425 17.3592 22.125 17.3852 22.125 17.4659C22.125 17.487 22.1244 17.5117 22.1513 17.5117C22.2635 17.5117 22.3867 17.4349 22.4915 17.4023C22.7045 17.3361 22.9037 17.3055 23.1249 17.3055C23.2226 17.3055 23.2493 17.293 23.3002 17.2047C23.3809 17.0644 23.4707 16.9295 23.5487 16.7872C23.6568 16.5902 23.7559 16.3886 23.8649 16.1922C23.9575 16.0252 24.0469 15.8437 24.1146 15.6653C24.1989 15.4429 24.2924 15.1992 24.4845 15.0433C24.6128 14.9393 24.739 14.8737 24.8957 14.8223C25.1281 14.746 25.3587 14.6665 25.6041 14.6665C25.7 14.6665 25.8036 14.6604 25.8968 14.6871C25.9671 14.7073 26.0212 14.771 26.0715 14.82C26.156 14.9024 26.2564 14.9839 26.3126 15.0891C26.3616 15.181 26.4101 15.2781 26.4706 15.3629C26.5179 15.4291 26.5845 15.4933 26.6195 15.5633" stroke="white" stroke-linecap="round"/>
<path d="M24.5681 15.2025C24.587 15.2215 24.6173 15.2467 24.6013 15.2747C24.5817 15.309 24.5472 15.3334 24.5165 15.3572C24.4653 15.3969 24.4387 15.4318 24.4129 15.4912C24.3637 15.6042 24.3448 15.7211 24.2921 15.8337C24.2417 15.9412 24.1598 16.0355 24.0887 16.1303C24.0144 16.2295 23.9585 16.336 23.9129 16.451C23.887 16.5166 23.8505 16.5776 23.8316 16.6457C23.809 16.727 23.7867 16.8039 23.7457 16.8783C23.6711 17.0136 23.5994 17.1229 23.4828 17.2305C23.442 17.2681 23.3978 17.3015 23.3563 17.3381C23.3112 17.3779 23.2802 17.4285 23.2383 17.4704C23.1489 17.5598 22.9833 17.5736 22.8672 17.5919C22.6838 17.6206 22.499 17.6229 22.3151 17.6514C21.8315 17.7263 21.3333 17.7369 20.8536 17.8415C20.7524 17.8636 20.6905 17.9311 20.6073 17.9761C20.4838 18.043 20.3812 18.1154 20.2831 18.2149C20.1955 18.3041 20.1448 18.3659 20.1211 18.495C20.0972 18.625 20.0632 18.7382 20.0632 18.8724" stroke="white" stroke-linecap="round"/>
<path d="M20.053 19.2435C20.0815 19.2435 20.0912 19.2619 20.0936 19.2899C20.0996 19.358 20.127 19.4251 20.1458 19.4909C20.2106 19.7179 20.3663 19.912 20.4905 20.1077C20.5515 20.2038 20.6193 20.2908 20.7104 20.3603C20.7644 20.4014 20.8374 20.4154 20.8983 20.4439C20.9662 20.4757 21.0394 20.4917 21.1016 20.5332C21.1356 20.5559 21.1648 20.5805 21.1961 20.6065C21.2192 20.6257 21.2563 20.6354 21.2751 20.6581C21.3519 20.7502 21.437 20.8392 21.5168 20.929C21.5438 20.9593 21.5888 20.9736 21.6279 20.9753C21.6703 20.9772 21.6954 20.9986 21.7276 21.0235C21.7596 21.0482 21.8352 21.1211 21.8352 21.1632C21.8352 21.2819 21.808 21.3986 21.8054 21.5171C21.8037 21.5965 21.7923 21.6777 21.7825 21.7565C21.7736 21.8288 21.7625 21.9068 21.7384 21.9753C21.7204 22.0265 21.7024 22.0818 21.7024 22.1368C21.7024 22.2656 21.7017 22.3941 21.6972 22.5228C21.6937 22.6226 21.6725 22.744 21.6972 22.8429C21.7198 22.9332 21.7024 23.0445 21.7024 23.1367C21.7024 23.2247 21.6961 23.3159 21.7069 23.4036C21.7247 23.5475 21.7575 23.6676 21.8409 23.7844C21.9023 23.8703 21.9262 23.9763 21.9698 24.0708C21.9842 24.1021 22.0579 24.1496 22.0872 24.1687C22.1545 24.2126 22.2163 24.2588 22.2911 24.2901C22.484 24.3709 22.6668 24.4696 22.8592 24.5513C23.0081 24.6144 23.1256 24.6223 23.2693 24.5524C23.301 24.537 23.3382 24.5243 23.3678 24.5055C23.3946 24.4884 23.4257 24.4791 23.3746 24.4803C23.3159 24.4816 23.2577 24.511 23.1988 24.4952C23.1634 24.4856 23.1916 24.4768 23.1965 24.4545C23.2022 24.429 23.4256 24.4448 23.464 24.439C23.5676 24.4235 23.625 24.4015 23.6925 24.3256C23.746 24.2655 23.8001 24.2304 23.8706 24.1928C23.9029 24.1755 23.9559 24.1625 23.9806 24.1378C24.0077 24.1107 24.0459 24.113 24.0756 24.0943C24.1248 24.0633 24.1603 24.017 24.2062 23.9809C24.3294 23.8841 24.4865 23.8994 24.6266 23.8354C24.7625 23.7733 24.9046 23.7321 25.0429 23.6768C25.061 23.6695 25.0747 23.6452 25.087 23.6315C25.1287 23.5852 25.1687 23.5377 25.2096 23.4906C25.2739 23.4166 25.3601 23.3271 25.457 23.2965C25.4986 23.2833 25.5304 23.2706 25.5681 23.2913C25.6727 23.349 25.7842 23.3888 25.9002 23.4162C25.9558 23.4293 26.0084 23.4465 26.0635 23.4609C26.1839 23.4923 26.3268 23.5118 26.434 23.5788C26.5925 23.6779 26.8131 23.6733 26.9918 23.7174C27.0865 23.7408 27.1811 23.7896 27.2633 23.8411C27.4897 23.9832 27.7331 24.0784 28.0009 24.116C28.1379 24.1353 28.3192 24.1875 28.4482 24.1206C28.5209 24.0829 28.61 24.0417 28.6893 24.0215C28.7991 23.9937 28.9205 23.9734 29.0249 23.9293C29.1529 23.8753 29.2712 23.7776 29.3857 23.7008C29.4208 23.6773 29.4947 23.6303 29.5289 23.5966C29.5722 23.5538 29.5636 23.5136 29.5781 23.4597" stroke="white" stroke-linecap="round"/>
</svg>
