<svg width="70" height="69" viewBox="0 0 70 69" fill="none" xmlns="http://www.w3.org/2000/svg">
<rect x="1.41406" y="1" width="67" height="67" rx="10" fill="#0A66C2"/>
<path d="M6.22949 2.04449C7.2178 2.04449 8.21247 1.92879 9.20881 1.92879C10.0086 1.92879 10.8058 1.81309 11.6096 1.81309C12.5092 1.81309 13.3895 1.92879 14.2933 1.92879C16.2986 1.92879 18.3004 1.98664 20.3065 1.98664C21.5787 1.98664 22.847 1.85865 24.1151 1.80987C24.5473 1.79325 24.9635 1.69738 25.3974 1.69738C26.3573 1.69738 27.3172 1.69738 28.2771 1.69738C29.2525 1.69738 30.2196 1.63953 31.1954 1.63953C32.5716 1.63953 33.9449 1.69738 35.3221 1.69738C36.8519 1.69738 38.3817 1.69738 39.9116 1.69738C40.2512 1.69738 40.5767 1.68777 40.9143 1.63953C41.8066 1.51206 42.6789 1.47347 43.5819 1.43706C47.2798 1.28795 50.974 1.23458 54.6764 1.23458C55.4019 1.23458 56.1247 1.11888 56.849 1.11888C57.259 1.11888 57.6516 1.00317 58.0639 1.00317" stroke="black" stroke-width="2" stroke-linecap="round"/>
<path d="M58.7002 1.11888C58.8196 1.10693 58.8963 1.00639 59.0152 1.00317C59.2793 0.996033 59.5447 1.00317 59.809 1.00317C60.4796 1.00317 61.1503 1.00317 61.8209 1.00317C62.9281 1.00317 64.1714 1.58499 65.0477 2.23411C65.3767 2.47782 65.6709 2.84168 65.938 3.14687C66.3262 3.5905 66.659 3.95903 66.915 4.50315C67.004 4.69213 66.9938 4.85853 67.0564 5.04631C67.1644 5.37021 67.2891 5.65792 67.3168 6.00406C67.3655 6.6135 67.4357 7.23359 67.4357 7.84565C67.4357 12.5544 67.4935 17.2641 67.4935 21.9709C67.4935 25.3137 67.8707 28.6395 67.9435 31.9791C68.0139 35.2094 68.0142 38.4388 68.0142 41.6724" stroke="black" stroke-width="2" stroke-linecap="round"/>
<path d="M68.0715 42.0773C68.0715 42.4979 67.9558 42.8872 67.9558 43.3115C67.9558 43.6993 67.9558 44.0871 67.9558 44.4749C67.9558 45.8113 68.1872 47.134 68.1872 48.4666C68.1872 50.9663 68.0503 53.5153 68.2579 56.0065C68.3669 57.3142 68.3483 58.6546 68.5215 59.9533C68.6666 61.0419 68.6515 62.158 68.2515 63.1865C68.0005 63.8321 67.7163 64.5559 67.3163 65.1309C66.8556 65.7932 66.0523 66.2563 65.3525 66.6061" stroke="black" stroke-width="2" stroke-linecap="round"/>
<path d="M25.3203 67.7053C27.6325 67.7053 29.9879 67.9419 32.2881 67.6474C33.8912 67.4423 35.5686 67.4931 37.1798 67.4739C38.1212 67.4627 39.0591 67.5502 40.0016 67.5285C41.1224 67.5028 42.2234 67.416 43.3473 67.416C45.3391 67.416 47.3267 67.3003 49.3156 67.3003C50.3647 67.3003 51.4113 67.2527 52.4588 67.2425C53.4071 67.2333 54.3486 67.1268 55.2967 67.1268C56.7391 67.1268 58.2327 67.1376 59.6677 66.9854C60.7351 66.8722 61.8382 66.9532 62.9106 66.9532C63.0414 66.9532 64.4031 66.9622 64.3697 66.8954" stroke="black" stroke-width="2" stroke-linecap="round"/>
<path d="M5.47754 67.3582C5.73802 67.4488 6.03523 67.416 6.30674 67.416C6.77918 67.416 7.25163 67.416 7.72408 67.416C8.44287 67.416 9.18292 67.5721 9.90635 67.6024C12.1355 67.6957 14.3595 67.7053 16.5913 67.7053C18.4033 67.7053 20.2007 67.646 22.01 67.5928C22.8798 67.5672 23.7495 67.5317 24.6198 67.5317C25.1437 67.5317 25.7332 67.6021 26.246 67.4739" stroke="black" stroke-width="2" stroke-linecap="round"/>
<path d="M1.65903 51.3335C1.65903 51.9538 1.61037 52.5191 1.5144 53.1333C1.35544 54.1507 1.44232 55.1761 1.48869 56.1962C1.53297 57.1703 1.42763 58.1388 1.42763 59.1209C1.42763 60.1741 1.37219 61.2451 1.48548 62.293C1.54006 62.798 1.63636 63.5138 1.974 63.9129C2.17466 64.15 2.30272 64.4645 2.47216 64.7292C2.59345 64.9187 2.77438 65.049 2.88675 65.2306C3.02689 65.4569 3.1798 65.6907 3.36885 65.8798C3.54006 66.051 3.68293 66.3421 3.8895 66.4647C4.00489 66.5332 4.60943 66.7425 4.60943 66.6061" stroke="black" stroke-width="2" stroke-linecap="round"/>
<path d="M1.7744 16.1022C2.07517 16.591 1.8901 17.6377 1.8901 18.1849C1.8901 19.2938 1.85302 20.4095 1.89331 21.5177C1.91683 22.1644 1.98648 22.8253 2.03473 23.4718C2.09609 24.294 2.06365 25.1256 2.06365 25.9497C2.06365 27.713 1.8901 29.4706 1.8901 31.2367C1.8901 32.7172 1.8901 34.1978 1.8901 35.6783C1.8901 37.2095 1.79826 38.7232 1.7294 40.2518C1.66561 41.668 1.52878 43.1445 1.62977 44.5585C1.70243 45.5757 1.47775 46.7336 1.71655 47.6888" stroke="black" stroke-width="2" stroke-linecap="round"/>
<path d="M1.54297 48.3252C1.54297 48.8148 1.60082 49.2842 1.60082 49.7715" stroke="black" stroke-width="2" stroke-linecap="round"/>
<path d="M1.89007 15.2924C2.296 15.2446 2.12415 13.5362 2.12148 13.2612C2.11745 12.8468 1.97451 12.4455 1.90293 12.0399C1.82749 11.6124 1.85507 11.132 1.81937 10.6964C1.72316 9.52274 1.54297 8.35947 1.54297 7.18039C1.54297 6.17765 1.74287 5.25272 1.89329 4.27499C1.98568 3.67446 2.49059 2.93888 3.01817 2.62623C3.37004 2.41772 3.83854 2.22914 4.22982 2.10558C4.5058 2.01843 4.76582 1.88923 5.05581 1.86774C5.5983 1.82756 6.1254 1.77522 6.65313 1.87417C7.20398 1.97746 7.95465 2.42062 8.48508 2.10236" stroke="black" stroke-width="2" stroke-linecap="round"/>
<path d="M11.6062 14.6128C11.8662 14.1187 12.0457 13.6071 12.3397 13.1307C12.6979 12.5501 13.2056 12.0639 13.6836 11.5858C13.9177 11.3517 14.4345 11.1903 14.7462 11.1336C15.365 11.0211 16.038 11.0918 16.6654 11.0859C17.3519 11.0794 18.0363 10.967 18.6951 11.2216C19.2995 11.4551 19.8071 11.7921 20.3555 12.1259C20.854 12.4293 21.2187 12.9839 21.5839 13.4246C22.2711 14.254 22.8088 15.0545 22.8198 16.1602C22.8259 16.7735 22.7084 17.3727 22.5736 17.9688C22.4601 18.4707 22.2209 19.038 21.9155 19.4509C21.2153 20.3975 20.1982 20.8938 19.2502 21.5258C18.8567 21.7882 18.2951 21.8921 17.8385 21.9805C17.4706 22.0517 17.1266 22.0735 16.7508 22.0735C15.8744 22.0735 15.1775 21.5329 14.3694 21.2596C14.1075 21.171 13.8957 20.9275 13.6911 20.7521C13.4005 20.503 13.0869 20.2888 12.8371 19.9935C12.4231 19.5043 12.2078 18.8329 11.8398 18.3054C11.4287 17.7163 11.1992 16.9767 11.1992 16.2632C11.1992 15.8507 11.2813 15.5054 11.3801 15.1102" stroke="black" stroke-width="2" stroke-linecap="round"/>
<path d="M27.1717 25.8791C27.7566 25.8705 28.2998 25.6699 28.8815 25.6509C29.3208 25.6365 29.7629 25.6477 30.2024 25.6477C31.5943 25.6477 33.0576 25.6172 34.4352 25.4034C35.1315 25.2953 35.8812 25.4029 36.5628 25.217C36.6835 25.1841 36.6593 26.4865 36.6593 26.6375C36.6593 27.32 36.6593 28.0024 36.6593 28.6848C36.6593 28.9473 36.6593 29.2098 36.6593 29.4722C36.6593 29.703 36.7532 28.9926 36.9164 28.8295C37.6465 28.0993 38.0795 27.1345 39.179 26.8047C39.8798 26.5944 40.5167 26.2351 41.1813 25.9433C42.1052 25.5377 43.1606 25.2734 44.1734 25.2427C45.0281 25.2168 45.8426 25.2106 46.6932 25.2395C47.4919 25.2666 48.3867 25.1638 49.1679 25.3134C49.4309 25.3638 49.6927 25.4084 49.9585 25.4516C50.4315 25.5285 50.7996 25.7987 51.2313 25.9883C52.0972 26.3687 53.0245 26.653 53.8635 27.0907C54.2346 27.2843 54.4975 27.6861 54.773 27.9938C55.0989 28.3578 55.4396 28.6926 55.7822 29.0351C56.6616 29.9145 57.2041 31.1109 57.4727 32.3198C57.6228 32.9953 58.0607 33.573 58.2087 34.2449C58.3481 34.8774 58.4112 35.3381 58.4112 35.9773C58.4112 38.1649 58.4112 40.3525 58.4112 42.5401C58.4112 42.9847 58.4112 43.4293 58.4112 43.8739C58.4112 45.0491 58.4112 46.2244 58.4112 47.3996C58.4112 47.7156 58.5338 48.3596 58.3823 48.6627C58.3309 48.7655 58.3533 48.9089 58.3533 49.0194C58.3533 49.4118 58.3356 49.7982 58.3083 50.1893C58.2842 50.5361 58.291 50.8895 58.2955 51.237C58.3138 52.6464 58.8162 54.0104 58.8162 55.428C58.8162 55.9156 58.6426 56.3785 58.6426 56.8614C58.6426 57.2333 58.0576 57.1102 57.762 57.2921C57.5957 57.3944 57.3822 57.4212 57.2028 57.4946C56.9986 57.5781 56.7925 57.5345 56.5953 57.6103C56.2671 57.7365 55.8594 57.7704 55.5122 57.7999C55.1644 57.8294 54.8367 57.8897 54.4902 57.9156C53.4522 57.9932 52.4324 57.8536 51.3984 57.816C50.3702 57.7786 49.3355 57.8128 48.3066 57.8128C48.1408 57.8128 47.987 57.8177 47.8245 57.7838C47.6057 57.7383 47.6509 57.6655 47.6509 57.4592C47.6509 56.9606 47.5352 56.5028 47.5352 56.0097C47.5352 55.0444 47.4768 54.1424 47.3617 53.1847C47.2293 52.0843 47.0724 51.0013 47.0724 49.8904C47.0724 48.2417 47.1881 46.6286 47.1881 44.9827C47.1881 43.1979 47.246 41.4176 47.246 39.6347C47.246 38.8578 47.3976 37.8665 47.1881 37.115C47.1243 36.8861 47.1252 36.4719 46.9792 36.2922C46.7164 35.9688 46.437 35.717 46.1179 35.4534C45.0911 34.6052 43.78 34.6724 42.5311 34.6724C41.5771 34.6724 40.5659 34.6886 39.6354 34.8909C39.5147 34.9172 39.4569 35.1807 39.404 35.283C39.252 35.5768 39.0442 35.8687 38.9765 36.1958C38.804 37.0295 38.2211 37.7991 37.8998 38.5805C37.5415 39.4521 37.2732 40.3464 37.241 41.2963C37.2027 42.4248 37.3495 43.5912 37.2249 44.7127C37.0971 45.8633 37.1736 46.9265 37.2378 48.081C37.2737 48.7286 37.3535 49.3574 37.3535 50.0093C37.3535 50.4329 37.3418 50.8497 37.3985 51.2692C37.5405 52.3204 37.607 53.3917 37.5817 54.4574C37.5599 55.3694 37.3535 56.2628 37.3535 57.1764C37.3535 57.5113 36.8529 57.2209 36.6464 57.1828C36.0417 57.0714 35.405 57.1186 34.792 57.1186C34.4848 57.1186 34.2029 57.2343 33.8953 57.2343C33.3953 57.2343 32.903 57.2255 32.404 57.1893C31.71 57.1388 31.0115 57.2009 30.3181 57.231C29.8227 57.2526 29.3259 57.2696 28.8301 57.2792C28.3288 57.289 27.8786 57.2908 27.3774 57.2921C27.1078 57.2928 26.6178 57.3568 26.3329 57.2825C26.3058 57.2754 26.433 57.0569 26.4421 57.0253C26.4866 56.8722 26.4848 56.7083 26.5225 56.5529C26.6038 56.2174 26.5353 55.79 26.5353 55.4473C26.5353 54.5474 26.5353 53.6475 26.5353 52.7476C26.5353 50.8379 26.6518 48.9165 26.8535 47.0204C26.9551 46.0654 26.9901 45.126 27.1138 44.1728C27.181 43.6553 27.1717 43.1413 27.1717 42.6205C27.1717 41.8873 27.2403 41.1887 27.3131 40.4607C27.4089 39.5031 27.4063 38.5369 27.4931 37.5778C27.5592 36.8473 27.688 36.1246 27.7374 35.3923C27.7649 34.9832 27.6345 34.5441 27.6345 34.1228C27.6345 33.4002 27.6735 32.6668 27.6056 31.947C27.4943 30.7676 27.5268 29.6061 27.2874 28.4374C27.1802 27.914 27.1717 27.3935 27.1717 26.8625" stroke="black" stroke-width="2" stroke-linecap="round"/>
<path d="M11.8412 25.8791C12.1955 25.8791 12.5168 25.8486 12.8632 25.7602C13.685 25.5503 14.4601 25.4163 15.309 25.4163C15.9433 25.4163 16.5564 25.6033 17.1892 25.6348C18.1653 25.6833 19.1246 25.6124 20.0946 25.5898C20.507 25.5802 20.9095 25.4741 21.3223 25.4741C21.7037 25.4741 21.6821 25.7238 21.7337 26.0783C21.8679 27.0007 22.1965 27.93 22.1965 28.8648C22.1965 30.8956 22.3014 32.9265 22.3669 34.9552C22.3968 35.885 22.2674 36.8239 22.3572 37.7449C22.4434 38.6284 22.4279 39.5813 22.4279 40.4704C22.4279 41.0915 22.4988 41.762 22.4183 42.3794C22.3486 42.9136 22.2544 43.3803 22.2544 43.9286C22.2544 44.3185 22.2544 44.7085 22.2544 45.0984C22.2544 46.0017 22.4279 46.899 22.4279 47.811C22.4279 48.4773 22.4318 49.1438 22.4279 49.8101C22.4232 50.6348 22.3122 51.4543 22.3122 52.2784C22.3122 53.2999 22.364 54.3359 22.4151 55.3573C22.4346 55.7489 22.4114 56.1756 22.3572 56.5658C22.3444 56.6584 22.2088 57.4318 22.1579 57.44C21.9941 57.4662 21.7032 57.35 21.5184 57.35C21.3288 57.35 21.1391 57.35 20.9495 57.35C20.6023 57.35 20.2768 57.4502 19.9275 57.4625C19.5505 57.4757 19.1756 57.4554 18.7994 57.4946C17.9256 57.5856 17.0588 57.5908 16.18 57.5814C15.7619 57.5769 15.3574 57.4733 14.9394 57.4657C14.503 57.4577 14.0417 57.4537 13.6089 57.395C13.2768 57.3499 12.6162 57.4853 12.4904 57.1411C12.3147 56.6602 12.046 56.2504 12.0115 55.7334C11.9971 55.517 11.9568 55.2797 11.9248 55.0649C11.6585 53.2772 11.3784 51.4086 11.3784 49.6012C11.3784 47.3251 11.2173 44.9804 11.4362 42.7137C11.6525 40.4744 11.4904 38.225 11.5487 35.9805C11.6023 33.9195 11.7834 31.8547 11.7834 29.7936C11.7834 28.6816 11.7834 27.5696 11.7834 26.4576" stroke="black" stroke-width="2" stroke-linecap="round"/>
<path d="M16.2543 14.0805C16.2025 14.2531 15.8853 14.3508 15.7465 14.4276C15.4981 14.565 15.2574 14.6857 15.168 14.974C14.9989 15.5188 15.3448 16.2741 15.9265 16.4267C16.5245 16.5836 16.2758 15.3783 15.8557 15.2183C15.5729 15.1105 15.2425 15.7955 15.1872 15.9832C15.0722 16.3736 15.6479 16.739 15.9297 16.4299C16.441 15.8691 16.1159 14.8758 15.5697 14.4662C15.2027 14.1909 15.1266 13.2411 14.5637 13.4892C13.8297 13.8126 13.524 14.5512 13.4742 15.2986C13.4568 15.5592 13.3883 15.8277 13.3328 16.0828C13.2407 16.5063 13.3154 17.0089 13.3746 17.4294C13.4739 18.136 14.0366 18.7362 14.5509 19.1778C14.8971 19.4751 15.512 19.7855 15.6243 19.1007C15.6979 18.6521 15.4776 18.1344 15.1005 17.8858C14.9847 17.8095 14.7602 17.6921 14.6087 17.7058C14.409 17.724 14.59 18.4691 14.6152 18.5543C14.7616 19.0494 15.2247 19.5043 15.7722 19.5378C16.5583 19.5859 17.4615 19.0469 17.4434 18.2136C17.4322 17.6983 16.6924 16.9306 16.3057 17.5966C15.8624 18.36 15.7804 19.1859 16.1964 19.9717C16.3795 20.3174 16.9243 20.6884 17.0963 20.097C17.2661 19.5134 16.367 19.3488 16.0164 19.3449C15.7809 19.3423 15.5407 19.3385 15.3094 19.3899C15.1308 19.4296 15.2242 19.7382 15.2419 19.8656C15.3724 20.8054 16.1357 20.9381 16.8328 20.3863C17.1255 20.1546 17.6507 20.1068 17.9962 20.0649C18.2808 20.0304 18.8151 20.0346 19.0022 19.7435C19.1444 19.5223 19.2507 19.2677 19.3268 19.0203C19.4589 18.5911 19.7907 18.4313 20.1496 18.2136C20.3381 18.0993 20.5026 17.9441 20.6638 17.7958C20.7737 17.6947 20.8246 17.8453 20.8566 17.9437C20.9345 18.1826 20.7465 18.4783 20.561 18.6154C20.5092 18.6537 20.1448 18.7925 20.1496 18.7793C20.2492 18.5054 20.5304 18.3517 20.6124 18.0401C20.7603 17.4779 20.9143 16.7446 20.8116 16.1631C20.723 15.6611 20.3247 15.5756 19.8667 15.4818C18.8817 15.2799 18.3043 16.4023 18.6679 17.272C18.9466 17.9383 19.9786 17.7318 20.0885 17.0598C20.2344 16.1686 19.1718 15.5895 18.6326 15.0672C18.3252 14.7694 18.0405 14.4115 17.5881 14.3569C17.0721 14.2946 16.963 14.8304 16.9999 15.2472C17.0388 15.6865 17.3689 15.8639 17.7488 15.6264C18.2236 15.3297 18.1632 14.7628 17.9062 14.3376C17.5825 13.8019 16.9539 13.481 16.3571 13.3413C15.8567 13.2242 15.5965 13.3554 15.1487 13.6338C15.0468 13.6971 14.808 13.9078 14.808 13.6756C14.808 13.2657 14.3118 13.7515 14.1074 13.7398C13.9566 13.7312 14.3912 13.0236 14.448 12.9492C14.5666 12.7941 14.9694 12.8443 15.1583 12.7789C15.4429 12.6804 15.722 12.578 15.9875 12.435C16.2625 12.2869 16.7286 12.3397 17.032 12.345C17.7564 12.3577 18.3871 12.4847 18.9765 12.9267C19.4381 13.2729 19.9484 13.4321 20.2588 13.9455C21.0355 15.23 21.4361 16.9781 20.6509 18.3615C20.4984 18.6303 20.2653 18.8425 20.1174 19.1135C19.9582 19.4055 19.7492 19.7156 19.4296 19.8399C19.0669 19.9809 18.6324 19.9763 18.2469 20.0424C18.0616 20.0742 17.9408 20.1644 17.7777 20.2416C17.5787 20.3359 17.3501 20.3536 17.1478 20.4441C16.9228 20.5448 16.4815 20.5736 16.2414 20.547C15.9813 20.5181 15.7088 20.4903 15.4572 20.4184C15.2831 20.3686 14.8544 20.3468 14.718 20.2352C14.4984 20.0556 14.2582 19.7085 14.1202 19.4671C14.0705 19.3801 13.9778 19.3844 13.9145 19.3096C13.83 19.2096 13.7828 19.0638 13.7088 18.9528C13.5397 18.6991 13.455 18.4424 13.4067 18.1429C13.3314 17.6761 13.1377 17.3125 13.2203 16.8284C13.2898 16.4217 13.3941 15.9947 13.7731 15.7614C14.1141 15.5516 14.6731 15.5932 15.0587 15.5621C15.4601 15.5298 15.8174 15.8965 16.1386 16.1053" stroke="white" stroke-width="2" stroke-linecap="round"/>
<path d="M13.3618 27.9069C13.6088 27.9378 13.5354 28.8822 13.5354 28.6333C13.5354 28.4406 13.3984 28.0908 13.4904 27.9069C13.5992 27.6892 13.623 27.4524 13.9146 27.4441C14.5324 27.4265 15.1544 27.4441 15.7723 27.4441C16.9831 27.4441 18.1661 27.1976 19.3719 27.2127C19.6401 27.2161 20.273 27.3696 20.4518 27.6048C20.6475 27.8623 20.5932 28.2073 20.5932 28.5143C20.5932 28.6758 20.3015 28.7141 20.1818 28.7168C19.5987 28.7301 19.0297 28.8042 18.4527 28.8293C18.163 28.8419 17.8871 28.9482 17.6042 28.9482C17.1993 28.9482 16.7943 28.9482 16.3894 28.9482C15.8876 28.9482 15.378 29.0066 14.8884 29.1218C14.6929 29.1678 14.2382 29.2151 14.1139 29.3918C13.9818 29.5794 13.9572 29.8797 13.9435 30.0988C13.9354 30.229 13.767 31.1466 14.0271 31.1466C14.3794 31.1466 14.7411 30.973 15.0716 30.8702C15.3976 30.7688 15.6974 30.7233 16.0262 30.6548C16.4374 30.5692 16.8666 30.5516 17.2828 30.4973C17.62 30.4534 17.987 30.5051 18.3145 30.4202C18.6877 30.3235 19.0401 30.3366 19.4233 30.3366C19.5908 30.3366 19.7477 30.3945 19.9183 30.3945C20.4397 30.3945 19.2844 30.5526 19.2562 30.5552C18.0607 30.6647 16.705 30.7396 15.5537 30.3109C15.0879 30.1375 14.748 29.7892 14.3067 29.5685C14.1539 29.4921 14.0272 29.3628 13.9082 29.2375C13.8434 29.1693 13.4457 28.4614 13.5482 28.9482C13.6341 29.3561 13.5958 29.7877 13.6961 30.1888C13.8226 30.6949 13.7813 31.2506 13.7218 31.7636C13.6862 32.0706 13.8185 32.1241 13.9853 32.3743C14.0995 32.5456 13.4423 32.9285 13.4229 33.1231C13.3399 33.9528 13.4775 34.7859 13.4775 35.6107C13.4775 36.1025 13.4892 36.6581 13.3875 37.1373C13.2653 37.7136 13.1304 38.2735 13.1304 38.8664C13.1304 39.9834 13.1724 41.1103 13.0758 42.2218C13.0253 42.8023 13.0574 43.4185 13.1593 43.9895C13.2728 44.6248 13.1382 45.2844 13.0854 45.9178C13.0173 46.7354 13.1304 47.5602 13.1304 48.3861C13.1304 48.8125 13.1304 49.2389 13.1304 49.6653C13.1304 50.351 12.9716 51.0302 13.0276 51.7158C13.0792 52.3483 13.1475 52.994 13.259 53.6184C13.3332 54.0342 13.3175 54.8586 13.6061 55.1997C13.8218 55.4546 13.9759 55.2969 14.056 54.9811C14.2997 54.0207 14.2464 53.0157 14.146 52.0404C14.0257 50.8716 14.0581 49.6836 13.9693 48.5115C13.8609 47.0818 14.056 45.6619 14.056 44.2337C14.056 43.171 13.985 42.0791 14.085 41.0198C14.1833 39.977 14.0973 38.9346 14.2296 37.8894C14.325 37.1355 14.2784 36.3731 14.3581 35.6204C14.4097 35.1337 14.5462 34.6578 14.5735 34.1677C14.606 33.5818 14.6863 33.1609 14.9784 32.6314C15.1191 32.3764 15.264 32.118 15.5152 31.9565C15.7501 31.8055 15.6759 32.1241 15.6759 32.2779C15.6759 32.759 15.3836 33.1155 15.2966 33.5699C15.2781 33.6663 15.2092 34.6355 15.3288 34.6176C15.6707 34.5663 15.9225 33.891 15.9619 33.6084C16.0357 33.0793 16.1725 32.6277 16.5308 32.2136C16.8556 31.8381 16.9613 31.733 16.9454 32.2972C16.9268 32.9549 16.6416 33.5705 16.6272 34.2127C16.622 34.4433 16.6845 34.7809 16.9904 34.6337C17.5384 34.3698 17.6903 33.6266 17.7456 33.0814C17.8012 32.5344 17.9209 32.0123 18.2149 31.5387C18.5041 31.0728 18.4832 32.054 18.4977 32.2007C18.5503 32.7318 18.5384 33.2562 18.5234 33.7884C18.5149 34.0903 18.4616 34.5111 18.5973 34.7976C18.7322 35.0824 19.0861 34.1512 19.0955 34.1227C19.2708 33.5898 19.2445 32.9768 19.3237 32.4225C19.3848 31.9944 19.6046 31.6339 19.7704 31.243C19.9505 30.8185 20.0725 30.4516 20.0725 29.9895C20.0725 29.4573 20.4995 29.9729 20.5321 30.2499C20.6562 31.3046 20.5621 32.3549 20.7378 33.4092C20.8163 33.8801 20.95 34.4794 20.6575 34.8972C20.4961 35.1277 20.4032 35.0804 20.0854 35.0804C19.5788 35.0804 19.087 35.0907 18.5845 35.164C18.1009 35.2345 17.621 35.3911 17.135 35.4275C16.9816 35.439 16.8856 35.4244 16.7493 35.5111C16.307 35.7926 15.8494 35.8248 15.8494 36.4239C15.8494 36.6686 15.7358 36.9594 16.0422 36.9188C16.4346 36.8669 16.7808 36.7061 17.1543 36.5845C17.8008 36.374 18.3534 36.5845 19.0055 36.5845C19.3777 36.5845 19.7658 36.7965 20.1304 36.7581C20.2294 36.7477 20.421 36.4611 20.5 36.3821C20.6344 36.2477 20.6842 36.4286 20.7989 36.5845C20.9795 36.8302 21.056 37.0344 21.056 37.3334C21.056 37.5927 20.2193 37.4457 20.0725 37.4395C18.9504 37.3915 17.7093 37.3031 16.6529 37.7866C16.027 38.073 15.8078 38.7258 15.9523 39.3357C15.9932 39.5085 15.9651 39.7203 15.9651 39.8949C15.9651 40.4069 16.019 41.0268 15.7401 41.4826C15.5524 41.7895 15.2709 42.0413 15.2709 42.4179C15.2709 42.8282 15.2709 43.2385 15.2709 43.6488C15.2709 44.1346 15.3058 44.6141 15.332 45.0983C15.3737 45.8698 15.5894 43.5744 15.7016 42.81C15.7947 42.1747 15.866 41.5409 15.9908 40.9105C16.0894 40.4127 16.2523 39.7459 16.5725 39.3421C16.7421 39.1284 16.8026 39.0848 16.9164 39.3228C17.1577 39.8273 17.1222 40.2089 16.9454 40.7305C16.7579 41.2836 16.5088 42.0848 16.6143 42.6782C16.6358 42.7989 16.7176 42.7208 16.7686 42.6653C17.0866 42.3189 17.3267 41.8465 17.4178 41.3862C17.6002 40.4648 17.3058 39.5266 17.3664 38.6029C17.3803 38.39 17.5574 37.6383 17.9192 37.7287C17.9961 37.7479 18.0129 38.0992 18.0156 38.1272C18.0847 38.8378 17.9802 39.5517 17.8871 40.2549C17.8734 40.3582 17.5304 41.8899 17.9578 41.8329C18.445 41.768 18.2792 39.6269 18.2792 39.3228C18.2792 38.9644 18.2635 38.6008 18.292 38.2429C18.3118 37.9938 18.35 37.901 18.517 38.1337C18.7776 38.4966 18.7925 38.9486 18.8191 39.3807C18.8679 40.175 18.8232 40.9718 18.8705 41.7654C18.8753 41.846 18.8695 42.2185 18.9734 42.2732C19.0821 42.3304 19.1397 41.7258 19.1405 41.7108C19.1888 40.8179 18.9814 39.9525 18.9734 39.0657C18.9704 38.7361 19.1103 38.4098 19.3076 38.8922C19.6965 39.8428 19.6225 40.9254 20.0083 41.8683C20.0815 42.0473 20.121 41.997 20.1272 41.8329C20.1476 41.2908 20.1307 40.7332 20.0468 40.197C19.9389 39.5068 19.7254 38.862 19.7254 38.1562C19.7254 38.0489 19.6965 37.6548 19.899 37.8573C20.1024 38.0607 20.2626 38.3066 20.4389 38.5322C20.5201 38.6361 20.714 38.6673 20.7539 38.7957C20.8439 39.0857 20.7667 39.4987 20.7667 39.8017C20.7667 40.2934 20.7667 40.7852 20.7667 41.2769C20.7667 41.5697 20.5097 43.7874 20.2782 43.6745C19.6701 43.3778 19.1166 43.1233 18.4302 43.0446C17.8106 42.9735 17.4088 43.1234 17.1221 43.6552C16.9696 43.9382 16.814 44.2216 16.6722 44.5101C16.6124 44.6316 16.4561 44.9622 16.579 44.9054C16.901 44.7568 16.9799 44.2462 17.2828 44.118C17.5155 44.0196 17.5293 44.3592 17.5528 44.5069C17.6312 44.9995 17.2049 45.0106 16.865 45.1883C16.6059 45.3237 16.3232 45.4328 16.084 45.6029C15.9086 45.7276 15.83 45.9429 15.6823 46.0978C15.4633 46.3275 14.9959 46.6609 15.1584 47.0266C15.2907 47.3243 15.2928 47.4222 15.5794 47.1263C16.0604 46.6298 16.4478 45.9117 16.8232 45.3329C17.2034 44.7468 17.4883 44.5192 18.1634 44.3044C18.5281 44.1884 18.9497 44.1793 19.3301 44.2241C19.5452 44.2494 19.3225 44.878 19.3012 44.9794C19.2871 45.0462 19.4514 45.0595 19.3462 45.1497C18.9564 45.4838 18.7517 46.242 18.2084 46.3099C17.6679 46.3775 17.4645 46.6945 17.0707 47.0234C16.7519 47.2896 16.4668 47.5814 16.1483 47.8526C15.7226 48.2152 14.6763 48.9456 15.1359 49.6074C15.2099 49.714 15.339 49.9476 15.4766 49.9835C15.6742 50.035 16.0389 49.7418 16.158 49.6203C16.7125 49.0546 16.9121 48.1568 17.2957 47.4734C17.5746 46.9764 17.9873 46.6865 18.3916 46.3035C18.7329 45.9802 19.0587 45.6396 19.3912 45.3072C19.7096 44.9888 19.9179 45.0618 20.0822 45.545C20.1835 45.8431 20.187 46.1779 20.2911 46.4771C20.3836 46.7432 20.3039 45.9609 20.3039 45.8439C20.3039 45.497 20.3618 45.1572 20.3618 44.8122C20.3618 44.0838 20.661 46.25 20.651 46.9784C20.6466 47.3054 20.5528 47.6466 20.5064 47.9715C20.4782 48.1691 20.2993 49.6985 19.9375 49.1639C19.6619 48.7565 19.4842 48.2808 19.2433 47.8526C19.1685 47.7195 19.0886 47.5564 18.9412 47.4894C18.8043 47.4272 18.6329 47.6636 18.5684 47.7401C18.253 48.1146 18.1964 48.5461 18.067 49.0032C17.9184 49.5284 17.7591 50.4033 17.3343 50.7998C17.0643 51.0518 16.647 51.0928 16.3058 51.1951C16.061 51.2685 15.9366 51.3008 15.8558 51.5936C15.8186 51.7288 15.7317 52.0523 15.9715 52.079C16.3629 52.1224 17.7852 49.923 18.0831 50.2438C18.4768 50.6678 18.3567 51.19 18.3627 51.7222C18.3672 52.1221 18.7389 51.7525 18.8544 51.6097C19.4375 50.8895 19.4362 49.5881 19.4362 48.6947C19.4362 48.235 19.7001 48.2026 20.0436 48.4697C20.7008 48.9809 20.9228 50.0919 20.7925 50.8737C20.7508 51.1238 20.6677 51.539 20.4903 51.7286C20.2557 51.9795 19.8575 51.9323 19.5519 51.9793C18.9672 52.0693 18.3841 52.2444 17.8035 52.365C17.3411 52.461 16.8817 52.5636 16.4536 52.77C15.8849 53.0441 15.1949 53.5992 15.5152 54.2741C15.6655 54.5909 16.2878 54.5014 16.5565 54.483C16.9101 54.4588 17.0601 54.3538 17.3407 54.1841C17.9569 53.8115 18.7292 53.8356 19.3269 53.477C19.5294 53.3555 19.7005 53.2456 19.9536 53.2456C20.0545 53.2456 20.2279 53.2297 20.1754 53.0721C20.16 53.0258 19.9642 52.0919 20.2461 52.2172C20.3883 52.2803 20.3873 52.5653 20.4196 52.6864C20.4879 52.9425 20.627 53.1859 20.696 53.4449C20.812 53.8797 20.8488 54.5559 20.7217 55.0133C20.6625 55.2264 20.6296 55.411 20.4004 55.3218C19.8187 55.0956 19.2891 54.6193 18.6648 54.528C17.8416 54.4075 16.9193 54.5183 16.0872 54.5183C15.6709 54.5183 14.7352 54.5556 14.6088 55.0069C14.4748 55.4856 14.664 55.6291 15.0941 55.6721C15.5821 55.7209 16.0756 55.7159 16.5661 55.7621C17.0389 55.8067 17.4912 55.9068 17.9674 55.9068C18.3713 55.9068 18.7752 55.9068 19.1791 55.9068C19.5737 55.9068 19.9647 55.8489 20.3554 55.8489C20.5185 55.8489 20.4705 55.8431 20.5482 55.7461C20.7057 55.5492 20.6935 55.5963 20.5932 55.2704" stroke="white" stroke-width="2" stroke-linecap="round"/>
<path d="M20.4992 28.4213C20.6843 28.483 20.7511 29.1998 20.768 29.3935C20.821 30.0027 20.7623 30.6333 20.7705 31.2448C20.7798 31.9454 20.9149 32.6491 20.9539 33.3499C20.9941 34.0739 20.8576 34.7413 20.7705 35.46C20.6864 36.1539 20.6801 36.8367 20.6801 37.5349C20.6801 37.5829 20.7344 37.9656 20.7479 37.9494C20.8619 37.8126 20.8194 37.2273 20.8132 37.0526C20.7948 36.5374 20.6801 36.0522 20.6801 35.5303C20.6801 35.0957 20.6204 34.7218 20.8509 34.3447C20.8941 34.2739 21.128 34.7262 21.1523 34.7968C21.2088 34.9612 21.232 35.1305 21.2905 35.2942C21.3707 35.5189 21.2679 35.8152 21.2679 36.0528C21.2679 36.1994 21.2679 36.3459 21.2679 36.4924C21.2679 36.5932 21.3269 36.7167 21.3106 36.8064C21.2257 37.273 20.9514 37.7154 20.9514 38.1931C20.9514 39.1707 20.9061 40.1473 20.9061 41.1271C20.9061 41.8498 20.8871 42.6193 20.7027 43.3201C20.606 43.6874 20.5894 44.1061 20.5444 44.4831C20.4845 44.9858 20.4081 45.4937 20.3661 45.9979C20.3589 46.0844 20.3809 46.4014 20.361 46.1436C20.3239 45.6606 20.1375 45.19 20.1375 44.7042C20.1375 44.646 20.0874 44.2719 20.1375 44.2219C20.1802 44.1791 20.1879 44.3323 20.2053 44.3902C20.2401 44.5061 20.2765 44.6161 20.3183 44.7293C20.4078 44.9714 20.4715 45.2171 20.5695 45.4553C20.6483 45.6466 20.6764 45.9095 20.6801 46.1159C20.6842 46.3499 20.5919 45.6556 20.5796 45.5683C20.5282 45.2029 20.4992 44.8657 20.4992 44.4957C20.4992 44.3521 20.4829 44.1096 20.5695 43.9858C20.5803 43.9704 20.7513 44.4141 20.7906 44.4982C20.9018 44.7365 20.9256 45.2532 20.8961 45.508C20.8528 45.8815 20.8157 46.2445 20.8157 46.6209C20.8157 47.1978 20.8157 47.7747 20.8157 48.3516C20.8157 49.4294 20.6801 50.4891 20.6801 51.567C20.6801 52.0472 20.6694 52.5288 20.6801 53.0089C20.6853 53.2453 20.7618 53.4788 20.7152 53.7173C20.6987 53.8019 20.6801 54.0597 20.6801 53.9735C20.6801 53.7009 20.5927 53.4202 20.5444 53.1546" stroke="white" stroke-width="2" stroke-linecap="round"/>
<path d="M28.9031 27.4272C28.8079 27.4272 28.8858 27.4794 28.943 27.4794C29.0947 27.4794 28.9256 27.2933 28.8678 27.2676C28.8527 27.261 28.9257 27.3144 28.9322 27.3168C29.1402 27.3914 29.3948 27.3752 29.609 27.3474C29.7686 27.3268 30.0315 27.2059 30.1921 27.2416C30.3623 27.2794 30.4969 27.3553 30.6801 27.3597C30.9618 27.3666 31.2366 27.2922 31.5164 27.2922C31.9063 27.2922 32.2481 27.2857 32.6367 27.2201C32.8712 27.1805 33.1204 27.1336 33.3503 27.0743C33.466 27.0444 33.584 27.0472 33.7002 27.0221C33.8649 26.9866 34.0187 26.9245 34.1882 26.9086C34.5524 26.8743 34.9802 27.0873 35.0736 27.461C35.1531 27.7789 34.8766 27.9766 34.5871 28.0012C33.6143 28.0837 32.6206 28.0095 31.65 28.1301C31.2677 28.1776 30.8944 28.2648 30.5082 28.2421C30.1819 28.2229 29.8456 28.2126 29.5184 28.2298C29.3778 28.2372 29.3061 28.3658 29.1916 28.437C29.0075 28.5515 29.0004 28.6479 29.0197 28.879C29.0474 29.2117 29.3353 29.4501 29.6458 29.5097C30.4641 29.6667 31.2786 29.3456 32.095 29.3117C32.443 29.2973 32.7805 29.3299 33.1262 29.3332C33.325 29.3351 33.5796 29.2902 33.7708 29.3393C33.9042 29.3736 34.0079 29.4737 34.1575 29.4959C34.3112 29.5186 34.4218 29.4181 34.5242 29.3209C34.5475 29.2988 34.6252 29.1978 34.6654 29.2442C34.7428 29.3335 34.7838 29.4612 34.8143 29.5726C34.8792 29.81 34.8374 29.9094 34.6669 30.0943C34.3875 30.3976 34.1541 30.4718 33.737 30.5025C33.18 30.5436 32.6001 30.5587 32.0489 30.4534C31.7434 30.3951 31.4551 30.3319 31.1435 30.3138C30.8655 30.2976 30.5725 30.2789 30.2965 30.3291C30.2006 30.3466 30.0939 30.3867 30.008 30.432C29.9563 30.4591 29.9792 30.5385 29.9189 30.5486C29.7599 30.5751 29.4928 30.7771 29.4586 30.9399C29.4435 31.0115 29.4257 31.3522 29.3588 31.1072C29.2853 30.8377 29.261 30.5531 29.1931 30.2816C29.1523 30.1185 29.1505 30.3223 29.1517 30.3706C29.1653 30.9343 29.2952 31.4766 29.4217 32.0233C29.5061 32.3878 29.5477 32.7688 29.6504 33.1282C29.694 33.2809 29.7452 33.3869 29.8852 33.2679C30.3903 32.8385 30.5549 32.0753 31.1036 31.7026C31.4225 31.486 31.8227 32.7679 31.8172 32.987C31.807 33.3978 31.271 33.3913 30.987 33.3016C30.8145 33.2472 30.6594 33.1464 30.5174 33.0377C30.4596 32.9934 30.3036 32.7968 30.2136 32.7829C30.1789 32.7776 30.1798 32.8476 30.1798 32.8827C30.1798 32.9992 30.1936 33.1097 30.2151 33.2249C30.2692 33.5145 30.3906 34.1131 30.7292 34.2224C31.0242 34.3175 31.4035 33.8042 31.5226 33.6131C31.7841 33.1937 31.922 32.6613 32.3006 32.3226C33.1451 31.5669 34.0693 33.416 34.3385 33.9446C34.3925 34.0506 34.9617 34.9847 34.4736 34.9927C33.9146 35.002 33.5332 34.3465 33.338 33.9201C33.0819 33.3605 32.7488 32.398 33.5375 32.1139C33.6978 32.0561 33.8829 32.0471 34.0516 32.0417C34.2902 32.0342 34.4263 32.1282 34.6178 32.2673C34.9626 32.5177 35.3078 32.7669 35.6798 32.9763C35.8595 33.0775 35.9484 33.1323 35.9836 32.8996C36.0552 32.4259 35.8566 31.9233 35.6752 31.4924C35.61 31.3375 35.6111 31.0567 35.4619 30.9537C35.3642 30.8863 35.109 31.0521 35.0399 31.098C34.8173 31.2455 34.6691 31.5085 34.7314 31.7824C34.7805 31.998 34.9802 32.0867 35.1519 32.1875C35.5515 32.4223 36.0681 32.7151 36.3212 33.1175C36.5767 33.5236 36.3203 34.2396 36.1831 34.6429C36.1044 34.8741 35.9371 35.0826 35.867 35.3104C35.8056 35.5098 35.6514 35.6546 35.5018 35.8091C35.221 36.099 34.9374 36.2133 34.5519 36.3309C34.0544 36.4827 34.234 36.4199 33.7278 36.578C33.5565 36.6314 33.2166 36.8053 33.0188 36.8035C32.895 36.8025 32.8288 36.2651 32.8162 36.2051C32.7417 35.8498 32.7272 35.5049 32.7119 35.1447C32.7087 35.0694 32.7173 34.8559 32.6413 34.7963C32.52 34.7013 32.2476 34.7472 32.1088 34.7472C31.9096 34.7472 31.7237 34.7426 31.5471 34.8485C31.1564 35.0829 30.7995 35.4427 30.4837 35.7662C30.3877 35.8645 30.3249 35.9367 30.2473 36.0424C30.2259 36.0716 30.1873 36.1579 30.1752 36.1237C30.1129 35.9471 30.1162 35.6987 30.1031 35.5145C30.0786 35.1699 30.1805 34.692 29.9926 34.3789C29.8366 34.1188 29.767 34.6997 29.7624 34.7978C29.7352 35.3754 29.7212 35.9708 29.7379 36.5488C29.7531 37.0773 29.7921 37.6046 29.9143 38.1202C29.9914 38.4456 30.086 38.8182 30.3026 39.0839C30.4376 39.2495 30.6574 39.1429 30.8059 39.0502C31.447 38.6498 31.8023 37.9671 32.0275 37.2701C32.0336 37.251 32.178 36.4135 32.3528 36.5642C32.6316 36.8044 32.8056 37.3568 32.7641 37.709C32.7124 38.1468 32.3187 38.4892 31.8771 38.487C31.2116 38.4836 31.1415 37.5226 31.0331 37.0491C30.9731 36.7872 30.9581 36.4843 30.8781 36.2281C30.873 36.212 30.8663 36.2603 30.8658 36.2772C30.8577 36.5291 30.863 36.7818 30.8581 37.0337C30.8401 37.9554 30.732 38.8903 30.7875 39.8113C30.8338 40.5784 31.0071 41.3623 31.1927 42.1071C31.2653 42.3987 31.3322 42.1611 31.386 42.0073C31.4466 41.8341 31.4624 41.668 31.4719 41.4871" stroke="white" stroke-width="2" stroke-linecap="round"/>
<path d="M30.5048 39.7469C30.4602 40.2899 30.3699 40.829 30.29 41.3674C30.2137 41.881 30.0892 42.6768 30.0383 43.1936C29.961 43.9778 29.974 44.7476 30.0245 45.5323C30.0622 46.1186 30.0933 46.7124 30.1703 47.2955C30.1913 47.4548 30.2084 47.5211 30.247 47.3216C30.3539 46.7686 30.3535 46.1939 30.379 45.6336C30.4103 44.9453 30.4393 44.2583 30.4511 43.5695C30.4534 43.4352 30.446 43.2769 30.5155 43.1552C30.7159 42.8046 30.8597 42.4851 30.959 42.0856C31.0074 41.8911 31.093 41.6245 31.0665 41.4165C31.0546 41.3233 30.9821 41.1142 30.9621 41.0513C30.7701 40.4462 30.5869 39.8392 30.4143 39.2282C30.1276 38.2134 29.8153 37.1865 29.7436 36.1283C29.7056 35.5667 29.7363 35.0008 29.7022 34.4388C29.6917 34.2655 29.6694 34.0835 29.6209 33.917C29.5777 33.7689 29.5656 33.6409 29.5656 33.4889C29.5656 33.1784 29.5656 33.8833 29.5656 33.9078C29.5656 34.6136 29.5747 35.3105 29.6623 36.0117C29.7361 36.6021 29.853 37.1662 29.7436 37.7627C29.6768 38.1274 29.5474 38.4792 29.4674 38.8415C29.4206 39.0536 29.403 39.701 29.3723 39.486C29.318 39.1059 29.3723 38.6827 29.3723 38.2982C29.3723 38.1418 29.375 37.9851 29.3723 37.8287C29.3638 37.3439 29.3723 36.8608 29.3723 36.3739C29.3723 35.5869 29.4275 37.9471 29.4275 38.7341C29.4275 39.5289 29.3447 40.3167 29.3447 41.1127C29.3447 41.7099 29.3171 42.2909 29.2342 42.882C29.1439 43.525 28.9835 44.1646 28.918 44.8095C28.8972 45.0145 28.9074 45.2193 28.8966 45.4249C28.8675 45.9778 28.7471 46.5031 28.6863 47.05C28.6403 47.464 28.5292 47.8622 28.4607 48.273C28.4258 48.4824 28.3882 48.6913 28.3533 48.9007C28.345 48.9503 28.3502 48.7964 28.3502 48.7794" stroke="white" stroke-width="2" stroke-linecap="round"/>
<path d="M28.6821 48.1441C28.6317 48.5731 28.4231 48.9588 28.3445 49.3779C28.2845 49.698 28.3265 50.0452 28.323 50.3693C28.318 50.8392 28.2478 51.3119 28.2402 51.7842C28.2309 52.3597 28.1573 52.9333 28.1573 53.5106C28.1573 53.8794 28.1297 54.2461 28.1297 54.6155C28.1297 54.7983 28.1127 54.9887 28.1634 55.1664C28.1852 55.2425 28.1855 55.32 28.2064 55.3966C28.2247 55.4636 28.3406 55.4082 28.3967 55.4027C28.5142 55.3911 28.7952 55.4124 28.8816 55.326C29.0402 55.1674 29.1445 54.9383 29.207 54.7275C29.5977 53.4088 29.5108 51.996 29.5108 50.6394C29.5108 49.9132 29.5475 49.1888 29.5707 48.4633C29.582 48.109 29.6093 47.7558 29.7195 47.4167C29.7235 47.4045 29.8885 46.9681 29.9037 46.9748C29.9552 46.9973 30.0205 47.2179 30.0356 47.2571C30.144 47.539 30.2184 47.8359 30.2597 48.1349C30.3654 48.9016 30.3119 49.6985 30.3119 50.4705C30.3119 51.3412 30.3106 52.2202 30.2428 53.0885C30.2132 53.4674 30.1924 53.8944 30.0387 54.2456C29.9324 54.4887 30.0272 54.8164 30.0694 55.0651C30.0923 55.1999 30.1788 55.2707 30.3119 55.2707C30.6087 55.2707 30.9724 55.227 31.2572 55.3137C31.5746 55.4103 31.9253 55.4202 32.2562 55.4349C32.509 55.4462 32.7617 55.4277 33.0143 55.4503C33.237 55.4702 33.4619 55.5085 33.6849 55.5178C33.9532 55.529 34.2267 55.5564 34.4951 55.5454C34.7311 55.5358 34.9491 55.4594 35.1765 55.4088C35.2831 55.3851 35.3803 55.3305 35.4849 55.2983C35.5154 55.289 35.5274 55.1655 35.5448 55.1326C35.6586 54.9176 35.6949 54.5978 35.6983 54.3469C35.7123 53.282 35.7389 52.2179 35.7811 51.1534C35.8567 49.2484 35.9322 47.306 35.7121 45.4095C35.661 44.9694 35.6086 44.4912 35.4543 44.0729C35.2396 43.4912 34.8773 42.9519 34.5995 42.3986C34.431 42.0631 34.2945 41.7078 34.0562 41.4134C33.8446 41.152 33.6063 40.9134 33.3503 40.6953C33.247 40.6071 32.9571 40.3029 32.7979 40.284C32.7281 40.2757 32.5204 40.6415 32.5155 40.6492C32.2716 41.0337 32.0264 41.4495 31.8802 41.883C31.7459 42.2811 31.7631 42.7274 31.7544 43.1414C31.7502 43.3413 31.6874 43.7342 31.7927 43.9286C31.8543 44.0422 31.9959 43.7656 32.0766 43.6647C32.3427 43.3321 32.6059 42.9968 32.9022 42.6902C32.9576 42.6329 33.1917 42.3294 33.2982 42.4723C33.4492 42.675 33.5378 42.9619 33.6419 43.1905C33.6769 43.2673 33.8214 43.4766 33.6941 43.5434C33.4521 43.6705 33.0169 43.5925 32.7703 43.5787C32.4702 43.562 32.1712 43.5299 31.871 43.5158C31.6693 43.5064 31.454 43.4857 31.2602 43.5665C30.897 43.7178 30.8732 44.222 30.8827 44.5563C30.8842 44.6086 30.8854 44.9487 31.0086 44.943C31.0612 44.9405 31.2548 44.8293 31.2602 44.8264C31.4808 44.7087 31.6307 44.6215 31.8618 44.5133C32.2487 44.3321 32.655 44.1867 33.0772 44.1143C33.1826 44.0962 33.3869 44.0449 33.4608 44.1634C33.5634 44.3279 33.887 44.8705 33.6757 45.0351C33.0318 45.5364 31.8198 45.1172 31.3554 45.8821C31.3322 45.9204 31.0989 46.5528 31.3109 46.4591C31.8596 46.2167 32.3668 45.8594 32.9575 45.7133C33.255 45.6398 33.4965 45.7797 33.7018 45.985C33.9237 46.2069 33.7707 46.6667 33.4823 46.7507C33.1179 46.8568 32.702 46.8304 32.3283 46.8766C31.8876 46.931 31.2944 46.969 30.9134 47.2295C30.651 47.4089 30.4293 48.3927 30.9441 48.362C31.2427 48.3443 31.5653 48.1561 31.8188 48.0183C32.3797 47.7133 32.9238 47.3442 33.3933 46.9103C33.7197 46.6087 33.9186 46.2896 34.1146 45.9006C34.2503 45.6311 34.4168 45.3906 34.6547 45.2008C34.7545 45.1212 34.8548 45.0362 34.9003 45.1977C35.0334 45.6704 35.0577 46.1902 35.0721 46.6771C35.0896 47.2667 35.0932 47.887 34.845 48.4357C34.7576 48.6289 34.5865 48.9826 34.3478 49.0372C34.0236 49.1115 33.5803 48.963 33.2613 48.936C32.7314 48.8911 32.0265 48.7956 31.5395 49.0802C31.1914 49.2837 31.0228 49.7252 30.9288 50.093C30.9006 50.2033 30.7192 50.8264 31.0009 50.7867C31.374 50.7341 31.7838 50.4006 32.0628 50.1805C32.6018 49.7552 33.0215 49.2438 33.404 48.6782C33.5468 48.467 33.6747 48.2321 33.8445 48.0398C33.8798 47.9997 33.9492 47.9078 34.0102 47.9078C34.0615 47.9078 34.1647 48.0391 34.1928 48.0705C34.3936 48.2946 34.331 48.72 34.3187 48.9866C34.3045 49.2921 34.2834 49.5572 34.2266 49.8567C34.1985 50.005 34.1656 50.2062 34.0486 50.3248C33.9391 50.4356 33.79 50.4223 33.648 50.4276C33.1191 50.4471 32.5908 50.417 32.0644 50.4951C31.6129 50.5621 31.0116 50.6921 30.7814 51.1458C30.7268 51.2535 30.704 51.4217 30.8121 51.5049C31.0484 51.6863 31.3401 51.4532 31.5395 51.3299C32.308 50.8549 33.0308 50.3098 33.8475 49.915C34.0633 49.8107 34.5464 49.5038 34.6854 49.869C34.8157 50.2112 34.8895 50.7707 34.6547 51.0875C34.3323 51.5225 33.529 51.423 33.0741 51.4189C32.6211 51.4149 31.9079 51.2486 31.5288 51.5893C31.3983 51.7065 31.317 51.8415 31.4398 51.9929C31.5963 52.1858 31.8351 52.1124 32.0459 52.065C32.4505 51.9739 32.8723 51.8121 33.2936 51.8379C33.5202 51.8517 33.5551 51.9725 33.5376 52.1724C33.5208 52.3626 33.493 52.5993 33.2751 52.6558C32.7956 52.7803 32.2548 52.6921 31.7636 52.754C31.508 52.7862 31.1445 52.8436 30.9564 53.0471C30.7784 53.2397 31.0408 53.5243 31.2019 53.6226C31.4936 53.8005 31.8625 53.7138 32.1656 53.6226C32.4581 53.5346 32.8974 53.4181 33.0864 53.1499C33.1793 53.018 33.2358 52.7839 33.4209 52.7417C33.5752 52.7066 33.7153 52.934 33.777 53.0364C34.0434 53.4789 33.9415 53.9976 33.5989 54.3592C33.5513 54.4095 33.5146 54.4544 33.5498 54.3745C33.6967 54.0414 33.7835 53.6689 33.8982 53.3249C34.0661 52.8211 34.2553 52.3166 34.3616 51.7949C34.4125 51.5454 34.4289 51.2905 34.4813 51.0414C34.5036 50.9356 34.5526 50.8482 34.5872 50.7468C34.7106 50.385 34.7786 50.0011 34.8189 49.6219C35.0298 47.6381 34.6 45.6368 34.8972 43.6631C34.9755 43.1428 35.0313 42.6199 35.0967 42.0979C35.1352 41.7905 35.1909 41.4812 35.201 41.171C35.2046 41.0638 35.201 40.9559 35.201 40.8487C35.201 40.6111 35.1651 40.8382 35.1335 40.9776C34.5697 43.4699 34.4106 46.0406 34.0102 48.5615C33.8101 49.8214 33.5846 51.077 33.2491 52.309C33.0931 52.8815 32.8259 53.4468 32.7334 54.0354C32.7109 54.1785 32.738 54.2838 32.7687 54.4221C32.7716 54.4349 32.789 54.418 32.801 54.4129C32.8903 54.3746 32.9582 54.2696 33.0066 54.1934C33.3246 53.693 33.4503 53.0795 33.5253 52.5008C33.7085 51.0866 33.6542 49.6399 33.6542 48.2178C33.6542 46.9669 33.6546 45.7164 33.6818 44.4657C33.6906 44.0603 33.6533 43.593 33.7493 43.1905C34.0969 41.7332 33.983 40.2853 33.7493 38.8215C33.6996 38.5097 33.672 38.1965 33.6419 37.8824C33.6336 37.7955 33.6613 37.5911 33.5821 37.6276C33.478 37.6757 33.3561 37.9398 33.3043 38.0159C33.098 38.3188 32.8687 38.6063 32.669 38.9136C32.4474 39.2546 32.3355 39.5779 32.1871 39.9464C32.1218 40.1088 32.0989 40.1433 32.1319 39.9218C32.1956 39.4944 32.2841 39.0559 32.4388 38.6512C32.6538 38.0887 33.1222 37.8016 33.5376 37.4051C33.5963 37.3491 33.6994 37.2207 33.7923 37.2118C34.0008 37.1916 34.2212 37.3713 34.4414 37.3713C34.5562 37.3713 34.7034 37.5584 34.7483 37.6537C34.8752 37.9226 34.9711 38.2202 35.023 38.5131C35.0745 38.8033 35.0906 39.0767 35.0906 39.3709C35.0906 39.6572 35.0483 39.9784 35.0967 40.2625C35.1673 40.6772 35.1986 41.1155 35.201 41.5362C35.2032 41.9043 35.1965 42.2742 35.2624 42.638C35.2946 42.8157 35.3115 42.9786 35.3115 43.1583C35.3115 43.3264 35.2253 43.4801 35.2425 43.1736C35.2623 42.821 35.2563 42.4677 35.2563 42.1147C35.2563 41.6749 35.2189 41.1601 35.3238 40.729C35.3693 40.5419 35.4073 40.3765 35.4343 40.1858C35.4573 40.023 35.4485 39.8252 35.5049 39.6702C35.6417 39.294 35.6601 38.8478 35.6722 38.4502C35.6779 38.2618 35.7184 38.077 35.7397 37.89C35.7629 37.6859 35.7546 37.4816 35.8226 37.2854C35.866 37.1598 35.8735 37.0178 35.8916 36.8864C35.8979 36.8411 35.9796 36.6455 35.9192 36.736" stroke="white" stroke-width="2" stroke-linecap="round"/>
<path d="M30.2286 54.3315C30.1318 54.6706 29.7427 54.9458 29.4169 55.0436C29.3183 55.0732 29.2752 55.0796 29.2496 55.1894C29.2148 55.3382 29.2439 55.677 29.4675 55.5347C29.6067 55.4461 29.8033 55.5087 29.9524 55.5193C30.3618 55.5486 30.7787 55.5436 31.1862 55.5807C31.6055 55.6188 31.9927 55.8104 32.4185 55.8216C32.98 55.8364 33.5421 55.7688 34.1019 55.8093C34.6177 55.8467 35.0894 55.7686 35.5536 55.5531C35.6672 55.5004 35.7771 55.3999 35.615 55.3536" stroke="white" stroke-width="2" stroke-linecap="round"/>
<path d="M34.8965 35.6863C35.2003 35.3055 35.5399 34.937 35.8111 34.5323C35.9486 34.3271 36.0508 34.1015 36.1947 33.9001C36.3523 33.6797 36.5394 33.4672 36.7242 33.2694C37.4201 32.5243 38.2487 31.8107 39.1227 31.279C39.5277 31.0327 39.9185 30.7653 40.3504 30.567C40.6426 30.4328 40.0204 30.6253 39.9928 30.6345C39.3671 30.8431 38.7489 31.1458 38.1529 31.4294C37.854 31.5716 37.5627 31.7323 37.2521 31.8483C37.1421 31.8894 36.9157 32.0089 36.7932 31.9726C36.6851 31.9406 36.5505 31.7736 36.5416 31.6657C36.5324 31.5559 36.5503 31.5506 36.6674 31.4893C36.8342 31.4019 37.0286 31.3763 37.1984 31.2944C37.3129 31.2391 37.386 31.1551 37.4777 31.0703C37.7632 30.8063 37.9564 30.4348 38.2219 30.1496C38.5539 29.793 38.8306 29.4047 39.1902 29.0738C39.3581 28.9194 39.5367 28.7703 39.7212 28.6365C39.9172 28.4944 40.2224 28.4726 40.4547 28.437C40.8027 28.3837 41.0644 28.4561 41.2742 28.7623C41.5555 29.1729 41.2164 29.5335 40.9872 29.8718C40.6845 30.3187 40.2969 30.6936 39.9376 31.0933C39.6005 31.4685 39.2784 31.909 38.9969 32.3287C38.8113 32.6053 38.6428 32.8736 38.4306 33.1313C38.3174 33.2688 38.1481 33.3501 38.0301 33.4827C37.7456 33.8023 37.5566 34.1851 37.381 34.5692C37.2484 34.8592 37.0501 35.1067 36.9405 35.4101C36.8179 35.7497 36.6287 36.0603 36.5047 36.3984C36.3837 36.7285 36.1874 37.0235 36.0689 37.3575C36.0208 37.493 35.979 37.5986 35.9738 37.7427C35.9714 37.8073 35.8662 38.055 35.9323 38.1079C35.9412 38.115 35.963 38.0022 35.963 38.002C35.9883 37.9067 36.0238 37.8126 36.0566 37.7197C36.1049 37.5828 36.1724 37.4393 36.25 37.3161C36.3916 37.0912 36.5311 36.8456 36.6536 36.6102C36.7858 36.3559 37.031 36.1538 37.1892 35.9135C37.2818 35.7727 37.3325 35.6195 37.3917 35.4623C37.4599 35.2813 37.5661 35.1187 37.6603 34.9497C37.8358 34.6349 38.0197 34.3375 38.2189 34.0367C38.4135 33.7428 38.5502 33.521 38.8526 33.32C39.2798 33.0362 39.774 32.7805 40.2752 32.6586C40.5206 32.5989 40.7996 32.5013 41.021 32.3793C41.3306 32.2087 41.7141 32.0679 41.9863 31.8437C42.3574 31.5381 42.6458 31.1107 42.8978 30.7066C43.0178 30.5142 43.128 30.2954 43.128 30.0636C43.128 30.0512 43.1315 30.0926 43.1219 30.1005C43.0926 30.1244 43.0199 30.0926 42.9929 30.0882C42.6489 30.0313 42.2819 30.0778 41.9402 30.1281C41.6483 30.1711 41.6254 30.2013 41.4553 30.4089C41.2667 30.6392 41.0464 30.8638 40.797 31.0289C40.6503 31.1259 40.6972 30.8901 40.6972 30.8079C40.6972 30.0717 40.6953 29.2558 41.0502 28.5904C41.2229 28.2665 41.5586 28.1096 41.8082 27.86C42.0362 27.632 41.2944 28.2505 41.0548 28.4661C40.9842 28.5296 40.9417 28.5584 40.8476 28.5735C40.7481 28.5896 40.2429 28.6146 40.2276 28.5045C40.2113 28.3873 40.3371 28.2218 40.421 28.1577C40.6185 28.0066 40.9742 27.9745 41.2128 27.9275C41.5087 27.8691 41.8187 27.9042 42.1182 27.8937C42.4877 27.8808 42.8217 27.7849 43.1832 27.7372C43.6701 27.6729 44.2759 27.5722 44.7577 27.705C45.065 27.7897 45.3587 27.9428 45.6294 28.1086C45.8361 28.2352 45.8847 28.3133 45.9455 28.5321" stroke="white" stroke-width="2" stroke-linecap="round"/>
<path d="M41.4432 30.7696C41.7256 30.6486 41.9657 30.396 42.2274 30.2355C42.7313 29.9265 43.292 29.6776 43.851 29.4851C44.1617 29.3782 44.4722 29.3918 44.7963 29.3869C45.0506 29.3831 45.8115 29.346 45.5575 29.3347C44.6908 29.2962 43.8144 29.3267 42.9471 29.3209C42.4706 29.3178 41.9934 29.3127 41.5169 29.3271C41.498 29.3276 41.3536 29.3152 41.3312 29.3578C41.2467 29.5183 41.1764 29.6946 41.1041 29.8611C40.991 30.1217 41.1467 29.7296 41.1655 29.6892C41.3062 29.386 41.4683 29.0844 41.6427 28.7992C41.7361 28.6466 41.8443 28.5107 41.9128 28.3449C41.969 28.2089 42.0308 28.048 42.0509 27.903C42.108 27.4921 42.4009 27.3881 42.7415 27.2677C42.9168 27.2057 43.0892 27.1346 43.2663 27.0804C43.6068 26.9764 43.985 26.9853 44.3405 26.9853C45.0389 26.9853 45.743 27.0072 46.4383 26.9592C46.6549 26.9443 46.8767 26.9577 47.0936 26.9577C47.2649 26.9577 47.5252 26.9082 47.6921 26.97C48.1606 27.1435 48.5793 27.4687 48.7847 27.9275C48.826 28.0199 48.921 28.2196 48.8675 28.3265C48.8453 28.371 48.5959 28.335 48.5637 28.3327C48.1779 28.3045 47.7984 28.2391 47.4097 28.2406C47.0492 28.242 46.721 28.4531 46.403 28.6027C46.2922 28.6549 45.8178 28.8072 45.8321 28.9941C45.8433 29.1391 45.9375 29.3218 46.0224 29.4376C46.1903 29.6664 46.3599 29.8911 46.4751 30.1527C46.4995 30.2079 46.6077 30.4138 46.5319 30.4795C46.4195 30.5769 46.2131 30.5426 46.0807 30.5348C45.5791 30.5053 45.0757 30.5559 44.5753 30.5885C44.2926 30.6069 43.9356 30.6029 43.6791 30.7481C43.4849 30.858 43.4471 31.2004 43.409 31.3957C43.3915 31.4855 43.3441 31.6466 43.4106 31.7302C43.4724 31.8081 43.5447 31.8791 43.5855 31.9727C43.6437 32.1061 42.2831 32.4027 42.1491 32.4208C41.9375 32.4493 41.8159 32.4728 41.6243 32.562C41.4295 32.6527 41.241 32.7319 41.0289 32.7645C40.8138 32.7976 40.5965 32.8095 40.3813 32.8413C40.2368 32.8626 40.2823 32.8735 40.3905 32.8628C41.1804 32.7846 41.9621 32.7584 42.7553 32.7584C43.1858 32.7584 43.6233 32.7704 44.0459 32.8597C44.3475 32.9234 44.6521 32.9833 44.9498 33.0638C45.3025 33.1591 45.6868 33.203 46.0255 33.3385C46.0835 33.3617 46.2069 33.4384 46.2588 33.4628C46.5794 33.6134 46.9228 33.7155 47.2562 33.8326C47.7601 34.0097 48.2865 34.1977 48.7079 34.5385C48.8559 34.6582 49.0688 34.9024 48.9167 35.1002C48.8522 35.184 48.7711 35.1965 48.6865 35.1462C48.5949 35.0918 48.4951 35.0517 48.401 35.002C48.3316 34.9653 48.3607 34.9228 48.3366 34.8577C48.2638 34.6611 48.0438 34.4982 47.9315 34.3237C47.8006 34.1204 47.713 33.9193 47.5463 33.7344C47.3422 33.5081 47.0953 33.3268 46.8618 33.1328C46.2796 32.6491 45.6755 32.1377 44.982 31.8208C44.7153 31.6989 44.456 31.5928 44.2454 31.8561C44.0713 32.0736 44.4826 32.033 44.5937 32.0279C45.6405 31.9798 46.6721 31.6102 47.6015 31.1456C47.9229 30.9849 48.3388 30.5681 48.7248 30.7404C49.0826 30.9001 49.492 31.3284 49.4093 31.7579C49.3448 32.092 48.7781 31.9187 48.5883 31.8407C47.978 31.59 47.4883 30.914 47.3207 30.2877C47.2715 30.1039 47.2341 29.7086 47.4496 29.5941C47.5394 29.5464 47.6712 29.5387 47.7673 29.5235C48.0076 29.4855 48.2487 29.4531 48.49 29.4222C48.914 29.368 49.3688 29.4202 49.3586 28.879C49.3532 28.5939 49.2749 28.2278 49.0456 28.035C48.8917 27.9056 48.7536 27.7401 48.6788 27.5531C48.6084 27.3771 48.431 27.3312 48.2752 27.26C48.1222 27.1901 47.969 27.1948 48.1678 27.1096C48.3207 27.0441 48.4783 26.9961 48.645 26.9838C49.175 26.9445 49.6932 27.1828 50.1904 27.3505C50.6462 27.5043 51.1588 27.5661 51.5868 27.7864C51.9173 27.9564 52.2371 28.1369 52.5383 28.3572C52.6672 28.4515 52.7759 28.5703 52.8989 28.6718C53.0435 28.7911 53.2688 28.8877 53.3777 29.0432C53.5564 29.2985 53.6599 29.7069 53.7092 30.01C53.7956 30.5422 53.4876 30.9326 53.1061 31.2622C53.0549 31.3064 52.7628 31.5942 52.6426 31.5737C52.5643 31.5604 52.3589 31.2191 52.3434 31.1993C51.9719 30.7233 51.5435 30.2943 51.1924 29.8028C51.0208 29.5624 50.7922 29.3215 50.5188 29.1966C50.2958 29.0948 49.8556 29.5568 49.7469 29.703C49.4792 30.0632 49.6789 30.7049 49.773 31.0888C49.8651 31.4652 50.0372 32.1842 50.5648 32.1047C50.8248 32.0655 51.0943 31.9734 51.3444 31.8929C51.3865 31.8793 51.432 31.8503 51.4763 31.8469C51.5282 31.8429 51.5594 31.807 51.6083 31.7978C51.6818 31.7838 51.7537 31.841 51.8139 31.8745C52.0088 31.9827 51.3755 32.1046 51.3382 32.12C51.0943 32.2208 50.8652 32.3477 50.6185 32.4423C50.3991 32.5264 50.2453 32.6926 50.241 32.9364C50.2305 33.527 50.6258 34.183 51.0497 34.5707C51.1225 34.6373 51.1916 34.665 51.2155 34.5477C51.2536 34.3602 51.2088 34.1909 51.0896 34.0382C50.6987 33.5377 50.0668 33.1693 49.509 32.8965C48.9163 32.6066 48.2603 32.3859 47.5969 32.3517C47.3522 32.3391 47.0706 32.3492 46.9432 32.5988C46.821 32.8381 46.8005 33.184 46.7652 33.4428C46.7045 33.887 46.5234 34.5996 47.1319 34.6904C47.7061 34.7762 48.3449 34.5877 48.734 34.1472C49.0879 33.7467 49.2707 33.2059 49.5059 32.7338C49.7367 32.2707 50.0362 31.8833 50.3776 31.4939C50.5851 31.2572 50.8222 31.0458 51.0252 30.8064C51.0548 30.7715 51.1086 30.6853 51.151 30.6652C51.2894 30.5997 51.4116 30.9059 51.4395 30.9599C51.6624 31.3911 51.8416 31.8456 51.9904 32.3072C52.1283 32.7349 52.2672 33.1983 52.2406 33.6546C52.2076 34.2183 51.8728 34.6436 51.4702 34.9958" stroke="white" stroke-width="2" stroke-linecap="round"/>
<path d="M47.3271 33.8909C47.5631 34.0906 47.9118 34.2026 48.0591 34.4909C48.2322 34.8296 48.333 35.2061 48.5088 35.5421C48.8435 36.1818 49.1508 36.807 49.2438 37.5371C49.2507 37.5909 49.3125 38.0298 49.3282 38.0005C49.3932 37.8798 49.4097 37.7003 49.4219 37.5708C49.4568 37.1996 49.4512 36.8256 49.4725 36.4537C49.4982 36.0059 49.5588 35.5923 49.7856 35.1984C49.9617 34.8924 50.2814 34.5704 50.4424 35.0971C50.6839 35.8877 50.5419 36.7946 50.2935 37.5632C50.2917 37.5687 49.9793 38.1884 50.2091 37.9714C50.5221 37.6758 50.6764 37.2519 50.8045 36.8496C51.055 36.0634 51.1176 35.2571 51.1836 34.4403C51.269 33.3809 51.3479 32.3607 51.2894 31.3005C51.2627 30.8161 51.2589 30.2903 51.67 29.9624C51.7345 29.911 51.8147 29.8278 51.8971 29.8058C52.0631 29.7616 52.3512 29.9351 52.488 29.9977C52.6347 30.0648 53.2494 30.4686 53.4333 30.3399C53.5044 30.2901 53.5451 30.2283 53.6189 30.1833C53.7057 30.1304 53.93 29.9602 54.0179 30.0084C54.4016 30.2188 54.5643 30.5763 54.8573 30.8693C55.2107 31.2226 55.5138 31.7231 55.6292 32.2121C55.6989 32.507 55.759 32.7859 55.8487 33.076C55.9946 33.548 56.1637 34.0204 56.329 34.4863C56.4354 34.786 56.6021 35.122 56.6298 35.4408C56.6621 35.8125 56.6302 36.1945 56.6359 36.5672C56.6379 36.6962 56.6834 36.8022 56.7035 36.9278C56.7454 37.1907 56.7464 37.4588 56.7464 37.7243C56.7464 38.1256 56.8338 38.5199 56.8247 38.9213C56.8107 39.5379 56.4981 40.1778 56.1694 40.686C56.0663 40.8455 55.9636 40.9254 55.7704 40.95C55.4799 40.987 55.4478 40.5377 55.3868 40.3454C55.1126 39.4807 54.8602 38.6116 54.644 37.7304C54.4483 36.9327 54.362 36.1663 54.3417 35.3472C54.3237 34.6154 54.215 33.9011 54.1131 33.1773C54.066 32.843 54.0393 32.4751 53.9013 32.1614C53.8652 32.0793 53.5185 31.5101 53.4471 31.6351C53.2965 31.8985 53.3227 32.3078 53.401 32.5865C53.5214 33.0147 53.772 33.4056 54.021 33.7681C54.7247 34.7926 55.1096 35.9741 55.2671 37.2056C55.3485 37.8422 55.2849 38.3903 54.9049 38.9274C54.7584 39.1346 54.5751 38.6315 54.5243 38.5453C53.9013 37.4867 53.4893 36.3231 53.0358 35.1861C52.8585 34.7414 52.676 34.3007 52.4619 33.8725C52.3694 33.6876 52.1646 34.2156 52.1519 34.2439C51.636 35.3859 51.5465 36.605 51.5196 37.8409C51.5083 38.3619 51.5099 38.8831 51.4721 39.4031C51.4695 39.4377 51.4648 39.5914 51.4429 39.6517C51.4412 39.6565 51.4357 39.643 51.4306 39.6425C51.3906 39.6385 51.3488 39.6918 51.3278 39.7146C51.2372 39.8132 51.1318 39.9319 51.1114 40.0691C50.9826 40.9388 50.7607 41.803 50.8214 42.6887C50.8341 42.8737 50.861 43.2205 50.605 43.2611C50.495 43.2785 50.049 43.4258 49.9728 43.3347C49.9221 43.2742 49.9179 43.1075 49.9099 43.0416C49.886 42.8468 49.8668 42.65 49.8592 42.4539C49.843 42.0328 49.8859 41.6312 49.7856 41.2155C49.6948 40.8396 49.5758 40.4712 49.4832 40.0952C49.3869 39.7037 49.3245 39.3062 49.2331 38.9151C49.2039 38.7903 49.1769 38.6664 49.1502 38.5407C49.1417 38.5004 49.1276 38.4462 49.1241 38.533C49.1175 38.698 49.121 38.8636 49.1165 39.0287C49.0981 39.6979 49.1375 40.3733 49.0551 41.0375C48.9322 42.0275 49.0033 43.057 49.0428 44.0498C49.0553 44.3636 49.1121 44.64 49.1779 44.943C49.2438 45.2469 49.2933 45.5456 49.4173 45.833C49.4282 45.8584 49.5571 46.2094 49.5983 46.1706C49.6815 46.0925 49.7472 45.942 49.7932 45.8499C50.004 45.4283 50.1842 44.9877 50.3503 44.547C50.7554 43.4723 50.9932 42.3695 51.2511 41.2538C51.4631 40.3367 51.6513 39.3785 51.9769 38.4931C52.1282 38.0817 52.2914 37.7007 52.359 37.2624C52.4016 36.9869 52.4058 36.5806 52.0199 36.8358C51.5299 37.1598 51.055 37.674 50.7431 38.1693C50.5067 38.5448 50.4224 38.9898 50.3779 39.4246C50.3503 39.6942 50.3748 40.0222 50.3994 40.2932C50.4109 40.4199 50.5081 40.3885 50.6173 40.3699C51.1694 40.2759 51.6106 39.8852 51.8803 39.4077C52.1124 38.9965 52.2636 38.5564 52.5555 38.177C52.6153 38.0992 52.6215 38.1395 52.6614 38.2154C52.7998 38.4788 52.9573 38.7209 53.1248 38.9673C53.2532 39.1563 53.3867 39.329 53.4808 39.5382C53.619 39.8452 53.5948 40.2302 53.5698 40.5541C53.4765 41.7622 53.0986 42.8501 52.6245 43.9516C52.4991 44.2431 52.5966 44.1546 52.6368 43.8872C52.8044 42.7726 52.7267 41.6369 52.9652 40.5295C53.0116 40.3139 53.0697 39.9729 53.2338 39.8006C53.3408 39.6881 53.4058 40.0268 53.4087 40.0599C53.4649 40.6907 53.1109 41.3381 52.7872 41.8508C52.5969 42.1522 52.0863 42.6842 52.1918 43.0877C52.244 43.2872 52.5523 43.3671 52.7197 43.4084C52.8865 43.4495 53.2993 43.5629 53.4471 43.4115C53.5552 43.3006 53.6186 43.087 53.6742 42.9526C53.8126 42.6179 53.9246 42.2793 54.0179 41.929C54.0349 41.8653 54.3693 40.5386 54.4108 40.5633C54.4334 40.5767 54.4994 40.7006 54.4998 40.7014C54.6171 40.9318 54.7103 41.1767 54.7791 41.4257C54.9751 42.1355 55.0827 43.0645 54.7637 43.7583C54.5307 44.2651 54.0861 44.4352 53.5714 44.5102C53.2571 44.556 52.9448 44.5687 52.6629 44.7266C52.4438 44.8493 52.231 44.9977 51.9861 45.0657C51.7661 45.1268 51.5272 45.1038 51.3017 45.1271C51.1436 45.1435 50.9957 45.2025 50.8536 45.2714C50.8223 45.2865 50.8352 45.0518 50.8352 45.0228" stroke="white" stroke-width="2" stroke-linecap="round"/>
<path d="M48.9842 44.1941C49.0522 44.3642 48.9276 44.6176 48.8737 44.7895C48.7879 45.0631 48.8966 45.3534 48.9013 45.6304C48.9141 46.3846 48.9142 47.1301 48.9704 47.8832C49.0561 49.0311 49.0378 50.1855 49.1238 51.333C49.1668 51.9054 49.2591 52.4901 49.3279 53.0609C49.3797 53.4895 49.3495 53.9215 49.3433 54.3499C49.3397 54.6006 49.2925 54.8656 49.3372 55.1111C49.3752 55.3205 49.4222 55.5309 49.4599 55.7403C49.4783 55.8426 49.4813 55.8508 49.5827 55.8508C49.7755 55.8508 49.9807 55.8716 50.172 55.8446C50.3711 55.8165 50.5107 55.7582 50.5587 55.5592C50.7786 54.648 50.797 53.6573 50.7751 52.7264C50.7374 51.124 50.5546 49.5092 50.3132 47.9262C50.2477 47.4973 50.1651 46.8713 50.4605 46.5067C50.5522 46.3935 50.7196 46.24 50.8809 46.2535C51.0867 46.2706 51.1704 46.9429 51.1955 47.0438C51.3221 47.5521 51.4486 48.0596 51.4917 48.583C51.5392 49.1599 51.5419 49.7402 51.5531 50.3186C51.5701 51.1965 51.6085 52.0839 51.6927 52.9581C51.7414 53.4627 51.8209 53.9478 51.8278 54.4574C51.831 54.6977 51.7988 54.9643 51.8907 55.194C52.0073 55.4854 52.2409 55.4445 52.4953 55.286C52.6517 55.1886 52.7146 55.0114 52.7439 54.8379C52.8015 54.4968 52.7995 54.1331 52.8115 53.7883C52.8384 53.0076 52.6708 52.294 52.5598 51.5294C52.4575 50.8251 52.411 50.1165 52.4094 49.4055C52.4075 48.547 52.3818 47.6888 52.3818 46.8305C52.3818 46.2901 52.3897 45.7686 52.6426 45.2775C52.6486 45.2659 52.7825 44.9838 52.8299 45.0657C53.0033 45.3657 53.0835 45.7768 53.1767 46.1046C53.4104 46.9267 53.4038 47.7334 53.4038 48.583C53.4038 49.4619 53.3449 50.3355 53.3271 51.2133C53.313 51.9076 53.3872 52.6 53.4575 53.2895C53.501 53.7165 53.4952 54.1604 53.5972 54.5786C53.6043 54.6077 53.6616 55.0267 53.7537 54.9469C54.0943 54.6517 54.2021 54.1093 54.2847 53.6947C54.4638 52.7945 54.4686 51.8433 54.3537 50.934C54.2324 49.9742 54.1319 49.0112 54.0637 48.0459C53.9864 46.9523 54.0809 45.8389 54.2939 44.7649C54.3556 44.4535 54.4296 44.1367 54.5302 43.835C54.5487 43.7794 54.5665 43.7212 54.6192 43.6907C54.7762 43.5998 55.214 45.4524 55.2361 45.566C55.5049 46.9461 55.5492 48.3 55.5154 49.7002C55.4951 50.5387 55.5202 51.3844 55.5369 52.223C55.5476 52.7638 55.6307 53.2836 55.6842 53.819C55.7028 54.0054 55.6985 54.2834 55.7855 54.4574C55.7979 54.4823 55.8268 54.4166 55.8346 54.3898C55.9272 54.0733 56.0491 53.7658 56.12 53.443C56.3115 52.571 56.3421 51.6542 56.3303 50.7636C56.3217 50.1189 56.3251 49.4647 56.2351 48.8254C56.105 47.9009 55.9174 47.0253 55.9174 46.0847C55.9174 45.2427 55.9727 44.4035 55.9727 43.5618C55.9727 43.1946 55.9605 42.8362 55.8883 42.4753C55.8314 42.1911 55.7678 41.9141 55.7517 41.6252" stroke="white" stroke-width="2" stroke-linecap="round"/>
<path d="M56.5804 40.6308C56.6495 41.201 56.5531 41.7153 56.4607 42.2789C56.341 43.0088 56.4132 43.754 56.3809 44.4887C56.3477 45.2452 56.311 46.0003 56.2827 46.7569C56.2676 47.16 56.3157 47.5601 56.2888 47.963C56.2606 48.3864 56.2489 48.8031 56.2489 49.2275C56.2489 49.6975 56.2262 50.1734 56.2535 50.6424C56.2853 51.1877 56.4575 51.7301 56.5282 52.2721C56.6542 53.2376 56.3146 50.3352 56.2704 49.3626C56.2529 48.9768 56.2221 48.5801 56.2643 48.1948C56.309 47.7859 56.3879 47.3806 56.43 46.9717C56.4867 46.4214 56.4423 45.8513 56.4423 45.2975C56.4423 44.6345 56.4423 46.6233 56.4423 47.2863C56.4423 47.7092 56.3594 48.1256 56.3594 48.5462C56.3594 48.9283 56.3416 49.3092 56.3257 49.691C56.3179 49.876 56.2936 50.0589 56.2827 50.2434C56.2726 50.4136 56.3192 50.5805 56.3287 50.7498C56.3523 51.1684 56.5198 51.5483 56.6571 51.9437C56.9157 52.6884 56.8014 53.5108 56.8014 54.2855C56.8014 54.5714 56.761 54.8636 56.4454 54.9669C56.141 55.0665 55.8199 55.0865 55.5047 55.1234C54.79 55.207 54.0542 55.3923 53.3332 55.3628C52.9642 55.3477 52.5947 55.3045 52.2253 55.3045C52.0019 55.3045 51.7669 55.3594 51.547 55.3935C51.3326 55.4267 51.1214 55.4845 50.9055 55.507C50.7205 55.5264 50.5304 55.5026 50.3469 55.5347C50.2506 55.5515 49.7766 55.6433 49.9817 55.8631C50.1036 55.9936 50.3731 55.9303 50.5311 55.9337C50.7261 55.9378 50.9559 55.9325 51.1449 55.9766C51.5011 56.0597 51.8557 56.0718 52.2191 56.0718C52.6399 56.0718 53.0601 56.0604 53.479 56.0994C53.96 56.1441 54.4893 56.1717 54.9691 56.1132C55.1542 56.0906 55.3454 56.0962 55.5246 56.038C55.7215 55.9741 55.9131 55.9047 56.1139 55.8523C56.2336 55.8211 56.3454 55.7588 56.4668 55.728C56.5153 55.7157 56.6522 55.7094 56.6863 55.6697C56.7031 55.6501 56.6886 55.6233 56.7185 55.6083C56.7797 55.5777 56.8729 55.5942 56.9211 55.5285C56.9819 55.4456 56.9682 55.1552 56.9671 55.0467C56.9641 54.7495 56.873 54.4697 56.7185 54.2165C56.6385 54.0854 56.5519 54.0325 56.3947 54.0415C55.9127 54.0691 55.4355 54.2548 54.9814 54.4021C54.2535 54.6383 53.5183 54.8367 52.7777 55.0283C52.3128 55.1485 51.9416 55.2973 51.5209 55.5147C51.2183 55.671 50.9179 55.7218 50.5955 55.8017C50.3108 55.8723 50.094 55.9964 49.839 56.124C49.6847 56.2011 49.4291 56.3123 49.2482 56.2882C49.1324 56.2727 49.1318 55.933 49.1223 55.8631C49.0729 55.4992 49.1445 55.1576 49.1822 54.7965C49.2214 54.4208 49.2935 54.05 49.3356 53.6748C49.3877 53.2115 49.3772 52.7376 49.3709 52.2721C49.3614 51.5606 49.1001 50.9117 48.9965 50.2158C48.878 49.4205 48.8755 48.6587 48.9382 47.8587C48.9734 47.4092 49.0302 46.9645 49.0686 46.5159C49.0813 46.3686 49.1198 46.2327 49.153 46.0893C49.244 45.6965 49.3127 45.2964 49.3863 44.9C49.5162 44.2 49.572 43.4882 49.8958 42.8406" stroke="white" stroke-width="2" stroke-linecap="round"/>
</svg>
