<svg width="51" height="50" viewBox="0 0 51 50" fill="none" xmlns="http://www.w3.org/2000/svg">
<circle cx="25.2534" cy="25" r="24.25" fill="#FB0050" stroke="black" stroke-width="1.5"/>
<path fill-rule="evenodd" clip-rule="evenodd" d="M25.2534 19.6875C22.3194 19.6875 19.9409 22.066 19.9409 25C19.9409 27.9341 22.3194 30.3125 25.2534 30.3125C28.1875 30.3125 30.5659 27.9341 30.5659 25C30.5659 22.066 28.1875 19.6875 25.2534 19.6875ZM22.0659 25C22.0659 23.2396 23.4931 21.8125 25.2534 21.8125C27.0138 21.8125 28.4409 23.2396 28.4409 25C28.4409 26.7603 27.0138 28.1875 25.2534 28.1875C23.4931 28.1875 22.0659 26.7603 22.0659 25Z" fill="black"/>
<path fill-rule="evenodd" clip-rule="evenodd" d="M25.2175 9.77084C24.588 9.77083 24.0622 9.77083 23.6307 9.80027C23.1815 9.83092 22.7572 9.897 22.3458 10.0674C21.3912 10.4628 20.6328 11.2212 20.2374 12.1758C20.0316 12.6728 19.9758 13.1965 19.9545 13.7658C19.9374 14.2234 19.7065 14.6052 19.3656 14.802C19.0248 14.9988 18.5787 15.0079 18.1738 14.7939C17.6702 14.5277 17.1887 14.3141 16.6554 14.2439C15.631 14.109 14.595 14.3866 13.7752 15.0156C13.422 15.2867 13.1526 15.6211 12.9014 15.9948C12.6602 16.3538 12.3974 16.8091 12.0825 17.3544L12.0468 17.4163C11.7319 17.9616 11.4691 18.4168 11.2788 18.8053C11.0808 19.2096 10.9258 19.6101 10.8677 20.0516C10.7328 21.076 11.0105 22.112 11.6394 22.9318C11.9669 23.3584 12.3925 23.6686 12.8748 23.9717C13.2626 24.2153 13.4779 24.6063 13.4778 25C13.4778 25.3936 13.2626 25.7846 12.8748 26.0282C12.3924 26.3313 11.9668 26.6415 11.6393 27.0682C11.0103 27.8879 10.7327 28.9239 10.8676 29.9483C10.9257 30.3897 11.0806 30.7903 11.2787 31.1947C11.469 31.5831 11.7318 32.0383 12.0466 32.5836L12.0824 32.6456C12.3972 33.1909 12.66 33.6461 12.9013 34.0051C13.1525 34.3788 13.4218 34.7132 13.7751 34.9843C14.5948 35.6133 15.6309 35.8909 16.6552 35.7561C17.1885 35.6858 17.67 35.4723 18.1736 35.2061C18.5785 34.992 19.0247 35.0011 19.3656 35.198C19.7064 35.3948 19.9374 35.7766 19.9545 36.2343C19.9758 36.8035 20.0316 37.3273 20.2374 37.8242C20.6328 38.7788 21.3912 39.5373 22.3458 39.9327C22.7572 40.1031 23.1815 40.1691 23.6307 40.1997C24.0622 40.2292 24.588 40.2292 25.2175 40.2292H25.2891C25.9188 40.2292 26.4444 40.2292 26.876 40.1997C27.3253 40.1691 27.7495 40.1031 28.1609 39.9327C29.1155 39.5373 29.874 38.7788 30.2694 37.8242C30.4752 37.3273 30.5309 36.8035 30.5521 36.2342C30.5693 35.7766 30.8002 35.3948 31.141 35.1979C31.4819 35.0011 31.9281 34.992 32.333 35.206C32.8367 35.4722 33.318 35.6858 33.8514 35.7559C34.8758 35.8908 35.9118 35.6133 36.7315 34.9843C37.0848 34.7131 37.3541 34.3788 37.6053 34.0051C37.8466 33.6461 38.1093 33.1909 38.4241 32.6456L38.46 32.5836C38.7748 32.0383 39.0377 31.583 39.2279 31.1945C39.426 30.7902 39.5808 30.3897 39.6391 29.9483C39.7739 28.9238 39.4963 27.8877 38.8673 27.0681C38.5399 26.6414 38.1142 26.3313 37.6319 26.0282C37.244 25.7846 37.0289 25.3936 37.0289 24.9999C37.0289 24.6063 37.244 24.2155 37.6318 23.9718C38.1143 23.6688 38.54 23.3587 38.8674 22.9318C39.4964 22.1121 39.7741 21.0761 39.6392 20.0517C39.581 19.6102 39.4261 19.2097 39.2281 18.8054C39.0378 18.4169 38.775 17.9618 38.4601 17.4165L38.4244 17.3545C38.1095 16.8092 37.8467 16.3539 37.6054 15.9949C37.3543 15.6212 37.085 15.2868 36.7316 15.0157C35.912 14.3867 34.8759 14.1091 33.8514 14.244C33.3182 14.3142 32.8368 14.5278 32.3332 14.7939C31.9283 15.008 31.482 14.9989 31.1412 14.8021C30.8003 14.6053 30.5693 14.2234 30.5521 13.7657C30.5309 13.1965 30.4752 12.6727 30.2694 12.1758C29.874 11.2212 29.1155 10.4628 28.1609 10.0674C27.7495 9.897 27.3253 9.83092 26.876 9.80027C26.4444 9.77083 25.9188 9.77083 25.2891 9.77084H25.2175ZM23.159 12.0306C23.2683 11.9854 23.4344 11.9436 23.7754 11.9203C24.126 11.8964 24.5788 11.8958 25.2534 11.8958C25.928 11.8958 26.3808 11.8964 26.7312 11.9203C27.0724 11.9436 27.2384 11.9854 27.3476 12.0306C27.7816 12.2104 28.1264 12.5551 28.306 12.989C28.3628 13.1259 28.4097 13.3392 28.4287 13.8451C28.4706 14.9677 29.05 16.0485 30.0787 16.6424C31.1072 17.2362 32.333 17.1976 33.3261 16.6727C33.7736 16.4361 33.982 16.3701 34.1288 16.3508C34.5945 16.2895 35.0654 16.4157 35.4379 16.7016C35.5319 16.7736 35.651 16.8965 35.8417 17.1802C36.0378 17.4719 36.2646 17.8637 36.6019 18.4479C36.9392 19.0322 37.1651 19.4245 37.3197 19.7401C37.47 20.0471 37.5169 20.2118 37.5323 20.3291C37.5937 20.7947 37.4675 21.2656 37.1816 21.6382C37.0913 21.7558 36.9301 21.9032 36.5013 22.1725C35.5503 22.7702 34.904 23.8123 34.9039 24.9999C34.9039 26.1876 35.5501 27.2298 36.5013 27.8275C36.93 28.0968 37.0912 28.2442 37.1814 28.3618C37.4673 28.7343 37.5935 29.2052 37.5322 29.6709C37.5168 29.7882 37.4699 29.9528 37.3196 30.2598C37.165 30.5753 36.939 30.9677 36.6017 31.552C36.2644 32.1362 36.0376 32.528 35.8415 32.8197C35.6509 33.1033 35.5317 33.2263 35.4378 33.2983C35.0652 33.5843 34.5943 33.7104 34.1287 33.6492C33.9819 33.6298 33.7735 33.5638 33.326 33.3273C32.3329 32.8023 31.107 32.7638 30.0784 33.3576C29.05 33.9515 28.4706 35.0323 28.4287 36.1548C28.4097 36.6607 28.3628 36.8741 28.306 37.0111C28.1264 37.4449 27.7816 37.7897 27.3476 37.9694C27.2384 38.0146 27.0724 38.0564 26.7312 38.0797C26.3808 38.1036 25.928 38.1042 25.2534 38.1042C24.5788 38.1042 24.126 38.1036 23.7754 38.0797C23.4344 38.0564 23.2683 38.0146 23.159 37.9694C22.7252 37.7897 22.3804 37.4449 22.2007 37.0111C22.144 36.8741 22.097 36.6607 22.078 36.1548C22.0361 35.0324 21.4567 33.9515 20.4281 33.3576C19.3995 32.7638 18.1738 32.8024 17.1806 33.3273C16.733 33.5639 16.5248 33.6299 16.3779 33.6492C15.9122 33.7105 15.4413 33.5843 15.0687 33.2984C14.9749 33.2265 14.8557 33.1035 14.665 32.8197C14.469 32.5282 14.2421 32.1363 13.9048 31.5521C13.5675 30.9679 13.3416 30.5754 13.1871 30.26C13.0367 29.953 12.9898 29.7882 12.9744 29.6709C12.9131 29.2052 13.0393 28.7343 13.3252 28.3618C13.4154 28.2443 13.5767 28.0968 14.0053 27.8275C14.9565 27.23 15.6028 26.1877 15.6028 25.0002C15.6029 23.8123 14.9566 22.77 14.0053 22.1723C13.5768 21.903 13.4155 21.7557 13.3253 21.6381C13.0394 21.2655 12.9132 20.7946 12.9745 20.329C12.99 20.2117 13.0368 20.047 13.1872 19.74C13.3418 19.4244 13.5677 19.0321 13.905 18.4478C14.2423 17.8636 14.4691 17.4718 14.6652 17.1801C14.8558 16.8964 14.975 16.7735 15.0689 16.7015C15.4415 16.4156 15.9124 16.2894 16.378 16.3507C16.5249 16.37 16.7332 16.436 17.1808 16.6726C18.1739 17.1975 19.3996 17.2361 20.4281 16.6423C21.4567 16.0485 22.0361 14.9677 22.078 13.8452C22.097 13.3393 22.144 13.1259 22.2007 12.989C22.3804 12.5551 22.7252 12.2104 23.159 12.0306Z" fill="black"/>
<path d="M24.0804 15.2556C24.1787 15.3539 24.228 15.3132 24.2351 15.1703C24.2435 14.9994 24.1908 14.8351 24.0626 14.7165C23.9356 14.599 23.6534 14.4691 23.5751 14.7137C23.5275 14.8623 23.5524 15.0745 23.5741 15.2181C23.599 15.3826 23.6293 15.5674 23.7429 15.7009C23.9162 15.9045 24.2955 15.8902 24.5191 15.7946C24.7603 15.6914 24.7726 15.4562 24.7104 15.2321C24.6699 15.0866 24.5939 14.8985 24.4263 14.8646C24.291 14.8373 24.2401 14.9537 24.1929 15.0606C24.0908 15.2914 24.0479 15.5727 23.8985 15.7805C23.8313 15.8741 23.7724 15.821 23.7185 15.7543C23.621 15.6337 23.5169 15.5228 23.4092 15.4112C23.3552 15.3552 23.293 15.3039 23.2873 15.2218C23.2843 15.1787 23.291 15.1381 23.276 15.0962C23.2142 14.9231 23.2074 15.0829 23.2029 15.1731C23.2008 15.2165 23.2045 15.3123 23.1485 15.3315C23.0578 15.3625 23.0416 15.1714 23.0379 15.129C23.025 14.9786 23.0244 14.9135 22.9507 14.7896C22.8896 14.6869 22.916 14.5305 22.916 14.4128C22.916 14.288 22.9016 14.1536 22.9292 14.0312C22.9428 13.9705 22.9521 13.9069 22.9704 13.8475C22.9921 13.7769 23.0609 13.7137 23.1017 13.6525C23.1184 13.6274 23.2746 13.4219 23.1776 13.4003C23.0563 13.3733 22.9334 13.5789 22.842 13.6422C22.7994 13.6716 22.85 13.6029 22.856 13.5944C22.922 13.5017 23.0254 13.4455 23.1017 13.3619C23.2729 13.1739 23.4399 12.9985 23.6454 12.8463C23.8012 12.7308 24.0747 12.7919 24.2548 12.7919C24.5261 12.7919 24.7583 12.7292 25.0188 12.6653C25.185 12.6246 25.3549 12.5718 25.526 12.5575C25.7282 12.5407 25.9386 12.5538 26.1409 12.5566C26.2963 12.5587 26.4518 12.5642 26.6069 12.5725C26.663 12.5755 26.7124 12.5805 26.7625 12.6072C26.853 12.6555 26.9159 12.7386 26.9987 12.7975C27.1571 12.9102 27.3482 13.0113 27.4422 13.1894C27.5383 13.3717 27.6264 13.5328 27.624 13.7444C27.6229 13.8452 27.6353 13.9177 27.5247 13.9328C27.1135 13.9889 26.6969 13.9345 26.2863 13.8981C25.9911 13.872 25.6964 13.8719 25.4003 13.8719C25.2118 13.8719 24.9979 13.8477 24.8107 13.884C24.5527 13.9341 24.7925 14.4451 24.8622 14.5468C25.033 14.7958 25.3351 15.0572 25.6553 15.0624C25.7744 15.0644 25.8942 15.0399 26.0041 14.9949C26.0728 14.9668 26.1412 14.9135 26.2197 14.9256C27.026 15.0491 27.4557 16.1926 26.9697 16.8305C26.8824 16.9451 26.7658 16.9929 26.6547 17.078C26.5348 17.1699 26.4142 17.2433 26.2638 17.2768C26.1072 17.3115 26.0275 17.2781 25.8963 17.2214C25.7821 17.1722 25.6275 17.1608 25.5119 17.213C25.4773 17.2286 25.4472 17.2569 25.4153 17.2768C25.2376 17.3877 25.0459 17.4695 24.8566 17.558C24.5922 17.6816 24.422 17.9306 24.2135 18.1299C24.0594 18.2771 23.8799 18.4789 23.6585 18.5217C23.5277 18.547 23.3496 18.55 23.2385 18.4711C23.0064 18.3063 22.7523 18.1867 22.4979 18.0605C22.3332 17.9787 22.2266 17.9234 22.3339 17.7539C22.3835 17.6755 22.4217 17.6089 22.4257 17.513C22.4341 17.3126 22.4576 17.0731 22.4061 16.8783C22.3375 16.6192 22.1325 16.3353 22.1773 16.0543C22.2 15.912 22.316 15.7982 22.3854 15.6774C22.4136 15.6284 22.4805 15.5446 22.4436 15.4881C22.3707 15.3767 22.3577 15.6934 22.3517 15.7262C22.2887 16.069 22.2433 16.4124 22.0742 16.7236C21.9712 16.9132 21.8284 16.9958 21.673 17.1305C21.4274 17.3433 21.2402 17.6323 21.043 17.888" stroke="white" stroke-width="2" stroke-linecap="round"/>
<path d="M14.5124 21.5666C14.3476 21.5007 14.2319 21.3666 14.1243 21.2329C14.0763 21.1732 14.1012 21.1127 14.0568 21.0567C13.9975 20.9817 13.9547 20.9531 13.9218 20.8485C13.8816 20.7208 13.9158 20.6436 13.9631 20.5289C14.0177 20.3962 14.0564 20.2578 14.1149 20.1248C14.1897 19.955 14.2652 19.7935 14.3278 19.6176C14.5002 19.1327 14.848 18.7375 15.0393 18.2592C15.1781 17.9123 15.5213 17.5491 15.8549 17.3761C15.9874 17.3074 16.1197 17.2633 16.2636 17.2261C16.3545 17.2027 16.4451 17.2315 16.5224 17.2843C16.5558 17.307 16.5791 17.3483 16.6161 17.3649C16.6828 17.3947 16.7666 17.4033 16.8374 17.4155C17.3031 17.496 17.7422 17.5029 18.2126 17.4586C18.7752 17.4057 19.3328 17.2967 19.8935 17.2224C20.0315 17.2041 20.1557 17.1474 20.292 17.1211C20.452 17.0903 20.6129 17.052 20.7682 17.0021C20.9526 16.9428 21.0844 16.7159 21.2116 16.5887" stroke="white" stroke-width="2" stroke-linecap="round"/>
<path d="M15.0525 22.0729C15.2835 22.1528 15.5484 22.3335 15.6928 22.5294C15.8454 22.7366 16.0059 22.9504 16.0809 23.1988C16.1528 23.4367 16.1402 23.6981 16.2178 23.9309C16.2452 24.0131 16.2468 24.0825 16.2515 24.1672C16.2584 24.2908 16.3013 24.4131 16.3265 24.5337C16.3901 24.837 16.4157 25.1052 16.3837 25.4168C16.3137 26.0998 16.1476 26.7782 15.8259 27.3893C15.7529 27.528 15.6272 27.6288 15.5194 27.739C15.3607 27.9011 15.2368 28.0909 15.06 28.2377C14.9287 28.3467 14.7766 28.4241 14.6194 28.4889C14.5573 28.5146 14.4541 28.5337 14.4113 28.5902C14.3598 28.6581 14.3092 28.7191 14.25 28.7814C14.1704 28.8653 14.1377 28.9756 14.0438 29.0514C13.9783 29.1043 13.8793 29.3135 13.9294 29.3945C13.9874 29.4883 14.0183 29.5939 14.0775 29.687C14.1713 29.8346 14.2796 29.9761 14.3813 30.1183C14.4967 30.2796 14.5692 30.444 14.6475 30.6245C14.6648 30.6644 14.6792 30.7464 14.7319 30.7464" stroke="white" stroke-width="2" stroke-linecap="round"/>
<path d="M13.4494 29.2445C13.4878 29.2493 13.4481 29.3164 13.4363 29.3327C13.4006 29.3818 13.4874 29.4514 13.5 29.492C13.5536 29.664 13.5861 29.8361 13.6557 30.0039C13.7683 30.2758 13.8934 30.5216 14.0663 30.7595C14.2315 30.987 14.3861 31.2338 14.58 31.4382C14.7786 31.6475 14.917 31.9042 15.1106 32.117C15.3053 32.3309 15.5634 32.4821 15.81 32.6279C16.0444 32.7664 16.3704 32.7056 16.6246 32.6616C16.9695 32.6019 17.3226 32.5359 17.6615 32.4498C17.8247 32.4083 17.981 32.3515 18.1452 32.3129C18.332 32.2689 18.5055 32.1907 18.6993 32.1826C18.8935 32.1745 19.0669 32.1916 19.2524 32.251C19.5217 32.3372 19.8107 32.3776 20.0717 32.4863C20.3154 32.5879 20.5495 32.7004 20.8001 32.7872C20.9966 32.8553 21.1759 32.9175 21.3158 33.0788C21.433 33.2141 21.5728 33.3406 21.6729 33.4894C21.7606 33.6197 21.7952 33.767 21.8192 33.9188" stroke="white" stroke-width="2" stroke-linecap="round"/>
<path d="M22.241 34.29C22.2709 34.3799 22.3453 34.4585 22.3778 34.5535C22.4161 34.6652 22.4697 34.7819 22.5222 34.8881C22.602 35.0495 22.675 35.2129 22.7294 35.385C22.7803 35.5462 22.886 35.7146 22.9122 35.88C22.9438 36.0792 23.0426 36.2884 23.1428 36.4631C23.2191 36.596 23.3397 36.8051 23.4728 36.885C23.5929 36.957 23.6831 37.0328 23.8272 37.0706C24.1723 37.1611 24.5573 37.154 24.9109 37.1718C25.3219 37.1926 25.8516 37.2763 26.2327 37.0818C26.4439 36.9741 26.5494 36.7854 26.648 36.5784C26.7218 36.4237 26.7121 36.3171 26.6958 36.1462" stroke="white" stroke-width="2" stroke-linecap="round"/>
<path d="M22.5953 35.7919C22.5767 35.8943 22.3975 35.9998 22.4538 36.1125C22.4918 36.1886 22.6092 36.2352 22.6769 36.2803C22.7789 36.3483 22.8336 36.4878 22.8822 36.5943C22.9383 36.7174 23.0669 36.7711 23.1541 36.8681C23.2226 36.9444 23.2554 37.0196 23.3463 37.0734C23.492 37.1597 23.6825 37.1304 23.844 37.1456C24.1714 37.1763 24.5047 37.1773 24.8303 37.2196C25.0618 37.2497 25.2917 37.2918 25.524 37.3209C25.7888 37.354 26.0558 37.3834 26.3227 37.3912C26.4075 37.3937 26.5023 37.3945 26.5852 37.3706C26.7551 37.3216 26.898 37.3268 27.0418 37.2084C27.1098 37.1524 27.1563 37.0649 27.2115 36.9965C27.2944 36.8937 27.3705 36.7815 27.4083 36.6543C27.4611 36.4769 27.4402 36.2818 27.4468 36.0984C27.4543 35.888 27.4306 35.6619 27.4721 35.4544" stroke="white" stroke-width="2" stroke-linecap="round"/>
<path d="M27.7084 34.7794C27.9427 34.5313 27.9379 34.187 28.0871 33.9028C28.1753 33.7348 28.2998 33.6968 28.464 33.6075C28.5612 33.5547 28.6508 33.4845 28.7433 33.4238C28.821 33.3728 28.8584 33.297 28.9262 33.2335C29.0409 33.1259 29.1956 33.0093 29.2833 32.8763C29.3939 32.7085 29.6575 32.6387 29.8271 32.5426C29.92 32.4899 30.027 32.4679 30.1271 32.4319C30.3076 32.3671 30.4965 32.3175 30.6839 32.2763C30.8431 32.2414 31.012 32.2398 31.1733 32.2145C31.3526 32.1863 31.5325 32.1553 31.7133 32.1376C31.9966 32.1099 32.2742 32.0963 32.5589 32.0963C32.8104 32.0963 32.9893 32.2084 33.2254 32.281C33.3101 32.3071 33.398 32.3179 33.4757 32.3626C33.5324 32.3952 33.5876 32.4289 33.6501 32.4498C33.7944 32.4979 33.9838 32.5066 34.1338 32.5257C34.3055 32.5475 34.5052 32.5634 34.6776 32.5388C34.8388 32.5158 34.8987 32.5218 35.0057 32.3963C35.1252 32.2562 35.1875 32.0823 35.2663 31.9163C35.3551 31.7293 35.3976 31.5023 35.4341 31.2995C35.4409 31.2614 35.4838 31.1073 35.4369 31.0839" stroke="white" stroke-width="2" stroke-linecap="round"/>
<path d="M33.0575 32.1301C33.1764 32.1539 33.2592 32.3503 33.3594 32.4207C33.5149 32.5299 33.6409 32.6224 33.8357 32.6495C34.1196 32.6889 34.4544 32.718 34.7169 32.5951C35.0116 32.4571 35.1822 32.1073 35.2869 31.8189C35.3529 31.6369 35.3954 31.4514 35.5494 31.3201C35.6694 31.2178 35.8732 31.1357 35.96 31.0033C36.0035 30.9369 36.0164 30.8511 36.0518 30.7801C36.0896 30.7046 36.1391 30.633 36.1831 30.5608C36.3746 30.2461 36.5016 29.9287 36.5918 29.5727C36.6224 29.4519 36.6772 29.3544 36.6349 29.2277C36.5442 28.9555 36.1889 28.8189 35.9318 28.7889C35.6336 28.7542 35.3317 28.7502 35.0319 28.7421C34.8828 28.738 34.7289 28.7168 34.58 28.7196C34.534 28.7204 34.5308 28.735 34.5219 28.7721C34.4921 28.8954 34.4644 29.0189 34.4394 29.1433C34.401 29.3344 34.3944 29.5611 34.5706 29.6945C34.7914 29.8617 35.0974 29.6608 35.2794 29.5258C35.3142 29.5 35.416 29.3949 35.4725 29.4358C35.573 29.5086 35.5008 29.8319 35.4725 29.9083C35.2855 30.4123 34.7104 30.714 34.265 30.9451C33.9285 31.1198 33.5766 31.2381 33.2132 31.3389C33.106 31.3686 33.0191 31.397 32.9094 31.3614C32.7533 31.3107 32.6187 31.214 32.4782 31.1326C32.3769 31.074 32.2744 31.03 32.1594 31.007C32.1439 31.0039 32.0968 30.9995 32.1126 30.9995" stroke="white" stroke-width="2" stroke-linecap="round"/>
<path d="M33.8676 22.9335C33.8676 23.1893 33.8666 23.4559 33.8263 23.7088C33.7767 24.0208 33.7171 24.2951 33.7991 24.6078C33.836 24.7484 33.901 24.879 33.9445 25.0165C33.9811 25.1325 33.9857 25.2941 33.9857 25.415C33.9857 25.5817 33.9726 25.7465 33.9688 25.9128C33.9662 26.0319 33.9382 26.1139 33.9932 26.224C34.109 26.4555 34.1798 26.7107 34.3054 26.9384C34.3521 27.023 34.3923 27.113 34.4282 27.2027C34.4805 27.3336 34.5766 27.4434 34.6438 27.5674C34.7349 27.7353 34.7748 27.8752 34.9213 27.9958C34.9579 28.026 34.9494 28.0595 34.9682 28.0971C34.9907 28.1421 35.0891 28.1749 35.1322 28.1899C35.1754 28.2048 35.2184 28.2658 35.2597 28.2658C35.3086 28.2658 35.3536 28.2827 35.4032 28.2827C35.4402 28.2827 35.5927 28.3262 35.5625 28.2658C35.5364 28.2136 35.5164 28.2086 35.4707 28.1777C35.4018 28.1312 35.3218 28.1162 35.2579 28.0605C35.1532 27.9695 35.128 27.8313 35.0919 27.7052C35.0214 27.4584 34.8289 27.3354 34.6851 27.139C34.5176 26.9101 34.3923 26.635 34.2744 26.3787C34.1771 26.1671 34.1443 25.9488 34.1038 25.7215C34.0688 25.525 34.0514 25.3231 34.0091 25.1281C33.966 24.929 33.9169 24.7408 33.8976 24.5366C33.8653 24.1961 33.9492 23.8811 34.012 23.5485C34.0453 23.3718 34.1041 23.1925 34.1891 23.0338C34.2527 22.9152 34.3515 22.7807 34.3738 22.6466" stroke="white" stroke-width="2" stroke-linecap="round"/>
<path d="M33.9519 23.406C34.0176 23.4643 34.1525 23.2444 34.205 23.2166C34.2327 23.202 34.2219 23.1849 34.2219 23.2372C34.2219 23.2752 34.2234 23.3136 34.2219 23.3516C34.2192 23.4188 34.1713 23.481 34.1713 23.5541C34.1713 23.6541 34.176 23.35 34.2125 23.2569C34.2486 23.1651 34.3192 23.1005 34.3981 23.0441C34.5093 22.9647 34.5812 22.8847 34.6447 22.7657C34.7709 22.5291 34.9783 22.276 35.2175 22.1498C35.3484 22.0807 35.45 21.9895 35.555 21.8873C35.6037 21.8399 35.6495 21.7888 35.6956 21.7391C35.7408 21.6905 35.7902 21.653 35.8381 21.606C35.8908 21.5544 35.9435 21.486 35.9843 21.4242C36.0237 21.3646 36.0341 21.293 36.0743 21.2367C36.1122 21.1837 36.1807 21.0251 36.2375 21.0089C36.2687 20.9999 36.3266 20.8996 36.3462 20.8757C36.3959 20.8154 36.4424 20.7505 36.4906 20.6892C36.551 20.6123 36.6425 20.5619 36.6509 20.4529C36.6637 20.2868 36.5775 20.109 36.5065 19.9608C36.4071 19.7533 36.3473 19.5835 36.1287 19.4742" stroke="white" stroke-width="2" stroke-linecap="round"/>
<path d="M36.0444 21.3473C36.0896 21.3416 36.1264 21.2338 36.1719 21.2085C36.215 21.1846 36.2752 21.0942 36.2976 21.0529C36.3279 20.997 36.3563 20.917 36.4325 20.9085C36.47 20.9044 36.5169 20.8433 36.5169 20.8073" stroke="white" stroke-width="2" stroke-linecap="round"/>
<path d="M31.3532 18.3605C31.4333 18.4139 31.5307 18.4467 31.6251 18.4636C31.82 18.4986 31.8244 18.4256 31.7732 18.2761C31.7354 18.1656 31.7586 18.1166 31.8707 18.1083C31.9704 18.1009 32.0498 18.1122 32.1051 18.0136C32.1286 17.9717 32.1493 17.9144 32.1969 17.8917C32.2321 17.875 32.3044 17.8744 32.3432 17.8721C32.4577 17.8651 32.5671 17.8287 32.6797 17.8214C32.8684 17.8093 33.0888 17.7746 33.2544 17.678C33.4783 17.5474 33.7014 17.4932 33.9519 17.4324C34.1319 17.3887 34.3242 17.2862 34.5125 17.349C34.5951 17.3765 34.6899 17.3948 34.745 17.4661C34.7765 17.5069 34.7672 17.5652 34.8031 17.6077C34.8495 17.6626 34.8991 17.71 34.94 17.7699C35.0829 17.9795 35.3082 18.128 35.4612 18.3305C35.5326 18.425 35.5902 18.5376 35.6815 18.6145C35.7981 18.7127 35.8486 18.8629 35.8137 19.0111C35.7827 19.1431 35.7237 19.3534 35.6047 19.4348C35.4607 19.5334 35.2483 19.4223 35.1547 19.3064C35.0551 19.1831 34.9525 19.0677 34.775 19.0992C34.5877 19.1324 34.4522 19.2296 34.3353 19.3748C34.1645 19.5871 33.9905 19.8522 34.0344 20.1379C34.0606 20.3086 34.1542 20.4732 34.2331 20.6235C34.3307 20.8094 34.4363 21.0063 34.5988 21.1448C34.7733 21.2936 34.9265 21.1926 35.0769 21.0576C35.3471 20.8151 35.17 20.4696 35.0047 20.2148C34.5856 19.5689 33.8659 19.321 33.1607 19.1292C32.9863 19.0818 32.8854 19.1527 32.7154 19.1911C32.6521 19.2054 32.561 19.2302 32.5063 19.1808C32.4273 19.1094 32.3568 19.032 32.2738 18.9642C32.0064 18.7459 31.7127 18.577 31.417 18.4017C31.1861 18.2649 30.9166 18.2022 30.6726 18.0886C30.5667 18.0393 30.4369 17.9754 30.3782 17.8655C30.3654 17.8414 30.3534 17.8165 30.3782 17.8468C30.4907 17.9833 30.6941 17.9201 30.8339 17.9967C30.9708 18.0719 31.021 17.9412 31.1301 17.8786C31.1497 17.8674 31.2894 17.8162 31.2032 17.8214C30.9799 17.835 30.76 17.8516 30.5423 17.7877C30.3211 17.7228 30.1083 17.5267 29.9208 17.3968C29.839 17.3401 29.7584 17.3109 29.6601 17.2974C29.6062 17.29 29.5438 17.2873 29.5017 17.2515C29.28 17.0626 29.0716 16.8542 28.7874 16.7658C28.6491 16.7229 28.508 16.6947 28.3664 16.6655C28.254 16.6423 27.9961 16.6337 27.9108 16.538C27.8898 16.5145 27.9525 16.39 27.9614 16.3618C28.0119 16.2019 28.0374 15.9985 28.028 15.8293C28.0213 15.708 27.9847 15.5767 27.9277 15.4693C27.8786 15.3769 27.8096 15.2618 27.8096 15.1543" stroke="white" stroke-width="2" stroke-linecap="round"/>
<path d="M22.2916 17.7024C22.6118 17.6121 22.7299 17.2582 23.0322 17.1455C23.2238 17.0741 23.4248 17.0399 23.6247 17.003C23.9254 16.9476 24.2275 16.835 24.4947 16.6861C24.6295 16.6111 24.7467 16.5099 24.8828 16.4368C25.1386 16.2993 25.4019 16.2737 25.69 16.269C25.9966 16.264 26.3592 16.225 26.6471 16.3505C26.9303 16.474 26.9726 16.7367 26.9827 17.0105" stroke="white" stroke-width="2" stroke-linecap="round"/>
<path d="M24.7722 18.2592C24.7928 18.3415 25.045 18.3774 25.1172 18.3774C25.2026 18.3774 25.2561 18.5048 25.316 18.5592C25.3286 18.5708 25.3718 18.563 25.3881 18.563C25.4409 18.563 25.4771 18.595 25.5222 18.6211C25.5412 18.6321 25.5853 18.6803 25.5991 18.6811C25.645 18.6838 25.6919 18.6811 25.7378 18.6811C25.8077 18.6811 25.884 18.6721 25.9534 18.682C25.9892 18.6872 26.0328 18.7315 26.0659 18.7495C26.1356 18.7876 26.2519 18.8001 26.3078 18.8499C26.3409 18.8793 26.3894 18.8771 26.4259 18.9014C26.4959 18.9481 26.578 18.9694 26.6519 19.0092C26.7297 19.0512 26.8336 19.0621 26.9153 19.103C26.9823 19.1365 27.0312 19.189 27.1028 19.2136C27.1643 19.2348 27.2505 19.2696 27.3043 19.3073C27.4591 19.4156 27.6283 19.4828 27.789 19.5792C28.0776 19.7523 28.34 19.9644 28.6327 20.1323C29.1773 20.4448 29.6757 20.8326 30.0746 21.321C30.1707 21.4387 30.2492 21.5736 30.3221 21.7063C30.4077 21.8623 30.5164 22.009 30.5902 22.1704C30.6656 22.3353 30.7596 22.4953 30.8264 22.6635C30.8443 22.7085 30.9604 22.8757 30.8639 22.7985" stroke="white" stroke-width="2" stroke-linecap="round"/>
<path d="M31.0327 23.271C31.0952 23.2779 31.1467 23.3775 31.2014 23.4097C31.296 23.4653 31.3027 23.6458 31.3439 23.7341C31.379 23.8093 31.3533 23.9394 31.3533 24.0219C31.3533 24.1132 31.3719 24.1832 31.3908 24.2722C31.4598 24.5965 31.4653 24.9486 31.3964 25.2734C31.3791 25.3552 31.3743 25.4417 31.3618 25.5247C31.3475 25.6185 31.3147 25.7027 31.2952 25.7946C31.254 25.9888 31.2254 26.185 31.1846 26.3796C31.1643 26.476 31.1608 26.5701 31.1471 26.6665C31.1342 26.7568 31.0982 26.8415 31.0871 26.9327C31.0734 27.0447 31.0445 27.1529 31.0121 27.2609C30.9796 27.369 30.9612 27.4933 30.9061 27.5918C30.8404 27.7094 30.7825 27.8301 30.7186 27.948C30.6811 28.0173 30.6358 28.0738 30.609 28.1477C30.5895 28.2011 30.5491 28.2805 30.5152 28.3277C30.4111 28.4729 30.3236 28.6256 30.2134 28.7683C30.0718 28.9515 29.8852 29.0513 29.6912 29.1695C29.5566 29.2516 29.4109 29.3684 29.3059 29.4874C29.2643 29.5344 29.2243 29.5843 29.184 29.6327C29.1512 29.672 29.0822 29.6833 29.1596 29.6833" stroke="white" stroke-width="2" stroke-linecap="round"/>
<path d="M23.7091 31.6745C23.7263 31.6895 23.7824 31.3413 23.8357 31.3117C23.9042 31.2736 23.9706 31.1972 24.0541 31.186C24.1035 31.1795 24.1469 31.1801 24.1947 31.1607C24.2721 31.1294 24.2932 31.1543 24.3803 31.1645C24.5764 31.1874 24.7808 31.1851 24.9784 31.1851C25.2676 31.1851 25.553 31.1345 25.8409 31.1345C25.9911 31.1345 26.1269 31.0564 26.2684 31.0117C26.471 30.9476 26.6721 30.9013 26.8665 30.8139C27.1629 30.6805 27.4852 30.6228 27.7759 30.4726C27.9249 30.3956 28.0499 30.2786 28.1921 30.1895C28.2667 30.1428 28.511 29.9496 28.5858 29.987" stroke="white" stroke-width="2" stroke-linecap="round"/>
<path d="M19.3218 26.7809C19.3717 26.8529 19.347 26.954 19.3649 27.0359C19.3866 27.1351 19.4293 27.1788 19.4868 27.259C19.578 27.3863 19.6805 27.5589 19.7258 27.7099C19.754 27.8039 19.8195 27.8788 19.873 27.9602C19.9546 28.0843 20.0557 28.1956 20.1393 28.3202C20.2202 28.4409 20.3284 28.5392 20.4083 28.6605C20.4994 28.7988 20.6051 28.9232 20.7299 29.0327C20.9362 29.2138 21.0988 29.4384 21.3139 29.6092C21.4297 29.7012 21.5178 29.8224 21.6317 29.9177C21.7815 30.043 21.9391 30.1314 22.1004 30.2383C22.3334 30.3927 22.596 30.5675 22.8739 30.6292C22.9723 30.6511 23.07 30.6886 23.1692 30.7126C23.2103 30.7226 23.2501 30.7306 23.2892 30.7473C23.342 30.77 23.354 30.7641 23.321 30.797" stroke="white" stroke-width="2" stroke-linecap="round"/>
<path d="M19.8618 19.6598C19.8562 19.7548 19.818 19.8039 19.7718 19.8848C19.6333 20.1271 19.5105 20.3941 19.423 20.6592C19.3514 20.8761 19.3938 21.1241 19.424 21.3454C19.443 21.4853 19.505 21.598 19.4896 21.7448C19.477 21.8639 19.4213 21.9617 19.3893 22.0738C19.3563 22.1892 19.3224 22.2801 19.3462 22.4029C19.3683 22.5175 19.3913 22.6336 19.4268 22.7441C19.4866 22.9303 19.2766 23.072 19.2505 23.2447C19.2315 23.3708 19.249 23.4988 19.228 23.6244C19.2024 23.7784 19.1645 23.926 19.1034 24.0697C19.042 24.2139 18.9811 24.3138 18.9674 24.4709C18.9559 24.6032 18.9389 24.7279 18.9674 24.859C19.029 25.1424 19.0957 25.4205 19.0649 25.7178C19.0528 25.8345 19.0046 25.9649 19.0087 26.0815C19.0113 26.158 19.0564 26.2469 19.0649 26.3271C19.0692 26.3676 19.0603 26.4125 19.1024 26.4265" stroke="white" stroke-width="2" stroke-linecap="round"/>
<path d="M22.0891 18.4786C21.8844 18.5507 21.6633 18.621 21.4667 18.7111C21.3633 18.7585 21.2715 18.847 21.1732 18.9052C21.0483 18.979 20.9311 19.0502 20.8292 19.1555C20.738 19.2496 20.5592 19.6512 20.8479 19.5098C21.1879 19.3434 21.4421 19.0016 21.8257 18.9258C22.3805 18.8161 22.9368 18.7131 23.4916 18.6099C23.8269 18.5475 24.1656 18.6136 24.5041 18.6136C24.6682 18.6136 24.8329 18.56 24.9972 18.5883C25.0302 18.594 25.2009 18.6894 25.149 18.7224C25.1133 18.7451 25.0451 18.7321 25.0047 18.7392C24.9042 18.7568 24.8029 18.779 24.7028 18.7992C24.529 18.8344 24.4138 18.9676 24.2341 18.9839C24.023 19.0031 23.801 19.0418 23.6041 19.1236C23.379 19.2171 23.1442 19.2787 22.9197 19.3692C22.8328 19.4043 22.7416 19.4127 22.6554 19.4536C22.5707 19.4937 22.4874 19.537 22.4022 19.5755C22.3269 19.6095 22.2742 19.6762 22.2044 19.7198C22.1148 19.7759 22.0223 19.8285 21.9335 19.8829C21.8563 19.9303 21.7698 19.9569 21.6916 20.0011C21.6578 20.0202 21.6276 20.0674 21.5951 20.0911C21.5359 20.1342 21.432 20.1588 21.3888 20.2186C21.2403 20.4242 21.0403 20.553 20.8507 20.7145C20.7503 20.8001 20.6645 20.8907 20.5545 20.9667C20.4192 21.0601 20.1871 21.1431 20.0979 21.2835C19.9943 21.4468 19.895 21.6194 19.8008 21.787C19.7727 21.8369 19.7275 21.8946 19.692 21.9398C19.6252 22.0248 19.613 22.1255 19.5748 22.2248" stroke="white" stroke-width="2" stroke-linecap="round"/>
<path d="M16.8918 19.7948C16.6052 20.1018 16.4735 20.5319 16.4183 20.9432C16.4041 21.0492 16.3888 20.8815 16.379 20.8504C16.3139 20.6455 16.2451 20.4451 16.2168 20.2307C16.1815 19.964 16.2081 19.6956 16.3911 19.4873C16.4852 19.3803 16.6185 19.3224 16.7389 19.2511C16.9124 19.1484 17.1391 19.1613 17.3352 19.1461C17.7632 19.1128 18.1947 19.1166 18.6214 19.0683C18.7507 19.0536 18.9099 19.0161 19.0264 18.9567C19.2273 18.8542 19.4268 18.8148 19.6479 18.7683C19.7979 18.7367 19.8025 18.7874 19.8354 18.9286C19.9298 19.334 19.3191 19.4745 19.0329 19.5136C18.6242 19.5694 18.2658 19.5084 17.8939 19.3326C17.7732 19.2756 17.6795 19.171 17.562 19.1039C17.4091 19.0165 17.2326 18.9728 17.0605 18.938C17.0407 18.9339 16.828 18.9325 16.828 18.8873C16.828 18.7899 16.9262 18.6398 16.7886 18.5902C16.5544 18.5056 16.4104 18.9097 16.3471 19.0561C16.2729 19.2274 16.1994 19.3982 16.1137 19.5642C16.0571 19.6737 15.9808 19.7802 15.9412 19.8979C15.9238 19.9494 15.8844 20.0516 15.8905 20.1061C15.9144 20.3179 15.9581 20.5505 16.1062 20.7117C16.3857 21.0158 16.7746 20.9284 17.1336 20.8298C17.4296 20.7485 17.7195 20.6418 18.0092 20.541C18.1408 20.4953 18.3447 20.3836 18.493 20.4135C18.5672 20.4285 18.5788 20.5354 18.5942 20.5917C18.6238 20.6997 18.6684 20.8208 18.6598 20.9348C18.6448 21.1355 18.398 21.3476 18.2717 21.4823C18.2513 21.504 18.167 21.564 18.1611 21.6023C18.1415 21.7298 18.1822 21.8941 18.2136 22.0148C18.2568 22.1806 18.3273 22.3323 18.4255 22.4722C18.4878 22.561 18.4662 22.5167 18.4105 22.4385C18.2811 22.2568 18.1438 22.0561 17.968 21.9154C17.8666 21.8342 17.7559 21.8455 17.6342 21.8498C17.4815 21.855 17.3909 21.8691 17.2574 21.9285C17.1975 21.9551 17.1008 21.9806 17.0586 22.0354C17.027 22.0765 17.0672 22.1814 17.0736 22.2229C17.1248 22.5535 17.2301 22.8656 17.293 23.1922C17.3643 23.5622 17.3885 23.9505 17.4017 24.3266C17.4113 24.5984 17.35 24.8638 17.3605 25.1347C17.3652 25.2565 17.3642 25.4654 17.3642 25.549" stroke="white" stroke-width="2" stroke-linecap="round"/>
<path d="M18.1911 26.3759C18.0402 26.5745 17.8785 26.7859 17.7636 27.0077C17.6832 27.1631 17.6353 27.3333 17.5705 27.4952C17.4856 27.7075 17.3836 27.9134 17.293 28.1233C17.1761 28.3942 17.0741 28.6973 16.8805 28.9258C16.8044 29.0157 16.7072 29.0833 16.6349 29.1771C16.5127 29.3355 16.3107 29.5143 16.258 29.7133C16.2442 29.7655 16.2718 29.8239 16.2805 29.8745C16.2968 29.9686 16.2941 30.0633 16.3049 30.1577C16.3212 30.299 16.4417 30.4681 16.5187 30.5851C16.5414 30.6197 16.6877 30.7484 16.6087 30.7464C16.548 30.7449 16.5554 30.7299 16.5074 30.7651C16.5013 30.7696 16.107 30.248 16.078 30.212C15.9708 30.0788 15.9497 29.9613 15.8793 29.8164C15.8485 29.7529 15.8164 29.7275 15.8756 29.6645C15.9074 29.6307 16.0324 29.6414 16.0649 29.6383C16.2343 29.622 16.41 29.589 16.5805 29.6102C16.9832 29.6601 17.335 29.9095 17.5124 30.2739C17.6482 30.5528 17.6342 30.957 17.4561 31.2207C17.3967 31.3088 17.1971 31.3045 17.1036 31.3257C17.0895 31.3289 17.0073 31.3408 17.0755 31.337C17.1883 31.3306 17.2911 31.2828 17.3905 31.232C17.9886 30.9265 18.5716 30.5181 18.778 29.8483C18.836 29.6601 18.8317 29.4652 18.8323 29.2708C18.8328 29.1342 18.8417 28.9921 18.8211 28.8564C18.8029 28.7372 18.7563 28.6245 18.7217 28.5096C18.697 28.4276 18.6835 28.3366 18.643 28.2602C18.5648 28.113 18.432 28.3038 18.3692 28.3727C17.9332 28.8509 17.6145 29.4106 17.2874 29.9645C17.1674 30.1677 17.0195 30.3725 16.9349 30.5945C16.8957 30.6975 16.8998 30.8163 16.8955 30.9245C16.89 31.0645 16.8857 31.208 16.8918 31.3482C16.9008 31.5576 17.2058 31.4803 17.3399 31.4532C17.9043 31.3393 18.5046 31.0649 18.973 30.7314C19.0688 30.6632 19.1441 30.5813 19.2205 30.4933C19.2607 30.4468 19.3047 30.3882 19.3648 30.3658C19.5068 30.3128 19.7143 30.386 19.8486 30.422C20.0146 30.4666 20.2364 30.4617 20.2629 30.6639C20.2956 30.9126 20.4275 31.1365 20.6904 31.1907C20.8187 31.2172 20.9465 31.2206 21.0729 31.2601C21.2311 31.3096 21.3842 31.3814 21.5341 31.4514C21.7035 31.5304 21.8794 31.6192 22.0291 31.7326C22.2401 31.8924 22.4725 32.0061 22.7135 32.1132" stroke="white" stroke-width="2" stroke-linecap="round"/>
<path d="M23.2703 32.6701C23.3508 32.7505 23.3826 32.8782 23.4241 32.9804C23.497 33.1598 23.6143 33.409 23.5666 33.6113C23.5417 33.7166 23.3581 33.8842 23.2413 33.855C23.0602 33.8097 23.3331 33.341 23.3641 33.2963C23.6303 32.9119 24.0458 32.6368 24.4722 32.4591C24.6479 32.3859 24.8488 32.3279 25.0403 32.3194C25.0914 32.3172 25.1195 32.3464 25.1547 32.3804C25.2865 32.5079 25.4068 32.6532 25.4706 32.8276C25.7216 33.514 25.2959 34.1858 24.8715 34.6913C24.7077 34.8864 24.5703 35.0541 24.3147 35.0906C24.1344 35.1164 23.9575 35.1591 24.07 35.3756C24.1936 35.6136 24.4732 35.5342 24.6915 35.5162C24.961 35.494 25.1925 35.5 25.3947 35.2978C25.637 35.0555 25.8557 34.7118 25.9965 34.3988C26.158 34.0397 26.3056 33.6768 26.4756 33.3207C26.632 32.993 26.7731 32.6601 26.9171 32.3269C26.9868 32.1658 27.0583 32.0623 27.1852 31.9445" stroke="white" stroke-width="2" stroke-linecap="round"/>
<path d="M27.9446 32.3832C28.0476 32.337 28.1238 32.2386 28.2089 32.1676C28.4491 31.9675 28.7267 31.822 28.9964 31.667C29.3226 31.4795 29.6344 31.2678 29.9555 31.0717C30.2917 30.8663 30.6261 30.6668 30.9295 30.4136C31.1175 30.2567 31.2804 30.0742 31.4582 29.9064C31.6392 29.7357 31.795 29.5724 31.9438 29.3739C32.0429 29.2418 32.1611 29.1255 32.2551 28.9896C32.2733 28.9633 32.4209 28.7091 32.467 28.7721C32.5635 28.9041 32.6512 29.0625 32.736 29.2033C32.8042 29.3166 32.8511 29.4617 32.8598 29.5942C32.8683 29.7256 32.8232 29.8504 32.8232 29.9805C32.8232 30.0807 32.9032 29.9368 32.9094 29.9214C33.1126 29.4191 33.2062 28.8362 33.2826 28.3015C33.3161 28.0669 33.2844 27.8404 33.2844 27.6058C33.2844 27.583 33.3084 27.4413 33.2938 27.4559" stroke="white" stroke-width="2" stroke-linecap="round"/>
<path d="M31.8427 27.9958C32.0265 27.8803 32.0926 27.5645 32.1764 27.3809C32.2477 27.2247 32.3337 27.0739 32.392 26.9121C32.4709 26.6931 32.4946 26.458 32.5167 26.2278C32.5708 25.6626 32.5514 25.0913 32.5514 24.5244C32.5514 24.1511 32.551 23.778 32.5692 23.405C32.5785 23.2139 32.5876 23.032 32.6358 22.8491" stroke="white" stroke-width="2" stroke-linecap="round"/>
<path d="M32.602 20.976C32.6719 21.2169 32.6541 21.4613 32.6395 21.7091C32.6356 21.7756 32.5544 22.3266 32.6929 22.2969C33.0398 22.2226 33.4255 21.9178 33.4345 21.5348C33.4363 21.4568 33.4027 21.4261 33.3388 21.3848C33.1253 21.2465 32.8818 21.1411 32.647 21.0473C32.2847 20.9027 31.9102 20.7998 31.5426 20.6714C31.3887 20.6175 31.1439 20.5489 31.0833 20.3695C31.0169 20.1732 31.0427 19.9301 31.117 19.7442" stroke="white" stroke-width="2" stroke-linecap="round"/>
<path d="M26.9996 17.348C27.1854 17.4662 27.3352 17.6459 27.5106 17.7793C27.6464 17.8826 27.7898 17.9822 27.9427 18.0586C28.0891 18.1318 28.2463 18.1678 28.4002 18.2199C28.8023 18.3559 29.2017 18.5362 29.5252 18.8161C29.6657 18.9377 29.7509 19.0697 29.8383 19.2305C29.9013 19.3463 29.9897 19.4311 30.0792 19.5258C30.2495 19.7056 30.4314 19.8668 30.5883 20.0592C30.8624 20.3953 31.1308 20.7483 31.2848 21.156C31.3039 21.2065 31.6013 21.7717 31.5726 21.786" stroke="white" stroke-width="2" stroke-linecap="round"/>
</svg>
