<!DOCTYPE svg PUBLIC "-//W3C//DTD SVG 1.1//EN" "http://www.w3.org/Graphics/SVG/1.1/DTD/svg11.dtd">
<!-- Uploaded to: SVG Repo, www.svgrepo.com, Transformed by: SVG Repo Mixer Tools -->
<svg fill="#000000" height="64px" width="64px" version="1.1" id="Capa_1" xmlns="http://www.w3.org/2000/svg" xmlns:xlink="http://www.w3.org/1999/xlink" viewBox="0 0 362.357 362.357" xml:space="preserve">
<g id="SVGRepo_bgCarrier" stroke-width="0"/>
<g id="SVGRepo_tracerCarrier" stroke-linecap="round" stroke-linejoin="round"/>
<g id="SVGRepo_iconCarrier"> <path id="XMLID_194_" d="M156.727,92.322c1.253,0.625,2.629,0.947,4.018,0.947c0.46,0,0.922-0.035,1.38-0.106 c18.939-2.939,33.645-17.646,36.591-36.594c2.952-18.948-6.588-37.428-23.74-45.985c-1.669-0.833-3.557-1.126-5.399-0.84 c-18.938,2.943-33.643,17.649-36.593,36.597C130.036,65.287,139.578,83.766,156.727,92.322z M150.768,49.107 c1.588-10.198,8.949-18.313,18.711-20.969c8.494,5.496,13.04,15.462,11.45,25.662c-1.586,10.199-8.945,18.313-18.706,20.967 C153.73,69.271,149.182,59.304,150.768,49.107z M65.258,10.225c-0.677-4.924,2.768-9.465,7.691-10.141 c4.915-0.676,9.465,2.767,10.141,7.692c4.374,31.855,32.499,74.49,71.651,108.616c1.962,1.709,3.087,4.184,3.087,6.785v101.427 c0,0.329-0.019,0.658-0.054,0.985l-10.718,97.335c-0.503,4.562-4.357,8.015-8.946,8.015h-20.03c-4.971,0-9-4.029-9-9s4.029-9,9-9 h11.967l9.781-88.83v-96.876C107.008,97.806,71.061,52.487,65.258,10.225z M291.616,55.274 c-31.523,6.339-72.334,37.051-103.969,78.241c-1.772,2.308-4.443,3.519-7.145,3.519c-1.913,0-3.841-0.607-5.475-1.863 c-3.942-3.027-4.684-8.678-1.656-12.62c27.162-35.367,71.557-76.249,114.695-84.924c4.874-0.98,9.617,2.176,10.598,7.049 C299.645,49.549,296.489,54.294,291.616,55.274z M196.174,324.134l-24.023-95.503c-1.212-4.82,1.713-9.711,6.533-10.923 c4.818-1.214,9.711,1.712,10.924,6.533l22.312,88.698h13.014c4.971,0,9,4.029,9,9s-4.029,9-9,9h-20.03 C200.778,330.939,197.181,328.135,196.174,324.134z M272.263,353.357c0,4.971-4.029,9-9,9H72.513c-4.971,0-9-4.029-9-9s4.029-9,9-9 h190.75C268.234,344.357,272.263,348.386,272.263,353.357z"/> </g>
</svg>