<?xml version="1.0" encoding="utf-8"?>
<!-- Generator: Adobe Illustrator 27.5.0, SVG Export Plug-In . SVG Version: 6.00 Build 0)  -->
<svg version="1.1" xmlns="http://www.w3.org/2000/svg" xmlns:xlink="http://www.w3.org/1999/xlink" x="0px" y="0px"
	 viewBox="0 0 650 500" style="enable-background:new 0 0 650 500;" xml:space="preserve">
<g id="BACKGROUND">
</g>
<g id="OBJECTS">
	<g>
		<path d="M553.922,334.265c0.153,2.821,0.568,5.163,3.243,6.824c10.264,6.373,14.23,16.418,15.58,27.807
			c0.716,6.037,0.815,12.117,0.352,18.189c-0.097,1.276,0.199,2.368,0.845,3.441c1.277,2.119,2.506,4.267,3.973,6.777
			c1.158-3.16,2.122-5.959,3.203-8.712c5.473-13.939,11.782-27.463,20.06-39.994c1.24-1.878,2.514-3.768,4.378-5.118
			c0.838-0.607,1.718-1.277,2.85-0.669c1.089,0.585,1.423,1.613,1.525,2.751c0.21,2.345-0.287,4.595-0.92,6.829
			c-3.385,11.941-7.638,23.594-11.64,35.333c-3.446,10.107-6.191,20.424-8.293,30.903c-0.057,0.282-0.08,0.571-0.145,1.052
			c2.675,0,5.303-0.05,7.928,0.016c2.088,0.052,4.135,0.47,6.062,1.285c1.064,0.45,2.126,1.04,2.171,2.436
			c0.047,1.459-0.987,2.181-2.089,2.716c-2.904,1.409-5.854,1.014-8.761-0.019c-1.972-0.701-3.669-1.923-5.459-2.981
			c-2.108-1.246-2.417-2.898-1.997-5.111c2.963-15.582,7.789-30.611,13.142-45.51c2.923-8.137,5.717-16.339,7.697-24.781
			c0.215-0.915,0.335-1.792-0.292-2.65c-1.354,0.718-2.161,1.934-3.028,3.075c-5.592,7.364-9.367,15.756-13.54,23.925
			c-4.365,8.545-7.653,17.538-11.114,26.46c-0.062,0.161-0.156,0.313-0.197,0.478c-0.613,2.473-0.626,2.526-3.129,1.854
			c-1.443-0.388-2.866-0.825-4.499-1.007c-0.814,6.227-2.449,12.228-3.811,18.29c-0.301,1.338,0.492,2.903,0.69,4.376
			c0.37,2.74,1.061,5.442,0.938,8.243c-0.057,1.286-0.266,2.535-0.766,3.709c-0.821,1.93-2.852,2.164-4.087,0.468
			c-0.842-1.156-1.073-2.505-1.143-3.926c-0.311-6.234,1.568-12.105,2.971-18.048c0.929-3.932,1.894-7.853,2.537-11.844
			c0.09-0.559,0.075-1.135,0.105-1.647c-9.545-2.254-19.098-2.952-28.922-1.965c2.269,8.189,4.428,16.264,8.371,23.713
			c1.492,2.819,2.791,5.697,3.371,8.859c0.203,1.104,0.157,2.174-0.158,3.254c-0.697,2.388-2.719,2.965-4.454,1.16
			c-2.044-2.128-3.026-4.804-3.179-7.684c-0.137-2.583-0.378-5.201,0.244-7.775c0.097-0.403,0.034-0.776-0.148-1.171
			c-2.936-6.37-4.635-13.151-6.653-20.034c-2.717-0.135-5.368,0.624-8.044,1.204c-1.675,0.363-3.266,1.194-5.076,0.857
			c-0.544-0.101-1.115-0.124-1.178-0.765c-0.298-3.017-1.915-5.531-3.132-8.181c-4.264-9.285-8.173-18.743-13.266-27.63
			c-1.301-2.271-2.818-4.377-4.822-6.096c-0.941-0.807-1.985-1.374-3.382-1.491c-0.61,2.219-0.086,4.344,0.437,6.446
			c2.619,10.527,6.28,20.744,9.336,31.141c3.285,11.176,7.971,21.772,13.355,32.074c2.003,3.833,1.81,4.367-2.44,5.469
			c-3.889,1.008-7.829,1.44-11.823,0.645c-0.506-0.101-1.021-0.22-1.492-0.424c-0.972-0.422-1.887-0.931-1.952-2.183
			c-0.064-1.238,0.719-1.898,1.682-2.395c1.251-0.645,2.598-0.927,4.006-0.951c3.176-0.053,6.346-0.01,9.661,0.601
			c-1.525-3.149-2.948-6.145-4.42-9.117c-6.474-13.064-10.08-27.134-14.375-40.961c-1.709-5.503-3.529-10.984-4.326-16.725
			c-0.281-2.025-0.669-4.396,1.222-5.577c1.8-1.124,3.775,0.178,5.4,1.291c2.235,1.531,3.859,3.654,5.249,5.943
			c4.844,7.973,8.414,16.572,12.244,25.042c1.59,3.514,3.214,7.014,4.552,10.762c1.419-0.967,2.371-2.201,3.379-3.36
			c1.632-1.878,3.053-3.964,4.833-5.683c1.95-1.883,1.966-3.983,1.756-6.427c-1.144-13.26,0.281-25.9,9.385-36.547
			c1.766-2.066,3.419-4.243,5.626-5.881c0.527-0.391,0.721-0.835,0.7-1.468c-0.035-1.036-0.009-2.074-0.009-3.278
			c-11.559-1.16-20.488-6.49-26.108-16.767c-3.691-6.749-4.638-13.994-2.951-21.488c3.524-15.651,17.81-26.312,33.57-24.878
			c15.934,1.45,27.511,13.522,28.806,28.718C585.702,318.154,571.56,333.656,553.922,334.265z M552.632,331.848
			c14.579,0.42,29.211-11.491,29.367-29.017c0.143-16.124-13.096-29.227-29.035-29.482c-14.822-0.237-29.058,11.399-29.551,28.105
			C522.894,319.055,537.191,332.207,552.632,331.848z M539.803,394.958c1.347,0,2.561,0.08,3.762-0.013
			c7.706-0.601,15.357-0.334,22.933,1.322c3.046,0.666,3.049,0.643,3.535-2.351c0.037-0.228,0.168-0.453,0.156-0.674
			c-0.088-1.584,0.554-3.142-0.186-4.765c-5.347-11.718-10.086-23.673-13.785-36.022c-1.034-3.454-2.009-6.925-3.011-10.388
			c-0.226,0.266-0.258,0.486-0.258,0.705c-0.016,8.456-1.684,16.604-4.523,24.542c-2.206,6.168-6.029,11.413-9.526,16.847
			c-0.361,0.561-0.865,1.01-0.725,1.848C538.667,388.967,539.076,391.941,539.803,394.958z M550.702,341.641
			c-9.879,8.009-16.298,27.935-12.885,39.657C545.123,373.248,551.667,353.22,550.702,341.641z M570.777,383.667
			c0.243-3.911,0.026-7.779-0.096-11.652c-0.245-7.778-2.704-14.813-6.647-21.413c-1.938-3.245-4.912-5.393-8.173-7.819
			C559.637,357.127,564.907,370.496,570.777,383.667z M537.198,395.324c-0.433-2.341-0.843-4.556-1.308-7.067
			c-2.492,2.944-4.764,5.628-7.328,8.656C531.751,396.326,534.438,395.832,537.198,395.324z M602.976,423.476
			c-3.852-1.997-7.689-1.818-11.734-1.698C594.633,424.773,599.845,425.586,602.976,423.476z M546.542,422.55
			c-0.332,3.932-0.155,7.716,3.157,11.058C550.472,429.074,548.3,425.872,546.542,422.55z M506.85,428.78
			c4.244,1.649,8.442,0.824,12.635-0.263C515.27,427.947,511.05,426.987,506.85,428.78z M566.661,433.529
			c1.109-2.414,1.09-3.727-0.062-8.486C565.555,427.65,565.555,431.042,566.661,433.529z M575.325,397.926
			c-0.977-1.595-1.736-2.834-2.763-4.512c-0.132,1.524-0.218,2.515-0.314,3.625C573.142,397.296,574.004,397.545,575.325,397.926z"
			/>
		<path d="M555.539,300.044c-6.03,0.074-11.521-1.554-16.36-5.207c-0.323-0.244-0.655-0.482-0.945-0.762
			c-0.414-0.401-0.543-0.9-0.248-1.42c0.36-0.634,0.97-0.622,1.52-0.378c0.52,0.231,0.966,0.625,1.453,0.933
			c7.541,4.76,15.433,5.818,23.749,2.214c0.682-0.296,1.302-0.745,1.932-1.152c0.488-0.315,0.958-0.441,1.41,0.014
			c0.521,0.524,0.306,1.065-0.045,1.565c-0.477,0.679-1.184,1.091-1.87,1.521C562.889,299.407,559.252,299.92,555.539,300.044z"/>
		<path d="M540.921,285.244c-0.935,0.054-1.772-0.153-2.136-1.093c-0.379-0.976,0.258-1.636,0.929-2.211
			c1.25-1.072,3.538-1.336,4.653-0.529c0.508,0.367,1.182,0.863,0.747,1.527C544.148,284.41,542.674,285.126,540.921,285.244z"/>
		<path d="M565.567,284.541c-1.091,0.181-2.069-0.205-3.062-0.462c-0.656-0.169-1.147-0.583-1.141-1.324
			c0.005-0.623,0.369-1.056,0.911-1.353c1.122-0.614,4.511-0.029,5.36,0.933c0.767,0.869,0.413,1.991-0.725,2.193
			C566.466,284.607,565.996,284.541,565.567,284.541z"/>
	</g>
	<g>
		<path d="M380.737,317.378c-0.011,3.164,0.71,6.179,1.314,9.213c3.861,19.408,11.611,37.404,19.907,55.224
			c11.124,23.894,23.656,47.039,36.781,69.875c0.741,1.288,1.597,2.51,2.545,3.988c0.864-2.008,1.462-3.85,2.431-5.523
			c0.989-1.709,2.041-3.364,3.554-4.664c0.633-0.543,1.376-0.967,2.223-0.579c0.896,0.409,1.176,1.271,1.139,2.173
			c-0.083,2.047-0.596,4.008-1.653,5.763c-1.042,1.73-2.165,3.417-3.355,5.049c-1.947,2.669-4.138,2.594-6.005-0.179
			c-5.851-8.692-10.738-17.94-15.649-27.176c-5.07-9.535-10.398-18.933-15.233-28.593c-0.723-1.445-1.435-2.897-2.101-4.37
			c-0.293-0.647-0.68-0.966-1.414-1.055c-2.857-0.344-5.712-0.678-8.595-0.673c-10.639,0.018-21.245,0.415-31.948,2.944
			c1.041,23.989,3.858,47.639,13.361,70.344c3.011-3.076,6.477-5.035,9.82-7.168c1.081-0.689,2.206-1.286,3.521-1.352
			c0.949-0.047,1.917,0.033,2.45,0.954c0.568,0.981,0.445,1.985-0.169,2.947c-0.482,0.757-1.186,1.271-1.89,1.769
			c-4.115,2.91-8.704,4.717-13.615,5.745c-1.313,0.275-1.663-0.804-2.094-1.649c-2.846-5.586-4.734-11.522-6.366-17.551
			c-1.915-7.075-3.756-14.171-4.735-21.447c-0.716-5.318-1.265-10.659-1.852-15.994c-1.365-12.398-1.372-24.848-0.985-37.279
			c0.546-17.531,3.165-34.817,7.038-51.917c1.094-4.829,2.243-9.639,4.065-14.357c-0.73,0.085-0.96,0.591-1.296,0.928
			c-7.332,7.326-14.641,14.676-21.109,22.801c-0.647,0.813-1.182,1.713-1.799,2.551c-2.527,3.431-2.378,6.795,0.098,10.208
			c2.453,3.381,5.359,6.379,7.958,9.637c1.93,2.42,3.335,5.131,4.796,7.821c0.591,1.088,0.676,2.219,0.113,3.326
			c-1.623,3.195-3.289,6.375-5.633,9.117c-0.627,0.734-1.449,1.341-2.277,1.853c-0.874,0.54-1.913,1.143-2.899,0.372
			c-0.961-0.752-0.988-1.875-0.709-3.02c0.482-1.972,1.6-3.582,2.913-5.056c1.885-2.117,3.917-4.09,6.183-5.827
			c-2.133-4.959-5.726-8.819-9.143-12.798c-1.739-2.024-3.389-4.09-4.586-6.504c-1.363-2.75-1.327-5.426,0.051-8.15
			c1.37-2.706,3.126-5.141,5.08-7.438c5.781-6.799,11.952-13.233,18.311-19.492c1.938-1.908,3.749-3.945,5.66-5.882
			c1.664-1.686,2.549-3.806,3.525-5.84c-0.428-0.767-1.182-0.599-1.743-0.777c-12.565-3.988-20.34-12.431-22.539-25.382
			c-2.909-17.129,9.32-33.837,26.865-36.289c16.046-2.243,32.12,8.141,35.4,25.297c3.233,16.91-7.688,33.649-25.024,36.959
			c-3.13,0.598-6.278,1.006-9.466,0.37c-1.093-0.218-1.66,0.198-1.873,1.379c-0.48,2.661-0.415,5.228,0.339,7.861
			c3.372,11.778,8.057,22.953,15.401,32.83c6.214,8.359,13.731,15.291,23.052,20.203c2.621,1.381,5.114,1.606,7.889,1.138
			c2.823-0.476,5.651-0.407,8.395,0.533c0.814,0.279,1.627,0.621,2.357,1.07c1.052,0.648,2.046,1.448,1.794,2.893
			c-0.245,1.405-1.392,1.879-2.587,2.251c-2.017,0.628-4.029,0.313-5.993-0.169c-2.976-0.73-5.928-1.574-8.214-3.824
			c-0.198-0.194-0.488-0.307-0.752-0.42c-15.205-6.501-25.898-17.755-33.716-32.023c-2.758-5.034-5.063-10.274-6.858-15.732
			C381.053,318.198,380.888,317.79,380.737,317.378z M385.366,298.579c14.542,0.434,29.205-11.429,29.391-28.995
			c0.17-16.096-13.085-29.241-29.016-29.504c-14.839-0.245-29.067,11.393-29.572,28.083
			C355.637,285.749,369.906,298.924,385.366,298.579z M377.274,308.8c-6.776,10.924-15.369,71.025-12.541,87.528
			c13.199-2.823,26.535-3.517,40.088-2.313c-0.186-0.479-0.286-0.805-0.434-1.108c-4.405-9.029-8.584-18.16-12.641-27.351
			c-6.162-13.961-10.432-28.469-13.113-43.476C377.854,317.72,377.625,313.316,377.274,308.8z M426.439,366.423
			c2.538,1.867,8.268,2.775,10.256,1.626C434.557,366.225,431.448,365.732,426.439,366.423z M352.169,378.736
			c3.724-2.249,5.054-5.68,6.689-8.885C356.182,372.283,353.285,374.549,352.169,378.736z M443.488,456.828
			c1.968-2.724,4.334-5.241,4.8-9.279C445.673,450.471,444.322,453.515,443.488,456.828z M384.114,467.625
			c2.583-1.081,5.137-2.253,7.159-4.318C388.626,464.286,386.426,466.033,384.114,467.625z"/>
		<path d="M393.918,288.801c-0.406,0.046-0.845-0.107-1.243-0.348c-3.423-2.07-5.788-4.924-6.483-8.957
			c-0.313-1.82,0.808-2.752,2.554-2.212c1.845,0.571,3.258,1.807,4.414,3.239c1.124,1.392,2.072,1.426,3.413,0.374
			c1.086-0.852,2.377-1.456,3.73-1.759c0.798-0.179,1.757-0.41,2.408,0.448c0.693,0.914,0.035,1.693-0.414,2.368
			c-1.445,2.178-3.095,4.193-5.284,5.684C396.106,288.257,395.163,288.835,393.918,288.801z M400.008,281.79
			c-0.111-0.113-0.223-0.227-0.334-0.34c-0.931,0.546-1.866,1.086-2.793,1.639c-2.225,1.329-2.805,1.243-4.61-0.639
			c-1.097-1.143-2.216-2.266-3.902-3.048c0.697,3.351,2.7,5.465,5.225,7.179c0.526,0.357,1.12,0.101,1.626-0.215
			C397.142,285.165,398.589,283.491,400.008,281.79z"/>
		<path d="M406.199,273.209c-1.249,0.03-1.79-0.463-1.799-1.538c-0.011-1.339,0.614-2.237,1.935-2.393
			c1.002-0.119,1.624,0.489,1.612,1.549C407.932,272.119,407.369,273.002,406.199,273.209z"/>
		<path d="M389.867,268.851c0.152-0.841,0.237-2.1,1.725-2.241c1.024-0.097,1.396,0.707,1.359,1.583
			c-0.049,1.184-0.323,2.359-1.78,2.515C390.107,270.822,389.826,270.064,389.867,268.851z"/>
	</g>
	<g>
		<path d="M119.647,305.243c-0.195,3.392,0.476,6.621,1.073,9.814c1.43,7.641,2.734,15.328,5.51,22.641
			c1.519,4.003,3.168,7.955,6.187,11.135c0.279,0.294,0.549,0.597,0.841,0.878c3.022,2.904,5.443,2.772,7.952-0.599
			c3.231-4.341,4.914-9.379,6.164-14.566c1.392-5.774,2.672-11.574,4.065-17.348c0.201-0.831-0.051-1.455-0.327-2.149
			c-1.472-3.705-1.732-7.523-0.856-11.385c0.421-1.856,1.401-3.399,3.316-4.163c2.265-0.905,3.947,0.006,4.293,2.387
			c0.304,2.091,0.148,4.149-0.511,6.156c-0.378,1.149-0.702,2.337-1.249,3.407c-3.203,6.264-3.922,13.211-5.534,19.909
			c-1.407,5.843-2.893,11.642-5.958,16.895c-0.849,1.455-1.801,2.83-3.056,3.973c-2.643,2.405-5.854,2.569-8.662,0.352
			c-2.721-2.148-4.739-4.865-6.325-7.945c-3.561-6.915-5.202-14.393-6.618-21.95c-0.182-0.974-0.101-2.054-0.866-3.074
			c-3.044,15.667-5.96,31.174-9.523,46.546c-2.44,10.526-6.377,20.59-9.63,30.865c-0.816,2.579-1.732,5.127-2.639,7.676
			c-0.221,0.621-0.355,1.2-0.166,1.851c1.629,5.587,1.422,11.303,1.109,17.013c-0.13,2.361-0.418,4.715-1.151,6.992
			c-1.321,4.104-3.734,7.189-7.715,9.106c-4.563,2.197-9.303,3.394-14.364,3.456c-2.46,0.03-4.917,0.237-7.617,0.377
			c1.086,1.578,2.284,2.836,3.036,4.387c1.193,2.461,2.331,4.927,1.608,7.785c-0.289,1.144-0.591,2.312-1.913,2.648
			c-1.367,0.347-2.331-0.435-3.14-1.404c-1.902-2.276-2.362-5.1-2.877-7.88c-0.315-1.701-0.501-3.428-0.684-5.15
			c-0.239-2.255,0.381-2.923,2.639-2.905c5.093,0.039,10.183-0.046,15.201-1.023c3.209-0.625,6.196-1.913,8.92-3.689
			c3.648-2.379,4.826-6.169,5.458-10.212c0.828-5.292,0.611-10.605,0.365-15.922c-0.025-0.543-0.254-0.97-0.444-1.452
			c-4.207-10.643-12.897-16.462-22.767-20.826c-4.827-2.135-9.677-4.245-14.603-6.185c-6.9-2.717-11.619-0.523-15.316,5.911
			c-2.756,4.796-2.66,10.014-1.295,15.291c1.773,6.856,4.909,13.168,7.599,19.661c2.078,5.016,4.383,9.92,6.831,14.762
			c0.13,0.258,0.247,0.523,0.389,0.775c1.549,2.748,1.38,3.476-1.812,3.807c-3.005,0.311-6.069,1-9.129,0.165
			c-1.299-0.354-2.509-0.834-3.518-1.759c-0.853-0.782-1.518-1.651-1.159-2.88c0.323-1.103,1.342-1.327,2.286-1.615
			c2.797-0.851,5.491-0.096,8.194,0.517c0.496,0.112,0.988,0.242,1.836,0.451c-0.441-0.933-0.774-1.622-1.096-2.317
			c-3.944-8.536-7.86-17.088-11.034-25.946c-1.62-4.522-2.833-9.156-2.329-14.062c0.625-6.084,3.196-11.029,8.358-14.483
			c3.247-2.173,6.714-2.175,10.289-0.988c1.643,0.546,3.313,1.022,4.919,1.66c1.63,0.647,3.098,0.386,4.658-0.264
			c17.135-7.129,30.057-18.966,39.322-34.951c4.324-7.461,8.553-14.945,10.103-23.588c0.304-1.695,0.649-3.382,1.009-5.245
			c-0.826,0.385-0.89,1.043-1.143,1.551c-3.624,7.274-7.626,14.295-13.648,19.916c-2.553,2.383-5.352,4.365-8.914,5.058
			c-3.602,0.701-6.507-0.461-8.855-3.107c-3.155-3.556-4.312-7.979-5.063-12.513c-0.829-5.003-0.893-10.093-1.647-15.115
			c-0.424-2.819,0.157-5.632,1.238-8.303c0.352-0.87,0.797-1.674,1.521-2.285c1.663-1.403,3.81-0.896,4.421,1.191
			c0.887,3.032,0.409,6.056-0.521,9.014c-0.241,0.767-0.417,1.641-0.907,2.23c-3.685,4.435-2.476,9.404-1.551,14.282
			c0.646,3.407,1.681,6.723,3.917,9.516c2.201,2.751,5.013,3.627,8.332,2.451c4.084-1.447,7.009-4.444,9.709-7.634
			c5.616-6.633,9.56-14.275,13.033-22.176c0.698-1.588,0.2-3.29,0.292-5.096c-11.193-0.172-20.428-4.247-27.069-13.38
			c-4.377-6.019-6.341-12.85-5.781-20.239c1.339-17.679,16.073-30.831,33.784-29.628c16.032,1.089,28.215,13.49,29.292,29.127
			C148.948,289.065,136.33,303.193,119.647,305.243z M116.21,303.118c14.582,0.418,29.32-11.483,29.342-29.014
			c0.023-18.05-14.907-29.417-29.176-29.503C101.71,244.513,87.493,256,86.995,272.719
			C86.471,290.292,100.736,303.469,116.21,303.118z M95.415,402.898c7.279-21.163,13.813-42.26,17.334-64.246
			c-9.984,20.249-24.493,35.827-46.121,44.353C78.055,387.347,88.565,392.233,95.415,402.898z M155.382,301.328
			c-1.41,0.054-2.221,0.766-2.653,1.825c-1.353,3.316-0.992,6.637,0.106,9.953C154.177,309.29,156.679,305.728,155.382,301.328z
			 M80.64,315.742c2.183-3.548,3.208-7.005,2.887-10.807c-0.058-0.692,0.221-1.693-0.814-1.826c-0.928-0.12-1.165,0.817-1.452,1.479
			C79.745,308.089,79.823,311.696,80.64,315.742z M69.396,456.131c1.266-2.949-0.25-7.461-3.4-10.271
			C66.653,449.533,66.659,453.118,69.396,456.131z M42.841,438.147c3.382,2.984,6.968,1.678,10.389,1.52
			C50.071,438.235,46.882,436.986,42.841,438.147z"/>
		<path d="M111.911,288.788c-5.431,0.052-9.653-2.193-13.262-5.647c-2.211-2.115-2.652-4.952-2.228-7.874
			c0.26-1.791,1.964-2.959,3.863-2.725c2.475,0.304,4.927,0.825,7.021,2.269c2.312,1.594,4.831,1.688,7.441,1.249
			c1.533-0.258,3.054-0.606,4.566-0.976c1.528-0.374,3.009-0.151,4.426,0.37c2.94,1.082,3.917,4.351,2.063,6.977
			c-2.562,3.628-6.325,5.253-10.539,5.997C114.077,288.636,112.891,289.021,111.911,288.788z M111.171,286.453
			c1.025,0.398,2.237,0.074,3.424-0.104c3.63-0.545,6.937-1.809,9.23-4.864c1.477-1.968,0.713-3.707-1.686-4.171
			c-2.133-0.413-4.08,0.496-6.117,0.761c-3.346,0.436-6.706,1.099-9.761-1.269c-1.516-1.176-3.478-1.518-5.353-1.844
			c-1.834-0.319-2.653,0.453-2.436,2.29c0.213,1.808,0.777,3.507,2.28,4.705C103.762,284.357,106.88,286.527,111.171,286.453z"/>
		<path d="M107.403,250.66c1.057,0.328,2.021,0.73,1.917,2.052c-0.083,1.066-0.734,1.691-1.793,1.68
			c-1.158-0.011-1.815-0.719-1.754-1.862C105.826,251.55,106.346,250.818,107.403,250.66z"/>
		<path d="M126.252,254.973c-0.139,1.05-0.743,1.796-1.877,1.794c-0.991-0.001-1.61-0.671-1.579-1.681
			c0.034-1.147,0.774-1.83,1.873-1.86C125.681,253.199,126.201,253.888,126.252,254.973z"/>
	</g>
	<g>
		<path d="M234.92,321.417c-1.972,0.568-3.715,1.301-5.421,2.115c-7.808,3.727-15.281,7.916-21.142,14.516
			c-2.43,2.737-3.055,5.588-1.965,9.093c1.713,5.508,5.229,9.866,8.651,14.297c2.333,3.021,5.188,5.607,7.426,8.716
			c0.188,0.261,0.501,0.495,0.804,0.599c1.07,0.367,1.047,1.075,0.435,1.723c-3.017,3.193-5.954,6.496-9.889,8.632
			c-0.804,0.436-1.693,0.742-2.636,0.784c-2.241,0.099-3.299-1.533-2.305-3.538c0.448-0.904,1.124-1.612,1.914-2.21
			c2.662-2.01,5.54-3.545,8.912-3.968c0.225-0.028,0.45-0.087,0.661-0.167c0.095-0.036,0.158-0.159,0.321-0.337
			c-1.156-1.41-2.218-2.938-3.51-4.237c-3.573-3.59-6.581-7.624-9.336-11.834c-2.352-3.594-4.157-7.445-4.213-11.912
			c-0.032-2.532,0.953-4.567,2.513-6.453c5.124-6.196,11.767-10.344,18.766-14.028c2.865-1.508,5.801-2.866,8.902-3.79
			c1.44-0.429,1.832-1.156,1.3-2.6c-10.729-1.125-19.218-6.074-24.879-15.428c-3.947-6.522-5.287-13.649-3.964-21.154
			c2.923-16.58,17.333-27.942,33.964-26.447c17.552,1.577,28.144,15.701,28.81,29.987c0.71,15.244-10.148,31.818-30.801,33.196
			c-0.491,1.584-0.155,2.59,1.591,3.273c5.618,2.198,10.416,5.758,14.874,9.716c4.35,3.862,7.091,8.776,8.204,14.524
			c0.663,3.423-0.353,6.655-1.401,9.831c-1.558,4.72-3.73,9.188-5.92,13.642c-0.271,0.551-0.748,1.036-0.69,1.778
			c2.776,0.112,5.543,0.171,8.274,0.652c0.171,0.03,0.349,0.031,0.515,0.075c1.626,0.429,2.738,1.795,2.506,3.068
			c-0.234,1.285-1.751,2.275-3.401,2.043c-1.535-0.217-3.077-0.412-4.581-0.869c-1.595-0.485-3.211-0.93-4.914-0.938
			c-2.547-0.012-2.979-0.755-1.725-3.062c2.431-4.47,4.576-9.073,6.489-13.785c1.196-2.947,2.297-5.945,2.574-9.131
			c0.503-5.806-2.261-10.553-5.871-14.547c-4.509-4.989-10.136-8.699-16.51-11.525c-0.433,1.724,0.034,3.33,0.271,4.828
			c3.101,19.603,6.422,39.172,13.447,57.853c2.312,6.148,4.843,12.215,7.507,18.236c2.455,5.55,4.312,11.403,6.595,17.052
			c5.629,13.93,11.408,27.799,17.659,41.467c1.652,3.613,3.019,7.356,4.67,11.416c1.198-1.801,2.2-3.298,3.191-4.803
			c1.068-1.622,2.31-3.028,4.235-3.67c2.228-0.744,3.535,0.195,3.384,2.558c-0.118,1.845-0.94,3.422-2.142,4.817
			c-2.261,2.623-5.393,4.155-7.969,6.386c-0.593,0.514-1.481,0.581-2.134,0.163c-0.688-0.44-0.283-1.055,0.021-1.664
			c0.38-0.762-0.205-1.437-0.49-2.111c-7.525-17.806-15.464-35.44-22.432-53.479c-1.433-3.711-2.792-7.453-4.057-11.223
			c-0.389-1.16-1.039-1.733-2.147-1.85c-2.636-0.278-5.273-0.59-7.917-0.736c-4.792-0.264-9.588-0.502-14.385-0.594
			c-5.721-0.11-11.426,0.38-17.259,0.629c0.247,2.778,1.07,5.292,1.714,7.844c2.78,11.011,5.049,22.148,8.313,33.042
			c2.996,9.998,6.5,19.841,9.107,29.957c0.703,2.726,0.585,3.264-1.694,4.794c-4.284,2.875-9.081,3.816-14.163,3.539
			c-1.301-0.071-2.434-0.569-2.777-1.939c-0.327-1.308,0.355-2.38,1.267-3.231c1.697-1.584,3.908-1.651,6.028-1.719
			c2.487-0.079,4.947,0.401,7.401,0.794c0.566,0.091,1.12,0.288,1.795,0.017c0.208-0.919-0.27-1.753-0.504-2.608
			c-3.288-12.021-7.611-23.731-10.76-35.794c-2.827-10.827-5.115-21.78-7.658-32.673c-0.448-1.921-0.088-3.793,0.534-5.613
			c6.692-19.578,11.886-39.533,15.342-59.944c1.099-6.49,1.878-13.013,2.664-19.54C235.001,323.138,234.92,322.336,234.92,321.417z
			 M237.546,314.562c14.361,0.377,29.156-11.334,29.234-28.947c0.08-17.994-14.82-29.529-29.284-29.571
			c-14.615-0.042-28.915,11.506-29.279,28.4C207.844,301.731,221.934,314.954,237.546,314.562z M236.632,330.982
			c-3.026,25.288-9.623,49.709-17.777,74.019c13.249-1.157,26.267-0.754,39.528,0.56c-5.984-11.826-10.564-23.929-13.974-36.482
			C241.007,356.557,239.05,343.748,236.632,330.982z M232.501,482.169c-3.07-0.614-6.111-1.309-9.23-0.553
			c-1.212,0.293-2.29,0.728-2.62,2.4C224.921,484.862,228.702,483.488,232.501,482.169z M296.775,466.011
			c-3.289,1.737-4.27,4.97-6.227,7.386C293.92,472.002,296.568,468.953,296.775,466.011z M210.387,379.73
			c2.712-0.218,6.295-2.593,7.993-5.129C215.324,375.649,212.56,376.894,210.387,379.73z M263.628,372.995
			c-1.603-0.72-3.234-0.961-5.419-0.694C260.286,372.984,261.906,373.432,263.628,372.995z"/>
		<path d="M237.918,292.456c-4.308-0.003-7.678-1.889-10.861-4.126c-1.484-1.043-1.85-2.787-1.776-4.504
			c0.114-2.668,2.111-3.782,4.842-2.797c2.348,0.847,4.237,2.572,6.594,3.439c0.901,0.332,1.557,0.328,2.397-0.107
			c1.669-0.865,2.95-2.227,4.475-3.263c1.483-1.008,2.992-2.027,4.96-1.427c1.572,0.479,2.157,1.386,1.88,2.981
			c-0.803,4.624-5.823,9.08-10.851,9.63C238.944,292.352,238.311,292.415,237.918,292.456z M248.233,281.867
			c-1.582-0.305-2.614,0.443-3.597,1.22c-1.673,1.322-3.329,2.642-5.309,3.519c-0.841,0.372-1.542,0.445-2.456,0.198
			c-2.441-0.658-4.473-2.072-6.634-3.26c-0.764-0.42-1.716-1.223-2.485-0.367c-0.782,0.87-0.187,1.969,0.25,2.905
			c0.278,0.597,0.854,0.933,1.412,1.233c1.015,0.546,2.07,1.018,3.074,1.583c4.648,2.616,9.618,1.207,13.049-1.976
			C246.924,285.633,248.08,284.098,248.233,281.867z"/>
	</g>
	<g>
		<path d="M298.467,217.865c1.743-2.746,3.659-5.122,6.047-7.086c0.945-0.778,1.942-1.446,3.19-1.651
			c1.787-0.294,2.7,0.605,2.306,2.361c-0.244,1.089-0.822,2.054-1.552,2.868c-1.972,2.199-4.049,4.298-6.423,6.074
			c-0.747,0.559-1.586,0.969-2.488,1.178c-1.199,0.279-2.245,0.2-2.296-1.433c-0.019-0.615-0.456-1.05-0.754-1.536
			c-11.315-18.37-20.35-37.791-26.897-58.358c-0.329-1.033-0.621-2.079-0.958-3.214c-4.526,1.206-9.074,1.926-13.665,2.102
			c-4.534,0.173-9.096,0.275-13.819-0.91c1.346,6.552,2.623,12.801,3.914,19.048c2.461,11.906,4.525,23.893,7.29,35.737
			c1.388,5.946,2.774,11.894,4.169,17.839c0.644,2.745,0.641,2.722-1.834,4.198c-3.95,2.355-8.247,3.818-12.672,4.933
			c-1.111,0.28-2.281,0.296-3.415-0.129c-0.733-0.275-1.403-0.557-1.539-1.447c-0.151-0.987,0.293-1.665,1.094-2.173
			c1.426-0.904,2.993-1.494,4.586-2.004c3.744-1.199,7.562-2.043,11.734-2.199c-0.514-2.303-0.954-4.528-1.51-6.723
			c-5.175-20.407-8.702-41.161-13.048-61.742c-0.506-2.397-0.339-4.911-1.381-7.222c-0.365-0.81,0.476-1.335,0.943-1.905
			c10.085-12.291,18.435-25.589,23.455-40.783c2.824-8.547,4.156-17.378,4.661-26.345c0.006-0.103-0.075-0.211-0.12-0.327
			c-0.999-0.374-1.654,0.352-2.314,0.827c-5.873,4.229-12.084,7.908-18.566,11.093c-5.116,2.513-10.272,5.037-15.91,6.206
			c-4.633,0.961-9.293,1.198-13.763-0.796c-4.281-1.91-5.318-5.05-3.076-9.159c0.86-1.577,1.948-3.012,3.156-4.342
			c6.702-7.381,13.701-14.446,21.811-20.317c0.229-0.166,0.447-0.349,0.752-0.588c-4.653-9.684-4.821-19.411,0.067-28.995
			c3.897-7.643,9.981-12.943,18.177-15.675c16.291-5.431,33.964,3.179,39.677,19.326c2.139,6.044,2.405,12.18,0.817,18.406
			c-1.59,6.234-4.776,11.488-9.534,15.796c-4.75,4.3-10.395,6.74-16.917,7.838c2.659,2.86,5.026,5.604,7.094,8.608
			c5.729,8.322,7.845,17.522,6.718,27.475c-0.509,4.501-2.105,8.724-4.039,12.81c-2.253,4.76-4.789,9.357-7.74,13.724
			c-0.679,1.005-1.303,2.045-2.017,3.171c2.659,1.893,5.094,3.982,6.93,6.692c1.75,2.581,2.928,5.355,3.096,8.501
			c0.052,0.963-0.078,1.863-1.031,2.398c-0.919,0.516-1.693,0.022-2.419-0.428c-1.448-0.897-2.55-2.17-3.557-3.52
			c-0.721-0.967-1.404-1.963-2.193-3.071C273.635,169.76,290.366,205.357,298.467,217.865z M239.839,62.812
			c0-1.388-0.104-2.785,0.022-4.162c0.239-2.603,0.666-5.191,2.64-7.148c1.595-1.582,3.05-1.288,3.892,0.774
			c1.016,2.485,0.999,5.083,0.56,7.672c-0.565,3.33-2.003,6.371-3.449,9.378c-0.539,1.122-0.409,1.871,0.281,2.796
			c7.273,9.743,16.949,13.878,28.944,12.021c14.985-2.32,26.47-16.514,24.011-32.986c-2.431-16.283-16.568-25.245-29.32-25.124
			c-11.365,0.108-22.934,7.57-27.008,18.634C238.215,50.632,237.796,56.653,239.839,62.812z M240.751,71.942
			c-7.289,5.271-13.59,11.464-19.698,17.871c-1.756,1.842-3.468,3.724-4.83,5.887c-2.233,3.546-1.582,5.474,2.356,6.999
			c0.588,0.228,1.197,0.426,1.813,0.549c4.174,0.831,8.289,0.453,12.282-0.899c9.617-3.255,18.469-8.068,27.001-13.503
			c1.027-0.654,1.998-1.398,3.317-2.327C253.296,84.773,246.049,79.972,240.751,71.942z M268.855,98.712
			c-1.342,10.809-4.628,20.974-9.633,30.569c-4.982,9.552-10.984,18.441-17.987,26.577c0.333,0.451,0.673,0.498,1.021,0.561
			c7.973,1.442,15.865,0.777,23.713-0.931c0.836-0.182,2.179-0.327,2.355-0.822c0.526-1.473,1.971-2.844,1.836-4.165
			c-0.264-2.582,0.319-5.056,0.266-7.585c-0.098-4.686-0.182-9.374-0.265-14.059C269.982,118.789,269.182,108.753,268.855,98.712z
			 M272.373,147.292c3.173-4.463,5.538-9.148,7.694-13.923c5.328-11.798,4.859-23.381-1.596-34.659
			c-2.241-3.916-5.034-7.404-8.186-10.657C271.702,107.785,273.047,127.405,272.373,147.292z M271.165,154.93
			c2.105,4.694,4.469,9.215,8.454,12.647C279.035,161.888,275.696,158.016,271.165,154.93z M242.204,66.623
			c2.08-4.344,3.962-8.708,2.017-13.966C241.032,57.171,242.15,61.984,242.204,66.623z M251.035,234.454
			c-4.143,0.766-7.865,1.511-11.641,3.53C242.168,238.141,248.64,236.168,251.035,234.454z M307.578,211.759
			c-2.024,0.538-5.5,4.064-6.267,6.357c1.702-1.594,3.266-3.02,4.781-4.497C306.614,213.109,307.015,212.473,307.578,211.759z"/>
		<path d="M275.031,68.507c-3.438-1.013-6.149-0.113-8.147,2.853c-0.263,0.39-0.672,0.668-1.191,0.42
			c-0.593-0.283-0.544-0.823-0.472-1.348c0.023-0.165,0.099-0.328,0.174-0.481c1.5-3.065,6.867-4.863,9.961-3.34
			c0.543,0.267,1.056,0.597,0.89,1.299C276.091,68.567,275.521,68.547,275.031,68.507z"/>
		<path d="M261.08,62.073c0,1.895-0.425,3.566-2.197,4.275c-1.632,0.653-3.043-0.217-4.194-1.373
			c-0.49-0.492-0.925-1.192-0.289-1.838c0.716-0.727,1.125-0.108,1.638,0.449c0.523,0.567,1.229,1.207,2.083,0.932
			c0.826-0.266,0.836-1.161,0.966-1.899c0.04-0.227,0.118-0.448,0.158-0.675c0.122-0.69-0.157-1.76,0.965-1.687
			C261.416,60.334,260.932,61.464,261.08,62.073z"/>
		<path d="M278.188,59.754c0.064-0.171,0.187-0.368,0.207-0.575c0.064-0.657,0.306-1.176,1.056-1.04
			c0.822,0.149,1.085,0.771,1.01,1.557c-0.147,1.53-1.223,2.354-2.913,2.232c-1.589-0.115-3.323-1.639-3.244-2.849
			c0.029-0.446,0.237-0.781,0.66-0.916c0.43-0.137,0.789,0.036,1.061,0.388C276.552,59.236,277.036,59.994,278.188,59.754z"/>
	</g>
	<g>
		<path d="M116.637,94.629c4.619,8.373,5.866,17.515,6.852,26.705c0.904,8.43,0.471,16.821-0.575,25.238
			c-0.692,5.57-1.622,11.053-3.114,16.449c-0.135,0.489-0.085,0.869,0.114,1.318c3.3,7.443,4.753,15.419,6.669,23.26
			c0.768,3.143,1.602,6.264,2.713,9.305c1.36,3.723,2.456,4.198,6.103,2.589c4.347-1.917,8.406-4.359,12.471-6.805
			c8.469-5.095,16.648-10.66,25.273-15.499c0.554-0.311,1.111-0.617,1.682-0.894c1.225-0.596,2.32-0.908,2.708,0.98
			c0.095,0.46,0.568,0.859,0.911,1.247c3.439,3.886,4.255,10.91,1.785,15.428c-0.438,0.801-0.98,1.479-2,1.392
			c-1.036-0.088-1.291-0.978-1.389-1.751c-0.246-1.946-0.463-3.908-0.489-5.867c-0.041-3.073-0.542-6.07-1.065-9.163
			c-0.945,0.102-1.58,0.62-2.237,1.025c-8.806,5.438-17.592,10.909-26.401,16.342c-3.594,2.217-7.3,4.239-11.229,5.807
			c-4.206,1.679-6.506,0.672-8.161-3.533c-1.356-3.446-2.255-7.029-3.094-10.628c-1.57-6.737-2.933-13.527-5.204-20.086
			c-0.696-2.01-1.798-3.475-3.542-4.839c-8.097-6.332-17.162-10.874-26.6-14.695c-7.709-3.121-15.767-5.141-23.987-6.431
			c-3.35-0.526-5.306,0.724-6.971,3.875c-3.074,5.816-4.439,12.238-6.601,18.375c-2.165,6.145-4.015,12.399-6.086,18.577
			c-0.525,1.567-1.304,3.061-2.082,4.527c-0.528,0.995-1.532,1.035-2.429,0.592c-4.836-2.392-9.534-4.999-12.993-9.306
			c-0.572-0.712-1.032-1.544-1.398-2.384c-0.462-1.059-0.909-2.234-0.015-3.268c0.919-1.062,2.148-0.959,3.369-0.573
			c3.469,1.097,6.257,3.208,8.584,5.932c1.417,1.658,2.685,3.442,4.08,5.247c0.824-1.273,1.003-2.708,1.444-4.04
			c2.952-8.926,5.906-17.851,8.813-26.791c0.969-2.981,2.293-5.795,3.791-8.528c1.837-3.353,4.627-4.617,8.384-4.157
			c11.97,1.465,23.33,4.931,34.088,10.35c1.206,0.608,1.901,0.514,3.01-0.326c6.087-4.616,10.922-10.237,14.588-16.941
			c2.605-4.765,4.31-9.886,4.125-15.194c-0.267-7.631-2.115-15.034-5.719-21.771c-0.663-0.208-0.891,0.222-1.183,0.452
			c-8.003,6.301-17.317,9.162-27.231,10.634c-7.908,1.174-15.638,0.54-23.34-1.403c-4.582-1.156-8.24-3.822-11.735-6.79
			c-1.764-1.498-3.664-2.939-4.928-4.873c-1.621-2.48-4.467-3.111-6.556-4.858c-2.311-1.933-3.764-4.18-3.624-7.294
			c0.056-1.249,0.447-2.343,1.606-2.853c1.242-0.547,2.084,0.415,2.834,1.191c1.772,1.833,2.702,4.163,3.468,6.525
			c0.477,1.47,1.19,2.713,2.185,3.877c1.961,2.295,4.131,4.369,6.314,6.446c5.378,5.118,11.942,7.222,19.151,7.904
			c15.009,1.42,28.789-1.876,41.205-10.544c0.143-0.1,0.287-0.199,0.55-0.381c-0.507-0.792-0.957-1.496-1.397-2.184
			c-20.567,8.698-37.715-3.658-42.879-16.467c-6.063-15.041,0.184-32.582,14.555-40.153c14.462-7.618,32.433-2.893,41.3,10.732
			c9.046,13.899,6.014,34.969-11.077,44.918c0.276,0.831,0.85,1.475,1.386,2.187c5.648-1.316,10.623-4.087,15.479-7.09
			c5.365-3.318,10.833-6.435,16.63-8.941c2.015-0.871,4.058-1.565,6.311-1.695c4.344-0.251,7.138,1.842,8.934,5.554
			c1.936,4.002,2.943,8.264,3.093,12.691c0.396,11.693-1.788,22.955-5.862,33.881c-0.354,0.948-0.335,1.818-0.174,2.841
			c0.531,3.384,0.086,6.687-1.643,9.712c-0.618,1.081-1.442,2.123-2.899,1.634c-1.372-0.46-1.624-1.701-1.563-2.982
			c0.076-1.582,0.673-3.028,1.292-4.46c3.372-7.801,6.182-15.79,7.517-24.209c1.25-7.886,2.23-15.807-0.12-23.684
			c-0.411-1.378-0.885-2.751-1.489-4.054c-1.891-4.084-4.858-5.451-9.19-4.203c-4.476,1.29-8.499,3.602-12.575,5.777
			c-4.691,2.504-9.068,5.556-13.842,7.923C122.564,92.847,119.726,93.943,116.637,94.629z M98.467,92.196
			c15.065,0.368,29.358-11.901,29.391-28.962c0.034-17.934-14.696-29.351-28.959-29.55C84.016,33.478,69.81,45.103,69.297,61.753
			C68.752,79.413,83.079,92.535,98.467,92.196z M118.047,162.459c2.728-12.381,4.06-24.362,3.526-36.548
			c-3.342,10.787-10.111,19.028-19.085,25.881C108.109,154.619,113.109,158.086,118.047,162.459z M40.44,185.08
			c-1.991-4.604-9.022-11.587-12.639-11.052C30.226,179.733,35.465,182.015,40.44,185.08z M42.339,88
			c-1.03-2.789-1.797-5.202-3.768-7.189C37.786,83.396,38.861,85.466,42.339,88z M178.168,182.177
			c0.204,3.064,0.408,6.128,0.612,9.191C180,188.174,179.593,185.1,178.168,182.177z M157.749,133.274
			c-0.863,1.791-2.003,3.503-1.93,6.035C157.429,137.317,157.52,135.273,157.749,133.274z"/>
		<path d="M84.761,69.858c0.881,0.061,2.044-0.94,2.479,0.306c0.45,1.29-0.896,1.532-1.73,1.944c-1.806,0.89-3.626,1.748-5.56,2.344
			c-0.934,0.288-1.672,0.279-2.147-0.759c-0.44-0.962-0.17-1.635,0.619-2.252c2.091-1.637,4.156-3.308,6.237-4.958
			c0.678-0.538,1.459-1.299,2.221-0.339c0.699,0.88-0.093,1.584-0.688,2.229C85.74,68.861,85.068,69.141,84.761,69.858z"/>
		<path d="M91.434,77.396c0.843-0.07,1.4,0.092,1.519,0.794c0.142,0.838-0.339,1.26-1.13,1.441c-2.203,0.503-4.462,0.465-6.692,0.69
			c-2.397,0.242-2.94,0.789-2.532,3.169c0.147,0.862,0.263,1.747-0.743,1.989c-1.165,0.28-1.212-0.839-1.413-1.556
			c-0.97-3.456,0.222-5.143,3.81-5.768C86.703,77.729,89.225,78.099,91.434,77.396z"/>
	</g>
	<g>
		<path d="M415.868,97.91c3.632,11.857,6.164,23.857,9.92,35.783c2.071-3.398,4.279-6.42,6.577-9.381
			c3.029-3.902,6.412-7.465,10.211-10.618c1.119-0.929,1.606-1.921,1.466-3.409c-0.304-3.224,0.265-6.328,1.771-9.224
			c0.596-1.146,1.343-2.159,2.613-2.66c1.88-0.741,3.541,0.317,3.645,2.33c0.139,2.695-0.946,5.07-1.962,7.459
			c-1.405,3.303-3.961,5.516-6.689,7.784c-7.005,5.825-12.459,12.996-16.739,21.042c-0.307,0.578-0.669,0.955-1.313,0.919
			c-0.958-0.053-1.178-0.859-1.377-1.57c-1.445-5.166-2.907-10.328-4.277-15.514c-1.884-7.132-3.691-14.284-5.586-21.64
			c-1.438,1.182-2.336,2.555-3.188,3.939c-7.143,11.595-12.458,23.941-15.086,37.353c-1.54,7.859-1.374,15.723,0.306,23.552
			c0.035,0.162,0.158,0.304,0.263,0.499c0.899,0.19,1.651-0.29,2.421-0.616c7.389-3.133,14.772-6.282,22.158-9.423
			c0.371-0.158,0.757-0.282,1.13-0.437c0.596-0.248,1.2-0.544,1.758,0.044c0.628,0.661,0.211,1.284-0.119,1.898
			c-2.772,5.153-5.049,10.525-7.046,16.019c-3.109,8.554-6.893,16.891-8.318,26.143c2.165-1.373,4.322-2.773,6.896-3.202
			c1.191-0.199,2.382-0.417,3.583-0.542c0.975-0.101,1.899,0.177,2.374,1.101c0.504,0.982,0.128,1.924-0.472,2.754
			c-0.731,1.011-1.745,1.746-2.869,2.184c-3.494,1.362-7.051,2.519-10.86,2.613c-1.091,0.027-1.654-0.2-1.687-1.541
			c-0.039-1.548,0.369-2.946,0.698-4.404c3.115-13.838,8.528-26.828,14.548-39.596c0.047-0.1,0.052-0.219,0.085-0.368
			c-0.563-0.249-0.956,0.19-1.382,0.373c-6.159,2.647-12.318,5.297-18.462,7.981c-5.938,2.594-12.084,2.618-18.332,1.6
			c-1.012-0.165-2.034-0.264-3.243-0.418c1.299,2.914,2.571,5.618,3.721,8.373c3.495,8.37,6.2,17.001,8.378,25.802
			c0.042,0.168,0.095,0.335,0.122,0.505c0.507,3.196-0.326,3.975-3.481,3.087c-9.388-2.642-18.904-4.718-28.487-6.497
			c-0.94-0.174-1.897-0.254-3.073-0.408c1.184,1.392,2.268,2.587,3.262,3.851c1.806,2.295,3.373,4.723,3.359,7.797
			c-0.011,2.34-1.367,3.269-3.545,2.432c-1.38-0.531-2.499-1.465-3.397-2.626c-2.648-3.424-4.018-7.388-4.692-11.603
			c-0.271-1.696,0.684-2.549,2.56-2.296c6.178,0.834,12.34,1.782,18.4,3.274c5.49,1.352,11.074,2.315,16.518,4.155
			c0.489-1.4-0.066-2.538-0.372-3.648c-3.057-11.089-6.583-22.014-11.47-32.458c-1.194-2.552-0.428-5.132,0.187-7.6
			c3.885-15.59,11.177-29.503,20.973-42.17c3.742-4.839,7.877-9.387,10.86-14.794c0.712-1.291,1.795-2.377,2.87-3.767
			c-4.954,1.161-9.442,2.915-13.913,4.721c-7.611,3.073-14.946,6.693-22,10.901c-5.392,3.217-5.792,3.653-5.285,9.855
			c0.385,4.714,0.534,9.461,1.358,14.129c0.691,3.914,1.469,7.816,2.672,11.617c0.538,1.699,0.859,3.455,1.351,5.171
			c0.587,2.05-0.717,2.976-3.198,3.989c-1.332,0.544-2.394-0.253-2.916-2.15c-0.884-3.21-0.46-6.328,1.282-9.137
			c0.536-0.865,0.143-1.482-0.007-2.086c-2.097-8.412-2.567-16.982-2.761-25.6c-0.052-2.306,0.79-3.822,2.59-5.087
			c5.119-3.597,10.567-6.63,16.214-9.274c6.633-3.105,13.323-6.109,20.4-8.12c0.204-0.058,0.372-0.239,0.605-0.395
			c-17.828-5.481-26.285-22.949-21.865-38.659c4.458-15.846,18.769-24.851,33.702-23.303c17.497,1.814,29.248,16.674,28.361,33.166
			C447.817,81.71,437.005,97.501,415.868,97.91z M416.997,95.438c14.589,0.408,29.317-11.503,29.328-29.027
			c0.012-18.089-14.956-29.414-29.19-29.491c-14.651-0.08-28.874,11.399-29.367,28.133C387.25,82.595,401.492,95.793,416.997,95.438
			z M400.493,117.479c-5.937,7.904-11.45,16.005-15.27,25.131c-2.563,6.123-4.789,12.365-6.149,18.865
			c-0.625,2.986-0.423,3.027,2.706,3.446c0.228,0.031,0.449,0.11,0.676,0.15c3.837,0.671,7.671,0.797,11.683-0.034
			C390.232,148.37,393.915,132.742,400.493,117.479z M353.8,198.074c1.247,4.548,2.176,9.273,6.968,11.617
			C360.831,204.372,356.874,201.479,353.8,198.074z M446.298,110.358c1.987-3.199,3.644-6.274,3.683-10.125
			C447.32,101.248,445.5,106.382,446.298,110.358z M419.069,196.683c-2.883-0.414-8.014,1.605-9.953,3.917
			C412.696,200.499,417.814,198.485,419.069,196.683z M372.43,156.247c0.798-0.149,1.813-0.462,1.63-1.068
			c-0.515-1.699-0.673-3.556-1.706-5.508C371.545,153.345,371.563,154.189,372.43,156.247z"/>
		<path d="M427.61,73.251c1.47-1.631,2.791-3.159,4.486-4.279c0.787-0.52,1.651-1.067,2.483-0.191
			c0.749,0.788,0.534,1.715-0.02,2.545c-1.618,2.425-3.553,4.545-6.129,5.978c-2.227,1.24-3.546,1.056-5.513-0.566
			c-1.571-1.296-2.576-2.915-3.033-4.898c-0.2-0.866-0.074-1.623,0.624-2.187c0.669-0.541,1.385-0.357,2.111-0.029
			C424.475,70.462,426.221,71.443,427.61,73.251z"/>
		<path d="M415.898,62.752c0.056-0.634,0.619-1.495,1.982-1.457c1.373,0.039,1.706,1.119,1.685,2.185
			c-0.019,0.989-0.343,2.097-1.663,1.976C416.752,65.35,415.788,64.807,415.898,62.752z"/>
		<path d="M436.756,62.637c0.04,1.196-0.354,1.962-1.418,1.968c-1.128,0.007-2.045-0.482-2.089-1.802
			c-0.038-1.128,0.508-1.994,1.651-2.034C436.16,60.726,436.636,61.691,436.756,62.637z"/>
	</g>
	<g>
		<path d="M548.385,86.722c1.337,7.546,1.01,14.961,1.675,22.322c1.52,16.816,7.371,32.434,12.791,48.182
			c1.332,3.87,2.919,7.652,4.425,11.46c0.372,0.939,0.426,1.727,0.135,2.785c-0.516,1.872-0.316,3.895-0.454,5.851
			c-0.508,7.202-1.677,14.323-2.42,21.493c-0.523,5.052-1.007,10.11-1.408,15.173c-0.424,5.356-0.729,10.721-1.081,16.082
			c-0.026,0.402-0.004,0.807-0.004,1.531c1.113-1.563,2.016-2.928,3.021-4.214c1.073-1.373,2.252-2.656,4.052-3.108
			c1.891-0.476,3.035,0.609,2.444,2.477c-0.964,3.042-3.289,5.107-5.507,7.219c-1.741,1.657-3.945,2.856-5.003,5.186
			c-0.23,0.506-0.759,0.725-1.332,0.559c-0.564-0.164-0.865-0.587-0.847-1.169c0.025-0.807,0.087-1.614,0.159-2.419
			c0.278-3.105,0.715-6.203,0.819-9.314c0.195-5.78,0.837-11.517,1.34-17.27c0.512-5.864,1.108-11.717,1.827-17.558
			c0.69-5.609,1.362-11.22,1.993-16.836c0.121-1.076,0.017-2.178,0.017-3.577c-10.733,0.508-21.104,3.166-31.77,5.072
			c1.041,2.579,2.094,5,3.004,7.474c4.297,11.674,7.087,23.744,9.401,35.939c1.205,6.347,2.857,12.601,3.905,18.981
			c0.118,0.718,0.276,1.39-0.373,1.899c-0.599,0.47-1.193,0.148-1.792-0.089c-4.565-1.807-9.14-3.607-13.119-6.564
			c-1.224-0.91-2.594-1.813-2.575-3.671c0.014-1.344,0.573-2.054,1.975-2.045c1.712,0.011,3.362,0.284,4.779,1.287
			c2.359,1.668,5.058,2.783,7.641,4.902c-0.549-2.573-1.012-4.774-1.49-6.972c-2.376-10.932-4.06-22.015-7.258-32.767
			c-1.661-5.586-3.374-11.153-5.655-16.518c-0.831-1.953-0.896-3.785-0.382-5.813c1.745-6.892,4.339-13.515,6.314-20.331
			c2.841-9.807,5.812-19.581,7.216-29.743c1.354-9.793,2.668-19.588,2.145-29.506c-0.106-2.001-0.284-4.01-0.354-6.116
			c-3.3-0.233-6.506-0.526-9.605-1.472c-7.357-2.248-13.113-6.596-17.472-12.944c-9.403-13.693-19.996-26.357-32.745-37.102
			c-2.112-1.78-4.241-3.551-6.703-4.875c-2.104-1.131-3.847-2.762-5.588-4.37c-0.501-0.463-0.96-1.031-1.263-1.638
			c-1.013-2.031-0.024-3.625,2.23-3.698c4.438-0.143,10.411,4.047,11.677,8.228c0.147,0.486,0.244,1.065,0.124,1.539
			c-0.388,1.525,0.345,2.465,1.432,3.362c9.657,7.97,17.792,17.365,25.419,27.233c0.232,0.3,0.348,0.752,0.971,0.812
			c-2.032-10.657,0.609-20.065,7.724-28.138c4.752-5.392,10.867-8.532,17.901-9.85c15.072-2.824,34.425,7.067,36.907,27.377
			c0.097-0.02,0.256-0.012,0.279-0.064c3.615-8.263,9.393-15.071,14.838-22.107c2.13-2.753,4.35-5.413,6.989-7.7
			c1.796-1.556,2.843-3.792,4.823-5.202c2.414-1.719,4.884-3.065,8.008-2.456c2.306,0.45,3.05,2.086,1.457,3.842
			c-2.912,3.209-6.673,4.901-10.984,5.178c-1.177,0.076-2.046,0.338-2.894,1.163c-4.336,4.223-7.59,9.324-11.432,13.945
			c-4.54,5.46-7.814,11.703-10.872,18.036c-0.802,1.66-0.502,3.844-0.905,5.767c-2.676,12.784-13.329,22.82-26.232,24.665
			C550.052,86.627,549.365,86.644,548.385,86.722z M546.115,84.553c14.583,0.399,29.307-11.537,29.298-29.057
			c-0.01-18.078-14.981-29.394-29.221-29.461c-14.665-0.069-28.948,11.494-29.341,28.338
			C516.447,71.714,530.556,84.914,546.115,84.553z M548.369,115.578c-1.756,20.414-8.976,39.423-15.028,59.023
			c10.555-2.07,20.81-4.408,31.373-5.126C558.074,151.844,551.491,134.268,548.369,115.578z M474.881,23.115
			c0.866,2.371,6.502,6.173,10.247,8.056C485.803,27.771,479.135,22.274,474.881,23.115z M612.714,16.262
			c-3.267-0.882-7.55,1.269-9.387,4.691C606.955,20.209,610.077,18.926,612.714,16.262z M544.287,236.697
			c-3.166-2.264-6.211-4.738-10.073-5.793C536.975,233.87,540.61,235.321,544.287,236.697z"/>
		<path d="M544.69,53.635c-2.008,0.112-4.224-0.349-6.205-1.717c-0.774-0.534-1.12-1.268-0.599-2.068
			c0.477-0.733,1.186-0.413,1.846-0.077c5.237,2.663,11.888,1.276,15.651-3.249c0.184-0.221,0.336-0.468,0.512-0.696
			c0.489-0.628,1.119-0.897,1.8-0.402c0.614,0.446,0.54,1.07,0.173,1.697c-0.589,1.008-1.317,1.898-2.197,2.654
			C552.618,52.4,549.092,53.735,544.69,53.635z"/>
		<path d="M530.134,42.416c-0.862-0.092-1.551-0.556-1.494-1.724c0.064-1.299,2.256-2.953,3.836-2.876
			c0.939,0.046,1.723,0.341,1.715,1.487C534.182,40.646,531.902,42.475,530.134,42.416z"/>
		<path d="M556.568,34.084c1.638-0.039,2.604,0.367,2.609,1.656c0.006,1.439-1.01,1.904-2.329,1.888
			c-1.3-0.016-2.438-0.507-2.387-1.877C554.515,34.328,555.827,34.118,556.568,34.084z"/>
	</g>
</g>
</svg>
