<svg width="67" height="67" viewBox="0 0 67 67" fill="none" xmlns="http://www.w3.org/2000/svg">
<path d="M1.73633 1.45766C3.04634 1.45766 4.34326 1.34196 5.65091 1.34196C7.21717 1.34196 8.78343 1.34196 10.3497 1.34196C11.3482 1.34196 12.3466 1.34196 13.3451 1.34196C14.3672 1.34196 15.3783 1.44244 16.3983 1.45766C17.2889 1.47095 18.2043 1.50821 19.0916 1.58622C20.1262 1.67717 21.1799 1.52971 22.2091 1.64407C23.2987 1.76513 24.4062 1.65867 25.5002 1.68906C26.868 1.72706 28.2266 1.80477 29.6012 1.80477C33.0943 1.80477 36.5862 1.68906 40.0786 1.68906C43.3679 1.68906 46.6595 1.42402 49.9519 1.39981C51.9139 1.38538 53.8647 1.22626 55.8269 1.22626" stroke="white" stroke-linecap="round"/>
<path d="M56.29 1.16842C58.9923 1.16842 61.6959 1.11057 64.3956 1.11057C64.7348 1.11057 64.9836 1.09489 65.2891 1.02701C65.7417 0.926428 65.6732 1.11298 65.8065 1.48339C65.8764 1.67757 65.8863 1.84625 65.8933 2.04904C65.9104 2.54462 66.1247 3.01735 66.1247 3.5146C66.1247 4.00438 65.9596 4.44387 65.9511 4.92873C65.9416 5.47406 66.009 6.01077 66.009 6.55498C66.009 7.37209 65.9334 8.2334 66.0218 9.049C66.2962 11.5787 66.0668 14.1726 66.0668 16.711C66.0668 19.1203 65.928 21.5978 66.2275 23.9938C66.3024 24.5925 66.2068 25.2169 66.1858 25.8161C66.1612 26.5161 66.1852 27.2225 66.2083 27.9213C66.2864 30.2901 66.3561 32.6415 66.3561 35.0112" stroke="white" stroke-linecap="round"/>
<path d="M66.1826 34.9534C66.1826 36.028 66.3562 37.0713 66.3562 38.1416C66.3562 39.1321 66.2405 40.1104 66.2405 41.0984C66.2405 42.8425 66.2405 44.5866 66.2405 46.3307C66.2405 47.3091 66.2983 48.2838 66.2983 49.2618C66.2983 49.9927 66.3353 50.6941 66.2726 51.428C66.2306 51.9197 66.2285 52.4198 66.2533 52.9129C66.3399 54.6336 66.3562 56.3461 66.3562 58.068C66.3562 58.8297 66.3562 59.5914 66.3562 60.3531C66.3562 61.1508 66.2843 62.0011 66.414 62.7797" stroke="white" stroke-linecap="round"/>
<path d="M27.0176 66.135C27.2309 66.3246 27.8583 66.1595 28.0975 66.1221C28.916 65.9942 29.6865 65.9614 30.5143 65.9614C31.3264 65.9614 32.1385 65.9614 32.9505 65.9614C33.2904 65.9614 33.6198 66.0193 33.9533 66.0193C34.4374 66.0193 34.916 65.9614 35.3995 65.9614C37.8804 65.9614 40.3362 66.1929 42.8173 66.1929C45.4206 66.1929 48.0239 66.1929 50.6272 66.1929C52.3306 66.1929 54.034 66.1929 55.7373 66.1929C57.2879 66.1929 58.8803 66.2681 60.4297 66.1671C61.5779 66.0924 62.6554 65.9151 63.8043 65.9036C64.503 65.8966 65.1956 65.9614 65.8934 65.9614C66.5433 65.9614 66.3746 65.2008 66.2534 64.7916C66.1555 64.4614 66.2405 63.992 66.2405 63.6474C66.2405 62.9891 66.1827 62.335 66.1827 61.6805" stroke="white" stroke-linecap="round"/>
<path d="M26.7278 66.135C25.9173 66.135 25.1594 66.0909 24.356 65.9743C23.4495 65.8427 22.4618 65.9614 21.547 65.9614C20.7083 65.9614 19.9149 66.0147 19.0915 66.1221C18.2598 66.2306 17.3949 66.3198 16.5525 66.3086C15.4022 66.2932 14.2451 66.0771 13.0879 66.0771C11.8018 66.0771 10.5204 65.9614 9.23115 65.9614C7.55068 65.9614 5.87776 66.0771 4.19812 66.0771C3.21909 66.0771 2.25005 66.1929 1.27344 66.1929" stroke="white" stroke-linecap="round"/>
<path d="M1.33129 56.9367C1.33129 57.5269 1.38914 58.1309 1.38914 58.7301C1.38914 59.135 1.38914 59.54 1.38914 59.945C1.38914 60.4973 1.27344 61.0345 1.27344 61.5905C1.27344 63.0475 1.27344 64.5045 1.27344 65.9614" stroke="white" stroke-linecap="round"/>
<path d="M1.1582 1.4577C1.1582 1.82604 1.26455 2.19201 1.2739 2.55687C1.28858 3.12937 1.33176 3.69569 1.33176 4.27311C1.33176 5.65936 1.2739 7.0423 1.2739 8.42552C1.2739 11.348 1.21605 14.2679 1.21605 17.1932" stroke="white" stroke-linecap="round"/>
<path d="M1.04245 17.1353C1.33772 18.1948 1.27386 19.3738 1.27386 20.4681C1.27386 21.842 1.14596 23.2065 1.07138 24.5787C1.01966 25.5303 1.04245 26.4864 1.04245 27.4391C1.04245 29.0786 0.871399 30.8568 1.21601 32.4722C1.38016 33.2416 1.27386 34.1242 1.27386 34.9083C1.27386 35.9281 1.33171 36.9427 1.33171 37.9616" stroke="white" stroke-linecap="round"/>
<path d="M1.04199 38.193C1.0692 38.7099 1.15769 39.205 1.15769 39.7293C1.15769 40.4331 1.15769 41.137 1.15769 41.8408C1.15769 43.6882 1.2734 45.525 1.2734 47.372C1.2734 49.2206 1.09276 51.0558 1.30232 52.9C1.47087 54.3832 1.33125 55.9049 1.33125 57.3995" stroke="white" stroke-linecap="round"/>
<rect x="1" y="1" width="65" height="65" fill="black"/>
<path d="M37.0654 31.0479C37.0788 30.9409 37.2779 30.8151 37.3442 30.7298C37.4699 30.5682 37.5496 30.3783 37.6741 30.2154C38.0473 29.7274 38.6448 29.4276 38.9464 28.8764C39.0885 28.6166 39.301 28.3633 39.5197 28.1676C39.7754 27.9388 39.9123 27.5776 40.1754 27.3646C40.2801 27.2799 40.3174 27.1287 40.411 27.0308C40.6056 26.8274 40.8105 26.6271 40.9922 26.4124C41.2158 26.1481 41.3716 25.8377 41.6362 25.6015C41.9387 25.3314 42.2197 25.0401 42.4824 24.7337C42.8282 24.3303 43.2817 24.0402 43.6035 23.6185C43.8967 23.2343 44.3066 22.946 44.5872 22.5563C44.9978 21.986 45.5146 21.466 45.9753 20.9365C46.3064 20.5559 46.5314 20.0967 46.902 19.7466C47.2333 19.4337 47.5789 19.1152 47.8719 18.765C48.1649 18.4148 48.4493 18.0547 48.7476 17.7067C48.9299 17.494 49.1265 17.2998 49.3189 17.0961C49.4918 16.913 49.7049 16.7506 49.8589 16.5581" stroke="white" stroke-linecap="round"/>
<path d="M35.4395 28.2206C35.4564 28.0509 35.6514 27.917 35.7222 27.7691C35.8122 27.5808 35.9837 27.4753 36.0874 27.3057C36.2742 27 36.6061 26.7287 36.8472 26.4575C37.136 26.1326 37.4939 25.8247 37.7366 25.4641C38.027 25.0326 38.3161 24.6093 38.6241 24.1878C38.7058 24.0761 38.8299 24.0018 38.9225 23.8973C38.9926 23.8181 39.05 23.7225 39.1306 23.6538C39.3009 23.5086 39.4608 23.3136 39.6117 23.1453C40.0157 22.6947 40.521 22.3299 40.8643 21.8239C41.2533 21.2506 41.7715 20.806 42.1876 20.2552C42.4948 19.8486 42.84 19.5124 43.1988 19.1537C43.4134 18.939 43.74 18.7551 43.9017 18.4999C44.0688 18.2361 44.2987 17.9925 44.5142 17.7676C44.6736 17.6013 44.8071 17.3942 44.9599 17.2178C45.1367 17.0139 45.2724 16.7843 45.4606 16.5935C45.8781 16.17 46.3297 15.7841 46.7289 15.3428C46.829 15.2322 46.9256 15.118 47.0274 15.009C47.105 14.9259 47.1568 14.8034 47.2551 14.744C47.3333 14.6967 47.4596 14.7213 47.5457 14.7204C47.7486 14.7183 47.948 14.685 48.1504 14.685C48.8697 14.685 49.6057 14.5794 50.318 14.7047C50.5414 14.744 50.7827 14.7911 51.0091 14.7911C51.0733 14.7911 51.1374 14.7911 51.2015 14.7911C51.3401 14.7911 51.2457 14.8511 51.2015 14.9324C51.0434 15.2238 50.8411 15.4704 50.6636 15.7531C50.5522 15.9304 50.4304 16.1026 50.3494 16.295C50.2842 16.45 50.106 16.5686 50.106 16.7348" stroke="white" stroke-linecap="round"/>
<path d="M26.498 15.3212C26.5694 15.4005 26.6456 15.5442 26.6944 15.6392C26.8023 15.8494 26.9607 15.9983 27.0831 16.1968C27.3357 16.6064 27.6557 16.9735 27.9254 17.3709C28.6344 18.4157 29.2471 19.5178 29.989 20.5438C30.4612 21.1969 30.8788 21.8917 31.3751 22.5307C31.9215 23.2344 32.4387 23.958 32.9812 24.6649C33.551 25.4075 33.9677 26.2623 34.5794 26.9719C34.8747 27.3145 35.1596 27.6774 35.404 28.0439" stroke="white" stroke-linecap="round"/>
<path d="M15.2949 15.2505C16.0238 15.2505 16.7482 15.1534 17.4743 15.1445C17.9281 15.1389 18.3728 15.0738 18.831 15.0738C19.3519 15.0738 19.8747 15.0385 20.3978 15.0385C20.8212 15.0385 21.2446 15.0385 21.6681 15.0385C22.2663 15.0385 22.8525 15.1798 23.4489 15.1798C24.3968 15.1798 25.3372 15.1091 26.286 15.1091" stroke="white" stroke-linecap="round"/>
<path d="M15.2949 15.6039C15.3796 15.6378 15.4484 15.7928 15.4952 15.867C15.6157 16.0581 15.7375 16.2529 15.88 16.4285C15.9955 16.5708 16.1647 16.6646 16.2727 16.8094C16.4097 16.9932 16.5295 17.1894 16.6713 17.369C16.8673 17.6173 17.023 17.9365 17.2583 18.1504C17.3874 18.2677 17.5028 18.4326 17.6078 18.5725C17.7374 18.7454 17.893 18.9135 18.0083 19.0948C18.2642 19.4969 18.5089 19.8856 18.7937 20.2689C19.1027 20.6848 19.4597 21.0989 19.6968 21.5608C19.8401 21.8398 20.0277 22.094 20.1739 22.3736C20.3236 22.6598 20.491 22.939 20.6726 23.2061C20.8134 23.413 20.9726 23.6095 21.1262 23.8069C21.3349 24.0752 21.4812 24.3859 21.6995 24.6512C22.0549 25.0832 22.3516 25.6096 22.6655 26.0766C22.9952 26.5671 23.3551 27.0341 23.6923 27.5197C24.1008 28.1079 24.553 28.6696 24.9253 29.2828C25.2553 29.8263 25.6136 30.3565 25.9758 30.879C26.365 31.4408 26.684 32.0605 27.1145 32.5911C27.2719 32.7851 27.4502 32.9663 27.6014 33.1644C27.7387 33.3443 27.9287 33.5143 28.0334 33.7142C28.225 34.08 28.5225 34.4144 28.7971 34.7234C29.0318 34.9873 29.2374 35.2687 29.4667 35.5362" stroke="white" stroke-linecap="round"/>
<path d="M29.2197 35.4655C29.1832 35.6666 28.8493 35.9187 28.7093 36.0663C28.5102 36.2761 28.3172 36.5066 28.1438 36.7378C28.0022 36.9266 27.7429 37.1261 27.649 37.3406C27.5291 37.6146 27.2426 37.9106 27.0443 38.1357C26.8202 38.3901 26.6461 38.7163 26.4514 38.9957C26.1563 39.419 25.8543 39.8261 25.5423 40.2365C25.1601 40.7394 24.7411 41.2205 24.3152 41.6855C23.8807 42.16 23.3892 42.6426 23.0586 43.1993C22.8354 43.5752 22.5304 43.8876 22.289 44.2497C21.9691 44.7295 21.5884 45.1763 21.2445 45.6398C20.5242 46.6103 19.5784 47.3953 18.8315 48.3434C18.3278 48.9827 17.6981 49.5024 17.1802 50.1281C16.8578 50.5177 16.5408 50.9065 16.281 51.3395C16.0864 51.6638 15.8823 51.883 15.5781 52.1111" stroke="white" stroke-linecap="round"/>
<path d="M15.6133 52.3939C16.8638 52.3939 18.1189 52.4006 19.3594 52.2878" stroke="white" stroke-linecap="round"/>
<path d="M19.4648 52.3232C19.4735 52.237 19.5341 52.2185 19.5885 52.1641C19.6497 52.1029 19.6918 51.9954 19.7495 51.9521C19.9203 51.824 20.0035 51.4896 20.1128 51.3061C20.5042 50.6486 21.0445 50.0815 21.5225 49.4802C21.6368 49.3364 21.7754 49.1997 21.9053 49.0698C21.9822 48.993 22.2218 48.8568 22.2568 48.7518C22.2956 48.6353 22.441 48.5193 22.5238 48.4317C22.6457 48.3028 22.7869 48.153 22.8929 48.0116C23.1301 47.6953 23.428 47.3704 23.7077 47.0907C24.017 46.7814 24.2518 46.3964 24.5108 46.0482C24.7623 45.7098 25.0922 45.4262 25.3314 45.0783C25.5701 44.7312 25.9111 44.4865 26.1796 44.1672C26.4386 43.8593 26.7205 43.5547 26.9532 43.2268C27.2332 42.8322 27.6026 42.5277 27.9035 42.1528C28.5331 41.3684 29.1852 40.6237 29.8983 39.9106C30.1013 39.7076 30.2589 39.4382 30.4696 39.2509C30.5897 39.1442 30.7001 39.0239 30.7818 38.8877C30.8892 38.7088 31.0711 38.5821 31.1627 38.3988" stroke="white" stroke-linecap="round"/>
<path d="M31.1631 38.3988C31.5499 38.7534 31.8359 39.1465 32.1448 39.5651C32.4129 39.9284 32.7634 40.2289 33.0342 40.5899C33.9615 41.8264 34.8003 43.1077 35.6475 44.397C36.1491 45.1604 36.6622 45.894 37.2123 46.6234C37.8738 47.5006 38.5354 48.3708 39.107 49.3113C39.4985 49.9556 39.9333 50.5768 40.3027 51.2335C40.5431 51.661 40.7349 52.1299 41.0586 52.4999" stroke="white" stroke-linecap="round"/>
<path d="M41.2002 52.4645C41.763 52.4645 42.3396 52.3897 42.8926 52.2878C43.4421 52.1866 43.9899 52.2152 44.5497 52.2172C45.2411 52.2196 45.9332 52.2629 46.6231 52.3055C47.5834 52.3648 48.5511 52.3939 49.5132 52.3939C50.4565 52.3939 51.39 52.2878 52.3326 52.2878" stroke="white" stroke-linecap="round"/>
<path d="M45.0166 42.145C45.3088 42.4956 45.5364 42.907 45.7941 43.2837C45.9439 43.5027 46.1365 43.6849 46.2889 43.9042C46.5054 44.2157 46.73 44.5208 46.9446 44.8348C47.4096 45.5151 48.081 46.0418 48.5586 46.7197C48.8198 47.0904 49.1007 47.4454 49.3557 47.8192C50.3606 49.2919 51.4607 50.7097 52.4029 52.2171" stroke="white" stroke-linecap="round"/>
<path d="M37.1006 31.1539C37.2817 31.2198 37.4673 31.549 37.5836 31.6939C37.8333 32.0049 38.0473 32.3566 38.3238 32.6441C38.5589 32.8886 38.7644 33.1857 38.954 33.4668C39.1304 33.7283 39.349 33.959 39.5391 34.2109C40.2895 35.2052 41.1248 36.1503 41.797 37.2012C41.9819 37.4902 42.2096 37.7401 42.3801 38.0395C42.5227 38.29 42.6869 38.5279 42.8435 38.7699C43.1163 39.1915 43.3708 39.6298 43.6563 40.0422C44.1807 40.7996 44.7126 41.5507 45.2644 42.2863" stroke="white" stroke-linecap="round"/>
<path d="M20.7373 18.2898C21.2936 18.2898 21.852 18.1485 22.418 18.1485C22.6928 18.1485 22.9677 18.1485 23.2426 18.1485C23.4895 18.1485 23.7208 18.0874 23.9651 18.0797C24.3567 18.0675 24.707 18.1013 25.0842 18.1485" stroke="white" stroke-linecap="round"/>
<path d="M25.1553 18.6785C25.3538 18.7006 25.5399 19.1997 25.6324 19.352C25.8794 19.7589 26.1416 20.1649 26.4079 20.5595C26.7804 21.1113 27.1991 21.6135 27.6291 22.1203C27.7893 22.3091 27.8943 22.5212 28.014 22.7388C28.1442 22.9757 28.3188 23.1788 28.4577 23.4103C28.7449 23.889 29.0689 24.3572 29.3766 24.8239C29.5337 25.0623 29.6551 25.3171 29.8183 25.5524C29.8959 25.6641 29.9493 25.783 30.0166 25.8999C30.0939 26.0341 30.2211 26.1385 30.3072 26.269C30.7431 26.9299 31.267 27.5389 31.7287 28.1853" stroke="white" stroke-linecap="round"/>
<path d="M31.7285 28.5034C32.0591 28.7697 32.2472 29.1492 32.4864 29.4909C32.7488 29.8658 33.0567 30.2051 33.3346 30.5688C33.9695 31.4 34.5778 32.2649 35.1566 33.133" stroke="white" stroke-linecap="round"/>
<path d="M35.4043 33.3804C35.4293 33.5054 35.5735 33.6095 35.6438 33.7064C35.827 33.9587 36.0351 34.1871 36.2171 34.4407C36.4294 34.7364 36.642 35.0492 36.8179 35.3674C37.0573 35.8002 37.3757 36.1509 37.674 36.5415C38.1688 37.1894 38.5947 37.8538 39.0444 38.5324C39.7155 39.5449 40.4612 40.5076 41.1295 41.5206C41.6413 42.2964 42.2061 43.0115 42.7552 43.7589C43.2898 44.4866 43.7638 45.2477 44.3495 45.9383C44.8891 46.5745 45.3263 47.293 45.8731 47.9252C46.0843 48.1694 46.2854 48.4206 46.4935 48.6674C46.6075 48.8025 46.6809 48.961 46.8194 49.0718" stroke="white" stroke-linecap="round"/>
<path d="M30.5977 32.1435C30.7555 32.213 30.9485 32.4808 31.0296 32.6343C31.0792 32.7282 31.135 32.8134 31.1867 32.9053C31.3091 33.1229 31.3872 33.3988 31.5401 33.5944C31.801 33.9284 31.978 34.3251 32.2175 34.6763C32.4879 35.0729 32.7492 35.4773 33.0519 35.8504C33.4197 36.3037 33.733 36.8023 34.0964 37.2601C34.2837 37.496 34.4938 37.7122 34.6815 37.9473C34.8567 38.1667 34.9882 38.4147 35.1625 38.6345C35.7949 39.4313 36.2438 40.338 36.8098 41.179C37.4654 42.1532 38.0598 43.1656 38.7614 44.1084C39.2662 44.7867 39.7386 45.4991 40.2104 46.2014C40.675 46.8928 41.2346 47.5036 41.7261 48.1706C41.8936 48.3979 42.0155 48.6396 42.2072 48.848C42.3026 48.9517 42.4292 49.1196 42.4722 49.2485" stroke="white" stroke-linecap="round"/>
<path d="M42.2598 49.3899H47.2428" stroke="white" stroke-linecap="round"/>
<path d="M20.7021 18.2898C20.7268 18.4254 20.8806 18.4968 20.9633 18.5922C21.0212 18.659 21.0279 18.753 21.0929 18.8179C21.1928 18.9179 21.2763 19.0234 21.3697 19.1301C21.5216 19.3037 21.708 19.4421 21.8488 19.6288C22.0994 19.9614 22.3615 20.2659 22.642 20.5752C23.5849 21.6149 24.435 22.7145 25.2258 23.8737C25.5201 24.305 25.8487 24.7055 26.1564 25.1263C26.4663 25.55 26.7478 25.992 27.0792 26.4006C27.3646 26.7523 27.5559 27.1726 27.8057 27.5491C28.0737 27.9532 28.3602 28.3482 28.6107 28.7625C28.8217 29.1114 29.0557 29.4423 29.2723 29.7874C29.3822 29.9624 29.5513 30.0871 29.6532 30.2684C29.7442 30.4301 29.8072 30.6004 29.9065 30.7593C30.1707 31.182 30.5155 31.5551 30.739 32.0021" stroke="white" stroke-linecap="round"/>
<path d="M23.3435 45.9205C22.8335 46.1441 22.422 46.3965 22.0084 46.7608C21.7231 47.0121 21.6025 47.3435 21.3409 47.605C21.1663 47.7796 20.9395 47.8805 20.8166 48.0939C20.6676 48.3529 20.4898 48.623 20.261 48.8184C19.8199 49.1952 19.3473 49.3753 19.0182 49.8786C18.9008 50.0581 18.7991 50.2419 18.651 50.4009C18.4722 50.5929 18.3273 50.648 18.0718 50.7386C17.8588 50.8142 17.6632 50.9531 17.4926 51.1156C17.3589 51.243 17.6622 51.1386 17.7008 51.1313C17.9476 51.0847 18.2637 50.9866 18.4822 50.8643C18.6166 50.789 18.7475 50.672 18.8729 50.5835C19.0637 50.4488 19.3272 50.432 19.4835 50.2478C19.5857 50.1273 19.6551 50.0022 19.7387 49.8649C19.8134 49.7423 19.7875 49.8618 19.7662 49.9297C19.7067 50.1197 19.5897 50.2768 19.5071 50.4559C19.3388 50.8204 19.1335 51.0922 18.8199 51.361C18.7195 51.4471 18.471 51.4217 18.3467 51.4317C18.1437 51.4479 17.9376 51.4402 17.7361 51.4768C17.6825 51.4866 17.0467 51.759 17.0411 51.7439C17.0027 51.6416 17.3474 51.4232 17.4023 51.3787C17.7254 51.1168 18.0625 50.8799 18.3997 50.6365C18.9241 50.2581 19.3935 49.8736 19.8389 49.4015C20.4011 48.8055 20.6966 48.0372 21.2977 47.4794C21.7247 47.0831 22.151 46.7506 22.5071 46.2798C22.6585 46.0796 22.832 45.885 22.9548 45.6652C23.0624 45.4726 23.1265 45.2668 23.2532 45.0841C23.4224 44.8399 23.5561 44.5912 23.7676 44.3851C24.0291 44.1303 24.3191 43.904 24.5883 43.6547C24.8896 43.3758 25.1724 43.1234 25.4483 42.8183C25.4644 42.8005 25.626 42.5673 25.6564 42.6455C25.7108 42.7853 25.6707 43.0328 25.6132 43.1658C25.4827 43.4682 25.2388 43.7382 25.0772 44.0277C24.9111 44.3253 24.6942 44.5921 24.4901 44.8642C24.4065 44.9757 24.2939 45.0872 24.2349 45.2136C24.1141 45.4725 24.3983 44.6639 24.4391 44.3812C24.5195 43.8243 24.6643 43.2825 24.7925 42.7358C24.8582 42.4558 24.9077 42.158 25.0772 41.925C25.2168 41.7329 25.4586 41.5538 25.6446 41.4086C26.0565 41.0871 26.4012 40.7722 26.7402 40.368C26.975 40.088 27.1741 39.7618 27.394 39.4668C27.4138 39.4403 27.6466 39.0972 27.6905 39.1311C27.7915 39.2091 27.7455 39.5615 27.7396 39.6592C27.7165 40.0378 27.5823 40.4322 27.4274 40.7764C27.3414 40.9674 27.2476 41.0479 27.0897 41.1926C26.7405 41.5127 26.4535 41.9693 26.1846 42.3569C26.1058 42.4704 26.0689 42.6002 25.9863 42.7123C25.9238 42.7971 25.7889 43.0241 25.9077 42.7712C26.3954 41.7331 27.0732 40.7584 27.7533 39.8379C28.2491 39.1668 28.8845 38.6427 29.273 37.898C29.323 37.8021 29.4065 37.6351 29.4065 37.525C29.4065 37.3833 28.9712 37.6308 28.9235 37.6958C28.6934 38.0096 28.5307 38.3679 28.4032 38.7345C28.2621 39.14 28.7664 38.7104 28.9038 38.6206C29.1453 38.4628 29.3884 38.3642 29.3201 38.8051C29.2782 39.0757 29.097 39.2858 28.9274 39.4884C28.6958 39.765 28.4724 40.0471 28.252 40.3327C28.2438 40.3433 28.0564 40.6244 28.1244 40.4544C28.2774 40.0719 28.4558 39.7049 28.6604 39.347C29.0497 38.6663 29.5162 38.0305 29.8463 37.3189C30.0384 36.9047 30.2764 36.5326 30.4039 36.0917C30.5215 35.6851 30.1686 36.3471 30.1153 36.4373C30.0004 36.6317 29.8657 36.8184 29.7049 36.9792C29.4843 37.1998 29.2335 37.3399 29.0688 37.6192C28.9377 37.8415 28.7195 38.4392 29.2023 38.1847C29.7404 37.901 30.151 37.4538 30.7573 37.313C30.8754 37.2855 31.051 37.2161 31.0636 37.3836C31.0768 37.5599 31.0493 37.7408 30.9497 37.8902C30.6793 38.2959 30.5899 37.7016 30.5786 37.4877C30.5441 36.8311 31.0078 36.0768 30.7573 35.4163C30.7336 35.354 30.2569 34.9021 30.2527 34.9058C30.0614 35.0759 30.2697 35.3742 30.4824 35.3456C30.5854 35.3318 30.6629 35.3051 30.7318 35.2259C30.7685 35.1836 30.8494 35.0519 30.9222 35.0727C30.9648 35.0849 31.0299 35.1986 31.0557 35.2278C31.1638 35.3503 31.2829 35.4557 31.4013 35.5675C31.6686 35.82 31.8869 36.0973 31.8018 36.4923C31.7633 36.6709 31.4036 37.3121 31.1892 37.042C31.0324 36.8444 30.9459 36.3437 31.2599 36.239C31.4973 36.1599 31.6024 36.3356 31.792 36.4471C31.9778 36.5564 32.1695 36.6508 32.3555 36.7593C32.4578 36.819 32.5829 37.021 32.652 37.1166C32.7546 37.2587 32.8619 37.3912 32.9838 37.5172C33.3011 37.8451 33.5024 38.2668 33.828 38.5793C34.0264 38.7698 34.1828 39.0167 34.3699 39.2214C34.5919 39.4642 34.7283 39.6858 34.7233 40.0224C34.7191 40.3094 34.2939 40.0784 34.1697 39.9949C33.7715 39.7273 33.4251 39.3973 33.0643 39.0839C32.745 38.8067 32.4612 38.4858 32.1277 38.2279C31.9637 38.101 31.8023 37.9693 31.6585 37.8195C31.5018 37.6563 31.8795 38.0857 31.8803 38.0865C32.4495 38.6279 33.0881 39.0526 33.563 39.6887C33.9073 40.1498 34.2413 40.6115 34.5113 41.1219C34.7783 41.6268 35.028 42.0959 35.3575 42.5611C35.5197 42.7901 35.6582 43.0725 35.8464 43.2777C35.8923 43.3278 35.7832 43.1575 35.7521 43.0971C35.5779 42.7576 35.4364 42.4034 35.2966 42.0487C35.1746 41.7387 35.0553 41.5952 34.8451 41.3575C34.7038 41.1978 34.5521 41.0489 34.4013 40.8981C34.3991 40.8958 34.1399 40.6366 34.1657 40.6272C34.2355 40.6018 34.4461 40.9443 34.5486 40.9904C34.6758 41.0476 34.7636 41.1141 34.9059 41.1141C35.1652 41.1141 35.3289 41.1063 35.548 41.2672C35.839 41.481 36.025 41.9271 36.1841 42.2332C36.3513 42.5549 36.5686 42.853 36.7888 43.1383C37.2624 43.7518 37.7215 44.3777 38.1573 45.0173C38.1577 45.0179 38.8283 45.8754 38.6658 45.9322C38.5975 45.9561 38.3787 45.7002 38.332 45.6593C38.1384 45.4899 37.983 45.3026 37.8333 45.0939C37.5766 44.7358 37.2037 44.4982 36.9105 44.177C36.6097 43.8473 36.3071 43.5212 36.0113 43.1874C35.9953 43.1693 35.8095 42.9457 35.8719 43.0735C36.1101 43.5618 36.4121 44.007 36.7103 44.4597C37.3023 45.3584 37.9684 46.2059 38.5402 47.1181C38.7857 47.5099 39.0247 47.938 39.2313 48.3511C39.4191 48.7268 39.6908 49.0687 39.9322 49.4114C39.991 49.4949 40.066 49.6332 40.158 49.6862C40.1816 49.6998 40.1302 49.1537 40.1226 49.1051C40.0473 48.6205 39.8544 48.0712 39.6181 47.6423C39.4178 47.2788 39.0877 46.992 38.8327 46.6685C38.5779 46.3453 38.3273 46.0183 38.0807 45.6888C37.8481 45.3778 38.1336 45.8403 38.1828 45.9087C38.5373 46.4013 38.8621 46.9486 39.2627 47.4048C39.4647 47.6348 39.6868 47.8445 39.8851 48.0782C40.0535 48.2767 40.2258 48.4923 40.4466 48.6358C40.6243 48.7513 40.778 48.856 40.9512 48.9892C41.1926 49.1749 41.5042 49.5537 41.5795 49.8512C41.6084 49.9653 41.6221 50.0792 41.5932 50.1948C41.5371 50.4194 41.3619 50.2266 41.2732 50.126C40.9943 49.8099 40.765 49.4578 40.5193 49.1169C40.2982 48.8101 40.4002 49.4156 40.425 49.5135C40.572 50.0922 40.8817 50.5219 41.2221 50.9899C41.4061 51.2428 41.9773 50.805 42.0743 50.6208C42.1667 50.4451 42.2415 49.9631 42.4787 49.9179C42.6657 49.8823 42.7862 49.9936 42.9303 50.0966C43.1451 50.25 43.5516 50.4528 43.2366 50.7425C43.0295 50.9331 42.7437 51.0777 42.4767 51.1666C42.2501 51.2422 42.083 51.195 41.9329 51.0449" stroke="white" stroke-width="2" stroke-linecap="round"/>
<path d="M43.0283 50.4795C43.5333 50.4795 44.0326 50.4849 44.5362 50.5129C44.715 50.5228 44.8903 50.4908 45.0683 50.4814C45.3518 50.4665 45.6376 50.4995 45.9204 50.5148C45.9596 50.5169 46.4133 50.5049 46.3268 50.6071C46.1868 50.7725 45.9746 50.8431 45.7869 50.9369C45.4982 51.0813 45.0829 51.0096 44.7659 51.0096C44.4149 51.0096 44.1234 51.055 43.7882 51.147C43.76 51.1548 43.4854 51.1918 43.6861 51.202C44.0932 51.2227 44.5055 51.1581 44.9092 51.1176C45.8036 51.0277 46.6961 51.0281 47.5912 50.9428C48.0016 50.9038 48.2941 50.6084 48.2941 50.1791C48.2941 50.055 47.915 50.3595 47.8445 50.4049C47.7363 50.4745 47.1287 50.7841 47.2398 50.9428C47.4559 51.2516 47.9679 51.2815 48.2981 51.308C48.6551 51.3368 49.0118 51.2542 49.3092 51.0449C49.6595 50.7984 49.6861 50.2407 49.533 49.8708C49.3833 49.509 48.753 49.4883 48.4551 49.6175C48.2116 49.7232 47.9853 50.0211 48.0919 50.3008C48.2121 50.6164 48.58 50.8449 48.8792 50.9527C49.1949 51.0663 49.6686 51.2303 49.9905 51.0233C50.2919 50.8296 50.2307 51.005 50.4146 51.202C50.5132 51.3077 50.5716 51.4084 50.6934 51.4867C50.8186 51.5672 50.6014 51.2311 50.5775 51.1941C50.2817 50.7364 49.83 50.3948 49.4349 50.0279C49.1187 49.7343 48.8249 49.4209 48.5572 49.0815C48.4532 48.9497 48.3314 48.8331 48.2234 48.7046C48.0604 48.5105 48.0504 49.2147 48.0703 49.2818C48.1891 49.6834 48.532 49.9983 48.781 50.3185C48.9856 50.5815 49.137 50.8704 49.4015 51.0842C49.4875 51.1538 49.6608 51.1156 49.7627 51.1156C49.9394 51.1156 50.1116 51.1466 50.285 51.1784C50.3012 51.1814 50.7523 51.459 50.7523 51.3905C50.7523 51.337 50.5937 51.1934 50.5677 51.1627C50.436 51.0072 50.306 50.8487 50.1672 50.6994C49.9881 50.5066 49.7689 50.3931 49.6292 50.1653C49.2805 49.5966 48.7672 49.1244 48.4355 48.5514C48.3001 48.3175 48.0332 48.159 47.8504 47.9663C47.7334 47.8431 47.6481 47.6993 47.5245 47.5737C47.3894 47.4364 47.2274 47.257 47.1357 47.0867C47.0141 46.8609 46.9025 46.6365 46.747 46.431C46.5123 46.1209 46.2771 45.8678 45.9813 45.6142C45.5806 45.2708 45.2811 44.7901 44.9289 44.4008C44.6829 44.1289 44.7493 44.5096 44.7679 44.6993C44.797 44.997 44.9024 45.2546 45.0506 45.5121C45.4249 46.1625 45.9052 46.7417 46.2758 47.397C46.3222 47.479 46.4366 47.7143 46.4485 47.6208C46.4802 47.3729 46.3339 47.0251 46.2718 46.7962C46.1104 46.2006 45.9172 45.5815 45.5493 45.0762C45.0025 44.3252 44.2336 43.7269 43.7705 42.9165" stroke="white" stroke-width="2" stroke-linecap="round"/>
<path d="M43.2399 41.9976C42.7248 41.0181 42.1169 40.0754 41.3648 39.2606C41.3077 39.1987 40.864 38.8027 40.8681 38.8405C40.9166 39.2933 41.2402 39.8161 41.4689 40.1952C41.8179 40.7739 42.2753 41.2984 42.7274 41.7993C42.9714 42.0697 43.1928 42.3626 43.5147 42.5474C43.7368 42.6748 43.9689 42.2803 44.0331 42.0879C44.0722 41.9706 43.9708 41.8728 43.9074 41.7816C43.6959 41.4775 43.43 41.2366 43.1338 41.0159C42.1071 40.2508 41.4826 39.2052 40.8367 38.1258C40.5717 37.6831 40.1966 37.2801 39.8707 36.879C39.5483 36.4823 39.248 36.0763 38.9361 35.6716C38.786 35.4767 38.6551 35.2667 38.4963 35.0786C38.4586 35.034 38.191 34.6673 38.2057 34.8587C38.2414 35.3221 38.3015 35.7092 38.5042 36.131C38.925 37.0067 39.2695 37.9457 39.8393 38.7384C39.9592 38.9052 39.9702 38.9079 39.8864 38.6873C39.6502 38.0656 39.5085 37.404 39.1737 36.8241C38.8394 36.2451 38.4605 35.6909 38.0801 35.1415" stroke="white" stroke-width="2" stroke-linecap="round"/>
<path d="M39.3531 35.5655C38.4573 34.6697 37.5457 33.7503 36.7477 32.7638C36.3008 32.2111 35.7687 31.6406 35.501 30.9712" stroke="white" stroke-width="2" stroke-linecap="round"/>
<path d="M38.2924 35.3535C37.5868 34.4926 36.7503 33.6937 36.1523 32.754C35.8733 32.3155 35.696 31.8511 35.4474 31.3992C35.1706 30.8958 34.9122 30.3206 34.558 29.8678C34.2821 29.515 33.9654 29.1955 33.6902 28.8429C33.3989 28.4696 33.157 28.052 32.9166 27.6452C32.6613 27.2132 32.3057 26.7584 31.9428 26.4161C31.8086 26.2896 31.6832 26.1515 31.554 26.0195C31.3719 25.8335 31.9039 26.4052 32.0822 26.5948C32.3087 26.8357 32.5193 27.0672 32.8028 27.231C33.2454 27.4867 33.5782 27.9004 33.9023 28.2853C34.1563 28.587 34.2647 29.072 34.5796 29.3082C34.8144 29.4843 35.0666 29.0965 35.1902 28.9646C35.2758 28.8734 35.4736 28.8113 35.5829 28.7604C35.7984 28.6603 36.0062 28.5759 36.1994 28.4345C36.2795 28.3759 36.3894 28.2818 36.49 28.2578C36.6106 28.2291 36.596 28.6698 36.596 28.7231C36.596 29.1206 36.4611 29.4508 36.1719 29.7343C36.0789 29.8254 35.9679 29.8737 35.8892 29.9817C35.8597 30.0222 35.7113 30.4027 35.7439 30.394C36.0334 30.3168 36.3258 30.0192 36.5764 29.8619C37.0946 29.5365 37.5814 29.2638 37.8605 28.6858C38.1273 28.1331 38.2613 27.6052 38.3199 27.0052C38.3257 26.946 38.3712 26.6469 38.3199 26.6046C38.2597 26.555 37.8962 26.8964 37.8369 26.9541C37.7486 27.04 37.4733 27.1912 37.4462 27.3134C37.3937 27.5494 37.1936 27.7937 37.0456 27.977C37.0259 28.0015 37.0095 28.0326 36.9809 28.0458C36.9206 28.0734 37.0411 27.9273 37.079 27.873C37.2654 27.6056 37.4757 27.3546 37.6896 27.1092C38.1359 26.5974 38.602 26.081 39.0974 25.6151C39.4274 25.3047 39.7237 24.9723 40.0732 24.6825C40.1667 24.605 40.2644 24.49 40.3913 24.4704C40.5281 24.4494 40.4929 24.9493 40.4875 25.0064C40.4382 25.5254 40.1724 25.936 39.8317 26.314C39.7 26.4602 39.5682 26.5608 39.3919 26.6439C39.1737 26.7468 38.9556 26.8499 38.7361 26.9502C38.7067 26.9637 38.4687 27.0729 38.4043 27.0974C38.3246 27.1278 38.3769 27.0903 38.4181 27.0484C39.3452 26.1015 40.1606 25.0525 41.0137 24.0444C41.0898 23.9543 41.1535 23.8549 41.2257 23.7616C41.2614 23.7156 41.5948 23.381 41.4476 23.4652C40.8992 23.7785 40.5136 24.3068 39.9888 24.6491C39.9353 24.684 40.216 24.3207 40.2538 24.2839C40.638 23.9101 41.076 23.6597 41.5948 23.53C41.6875 23.5068 41.839 23.4269 41.8697 23.5496C41.9124 23.7206 41.8841 23.8698 41.7912 24.0208C41.5499 24.4128 41.0227 24.4981 40.7663 24.8572" stroke="white" stroke-width="2" stroke-linecap="round"/>
<path d="M40.3779 23.8677C40.7195 23.4999 41.0692 23.1401 41.4107 22.7721C41.7247 22.4337 42.118 22.1854 42.4552 21.8729C43.0169 21.3523 43.5383 20.7519 43.967 20.1176C44.0729 19.961 44.2296 19.6152 44.13 20.0548C43.9961 20.6452 43.6423 21.0852 43.3093 21.5705C43.0993 21.8766 42.9343 22.1876 42.6555 22.4423C42.2687 22.7956 41.8625 23.09 41.552 23.5143C41.5225 23.5546 41.4538 23.6743 41.5658 23.5771C41.9114 23.2769 42.1501 22.8645 42.4002 22.4874C42.5761 22.2223 42.7259 21.951 42.8793 21.6726C42.9348 21.5719 43.0335 21.3009 43.1679 21.2642C43.3426 21.2166 43.0151 22.0444 43.0128 22.0496C42.7965 22.5362 42.5099 23.063 42.1293 23.4436C42.0303 23.5426 41.9733 23.5857 41.8603 23.6576C41.8099 23.6897 41.6503 23.7431 41.7091 23.7538C41.8512 23.7796 42.2688 23.3221 42.359 23.2473C42.6559 23.0007 42.9251 22.7332 43.2091 22.4737C43.4515 22.2522 43.7337 22.0831 43.9788 21.865C44.5491 21.3576 45.0509 20.8514 45.5142 20.2433C45.7279 19.9627 45.9044 19.6751 46.0286 19.344C46.091 19.1774 46.3227 18.6618 46.1935 18.4841C46.0147 18.2383 44.5918 19.6886 44.3715 19.8702C44.3012 19.9282 44.135 20.0471 44.2851 19.8899C44.6995 19.4557 45.0951 19.0044 45.5102 18.5705C46.0896 17.9648 46.5405 17.2408 47.1987 16.7288C47.3543 16.6078 47.5446 16.5754 47.6935 16.4265C47.7877 16.3323 47.8937 16.2527 48.0077 16.183C48.0902 16.1325 48.1761 16.0302 48.2649 16.0063C48.3991 15.9702 48.5017 15.9478 48.6202 15.8885C48.7731 15.812 48.7205 16.4154 48.7106 16.4539C48.5897 16.9229 48.3078 17.2509 48.0057 17.6202C47.737 17.9486 47.3945 18.2502 47.1634 18.6058C47.0227 18.8222 46.8622 19.0207 46.7118 19.2302C46.5685 19.4298 46.63 19.2738 46.6372 19.0731C46.6584 18.4861 46.7134 17.9012 46.7315 17.3139C46.7412 16.9954 46.712 16.6466 46.7923 16.3342C46.8326 16.1775 46.9205 16.1162 47.0692 16.077C47.7344 15.9014 48.4313 15.7039 49.1229 15.7039C49.2884 15.7039 49.2959 15.5979 49.4606 15.5979" stroke="white" stroke-width="2" stroke-linecap="round"/>
<path d="M20.7281 17.6124C20.4081 17.559 20.0944 17.313 19.8092 17.1686C19.6362 17.081 19.4755 17.0318 19.2948 16.9762C18.9309 16.8642 18.5425 16.7338 18.1639 16.6935C18.0603 16.6825 17.9307 16.6006 17.8498 16.5345C17.6552 16.3752 17.2527 16.3103 16.9996 16.2714C16.4344 16.1844 18.1378 16.4108 18.7097 16.4108C19.5625 16.4108 20.4146 16.3818 21.2661 16.3754C21.698 16.3722 22.13 16.3787 22.5619 16.3754C22.7366 16.3741 23.3523 16.2245 23.467 16.3774C23.5204 16.4486 23.6124 16.549 23.5083 16.6248C23.1829 16.8614 22.6926 16.9062 22.3106 16.9762C21.9362 17.0448 21.5449 17.0481 21.1836 17.1804C21.1538 17.1913 21.0323 17.2414 21.1286 17.2589C21.4738 17.3217 21.8874 17.2282 22.2223 17.151C22.5922 17.0656 22.9318 16.8908 23.308 16.8172C23.5836 16.7633 23.8522 16.7038 24.1287 16.6542C24.4352 16.5992 24.7231 16.481 25.0279 16.4284C25.3163 16.3787 25.388 16.4653 25.5463 16.7131C25.6704 16.9074 25.8825 17.1387 25.9507 17.3571C26.0012 17.5187 25.5856 17.471 25.5345 17.471C25.3942 17.471 25.2506 17.4792 25.1104 17.471C25.011 17.4651 25.2873 16.9243 25.3362 16.8604C25.4418 16.7223 25.5739 16.6411 25.7308 16.5698C26.0446 16.4272 26.2587 17.2028 26.312 17.3767C26.3734 17.5772 26.5013 17.7632 26.5947 17.9501C26.697 18.1547 26.755 18.3832 26.8401 18.596C26.9653 18.9088 27.0766 19.1771 27.2662 19.4697C27.4806 19.8007 27.6726 20.1203 27.9377 20.4121C28.6703 21.2187 29.1564 22.2475 29.8029 23.1255C30.0647 23.481 30.3557 23.8484 30.5451 24.2486C30.7208 24.62 30.8782 24.9996 31.0654 25.3658C31.3545 25.9315 31.8242 26.307 32.2944 26.7048C32.4143 26.8062 32.6135 27.0396 32.7833 27.0523C32.8353 27.0562 32.8147 26.9037 32.8147 26.8756C32.8147 26.6675 32.6141 26.4193 32.532 26.2277C32.2819 25.6441 31.7993 25.0471 31.3422 24.6138C30.9642 24.2555 30.6608 23.8142 30.3369 23.4083C29.8022 22.7381 29.2975 22.0324 28.8016 21.333C28.529 20.9485 28.2755 20.5272 28.0437 20.1176C27.8149 19.7134 27.6817 19.2257 27.4154 18.8454C27.2897 18.6658 27.1685 18.4595 26.9756 18.3506C25.8638 17.7228 24.6199 17.4138 23.4081 17.041C22.7795 16.8476 22.1856 16.6803 21.539 16.5757C20.9935 16.4874 20.4228 16.4491 19.8721 16.4147C19.4824 16.3903 19.0867 16.4108 18.696 16.4108C18.424 16.4108 18.1214 16.448 17.8537 16.3754C17.5529 16.2938 17.2615 16.2694 16.9466 16.2694C16.7198 16.2694 16.8307 16.3369 16.9407 16.4814C17.1195 16.7163 17.3024 16.9388 17.4964 17.1608C17.7203 17.4171 17.8894 17.7407 18.0775 18.0247C18.2857 18.3388 18.4956 18.621 18.7274 18.916C18.9764 19.233 19.2619 19.5157 19.5167 19.829C19.777 20.1491 20.0444 20.462 20.2962 20.7891C20.5174 21.0765 20.3475 20.6654 20.3138 20.5358C20.1948 20.0779 20.0477 19.611 19.9506 19.1497C19.9329 19.0658 19.8714 19.0242 19.825 18.9553C19.771 18.8752 19.6528 18.6231 19.6561 18.7197C19.6576 18.7635 19.7459 18.9073 19.7464 18.9082C19.9148 19.1883 20.1024 19.4589 20.2863 19.7289C20.5619 20.1334 20.8582 20.5219 21.1444 20.9187C21.5164 21.4346 21.8567 22.0241 22.1516 22.5876C22.3701 23.0051 22.6044 23.4147 22.8152 23.8363C22.8654 23.9368 23.0292 24.1499 23.0292 24.2643C23.0292 24.4412 22.857 23.9552 22.7779 23.797" stroke="white" stroke-width="2" stroke-linecap="round"/>
<path d="M21.7526 21.4998C21.8389 21.7693 21.549 21.536 21.4071 21.4762C21.1645 21.3741 21.1744 21.5493 21.1185 21.759C21.044 22.0383 21.1796 22.3751 21.3639 22.5875C21.4256 22.6586 21.9392 23.1277 22.0138 22.8958C22.1195 22.5669 21.7945 21.6374 22.4045 21.8159C22.7299 21.9111 23.019 22.2456 23.2645 22.4697C23.4668 22.6545 23.6588 22.9561 23.7808 23.2001C23.8913 23.421 23.8614 23.4767 23.6414 23.5692C23.383 23.6779 23.1166 23.8014 23.0642 24.1091C23.0221 24.3564 22.9818 24.9596 23.1938 25.1517C23.2844 25.2338 23.8015 24.5921 23.9202 24.5313C24.0845 24.4471 24.2356 24.6302 24.3581 24.7198C24.464 24.7972 24.7578 24.9346 24.8195 25.0692C24.8935 25.2308 24.6825 25.4247 24.5721 25.5012C24.2304 25.7378 23.7008 25.8587 23.824 26.3926C23.9527 26.9503 24.5063 26.3886 24.7488 26.2394C24.9841 26.0946 25.036 26.0941 25.3299 26.0941C25.5387 26.0941 25.6338 26.2008 25.6892 26.4102C25.7475 26.6302 25.6673 26.8341 25.4909 26.9698C25.3901 27.0474 25.0394 27.1247 25.0394 27.2643C25.0394 27.5364 25.2169 28.0505 25.5498 27.7709C25.8073 27.5546 26.0602 27.1474 26.4451 27.3546C26.5738 27.4239 26.8771 27.5327 26.8771 27.7198C26.8771 27.9545 26.47 28.1106 26.294 28.1753C26.0738 28.2562 25.6845 28.2477 25.5223 28.4423C25.4384 28.543 25.5988 28.7641 25.6402 28.8468C25.7472 29.0609 25.8659 29.0597 26.0917 28.9685C26.32 28.8764 26.4092 28.6474 26.6101 28.5327C26.7829 28.4339 27.0146 28.3852 27.203 28.513C27.3229 28.5944 27.469 28.8066 27.417 28.9567C27.3274 29.2157 26.9624 29.2854 26.7436 29.3808C26.5943 29.4459 26.3399 29.5711 26.2527 29.7126C26.2331 29.7445 26.3541 29.9617 26.3902 29.9738C26.5979 30.043 26.9376 29.7623 27.0872 29.6439C27.2517 29.5137 27.3467 29.3254 27.5839 29.3533C27.6852 29.3653 27.9689 29.4074 28.0276 29.4927C28.1374 29.6525 28.1021 29.9724 27.9452 30.0994C27.6717 30.3208 26.6644 30.2587 26.8064 30.8102C26.9432 31.3414 27.627 30.8397 27.8706 30.6413C28.1007 30.4538 28.8346 30.5806 28.8837 30.9241C28.9238 31.2049 28.575 31.4518 28.3496 31.5484C28.2503 31.591 28.0329 31.6375 28.0001 31.7487C27.967 31.8613 27.9673 31.9665 28.008 32.0785C28.0479 32.1883 28.3737 31.9795 28.4085 31.9529C28.709 31.7226 29.1398 31.2368 29.3981 31.8272C29.5407 32.1532 29.2761 32.3378 29.0133 32.4712C28.8369 32.5607 28.4059 32.659 28.2986 32.8443C28.2076 33.0015 28.7041 32.9314 28.7345 32.9267C29.0074 32.8844 29.2927 32.6015 29.563 32.6401C29.7337 32.6644 29.9531 32.7311 29.8143 32.9503C29.6677 33.1817 29.2582 33.2689 29.0211 33.3822C28.9137 33.4335 28.7608 33.5524 28.9661 33.5825C29.1659 33.6117 29.3909 33.5591 29.5787 33.4941C29.6937 33.4543 29.8209 33.2619 29.9243 33.2566C30.3685 33.2337 30.8975 33.572 30.9688 34.0262C31.0009 34.2308 30.9622 34.4497 30.906 34.6466" stroke="white" stroke-width="2" stroke-linecap="round"/>
</svg>
